M48
; DRILL file {KiCad 9.0.6} date 2026-03-17T22:06:48+0900
; FORMAT={-:-/ absolute / inch / decimal}
; #@! TF.CreationDate,2026-03-17T22:06:48+09:00
; #@! TF.GenerationSoftware,Kicad,Pcbnew,9.0.6
; #@! TF.FileFunction,Plated,1,2,PTH
FMAT,2
INCH
; #@! TA.AperFunction,Plated,PTH,ViaDrill
T1C0.0118
; #@! TA.AperFunction,Plated,PTH,ComponentDrill
T2C0.0374
%
G90
G05
T1
X4.8573Y-4.8445
X4.9774Y-5.1378
X4.999Y-5.3376
X5.0394Y-5.1378
X5.2313Y-4.1673
X5.2943Y-4.1673
X5.3174Y-4.4823
X5.3425Y-4.5974
X5.3794Y-4.4823
X5.4154Y-4.5974
X5.4602Y-2.4291
X5.488Y-4.9733
X5.4906Y-3.1122
X5.5222Y-2.4291
X5.5645Y-3.1122
X5.6053Y-3.8091
X5.6379Y-4.3052
X5.6708Y-4.3391
X5.6791Y-3.8091
X5.6841Y-4.5856
X5.7393Y-4.2372
X5.7943Y-4.2904
X6.1658Y-3.2933
X6.2397Y-3.2933
X6.6728Y-2.7323
X6.7348Y-2.7323
T2
X4.7836Y-5.325
X4.872Y-5.3681
X4.9605Y-5.4113
M30
