%TF.GenerationSoftware,KiCad,Pcbnew,9.0.6*%
%TF.CreationDate,2026-03-17T22:06:48+09:00*%
%TF.ProjectId,HW-LEEK-001,48572d4c-4545-44b2-9d30-30312e6b6963,rev?*%
%TF.SameCoordinates,Original*%
%TF.FileFunction,Legend,Bot*%
%TF.FilePolarity,Positive*%
%FSLAX46Y46*%
G04 Gerber Fmt 4.6, Leading zero omitted, Abs format (unit mm)*
G04 Created by KiCad (PCBNEW 9.0.6) date 2026-03-17 22:06:48*
%MOMM*%
%LPD*%
G01*
G04 APERTURE LIST*
G04 Aperture macros list*
%AMRoundRect*
0 Rectangle with rounded corners*
0 $1 Rounding radius*
0 $2 $3 $4 $5 $6 $7 $8 $9 X,Y pos of 4 corners*
0 Add a 4 corners polygon primitive as box body*
4,1,4,$2,$3,$4,$5,$6,$7,$8,$9,$2,$3,0*
0 Add four circle primitives for the rounded corners*
1,1,$1+$1,$2,$3*
1,1,$1+$1,$4,$5*
1,1,$1+$1,$6,$7*
1,1,$1+$1,$8,$9*
0 Add four rect primitives between the rounded corners*
20,1,$1+$1,$2,$3,$4,$5,0*
20,1,$1+$1,$4,$5,$6,$7,0*
20,1,$1+$1,$6,$7,$8,$9,0*
20,1,$1+$1,$8,$9,$2,$3,0*%
%AMHorizOval*
0 Thick line with rounded ends*
0 $1 width*
0 $2 $3 position (X,Y) of the first rounded end (center of the circle)*
0 $4 $5 position (X,Y) of the second rounded end (center of the circle)*
0 Add line between two ends*
20,1,$1,$2,$3,$4,$5,0*
0 Add two circle primitives to create the rounded ends*
1,1,$1,$2,$3*
1,1,$1,$4,$5*%
%AMRotRect*
0 Rectangle, with rotation*
0 The origin of the aperture is its center*
0 $1 length*
0 $2 width*
0 $3 Rotation angle, in degrees counterclockwise*
0 Add horizontal line*
21,1,$1,$2,0,0,$3*%
G04 Aperture macros list end*
%ADD10C,0.200000*%
%ADD11C,0.100000*%
%ADD12C,0.254000*%
%ADD13C,0.120000*%
%ADD14C,0.000000*%
%ADD15RotRect,1.250000X0.900000X183.000000*%
%ADD16RotRect,0.800000X0.900000X93.000000*%
%ADD17R,1.000000X0.750000*%
%ADD18RoundRect,0.150000X-0.825000X-0.150000X0.825000X-0.150000X0.825000X0.150000X-0.825000X0.150000X0*%
%ADD19RoundRect,0.135000X0.135000X0.185000X-0.135000X0.185000X-0.135000X-0.185000X0.135000X-0.185000X0*%
%ADD20RoundRect,0.250000X-0.857096X-0.388603X0.221457X-0.914648X0.857096X0.388603X-0.221457X0.914648X0*%
%ADD21HorizOval,1.700000X-0.054796X-0.112349X0.054796X0.112349X0*%
%ADD22RoundRect,0.135000X-0.135000X-0.185000X0.135000X-0.185000X0.135000X0.185000X-0.135000X0.185000X0*%
%ADD23RoundRect,0.140000X-0.170000X0.140000X-0.170000X-0.140000X0.170000X-0.140000X0.170000X0.140000X0*%
%ADD24RotRect,3.900000X4.180000X155.000000*%
%ADD25C,7.000000*%
G04 APERTURE END LIST*
D10*
X125862982Y-125951417D02*
X126153508Y-125298884D01*
X126153508Y-125298884D02*
X126168112Y-125149009D01*
X126168112Y-125149009D02*
X126119844Y-125023268D01*
X126119844Y-125023268D02*
X126008706Y-124921661D01*
X126008706Y-124921661D02*
X125921702Y-124882924D01*
X127139762Y-125425239D02*
X126704741Y-125231555D01*
X126704741Y-125231555D02*
X126298004Y-126145101D01*
X127927567Y-125880244D02*
X127903433Y-125817373D01*
X127903433Y-125817373D02*
X127792295Y-125715766D01*
X127792295Y-125715766D02*
X127705291Y-125677029D01*
X127705291Y-125677029D02*
X127555416Y-125662426D01*
X127555416Y-125662426D02*
X127429675Y-125710693D01*
X127429675Y-125710693D02*
X127347436Y-125778329D01*
X127347436Y-125778329D02*
X127226460Y-125932969D01*
X127226460Y-125932969D02*
X127168355Y-126063476D01*
X127168355Y-126063476D02*
X127134383Y-126256853D01*
X127134383Y-126256853D02*
X127139149Y-126363226D01*
X127139149Y-126363226D02*
X127187416Y-126488967D01*
X127187416Y-126488967D02*
X127298554Y-126590574D01*
X127298554Y-126590574D02*
X127385558Y-126629311D01*
X127385558Y-126629311D02*
X127535433Y-126643914D01*
X127535433Y-126643914D02*
X127598304Y-126619780D01*
X128212100Y-126997311D02*
X128502626Y-126344778D01*
X128502626Y-126344778D02*
X128517229Y-126194904D01*
X128517229Y-126194904D02*
X128468961Y-126069162D01*
X128468961Y-126069162D02*
X128357823Y-125967555D01*
X128357823Y-125967555D02*
X128270819Y-125928818D01*
X129488880Y-126471134D02*
X129053858Y-126277450D01*
X129053858Y-126277450D02*
X128647121Y-127190995D01*
X130276684Y-126926138D02*
X130252550Y-126863267D01*
X130252550Y-126863267D02*
X130141412Y-126761660D01*
X130141412Y-126761660D02*
X130054408Y-126722923D01*
X130054408Y-126722923D02*
X129904533Y-126708320D01*
X129904533Y-126708320D02*
X129778792Y-126756588D01*
X129778792Y-126756588D02*
X129696553Y-126824224D01*
X129696553Y-126824224D02*
X129575577Y-126978864D01*
X129575577Y-126978864D02*
X129517472Y-127109370D01*
X129517472Y-127109370D02*
X129483500Y-127302747D01*
X129483500Y-127302747D02*
X129488266Y-127409120D01*
X129488266Y-127409120D02*
X129536533Y-127534861D01*
X129536533Y-127534861D02*
X129647671Y-127636469D01*
X129647671Y-127636469D02*
X129734676Y-127675205D01*
X129734676Y-127675205D02*
X129884551Y-127689809D01*
X129884551Y-127689809D02*
X129947421Y-127665675D01*
X130561217Y-128043205D02*
X130851743Y-127390673D01*
X130851743Y-127390673D02*
X130866346Y-127240798D01*
X130866346Y-127240798D02*
X130818079Y-127115057D01*
X130818079Y-127115057D02*
X130706940Y-127013449D01*
X130706940Y-127013449D02*
X130619936Y-126974713D01*
X131837997Y-127517028D02*
X131402975Y-127323344D01*
X131402975Y-127323344D02*
X130996239Y-128236890D01*
X132625801Y-127972032D02*
X132601668Y-127909162D01*
X132601668Y-127909162D02*
X132490530Y-127807554D01*
X132490530Y-127807554D02*
X132403525Y-127768818D01*
X132403525Y-127768818D02*
X132253650Y-127754215D01*
X132253650Y-127754215D02*
X132127909Y-127802482D01*
X132127909Y-127802482D02*
X132045670Y-127870118D01*
X132045670Y-127870118D02*
X131924694Y-128024758D01*
X131924694Y-128024758D02*
X131866589Y-128155265D01*
X131866589Y-128155265D02*
X131832618Y-128348642D01*
X131832618Y-128348642D02*
X131837383Y-128455015D01*
X131837383Y-128455015D02*
X131885651Y-128580756D01*
X131885651Y-128580756D02*
X131996789Y-128682363D01*
X131996789Y-128682363D02*
X132083793Y-128721100D01*
X132083793Y-128721100D02*
X132233668Y-128735703D01*
X132233668Y-128735703D02*
X132296538Y-128711569D01*
X132910334Y-129089100D02*
X133200860Y-128436567D01*
X133200860Y-128436567D02*
X133215463Y-128286692D01*
X133215463Y-128286692D02*
X133167196Y-128160951D01*
X133167196Y-128160951D02*
X133056058Y-128059344D01*
X133056058Y-128059344D02*
X132969053Y-128020607D01*
X134187114Y-128562923D02*
X133752093Y-128369238D01*
X133752093Y-128369238D02*
X133345356Y-129282784D01*
X134974919Y-129017927D02*
X134950785Y-128955056D01*
X134950785Y-128955056D02*
X134839647Y-128853449D01*
X134839647Y-128853449D02*
X134752643Y-128814712D01*
X134752643Y-128814712D02*
X134602768Y-128800109D01*
X134602768Y-128800109D02*
X134477027Y-128848376D01*
X134477027Y-128848376D02*
X134394788Y-128916012D01*
X134394788Y-128916012D02*
X134273812Y-129070653D01*
X134273812Y-129070653D02*
X134215706Y-129201159D01*
X134215706Y-129201159D02*
X134181735Y-129394536D01*
X134181735Y-129394536D02*
X134186500Y-129500909D01*
X134186500Y-129500909D02*
X134234768Y-129626650D01*
X134234768Y-129626650D02*
X134345906Y-129728257D01*
X134345906Y-129728257D02*
X134432910Y-129766994D01*
X134432910Y-129766994D02*
X134582785Y-129781597D01*
X134582785Y-129781597D02*
X134645656Y-129757464D01*
D11*
X122349687Y-128327180D02*
X122397306Y-128374800D01*
X122397306Y-128374800D02*
X122540163Y-128422419D01*
X122540163Y-128422419D02*
X122635401Y-128422419D01*
X122635401Y-128422419D02*
X122778258Y-128374800D01*
X122778258Y-128374800D02*
X122873496Y-128279561D01*
X122873496Y-128279561D02*
X122921115Y-128184323D01*
X122921115Y-128184323D02*
X122968734Y-127993847D01*
X122968734Y-127993847D02*
X122968734Y-127850990D01*
X122968734Y-127850990D02*
X122921115Y-127660514D01*
X122921115Y-127660514D02*
X122873496Y-127565276D01*
X122873496Y-127565276D02*
X122778258Y-127470038D01*
X122778258Y-127470038D02*
X122635401Y-127422419D01*
X122635401Y-127422419D02*
X122540163Y-127422419D01*
X122540163Y-127422419D02*
X122397306Y-127470038D01*
X122397306Y-127470038D02*
X122349687Y-127517657D01*
X121349687Y-128422419D02*
X121683020Y-127946228D01*
X121921115Y-128422419D02*
X121921115Y-127422419D01*
X121921115Y-127422419D02*
X121540163Y-127422419D01*
X121540163Y-127422419D02*
X121444925Y-127470038D01*
X121444925Y-127470038D02*
X121397306Y-127517657D01*
X121397306Y-127517657D02*
X121349687Y-127612895D01*
X121349687Y-127612895D02*
X121349687Y-127755752D01*
X121349687Y-127755752D02*
X121397306Y-127850990D01*
X121397306Y-127850990D02*
X121444925Y-127898609D01*
X121444925Y-127898609D02*
X121540163Y-127946228D01*
X121540163Y-127946228D02*
X121921115Y-127946228D01*
X120397306Y-128422419D02*
X120968734Y-128422419D01*
X120683020Y-128422419D02*
X120683020Y-127422419D01*
X120683020Y-127422419D02*
X120778258Y-127565276D01*
X120778258Y-127565276D02*
X120873496Y-127660514D01*
X120873496Y-127660514D02*
X120968734Y-127708133D01*
X120016353Y-127517657D02*
X119968734Y-127470038D01*
X119968734Y-127470038D02*
X119873496Y-127422419D01*
X119873496Y-127422419D02*
X119635401Y-127422419D01*
X119635401Y-127422419D02*
X119540163Y-127470038D01*
X119540163Y-127470038D02*
X119492544Y-127517657D01*
X119492544Y-127517657D02*
X119444925Y-127612895D01*
X119444925Y-127612895D02*
X119444925Y-127708133D01*
X119444925Y-127708133D02*
X119492544Y-127850990D01*
X119492544Y-127850990D02*
X120063972Y-128422419D01*
X120063972Y-128422419D02*
X119444925Y-128422419D01*
X119063972Y-127517657D02*
X119016353Y-127470038D01*
X119016353Y-127470038D02*
X118921115Y-127422419D01*
X118921115Y-127422419D02*
X118683020Y-127422419D01*
X118683020Y-127422419D02*
X118587782Y-127470038D01*
X118587782Y-127470038D02*
X118540163Y-127517657D01*
X118540163Y-127517657D02*
X118492544Y-127612895D01*
X118492544Y-127612895D02*
X118492544Y-127708133D01*
X118492544Y-127708133D02*
X118540163Y-127850990D01*
X118540163Y-127850990D02*
X119111591Y-128422419D01*
X119111591Y-128422419D02*
X118492544Y-128422419D01*
X117873496Y-127422419D02*
X117778258Y-127422419D01*
X117778258Y-127422419D02*
X117683020Y-127470038D01*
X117683020Y-127470038D02*
X117635401Y-127517657D01*
X117635401Y-127517657D02*
X117587782Y-127612895D01*
X117587782Y-127612895D02*
X117540163Y-127803371D01*
X117540163Y-127803371D02*
X117540163Y-128041466D01*
X117540163Y-128041466D02*
X117587782Y-128231942D01*
X117587782Y-128231942D02*
X117635401Y-128327180D01*
X117635401Y-128327180D02*
X117683020Y-128374800D01*
X117683020Y-128374800D02*
X117778258Y-128422419D01*
X117778258Y-128422419D02*
X117873496Y-128422419D01*
X117873496Y-128422419D02*
X117968734Y-128374800D01*
X117968734Y-128374800D02*
X118016353Y-128327180D01*
X118016353Y-128327180D02*
X118063972Y-128231942D01*
X118063972Y-128231942D02*
X118111591Y-128041466D01*
X118111591Y-128041466D02*
X118111591Y-127803371D01*
X118111591Y-127803371D02*
X118063972Y-127612895D01*
X118063972Y-127612895D02*
X118016353Y-127517657D01*
X118016353Y-127517657D02*
X117968734Y-127470038D01*
X117968734Y-127470038D02*
X117873496Y-127422419D01*
X180249687Y-68002180D02*
X180297306Y-68049800D01*
X180297306Y-68049800D02*
X180440163Y-68097419D01*
X180440163Y-68097419D02*
X180535401Y-68097419D01*
X180535401Y-68097419D02*
X180678258Y-68049800D01*
X180678258Y-68049800D02*
X180773496Y-67954561D01*
X180773496Y-67954561D02*
X180821115Y-67859323D01*
X180821115Y-67859323D02*
X180868734Y-67668847D01*
X180868734Y-67668847D02*
X180868734Y-67525990D01*
X180868734Y-67525990D02*
X180821115Y-67335514D01*
X180821115Y-67335514D02*
X180773496Y-67240276D01*
X180773496Y-67240276D02*
X180678258Y-67145038D01*
X180678258Y-67145038D02*
X180535401Y-67097419D01*
X180535401Y-67097419D02*
X180440163Y-67097419D01*
X180440163Y-67097419D02*
X180297306Y-67145038D01*
X180297306Y-67145038D02*
X180249687Y-67192657D01*
X179821115Y-68097419D02*
X179821115Y-67097419D01*
X179392544Y-68097419D02*
X179392544Y-67573609D01*
X179392544Y-67573609D02*
X179440163Y-67478371D01*
X179440163Y-67478371D02*
X179535401Y-67430752D01*
X179535401Y-67430752D02*
X179678258Y-67430752D01*
X179678258Y-67430752D02*
X179773496Y-67478371D01*
X179773496Y-67478371D02*
X179821115Y-67525990D01*
X178487782Y-68097419D02*
X178487782Y-67573609D01*
X178487782Y-67573609D02*
X178535401Y-67478371D01*
X178535401Y-67478371D02*
X178630639Y-67430752D01*
X178630639Y-67430752D02*
X178821115Y-67430752D01*
X178821115Y-67430752D02*
X178916353Y-67478371D01*
X178487782Y-68049800D02*
X178583020Y-68097419D01*
X178583020Y-68097419D02*
X178821115Y-68097419D01*
X178821115Y-68097419D02*
X178916353Y-68049800D01*
X178916353Y-68049800D02*
X178963972Y-67954561D01*
X178963972Y-67954561D02*
X178963972Y-67859323D01*
X178963972Y-67859323D02*
X178916353Y-67764085D01*
X178916353Y-67764085D02*
X178821115Y-67716466D01*
X178821115Y-67716466D02*
X178583020Y-67716466D01*
X178583020Y-67716466D02*
X178487782Y-67668847D01*
X178011591Y-67430752D02*
X178011591Y-68097419D01*
X178011591Y-67525990D02*
X177963972Y-67478371D01*
X177963972Y-67478371D02*
X177868734Y-67430752D01*
X177868734Y-67430752D02*
X177725877Y-67430752D01*
X177725877Y-67430752D02*
X177630639Y-67478371D01*
X177630639Y-67478371D02*
X177583020Y-67573609D01*
X177583020Y-67573609D02*
X177583020Y-68097419D01*
X176678258Y-67430752D02*
X176678258Y-68240276D01*
X176678258Y-68240276D02*
X176725877Y-68335514D01*
X176725877Y-68335514D02*
X176773496Y-68383133D01*
X176773496Y-68383133D02*
X176868734Y-68430752D01*
X176868734Y-68430752D02*
X177011591Y-68430752D01*
X177011591Y-68430752D02*
X177106829Y-68383133D01*
X176678258Y-68049800D02*
X176773496Y-68097419D01*
X176773496Y-68097419D02*
X176963972Y-68097419D01*
X176963972Y-68097419D02*
X177059210Y-68049800D01*
X177059210Y-68049800D02*
X177106829Y-68002180D01*
X177106829Y-68002180D02*
X177154448Y-67906942D01*
X177154448Y-67906942D02*
X177154448Y-67621228D01*
X177154448Y-67621228D02*
X177106829Y-67525990D01*
X177106829Y-67525990D02*
X177059210Y-67478371D01*
X177059210Y-67478371D02*
X176963972Y-67430752D01*
X176963972Y-67430752D02*
X176773496Y-67430752D01*
X176773496Y-67430752D02*
X176678258Y-67478371D01*
X175821115Y-68049800D02*
X175916353Y-68097419D01*
X175916353Y-68097419D02*
X176106829Y-68097419D01*
X176106829Y-68097419D02*
X176202067Y-68049800D01*
X176202067Y-68049800D02*
X176249686Y-67954561D01*
X176249686Y-67954561D02*
X176249686Y-67573609D01*
X176249686Y-67573609D02*
X176202067Y-67478371D01*
X176202067Y-67478371D02*
X176106829Y-67430752D01*
X176106829Y-67430752D02*
X175916353Y-67430752D01*
X175916353Y-67430752D02*
X175821115Y-67478371D01*
X175821115Y-67478371D02*
X175773496Y-67573609D01*
X175773496Y-67573609D02*
X175773496Y-67668847D01*
X175773496Y-67668847D02*
X176249686Y-67764085D01*
X174583019Y-68097419D02*
X174583019Y-67097419D01*
X174583019Y-67097419D02*
X174202067Y-67097419D01*
X174202067Y-67097419D02*
X174106829Y-67145038D01*
X174106829Y-67145038D02*
X174059210Y-67192657D01*
X174059210Y-67192657D02*
X174011591Y-67287895D01*
X174011591Y-67287895D02*
X174011591Y-67430752D01*
X174011591Y-67430752D02*
X174059210Y-67525990D01*
X174059210Y-67525990D02*
X174106829Y-67573609D01*
X174106829Y-67573609D02*
X174202067Y-67621228D01*
X174202067Y-67621228D02*
X174583019Y-67621228D01*
X173154448Y-68097419D02*
X173154448Y-67573609D01*
X173154448Y-67573609D02*
X173202067Y-67478371D01*
X173202067Y-67478371D02*
X173297305Y-67430752D01*
X173297305Y-67430752D02*
X173487781Y-67430752D01*
X173487781Y-67430752D02*
X173583019Y-67478371D01*
X173154448Y-68049800D02*
X173249686Y-68097419D01*
X173249686Y-68097419D02*
X173487781Y-68097419D01*
X173487781Y-68097419D02*
X173583019Y-68049800D01*
X173583019Y-68049800D02*
X173630638Y-67954561D01*
X173630638Y-67954561D02*
X173630638Y-67859323D01*
X173630638Y-67859323D02*
X173583019Y-67764085D01*
X173583019Y-67764085D02*
X173487781Y-67716466D01*
X173487781Y-67716466D02*
X173249686Y-67716466D01*
X173249686Y-67716466D02*
X173154448Y-67668847D01*
X172821114Y-67430752D02*
X172440162Y-67430752D01*
X172678257Y-67097419D02*
X172678257Y-67954561D01*
X172678257Y-67954561D02*
X172630638Y-68049800D01*
X172630638Y-68049800D02*
X172535400Y-68097419D01*
X172535400Y-68097419D02*
X172440162Y-68097419D01*
X172249685Y-67430752D02*
X171868733Y-67430752D01*
X172106828Y-67097419D02*
X172106828Y-67954561D01*
X172106828Y-67954561D02*
X172059209Y-68049800D01*
X172059209Y-68049800D02*
X171963971Y-68097419D01*
X171963971Y-68097419D02*
X171868733Y-68097419D01*
X171154447Y-68049800D02*
X171249685Y-68097419D01*
X171249685Y-68097419D02*
X171440161Y-68097419D01*
X171440161Y-68097419D02*
X171535399Y-68049800D01*
X171535399Y-68049800D02*
X171583018Y-67954561D01*
X171583018Y-67954561D02*
X171583018Y-67573609D01*
X171583018Y-67573609D02*
X171535399Y-67478371D01*
X171535399Y-67478371D02*
X171440161Y-67430752D01*
X171440161Y-67430752D02*
X171249685Y-67430752D01*
X171249685Y-67430752D02*
X171154447Y-67478371D01*
X171154447Y-67478371D02*
X171106828Y-67573609D01*
X171106828Y-67573609D02*
X171106828Y-67668847D01*
X171106828Y-67668847D02*
X171583018Y-67764085D01*
X170678256Y-68097419D02*
X170678256Y-67430752D01*
X170678256Y-67621228D02*
X170630637Y-67525990D01*
X170630637Y-67525990D02*
X170583018Y-67478371D01*
X170583018Y-67478371D02*
X170487780Y-67430752D01*
X170487780Y-67430752D02*
X170392542Y-67430752D01*
X170059208Y-67430752D02*
X170059208Y-68097419D01*
X170059208Y-67525990D02*
X170011589Y-67478371D01*
X170011589Y-67478371D02*
X169916351Y-67430752D01*
X169916351Y-67430752D02*
X169773494Y-67430752D01*
X169773494Y-67430752D02*
X169678256Y-67478371D01*
X169678256Y-67478371D02*
X169630637Y-67573609D01*
X169630637Y-67573609D02*
X169630637Y-68097419D01*
X168344922Y-67859323D02*
X168059208Y-67859323D01*
X168297303Y-67002180D02*
X168297303Y-67859323D01*
X168011589Y-67668847D02*
X168011589Y-67859323D01*
X167963970Y-67287895D02*
X168535398Y-67383133D01*
X167630637Y-68097419D02*
X167392541Y-68097419D01*
X168011589Y-67097419D02*
X167297303Y-67097419D01*
X167297303Y-67097419D02*
X167297303Y-67716466D01*
X167297303Y-67716466D02*
X167392541Y-68049800D01*
X167678256Y-67097419D02*
X167678256Y-67383133D01*
X167678256Y-67383133D02*
X167773494Y-67668847D01*
X167773494Y-67668847D02*
X167868732Y-67906942D01*
X167868732Y-67906942D02*
X168106827Y-68097419D01*
X167059208Y-67240276D02*
X166725875Y-67240276D01*
X167011589Y-68097419D02*
X166868732Y-68097419D01*
X166868732Y-66954561D02*
X166868732Y-68097419D01*
X166725875Y-67573609D02*
X167059208Y-67668847D01*
X166678256Y-67668847D02*
X165821113Y-67668847D01*
X166535399Y-67240276D02*
X166535399Y-67668847D01*
X166392542Y-67049800D02*
X166630637Y-67287895D01*
X166392542Y-66954561D02*
X166487780Y-67192657D01*
X166583018Y-67287895D02*
X165963970Y-67287895D01*
X165963970Y-67287895D02*
X165963970Y-67668847D01*
X166440161Y-67097419D02*
X166011589Y-67097419D01*
X166011589Y-67097419D02*
X166249685Y-67335514D01*
X166249685Y-67573609D02*
X166344923Y-67811704D01*
X166344923Y-67811704D02*
X166487780Y-68002180D01*
X166487780Y-68002180D02*
X166725875Y-68097419D01*
X166249685Y-67287895D02*
X166249685Y-67668847D01*
X166249685Y-67668847D02*
X166202066Y-67811704D01*
X166202066Y-67811704D02*
X165916351Y-68049800D01*
X165583018Y-67383133D02*
X165011590Y-67383133D01*
X165535399Y-67097419D02*
X165011590Y-67097419D01*
X165392542Y-67383133D02*
X165535399Y-67906942D01*
X164725876Y-67668847D02*
X164916352Y-68049800D01*
X164678257Y-68097419D02*
X164440161Y-68097419D01*
X165154447Y-67573609D02*
X165011590Y-67859323D01*
X165011590Y-67859323D02*
X165583018Y-67906942D01*
X164678257Y-67002180D02*
X164678257Y-67383133D01*
X164678257Y-67383133D02*
X164773495Y-67859323D01*
X164916352Y-67287895D02*
X164344923Y-67287895D01*
X164344923Y-67287895D02*
X164344923Y-67716466D01*
X164344923Y-67716466D02*
X164440161Y-68097419D01*
X164106828Y-67049800D02*
X162868733Y-67049800D01*
X164059209Y-68002180D02*
X162916352Y-68002180D01*
X164059209Y-67287895D02*
X164059209Y-68097419D01*
X163821114Y-67811704D02*
X163154447Y-67811704D01*
X163821114Y-67573609D02*
X163154447Y-67573609D01*
X163821114Y-67287895D02*
X163821114Y-67811704D01*
X163487781Y-67049800D02*
X163487781Y-67811704D01*
X162916352Y-67287895D02*
X162916352Y-68097419D01*
X163821114Y-67287895D02*
X163154447Y-67287895D01*
X163154447Y-67287895D02*
X163154447Y-67811704D01*
X129849279Y-135584848D02*
X130256016Y-134671302D01*
X130062332Y-135106324D02*
X129540306Y-134873903D01*
X129327253Y-135352427D02*
X129733990Y-134438881D01*
X129385973Y-134283934D02*
X128761725Y-135100637D01*
X128761725Y-135100637D02*
X128878243Y-134370631D01*
X128878243Y-134370631D02*
X128413708Y-134945690D01*
X128413708Y-134945690D02*
X128602934Y-133935303D01*
X128003127Y-134345883D02*
X127307093Y-134035989D01*
X126282102Y-133996638D02*
X126717124Y-134190322D01*
X126717124Y-134190322D02*
X127123860Y-133276777D01*
X126190639Y-133382535D02*
X125886124Y-133246956D01*
X125542565Y-133667375D02*
X125977587Y-133861059D01*
X125977587Y-133861059D02*
X126384323Y-132947514D01*
X126384323Y-132947514D02*
X125949302Y-132753830D01*
X125364098Y-133014535D02*
X125059583Y-132878957D01*
X124716024Y-133299375D02*
X125151046Y-133493059D01*
X125151046Y-133493059D02*
X125557782Y-132579514D01*
X125557782Y-132579514D02*
X125122761Y-132385830D01*
X124324504Y-133125059D02*
X124731241Y-132211514D01*
X123802478Y-132892638D02*
X124426419Y-132544928D01*
X124209215Y-131979093D02*
X124498820Y-132733540D01*
X123565906Y-132370305D02*
X122869872Y-132060411D01*
X122512631Y-131223725D02*
X122425627Y-131184988D01*
X122425627Y-131184988D02*
X122319254Y-131189754D01*
X122319254Y-131189754D02*
X122256383Y-131213887D01*
X122256383Y-131213887D02*
X122174144Y-131281523D01*
X122174144Y-131281523D02*
X122053168Y-131436163D01*
X122053168Y-131436163D02*
X121956326Y-131653674D01*
X121956326Y-131653674D02*
X121922355Y-131847051D01*
X121922355Y-131847051D02*
X121927120Y-131953424D01*
X121927120Y-131953424D02*
X121951254Y-132016295D01*
X121951254Y-132016295D02*
X122018890Y-132098534D01*
X122018890Y-132098534D02*
X122105894Y-132137271D01*
X122105894Y-132137271D02*
X122212267Y-132132505D01*
X122212267Y-132132505D02*
X122275138Y-132108371D01*
X122275138Y-132108371D02*
X122357377Y-132040735D01*
X122357377Y-132040735D02*
X122478352Y-131886095D01*
X122478352Y-131886095D02*
X122575194Y-131668584D01*
X122575194Y-131668584D02*
X122609166Y-131475207D01*
X122609166Y-131475207D02*
X122604401Y-131368835D01*
X122604401Y-131368835D02*
X122580267Y-131305964D01*
X122580267Y-131305964D02*
X122512631Y-131223725D01*
X121642588Y-130836357D02*
X121555583Y-130797620D01*
X121555583Y-130797620D02*
X121449210Y-130802385D01*
X121449210Y-130802385D02*
X121386340Y-130826519D01*
X121386340Y-130826519D02*
X121304101Y-130894155D01*
X121304101Y-130894155D02*
X121183125Y-131048795D01*
X121183125Y-131048795D02*
X121086283Y-131266306D01*
X121086283Y-131266306D02*
X121052312Y-131459683D01*
X121052312Y-131459683D02*
X121057077Y-131566056D01*
X121057077Y-131566056D02*
X121081211Y-131628926D01*
X121081211Y-131628926D02*
X121148847Y-131711165D01*
X121148847Y-131711165D02*
X121235851Y-131749902D01*
X121235851Y-131749902D02*
X121342224Y-131745137D01*
X121342224Y-131745137D02*
X121405094Y-131721003D01*
X121405094Y-131721003D02*
X121487333Y-131653367D01*
X121487333Y-131653367D02*
X121608309Y-131498727D01*
X121608309Y-131498727D02*
X121705151Y-131281216D01*
X121705151Y-131281216D02*
X121739123Y-131087839D01*
X121739123Y-131087839D02*
X121734357Y-130981466D01*
X121734357Y-130981466D02*
X121710223Y-130918596D01*
X121710223Y-130918596D02*
X121642588Y-130836357D01*
X120061292Y-131226955D02*
X120583318Y-131459376D01*
X120322305Y-131343166D02*
X120729042Y-130429620D01*
X120729042Y-130429620D02*
X120757941Y-130598863D01*
X120757941Y-130598863D02*
X120806209Y-130724605D01*
X120806209Y-130724605D02*
X120873845Y-130806844D01*
X139522419Y-67503884D02*
X138522419Y-67503884D01*
X138522419Y-67503884D02*
X138522419Y-67884836D01*
X138522419Y-67884836D02*
X138570038Y-67980074D01*
X138570038Y-67980074D02*
X138617657Y-68027693D01*
X138617657Y-68027693D02*
X138712895Y-68075312D01*
X138712895Y-68075312D02*
X138855752Y-68075312D01*
X138855752Y-68075312D02*
X138950990Y-68027693D01*
X138950990Y-68027693D02*
X138998609Y-67980074D01*
X138998609Y-67980074D02*
X139046228Y-67884836D01*
X139046228Y-67884836D02*
X139046228Y-67503884D01*
X139522419Y-68646741D02*
X139474800Y-68551503D01*
X139474800Y-68551503D02*
X139427180Y-68503884D01*
X139427180Y-68503884D02*
X139331942Y-68456265D01*
X139331942Y-68456265D02*
X139046228Y-68456265D01*
X139046228Y-68456265D02*
X138950990Y-68503884D01*
X138950990Y-68503884D02*
X138903371Y-68551503D01*
X138903371Y-68551503D02*
X138855752Y-68646741D01*
X138855752Y-68646741D02*
X138855752Y-68789598D01*
X138855752Y-68789598D02*
X138903371Y-68884836D01*
X138903371Y-68884836D02*
X138950990Y-68932455D01*
X138950990Y-68932455D02*
X139046228Y-68980074D01*
X139046228Y-68980074D02*
X139331942Y-68980074D01*
X139331942Y-68980074D02*
X139427180Y-68932455D01*
X139427180Y-68932455D02*
X139474800Y-68884836D01*
X139474800Y-68884836D02*
X139522419Y-68789598D01*
X139522419Y-68789598D02*
X139522419Y-68646741D01*
X138855752Y-69313408D02*
X139522419Y-69503884D01*
X139522419Y-69503884D02*
X139046228Y-69694360D01*
X139046228Y-69694360D02*
X139522419Y-69884836D01*
X139522419Y-69884836D02*
X138855752Y-70075312D01*
X139474800Y-70837217D02*
X139522419Y-70741979D01*
X139522419Y-70741979D02*
X139522419Y-70551503D01*
X139522419Y-70551503D02*
X139474800Y-70456265D01*
X139474800Y-70456265D02*
X139379561Y-70408646D01*
X139379561Y-70408646D02*
X138998609Y-70408646D01*
X138998609Y-70408646D02*
X138903371Y-70456265D01*
X138903371Y-70456265D02*
X138855752Y-70551503D01*
X138855752Y-70551503D02*
X138855752Y-70741979D01*
X138855752Y-70741979D02*
X138903371Y-70837217D01*
X138903371Y-70837217D02*
X138998609Y-70884836D01*
X138998609Y-70884836D02*
X139093847Y-70884836D01*
X139093847Y-70884836D02*
X139189085Y-70408646D01*
X139522419Y-71313408D02*
X138855752Y-71313408D01*
X139046228Y-71313408D02*
X138950990Y-71361027D01*
X138950990Y-71361027D02*
X138903371Y-71408646D01*
X138903371Y-71408646D02*
X138855752Y-71503884D01*
X138855752Y-71503884D02*
X138855752Y-71599122D01*
X138950990Y-72551504D02*
X138950990Y-73789599D01*
X138474800Y-72599123D02*
X138474800Y-73741980D01*
X138474800Y-73456266D02*
X139522419Y-73456266D01*
X138474800Y-72932456D02*
X138998609Y-72932456D01*
X138998609Y-72932456D02*
X139284323Y-72837218D01*
X139284323Y-72837218D02*
X139522419Y-72599123D01*
X138998609Y-74075313D02*
X138998609Y-75265789D01*
X138712895Y-74122932D02*
X138712895Y-75170551D01*
X138427180Y-74265789D02*
X138570038Y-74408646D01*
X138427180Y-75075313D02*
X138617657Y-74884836D01*
X139046228Y-74646741D02*
X139236704Y-74741979D01*
X139236704Y-74741979D02*
X139379561Y-74932456D01*
X139379561Y-74932456D02*
X139522419Y-75265789D01*
X138712895Y-74646741D02*
X139046228Y-74646741D01*
X139046228Y-74646741D02*
X139236704Y-74503884D01*
X139236704Y-74503884D02*
X139379561Y-74313408D01*
X139379561Y-74313408D02*
X139522419Y-74027694D01*
X135071115Y-137522419D02*
X135071115Y-138331942D01*
X135071115Y-138331942D02*
X135023496Y-138427180D01*
X135023496Y-138427180D02*
X134975877Y-138474800D01*
X134975877Y-138474800D02*
X134880639Y-138522419D01*
X134880639Y-138522419D02*
X134690163Y-138522419D01*
X134690163Y-138522419D02*
X134594925Y-138474800D01*
X134594925Y-138474800D02*
X134547306Y-138427180D01*
X134547306Y-138427180D02*
X134499687Y-138331942D01*
X134499687Y-138331942D02*
X134499687Y-137522419D01*
X134023496Y-138522419D02*
X134023496Y-137522419D01*
X134023496Y-137522419D02*
X133642544Y-137522419D01*
X133642544Y-137522419D02*
X133547306Y-137570038D01*
X133547306Y-137570038D02*
X133499687Y-137617657D01*
X133499687Y-137617657D02*
X133452068Y-137712895D01*
X133452068Y-137712895D02*
X133452068Y-137855752D01*
X133452068Y-137855752D02*
X133499687Y-137950990D01*
X133499687Y-137950990D02*
X133547306Y-137998609D01*
X133547306Y-137998609D02*
X133642544Y-138046228D01*
X133642544Y-138046228D02*
X134023496Y-138046228D01*
X133023496Y-138522419D02*
X133023496Y-137522419D01*
X133023496Y-137522419D02*
X132785401Y-137522419D01*
X132785401Y-137522419D02*
X132642544Y-137570038D01*
X132642544Y-137570038D02*
X132547306Y-137665276D01*
X132547306Y-137665276D02*
X132499687Y-137760514D01*
X132499687Y-137760514D02*
X132452068Y-137950990D01*
X132452068Y-137950990D02*
X132452068Y-138093847D01*
X132452068Y-138093847D02*
X132499687Y-138284323D01*
X132499687Y-138284323D02*
X132547306Y-138379561D01*
X132547306Y-138379561D02*
X132642544Y-138474800D01*
X132642544Y-138474800D02*
X132785401Y-138522419D01*
X132785401Y-138522419D02*
X133023496Y-138522419D01*
X132023496Y-138522419D02*
X132023496Y-137522419D01*
X131547306Y-138141466D02*
X130785402Y-138141466D01*
X130309211Y-137855752D02*
X129547307Y-138141466D01*
X129547307Y-138141466D02*
X130309211Y-138427180D01*
D12*
%TO.C,SW3*%
X130495922Y-69930135D02*
X132056281Y-69848360D01*
X130568983Y-71324222D02*
X130495922Y-69930135D01*
X131974454Y-68287003D02*
X132305871Y-74610825D01*
X132129342Y-71242447D02*
X130568983Y-71324222D01*
X132442769Y-68099237D02*
X132468935Y-68598550D01*
X132468935Y-68598550D02*
X132019552Y-68622101D01*
X132787077Y-74239131D02*
X132287764Y-74265297D01*
X132787077Y-74239131D02*
X132805186Y-74584657D01*
X132874066Y-68103168D02*
X133756853Y-68056904D01*
X133219484Y-74694123D02*
X134102272Y-74647858D01*
X134187846Y-68484934D02*
X134164295Y-68035551D01*
X134504463Y-74125093D02*
X134873457Y-74105753D01*
X134670465Y-68140204D02*
X134684203Y-68402344D01*
X134687160Y-68458766D02*
X134187846Y-68484934D01*
X134753103Y-69717039D02*
X134762707Y-69900288D01*
X134831581Y-71214483D02*
X134919714Y-72896176D01*
X134988589Y-74210373D02*
X135002172Y-74469519D01*
%TO.C,SW4*%
X172125000Y-64993500D02*
X172125000Y-62656500D01*
X172505000Y-62170000D02*
X173400000Y-61275000D01*
X172874000Y-62827000D02*
X172874000Y-64826000D01*
X172874000Y-64826000D02*
X173674000Y-65626000D01*
X173400000Y-61275000D02*
X175950000Y-61275000D01*
X173400000Y-66375000D02*
X172505000Y-65480000D01*
X173400000Y-66375000D02*
X175950000Y-66375000D01*
X173674000Y-65626000D02*
X175574000Y-65626000D01*
X173776000Y-61925000D02*
X172874000Y-62827000D01*
X175475000Y-61925000D02*
X173776000Y-61925000D01*
X175574000Y-65626000D02*
X176476000Y-64724000D01*
X175950000Y-66375000D02*
X176845000Y-65480000D01*
X176476000Y-62926000D02*
X175475000Y-61925000D01*
X176476000Y-64724000D02*
X176476000Y-62926000D01*
X176845000Y-62170000D02*
X175950000Y-61275000D01*
X177225000Y-64993500D02*
X177225000Y-62656500D01*
X175950000Y-63825000D02*
G75*
G02*
X173400000Y-63825000I-1275000J0D01*
G01*
X173400000Y-63825000D02*
G75*
G02*
X175950000Y-63825000I1275000J0D01*
G01*
D13*
%TO.C,U1*%
X144714999Y-90647500D02*
X144715000Y-90742500D01*
X144715000Y-85622499D02*
X144715000Y-85717500D01*
X144715000Y-90742500D02*
X148835000Y-90742501D01*
X148835000Y-85622500D02*
X144715000Y-85622499D01*
X148835000Y-90742501D02*
X148835000Y-90647500D01*
X148835001Y-85717500D02*
X148835000Y-85622500D01*
X144414999Y-90982501D02*
X143935001Y-90982500D01*
X144175001Y-90652501D01*
X144414999Y-90982501D01*
G36*
X144414999Y-90982501D02*
G01*
X143935001Y-90982500D01*
X144175001Y-90652501D01*
X144414999Y-90982501D01*
G37*
%TO.C,R3*%
X144913641Y-94620000D02*
X144606359Y-94620000D01*
X144913641Y-95380000D02*
X144606359Y-95380000D01*
%TO.C,J1*%
X116171855Y-140230711D02*
X125357530Y-144710863D01*
X116706668Y-139134182D02*
X117803197Y-139668995D01*
X117803197Y-139668995D02*
X119995052Y-135175025D01*
X119019162Y-139616751D02*
X119271705Y-139828933D01*
X119271705Y-139828933D02*
X119594390Y-139897308D01*
X119556682Y-136073818D02*
X126549299Y-139484346D01*
X119594390Y-139897308D02*
X121093619Y-136823433D01*
X119862940Y-132662865D02*
X116171855Y-140230711D01*
X119995052Y-135175025D02*
X118898524Y-134640212D01*
X119995052Y-135175025D02*
X120959469Y-133197678D01*
X120518391Y-136542876D02*
X119019162Y-139616751D01*
X120806005Y-136683154D02*
X120518391Y-136542876D01*
X120959469Y-133197678D02*
X119862940Y-132662865D01*
X121093619Y-136823433D02*
X120806005Y-136683154D01*
X121266147Y-140712680D02*
X121518691Y-140924862D01*
X121518691Y-140924862D02*
X121841375Y-140993237D01*
X121841375Y-140993237D02*
X123340604Y-137919362D01*
X122153956Y-133235094D02*
X122693233Y-133498116D01*
X122160572Y-133905881D02*
X122153956Y-133235094D01*
X122295965Y-136297255D02*
X122439772Y-136367395D01*
X122693233Y-133498116D02*
X122160572Y-133905881D01*
X122765376Y-137638803D02*
X121266147Y-140712680D01*
X123052990Y-137779083D02*
X122765376Y-137638803D01*
X123340604Y-137919362D02*
X123052990Y-137779083D01*
X123513132Y-141808607D02*
X123765676Y-142020790D01*
X123765676Y-142020790D02*
X124088360Y-142089165D01*
X124088360Y-142089165D02*
X125587590Y-139015289D01*
X124542950Y-137393183D02*
X124686757Y-137463322D01*
X124795816Y-143079522D02*
X126987670Y-138585552D01*
X125012361Y-138734732D02*
X123513132Y-141808607D01*
X125299975Y-138875010D02*
X125012361Y-138734732D01*
X125357530Y-144710863D02*
X129048615Y-137143018D01*
X125587590Y-139015289D02*
X125299975Y-138875010D01*
X125892343Y-143614335D02*
X124795816Y-143079522D01*
X126987670Y-138585552D02*
X128084198Y-139120364D01*
X127952086Y-136608205D02*
X126987670Y-138585552D01*
X129048615Y-137143018D02*
X127952086Y-136608205D01*
%TO.C,R2*%
X168826359Y-70520000D02*
X169133641Y-70520000D01*
X168826359Y-71280000D02*
X169133641Y-71280000D01*
%TO.C,R4*%
X140126141Y-80820000D02*
X139818859Y-80820000D01*
X140126141Y-81580000D02*
X139818859Y-81580000D01*
D14*
%TO.C,G\u002A\u002A\u002A*%
G36*
X138032978Y-115551335D02*
G01*
X138056923Y-115573709D01*
X138092352Y-115612725D01*
X138139888Y-115669102D01*
X138200156Y-115743559D01*
X138273777Y-115836817D01*
X138280396Y-115849439D01*
X138277592Y-115863398D01*
X138269798Y-115867189D01*
X138259787Y-115865884D01*
X138246024Y-115856033D01*
X138225727Y-115835066D01*
X138196112Y-115800407D01*
X138154396Y-115749485D01*
X138149499Y-115743456D01*
X138094891Y-115675318D01*
X138054992Y-115623405D01*
X138028720Y-115586057D01*
X138014993Y-115561619D01*
X138012730Y-115548431D01*
X138020850Y-115544837D01*
X138032978Y-115551335D01*
G37*
G36*
X137881687Y-115675850D02*
G01*
X137903254Y-115698288D01*
X137934011Y-115731785D01*
X137970907Y-115772870D01*
X138010887Y-115818070D01*
X138050900Y-115863915D01*
X138087894Y-115906931D01*
X138118818Y-115943647D01*
X138140618Y-115970592D01*
X138150243Y-115984293D01*
X138149631Y-115988818D01*
X138138680Y-116003895D01*
X138136109Y-116005704D01*
X138126421Y-116004496D01*
X138110946Y-115992754D01*
X138087528Y-115968311D01*
X138054014Y-115928999D01*
X138008249Y-115872649D01*
X137974079Y-115829750D01*
X137930082Y-115772972D01*
X137899402Y-115730674D01*
X137880536Y-115700596D01*
X137871980Y-115680475D01*
X137872232Y-115668050D01*
X137872361Y-115667945D01*
X137881687Y-115675850D01*
G37*
G36*
X135479990Y-117142137D02*
G01*
X135498064Y-117151317D01*
X135510579Y-117168896D01*
X135507430Y-117184001D01*
X135495504Y-117217876D01*
X135476191Y-117266627D01*
X135451011Y-117326889D01*
X135421482Y-117395298D01*
X135389125Y-117468492D01*
X135355458Y-117543107D01*
X135321999Y-117615779D01*
X135290267Y-117683145D01*
X135261784Y-117741842D01*
X135238064Y-117788504D01*
X135220629Y-117819771D01*
X135210998Y-117832277D01*
X135183330Y-117834698D01*
X135162665Y-117820806D01*
X135157881Y-117794831D01*
X135158355Y-117792908D01*
X135166378Y-117771184D01*
X135182889Y-117731308D01*
X135206576Y-117676308D01*
X135236117Y-117609211D01*
X135270199Y-117533043D01*
X135307505Y-117450830D01*
X135452168Y-117134184D01*
X135479990Y-117142137D01*
G37*
G36*
X132938648Y-116009909D02*
G01*
X132953440Y-116031035D01*
X132954617Y-116066462D01*
X132953649Y-116070736D01*
X132944339Y-116097950D01*
X132927077Y-116141300D01*
X132903448Y-116197314D01*
X132875038Y-116262519D01*
X132843434Y-116333445D01*
X132810220Y-116406619D01*
X132776982Y-116478571D01*
X132745306Y-116545829D01*
X132716778Y-116604921D01*
X132692982Y-116652375D01*
X132675506Y-116684720D01*
X132665934Y-116698485D01*
X132665215Y-116698939D01*
X132640593Y-116702401D01*
X132618193Y-116688702D01*
X132607254Y-116663367D01*
X132608058Y-116656267D01*
X132616680Y-116627341D01*
X132633400Y-116582318D01*
X132656649Y-116524677D01*
X132684859Y-116457900D01*
X132716458Y-116385467D01*
X132749879Y-116310858D01*
X132783551Y-116237555D01*
X132815905Y-116169039D01*
X132845373Y-116108788D01*
X132870382Y-116060285D01*
X132889366Y-116027011D01*
X132900754Y-116012444D01*
X132914033Y-116006884D01*
X132938648Y-116009909D01*
G37*
G36*
X139024777Y-118719628D02*
G01*
X139039569Y-118740754D01*
X139040746Y-118776181D01*
X139039778Y-118780456D01*
X139030468Y-118807670D01*
X139013206Y-118851019D01*
X138989577Y-118907033D01*
X138961168Y-118972238D01*
X138929563Y-119043165D01*
X138896349Y-119116338D01*
X138863111Y-119188291D01*
X138831435Y-119255549D01*
X138802907Y-119314640D01*
X138779112Y-119362094D01*
X138761636Y-119394440D01*
X138752063Y-119408204D01*
X138751347Y-119408659D01*
X138726723Y-119412121D01*
X138704322Y-119398421D01*
X138693383Y-119373087D01*
X138694188Y-119365986D01*
X138702809Y-119337060D01*
X138719529Y-119292037D01*
X138742779Y-119234396D01*
X138770988Y-119167619D01*
X138802587Y-119095186D01*
X138836009Y-119020578D01*
X138869681Y-118947275D01*
X138902034Y-118878758D01*
X138931502Y-118818508D01*
X138956512Y-118770005D01*
X138975495Y-118736730D01*
X138986884Y-118722164D01*
X139000162Y-118716603D01*
X139024777Y-118719628D01*
G37*
G36*
X141676880Y-114399283D02*
G01*
X141671054Y-114422118D01*
X141659700Y-114461632D01*
X141644023Y-114513707D01*
X141625221Y-114574218D01*
X141623481Y-114579720D01*
X141577875Y-114710055D01*
X141525006Y-114834674D01*
X141462594Y-114957740D01*
X141388358Y-115083415D01*
X141300019Y-115215864D01*
X141195297Y-115359250D01*
X141157032Y-115408712D01*
X141097191Y-115482279D01*
X141037009Y-115552277D01*
X140979391Y-115615551D01*
X140927244Y-115668938D01*
X140883477Y-115709282D01*
X140850994Y-115733422D01*
X140832517Y-115743469D01*
X140804363Y-115755928D01*
X140788791Y-115758797D01*
X140787122Y-115757719D01*
X140783937Y-115746620D01*
X140787693Y-115723210D01*
X140799087Y-115685081D01*
X140818813Y-115629821D01*
X140847567Y-115555020D01*
X140851536Y-115544779D01*
X140895854Y-115411152D01*
X140933427Y-115260908D01*
X140962652Y-115100377D01*
X140976500Y-115007995D01*
X141273042Y-114745830D01*
X141313126Y-114710389D01*
X141385575Y-114646305D01*
X141453155Y-114586499D01*
X141513244Y-114533293D01*
X141563215Y-114489013D01*
X141600443Y-114455982D01*
X141622307Y-114436523D01*
X141646257Y-114415978D01*
X141668049Y-114399429D01*
X141677345Y-114395411D01*
X141676880Y-114399283D01*
G37*
G36*
X138475091Y-118468435D02*
G01*
X138478117Y-118477493D01*
X138480975Y-118509380D01*
X138480990Y-118557845D01*
X138478389Y-118618310D01*
X138473403Y-118686197D01*
X138466260Y-118756929D01*
X138457191Y-118825926D01*
X138450505Y-118879401D01*
X138446280Y-118934680D01*
X138445393Y-118981440D01*
X138447928Y-119014608D01*
X138453961Y-119029110D01*
X138455563Y-119029544D01*
X138468016Y-119025159D01*
X138489099Y-119008978D01*
X138520158Y-118979671D01*
X138562543Y-118935912D01*
X138617603Y-118876368D01*
X138686685Y-118799710D01*
X138725058Y-118757191D01*
X138774794Y-118704287D01*
X138812786Y-118667806D01*
X138841043Y-118646332D01*
X138861561Y-118638447D01*
X138876349Y-118642735D01*
X138887409Y-118657780D01*
X138891317Y-118670270D01*
X138889460Y-118695739D01*
X138882866Y-118705008D01*
X138862119Y-118730500D01*
X138829757Y-118768858D01*
X138788225Y-118817293D01*
X138739968Y-118873022D01*
X138687431Y-118933259D01*
X138633061Y-118995220D01*
X138579301Y-119056120D01*
X138528597Y-119113173D01*
X138483394Y-119163595D01*
X138446139Y-119204600D01*
X138419276Y-119233405D01*
X138405249Y-119247222D01*
X138400193Y-119250442D01*
X138373268Y-119253382D01*
X138346137Y-119241577D01*
X138329711Y-119219090D01*
X138329459Y-119207840D01*
X138331406Y-119175133D01*
X138335517Y-119125138D01*
X138341409Y-119061500D01*
X138348705Y-118987865D01*
X138357021Y-118907879D01*
X138365979Y-118825186D01*
X138375196Y-118743434D01*
X138384292Y-118666268D01*
X138392886Y-118597334D01*
X138400599Y-118540278D01*
X138406318Y-118503865D01*
X138412843Y-118478609D01*
X138421889Y-118465373D01*
X138436201Y-118457803D01*
X138457666Y-118454260D01*
X138475091Y-118468435D01*
G37*
G36*
X138078911Y-114294596D02*
G01*
X138074264Y-114319575D01*
X138064638Y-114362434D01*
X138050798Y-114419932D01*
X138033512Y-114488829D01*
X138013545Y-114565882D01*
X137981525Y-114687671D01*
X137932829Y-114873005D01*
X137890109Y-115035756D01*
X137853264Y-115176318D01*
X137822188Y-115295082D01*
X137796782Y-115392442D01*
X137792725Y-115407999D01*
X137774559Y-115477462D01*
X137753210Y-115558846D01*
X137731010Y-115643272D01*
X137710292Y-115721848D01*
X137704345Y-115744398D01*
X137683532Y-115823767D01*
X137662369Y-115905044D01*
X137643032Y-115979860D01*
X137627693Y-116039847D01*
X137617223Y-116080843D01*
X137602033Y-116139334D01*
X137588600Y-116189996D01*
X137578955Y-116225098D01*
X137573273Y-116243674D01*
X137563733Y-116269090D01*
X137557535Y-116277975D01*
X137557477Y-116277918D01*
X137552889Y-116265283D01*
X137542105Y-116232430D01*
X137525929Y-116181942D01*
X137505163Y-116116406D01*
X137480612Y-116038407D01*
X137453077Y-115950529D01*
X137423365Y-115855359D01*
X137392277Y-115755481D01*
X137360618Y-115653478D01*
X137329191Y-115551939D01*
X137298799Y-115453447D01*
X137270247Y-115360587D01*
X137244337Y-115275945D01*
X137221873Y-115202105D01*
X137203660Y-115141653D01*
X137190499Y-115097175D01*
X137177641Y-115052977D01*
X137278798Y-114965671D01*
X137317892Y-114932071D01*
X137372643Y-114885247D01*
X137435956Y-114831267D01*
X137502789Y-114774433D01*
X137568095Y-114719043D01*
X137620175Y-114674855D01*
X137697410Y-114609090D01*
X137776717Y-114541337D01*
X137851287Y-114477418D01*
X137914309Y-114423152D01*
X137958082Y-114385665D01*
X138004703Y-114346559D01*
X138042417Y-114315844D01*
X138068174Y-114295996D01*
X138078924Y-114289491D01*
X138078911Y-114294596D01*
G37*
G36*
X138133752Y-118321133D02*
G01*
X138156327Y-118339993D01*
X138165724Y-118371902D01*
X138165732Y-118372567D01*
X138164599Y-118402063D01*
X138161115Y-118449586D01*
X138155696Y-118511324D01*
X138148759Y-118583468D01*
X138140721Y-118662204D01*
X138131998Y-118743719D01*
X138127913Y-118780282D01*
X138123006Y-118824202D01*
X138114162Y-118899842D01*
X138105882Y-118966825D01*
X138098585Y-119021340D01*
X138092685Y-119059577D01*
X138088598Y-119077722D01*
X138077854Y-119097116D01*
X138065402Y-119110148D01*
X138047013Y-119110422D01*
X138024677Y-119096216D01*
X138013655Y-119072624D01*
X138013787Y-119050642D01*
X138015930Y-119012224D01*
X138019652Y-118966891D01*
X138022786Y-118924200D01*
X138023753Y-118887448D01*
X138022188Y-118866436D01*
X138017922Y-118860388D01*
X137995812Y-118844113D01*
X137960827Y-118824369D01*
X137919389Y-118804188D01*
X137877922Y-118786599D01*
X137842847Y-118774634D01*
X137820589Y-118771321D01*
X137815814Y-118773303D01*
X137795115Y-118789180D01*
X137765481Y-118817212D01*
X137731638Y-118853059D01*
X137699231Y-118888648D01*
X137675520Y-118911937D01*
X137658755Y-118922617D01*
X137644364Y-118923524D01*
X137627776Y-118917494D01*
X137610206Y-118908392D01*
X137602154Y-118894498D01*
X137611003Y-118870607D01*
X137617438Y-118859894D01*
X137639349Y-118829789D01*
X137670582Y-118790898D01*
X137706640Y-118748940D01*
X137730058Y-118722615D01*
X137769914Y-118677946D01*
X137906238Y-118677946D01*
X137912473Y-118691039D01*
X137914003Y-118693491D01*
X137939009Y-118716689D01*
X137975033Y-118735657D01*
X138010470Y-118744113D01*
X138017199Y-118743569D01*
X138028331Y-118735945D01*
X138036949Y-118716277D01*
X138044439Y-118680595D01*
X138052192Y-118624931D01*
X138054888Y-118600080D01*
X138055713Y-118557531D01*
X138047943Y-118536394D01*
X138030423Y-118536325D01*
X138001995Y-118556983D01*
X137961503Y-118598024D01*
X137938065Y-118623751D01*
X137916408Y-118649280D01*
X137906673Y-118665685D01*
X137906238Y-118677946D01*
X137769914Y-118677946D01*
X137825228Y-118615951D01*
X137905341Y-118526755D01*
X137970926Y-118454457D01*
X138022501Y-118398485D01*
X138060595Y-118358270D01*
X138085729Y-118333243D01*
X138098430Y-118322832D01*
X138104754Y-118320249D01*
X138133752Y-118321133D01*
G37*
G36*
X136316828Y-117513272D02*
G01*
X136329924Y-117521346D01*
X136336177Y-117535663D01*
X136334992Y-117558788D01*
X136325770Y-117593286D01*
X136307916Y-117641719D01*
X136280832Y-117706652D01*
X136243923Y-117790647D01*
X136214499Y-117857786D01*
X136186674Y-117923987D01*
X136166546Y-117975301D01*
X136154996Y-118009464D01*
X136152905Y-118024222D01*
X136153327Y-118024707D01*
X136159195Y-118025288D01*
X136171719Y-118020743D01*
X136192571Y-118010054D01*
X136223416Y-117992202D01*
X136265922Y-117966168D01*
X136321761Y-117930933D01*
X136392598Y-117885482D01*
X136480102Y-117828792D01*
X136585943Y-117759847D01*
X136594362Y-117754362D01*
X136643185Y-117723311D01*
X136677043Y-117704011D01*
X136700073Y-117694724D01*
X136716409Y-117693714D01*
X136730187Y-117699240D01*
X136757122Y-117715187D01*
X136613612Y-118045343D01*
X136601236Y-118073759D01*
X136565492Y-118155204D01*
X136532830Y-118228717D01*
X136504534Y-118291473D01*
X136481883Y-118340649D01*
X136466158Y-118373420D01*
X136458641Y-118386963D01*
X136452678Y-118391143D01*
X136431423Y-118390940D01*
X136411409Y-118376345D01*
X136401489Y-118352670D01*
X136404371Y-118337364D01*
X136416372Y-118301437D01*
X136436645Y-118249059D01*
X136464075Y-118183083D01*
X136497550Y-118106364D01*
X136516575Y-118063492D01*
X136545168Y-117998031D01*
X136565175Y-117950131D01*
X136577584Y-117917037D01*
X136583386Y-117895990D01*
X136583569Y-117884237D01*
X136579120Y-117879022D01*
X136568135Y-117880419D01*
X136542826Y-117891804D01*
X136502853Y-117914150D01*
X136447236Y-117948050D01*
X136375002Y-117994104D01*
X136285175Y-118052907D01*
X136176780Y-118125054D01*
X136151249Y-118141834D01*
X136107335Y-118169272D01*
X136071182Y-118190105D01*
X136048772Y-118200795D01*
X136047080Y-118201330D01*
X136013824Y-118202697D01*
X135992772Y-118186000D01*
X135988457Y-118154703D01*
X135993088Y-118139492D01*
X136006517Y-118104256D01*
X136027292Y-118053277D01*
X136054039Y-117989853D01*
X136085388Y-117917276D01*
X136119967Y-117838841D01*
X136150330Y-117771217D01*
X136183685Y-117698286D01*
X136213530Y-117634451D01*
X136238335Y-117582935D01*
X136256569Y-117546962D01*
X136266701Y-117529757D01*
X136284898Y-117515495D01*
X136308998Y-117511025D01*
X136316828Y-117513272D01*
G37*
G36*
X131754330Y-115495318D02*
G01*
X131816861Y-115508693D01*
X131881235Y-115532019D01*
X131911863Y-115547151D01*
X131981790Y-115598030D01*
X132032341Y-115663020D01*
X132063304Y-115741787D01*
X132074466Y-115834002D01*
X132074489Y-115837122D01*
X132072333Y-115870690D01*
X132064460Y-115906195D01*
X132049022Y-115950059D01*
X132024169Y-116008705D01*
X132014816Y-116029335D01*
X131987208Y-116085005D01*
X131961476Y-116129821D01*
X131940870Y-116157962D01*
X131881444Y-116205333D01*
X131806788Y-116239820D01*
X131725615Y-116257419D01*
X131645113Y-116255752D01*
X131606230Y-116246270D01*
X131539634Y-116216257D01*
X131477265Y-116172877D01*
X131425703Y-116121061D01*
X131391528Y-116065736D01*
X131386643Y-116052044D01*
X131384931Y-116036428D01*
X131388377Y-116016361D01*
X131398195Y-115987501D01*
X131415601Y-115945507D01*
X131441808Y-115886036D01*
X131447493Y-115873256D01*
X131475978Y-115810378D01*
X131498851Y-115766898D01*
X131519981Y-115740792D01*
X131543235Y-115730041D01*
X131572481Y-115732621D01*
X131611587Y-115746514D01*
X131664422Y-115769696D01*
X131713314Y-115792277D01*
X131750269Y-115811985D01*
X131771907Y-115827998D01*
X131782063Y-115842695D01*
X131785475Y-115863738D01*
X131770856Y-115883694D01*
X131758788Y-115890248D01*
X131740776Y-115890657D01*
X131712961Y-115882272D01*
X131669584Y-115863972D01*
X131629798Y-115847524D01*
X131591602Y-115836475D01*
X131569448Y-115837826D01*
X131556191Y-115851460D01*
X131536025Y-115886778D01*
X131512277Y-115940484D01*
X131474726Y-116033442D01*
X131512670Y-116079901D01*
X131536354Y-116105475D01*
X131593523Y-116146199D01*
X131656089Y-116166302D01*
X131720055Y-116164160D01*
X131793388Y-116142294D01*
X131859201Y-116105771D01*
X131910160Y-116053957D01*
X131950033Y-115983900D01*
X131950196Y-115983531D01*
X131978018Y-115900344D01*
X131983712Y-115824002D01*
X131967064Y-115751551D01*
X131927859Y-115680034D01*
X131924557Y-115675355D01*
X131896734Y-115639578D01*
X131869737Y-115615627D01*
X131837361Y-115600483D01*
X131793393Y-115591121D01*
X131731630Y-115584521D01*
X131714921Y-115582969D01*
X131659987Y-115574946D01*
X131626393Y-115563584D01*
X131612064Y-115547855D01*
X131614921Y-115526730D01*
X131622360Y-115515781D01*
X131652624Y-115498773D01*
X131698099Y-115491981D01*
X131754330Y-115495318D01*
G37*
G36*
X135718619Y-117273533D02*
G01*
X135738895Y-117274777D01*
X135815181Y-117288598D01*
X135887940Y-117314739D01*
X135950440Y-117350312D01*
X135995945Y-117392430D01*
X135996293Y-117392875D01*
X136043178Y-117471630D01*
X136067839Y-117557963D01*
X136069930Y-117649562D01*
X136049100Y-117744118D01*
X136038387Y-117773001D01*
X135996814Y-117856106D01*
X135945173Y-117926292D01*
X135887255Y-117978080D01*
X135882289Y-117981368D01*
X135825707Y-118009787D01*
X135760515Y-118030185D01*
X135695905Y-118040325D01*
X135641065Y-118037973D01*
X135631590Y-118036081D01*
X135597155Y-118028497D01*
X135572881Y-118020080D01*
X135548817Y-118006532D01*
X135515009Y-117983555D01*
X135484955Y-117961145D01*
X135427754Y-117905594D01*
X135392065Y-117848656D01*
X135387856Y-117836833D01*
X135386248Y-117821427D01*
X135389804Y-117801256D01*
X135399751Y-117772063D01*
X135417319Y-117729593D01*
X135443736Y-117669588D01*
X135449518Y-117656595D01*
X135478144Y-117593461D01*
X135501091Y-117549705D01*
X135522100Y-117523261D01*
X135544910Y-117512065D01*
X135573259Y-117514054D01*
X135610885Y-117527161D01*
X135661529Y-117549323D01*
X135701924Y-117567908D01*
X135740462Y-117588193D01*
X135763091Y-117604713D01*
X135773699Y-117619912D01*
X135777711Y-117632578D01*
X135776252Y-117657766D01*
X135756693Y-117668017D01*
X135719648Y-117663196D01*
X135665734Y-117643173D01*
X135631133Y-117629322D01*
X135595520Y-117619078D01*
X135574340Y-117618250D01*
X135560057Y-117632124D01*
X135539501Y-117665606D01*
X135515555Y-117714868D01*
X135496656Y-117759929D01*
X135485661Y-117798697D01*
X135487351Y-117828050D01*
X135502301Y-117854256D01*
X135531093Y-117883582D01*
X135589357Y-117924895D01*
X135653352Y-117944541D01*
X135724614Y-117942039D01*
X135788839Y-117923436D01*
X135857117Y-117884092D01*
X135912150Y-117830013D01*
X135952333Y-117764866D01*
X135976060Y-117692322D01*
X135981723Y-117616049D01*
X135967721Y-117539718D01*
X135932446Y-117466996D01*
X135907511Y-117433458D01*
X135867530Y-117397624D01*
X135819140Y-117377227D01*
X135755124Y-117368252D01*
X135718491Y-117364842D01*
X135675135Y-117358025D01*
X135645130Y-117350057D01*
X135627375Y-117341674D01*
X135618607Y-117328023D01*
X135626318Y-117303772D01*
X135636001Y-117286615D01*
X135650504Y-117276724D01*
X135675865Y-117273077D01*
X135718619Y-117273533D01*
G37*
G36*
X139365361Y-118880469D02*
G01*
X139394559Y-118884399D01*
X139428451Y-118893666D01*
X139472793Y-118909718D01*
X139533343Y-118934010D01*
X139540550Y-118936965D01*
X139598026Y-118961077D01*
X139637234Y-118979082D01*
X139661984Y-118993104D01*
X139676078Y-119005266D01*
X139683326Y-119017694D01*
X139684043Y-119019763D01*
X139685468Y-119030101D01*
X139683602Y-119044886D01*
X139677495Y-119066604D01*
X139666196Y-119097743D01*
X139648754Y-119140786D01*
X139624219Y-119198221D01*
X139591640Y-119272535D01*
X139550067Y-119366213D01*
X139533918Y-119402479D01*
X139515185Y-119444451D01*
X139496009Y-119487415D01*
X139466115Y-119553679D01*
X139442961Y-119603660D01*
X139425268Y-119639740D01*
X139411758Y-119664311D01*
X139401156Y-119679758D01*
X139392182Y-119688468D01*
X139383563Y-119692828D01*
X139374016Y-119695225D01*
X139371773Y-119695616D01*
X139339175Y-119692438D01*
X139293167Y-119678016D01*
X139239154Y-119655074D01*
X139182539Y-119626333D01*
X139128727Y-119594516D01*
X139083122Y-119562345D01*
X139051126Y-119532545D01*
X139022849Y-119495159D01*
X138984646Y-119419319D01*
X138968797Y-119338339D01*
X138972291Y-119289542D01*
X139058987Y-119289542D01*
X139067471Y-119350209D01*
X139087283Y-119412865D01*
X139115585Y-119466991D01*
X139116554Y-119468390D01*
X139154778Y-119506411D01*
X139215516Y-119544536D01*
X139253450Y-119563683D01*
X139298623Y-119582175D01*
X139330314Y-119587904D01*
X139352034Y-119581830D01*
X139354550Y-119579363D01*
X139367524Y-119558578D01*
X139387009Y-119520925D01*
X139411327Y-119470261D01*
X139438805Y-119410445D01*
X139467767Y-119345335D01*
X139496536Y-119278789D01*
X139523438Y-119214664D01*
X139546796Y-119156819D01*
X139564937Y-119109112D01*
X139576183Y-119075400D01*
X139578859Y-119059543D01*
X139567379Y-119046968D01*
X139537144Y-119027435D01*
X139493660Y-119005842D01*
X139451268Y-118989740D01*
X139367805Y-118974457D01*
X139288568Y-118981732D01*
X139215719Y-119011206D01*
X139151424Y-119062520D01*
X139130496Y-119088662D01*
X139099060Y-119143087D01*
X139073975Y-119204200D01*
X139060102Y-119261422D01*
X139058987Y-119289542D01*
X138972291Y-119289542D01*
X138975085Y-119250514D01*
X139003296Y-119154140D01*
X139039393Y-119076279D01*
X139095115Y-118995829D01*
X139161445Y-118936101D01*
X139237730Y-118897654D01*
X139323316Y-118881045D01*
X139335098Y-118880422D01*
X139365361Y-118880469D01*
G37*
G36*
X132335915Y-115743451D02*
G01*
X132346884Y-115770469D01*
X132344342Y-115784611D01*
X132332787Y-115819677D01*
X132312987Y-115871123D01*
X132286095Y-115935984D01*
X132253264Y-116011292D01*
X132244015Y-116032104D01*
X132213148Y-116102412D01*
X132191224Y-116154362D01*
X132177266Y-116190667D01*
X132170296Y-116214039D01*
X132169336Y-116227188D01*
X132173409Y-116232828D01*
X132184339Y-116231261D01*
X132212299Y-116218993D01*
X132251457Y-116197483D01*
X132296996Y-116169210D01*
X132400438Y-116101664D01*
X132488055Y-116044911D01*
X132559209Y-115999662D01*
X132615695Y-115965036D01*
X132659309Y-115940147D01*
X132691847Y-115924116D01*
X132715104Y-115916057D01*
X132730879Y-115915087D01*
X132740966Y-115920325D01*
X132747163Y-115930885D01*
X132751263Y-115945887D01*
X132751326Y-115949028D01*
X132745406Y-115972686D01*
X132731140Y-116013496D01*
X132710060Y-116067946D01*
X132683711Y-116132529D01*
X132653627Y-116203736D01*
X132621346Y-116278059D01*
X132588407Y-116351987D01*
X132556347Y-116422015D01*
X132526705Y-116484632D01*
X132501017Y-116536328D01*
X132480824Y-116573597D01*
X132467661Y-116592928D01*
X132448650Y-116606027D01*
X132421968Y-116606289D01*
X132420920Y-116605807D01*
X132408788Y-116596279D01*
X132403259Y-116580415D01*
X132405003Y-116555681D01*
X132414687Y-116519543D01*
X132432976Y-116469470D01*
X132460538Y-116402926D01*
X132498040Y-116317378D01*
X132501756Y-116309015D01*
X132530075Y-116243936D01*
X132553788Y-116187126D01*
X132571553Y-116141975D01*
X132582028Y-116111876D01*
X132583874Y-116100224D01*
X132577159Y-116099249D01*
X132553538Y-116106041D01*
X132515473Y-116125317D01*
X132461496Y-116157870D01*
X132390134Y-116204492D01*
X132333632Y-116242243D01*
X132249346Y-116298108D01*
X132181692Y-116342136D01*
X132128683Y-116375476D01*
X132088333Y-116399273D01*
X132058657Y-116414680D01*
X132037667Y-116422841D01*
X132023378Y-116424906D01*
X132013803Y-116422022D01*
X132001200Y-116407645D01*
X131996777Y-116377562D01*
X132003018Y-116356430D01*
X132017828Y-116317215D01*
X132039535Y-116263917D01*
X132066520Y-116200158D01*
X132097163Y-116129562D01*
X132129847Y-116055749D01*
X132162951Y-115982341D01*
X132194857Y-115912960D01*
X132223946Y-115851229D01*
X132248599Y-115800767D01*
X132267198Y-115765200D01*
X132278123Y-115748143D01*
X132286023Y-115741434D01*
X132313089Y-115732948D01*
X132335915Y-115743451D01*
G37*
G36*
X134861405Y-116864668D02*
G01*
X134874748Y-116872892D01*
X134876896Y-116874581D01*
X134881074Y-116881335D01*
X134881393Y-116893017D01*
X134876922Y-116912487D01*
X134866729Y-116942602D01*
X134849888Y-116986218D01*
X134825464Y-117046193D01*
X134792528Y-117125383D01*
X134780923Y-117153330D01*
X134753030Y-117222087D01*
X134729479Y-117282401D01*
X134711546Y-117330866D01*
X134700507Y-117364075D01*
X134697640Y-117378620D01*
X134698841Y-117381558D01*
X134701401Y-117384701D01*
X134706713Y-117384965D01*
X134716948Y-117381075D01*
X134734278Y-117371755D01*
X134760876Y-117355731D01*
X134798915Y-117331726D01*
X134850565Y-117298463D01*
X134918000Y-117254669D01*
X135003392Y-117199067D01*
X135021354Y-117187387D01*
X135098545Y-117137809D01*
X135158667Y-117100493D01*
X135203901Y-117074228D01*
X135236433Y-117057798D01*
X135258447Y-117049991D01*
X135272124Y-117049589D01*
X135289700Y-117058485D01*
X135302225Y-117076131D01*
X135299077Y-117091236D01*
X135287150Y-117125111D01*
X135267837Y-117173862D01*
X135242657Y-117234124D01*
X135213129Y-117302533D01*
X135180771Y-117375727D01*
X135147104Y-117450342D01*
X135113645Y-117523014D01*
X135081913Y-117590379D01*
X135053429Y-117649076D01*
X135029709Y-117695739D01*
X135012275Y-117727006D01*
X135002644Y-117739512D01*
X134995503Y-117741791D01*
X134968230Y-117738970D01*
X134952202Y-117715387D01*
X134952666Y-117706542D01*
X134961462Y-117675305D01*
X134979844Y-117624596D01*
X135007305Y-117555768D01*
X135043343Y-117470175D01*
X135062670Y-117425008D01*
X135090567Y-117358718D01*
X135110110Y-117310094D01*
X135122246Y-117276401D01*
X135127915Y-117254905D01*
X135128063Y-117242872D01*
X135123634Y-117237568D01*
X135111414Y-117239399D01*
X135082457Y-117252090D01*
X135042447Y-117273949D01*
X134996154Y-117302548D01*
X134969740Y-117319747D01*
X134869540Y-117384884D01*
X134787131Y-117438061D01*
X134720641Y-117480226D01*
X134668203Y-117512321D01*
X134627944Y-117535294D01*
X134597996Y-117550090D01*
X134576488Y-117557654D01*
X134561552Y-117558933D01*
X134551318Y-117554871D01*
X134543914Y-117546414D01*
X134537473Y-117534508D01*
X134536098Y-117529670D01*
X134536881Y-117516900D01*
X134542285Y-117496239D01*
X134553218Y-117465368D01*
X134570580Y-117421967D01*
X134595273Y-117363717D01*
X134628202Y-117288299D01*
X134670269Y-117193393D01*
X134691345Y-117146107D01*
X134730756Y-117058363D01*
X134762410Y-116989666D01*
X134787591Y-116938004D01*
X134807585Y-116901360D01*
X134823678Y-116877719D01*
X134837155Y-116865067D01*
X134849302Y-116861389D01*
X134861405Y-116864668D01*
G37*
G36*
X134249728Y-116590376D02*
G01*
X134289642Y-116601896D01*
X134341562Y-116620639D01*
X134401190Y-116644683D01*
X134464230Y-116672103D01*
X134526383Y-116700975D01*
X134583351Y-116729375D01*
X134630840Y-116755382D01*
X134664551Y-116777068D01*
X134680186Y-116792513D01*
X134682227Y-116798077D01*
X134683548Y-116808581D01*
X134681641Y-116823267D01*
X134675556Y-116844661D01*
X134664342Y-116875294D01*
X134647046Y-116917693D01*
X134622718Y-116974386D01*
X134590407Y-117047901D01*
X134549163Y-117140765D01*
X134534914Y-117172761D01*
X134496679Y-117258440D01*
X134466514Y-117325337D01*
X134443143Y-117375838D01*
X134425290Y-117412331D01*
X134411683Y-117437199D01*
X134401044Y-117452830D01*
X134392100Y-117461610D01*
X134383575Y-117465925D01*
X134374195Y-117468161D01*
X134362967Y-117469034D01*
X134342977Y-117466154D01*
X134314325Y-117457577D01*
X134273761Y-117442145D01*
X134218033Y-117418697D01*
X134143886Y-117386077D01*
X134066365Y-117350984D01*
X134006441Y-117322100D01*
X133964484Y-117298966D01*
X133938299Y-117279984D01*
X133925692Y-117263549D01*
X133924466Y-117248064D01*
X133932427Y-117231931D01*
X133936456Y-117227186D01*
X133944774Y-117223278D01*
X133958816Y-117223947D01*
X133981862Y-117230144D01*
X134017192Y-117242818D01*
X134068085Y-117262919D01*
X134137820Y-117291397D01*
X134180917Y-117308988D01*
X134242729Y-117333455D01*
X134287280Y-117349673D01*
X134317576Y-117358602D01*
X134336623Y-117361203D01*
X134347423Y-117358438D01*
X134353381Y-117352074D01*
X134369615Y-117326472D01*
X134390412Y-117287330D01*
X134412732Y-117240156D01*
X134432415Y-117194971D01*
X134446822Y-117153292D01*
X134448030Y-117124105D01*
X134434433Y-117102282D01*
X134404425Y-117082697D01*
X134356402Y-117060221D01*
X134332486Y-117049236D01*
X134302538Y-117032793D01*
X134287648Y-117018387D01*
X134282885Y-117002122D01*
X134287491Y-116977173D01*
X134309107Y-116964792D01*
X134348114Y-116968955D01*
X134404512Y-116989663D01*
X134440172Y-117003969D01*
X134476075Y-117014357D01*
X134497316Y-117015214D01*
X134509883Y-117003742D01*
X134529413Y-116973518D01*
X134550998Y-116930055D01*
X134566647Y-116891263D01*
X134577430Y-116854574D01*
X134578363Y-116833179D01*
X134576138Y-116829677D01*
X134557961Y-116815620D01*
X134521298Y-116795174D01*
X134464826Y-116767634D01*
X134387220Y-116732308D01*
X134348360Y-116714958D01*
X134291167Y-116688979D01*
X134251215Y-116669760D01*
X134225386Y-116655491D01*
X134210563Y-116644357D01*
X134203631Y-116634545D01*
X134201473Y-116624241D01*
X134204384Y-116603353D01*
X134224442Y-116588479D01*
X134226115Y-116588004D01*
X134249728Y-116590376D01*
G37*
G36*
X133682598Y-116333021D02*
G01*
X133711486Y-116342687D01*
X133753108Y-116359259D01*
X133810474Y-116383816D01*
X133886590Y-116417436D01*
X133927562Y-116435696D01*
X133991521Y-116464461D01*
X134037969Y-116486086D01*
X134069839Y-116502258D01*
X134090063Y-116514665D01*
X134101571Y-116524996D01*
X134107295Y-116534939D01*
X134110166Y-116546181D01*
X134110917Y-116554198D01*
X134109176Y-116569711D01*
X134103211Y-116592019D01*
X134092052Y-116623627D01*
X134074734Y-116667037D01*
X134050291Y-116724750D01*
X134017755Y-116799273D01*
X133976160Y-116893105D01*
X133966248Y-116915369D01*
X133927588Y-117002027D01*
X133897102Y-117069700D01*
X133873496Y-117120796D01*
X133855476Y-117157728D01*
X133841754Y-117182905D01*
X133831033Y-117198738D01*
X133822022Y-117207638D01*
X133813429Y-117212014D01*
X133803962Y-117214277D01*
X133803925Y-117214285D01*
X133780068Y-117211859D01*
X133739982Y-117200378D01*
X133687977Y-117181761D01*
X133628362Y-117157928D01*
X133565446Y-117130798D01*
X133503537Y-117102294D01*
X133446947Y-117074334D01*
X133399981Y-117048841D01*
X133366952Y-117027733D01*
X133352168Y-117012932D01*
X133347127Y-116996483D01*
X133346089Y-116980661D01*
X133349500Y-116974752D01*
X133359325Y-116967091D01*
X133375730Y-116965547D01*
X133401773Y-116970879D01*
X133440512Y-116983846D01*
X133495004Y-117005202D01*
X133568307Y-117035707D01*
X133616120Y-117055735D01*
X133676085Y-117080068D01*
X133719139Y-117096115D01*
X133748316Y-117104878D01*
X133766656Y-117107359D01*
X133777194Y-117104556D01*
X133786937Y-117093462D01*
X133804749Y-117063609D01*
X133825466Y-117022454D01*
X133846206Y-116976469D01*
X133864086Y-116932128D01*
X133876223Y-116895905D01*
X133879734Y-116874275D01*
X133871464Y-116859938D01*
X133843698Y-116838175D01*
X133794844Y-116810199D01*
X133770757Y-116797219D01*
X133735605Y-116775628D01*
X133716621Y-116758300D01*
X133709737Y-116741974D01*
X133709578Y-116740608D01*
X133715769Y-116717762D01*
X133739871Y-116709545D01*
X133780784Y-116715999D01*
X133837401Y-116737169D01*
X133866142Y-116749512D01*
X133897467Y-116760207D01*
X133917557Y-116761370D01*
X133932477Y-116754083D01*
X133934221Y-116752619D01*
X133952307Y-116729161D01*
X133972318Y-116692810D01*
X133990531Y-116651845D01*
X134003224Y-116614536D01*
X134006675Y-116589159D01*
X134004904Y-116584046D01*
X133994924Y-116572973D01*
X133973937Y-116558497D01*
X133939214Y-116539027D01*
X133888026Y-116512965D01*
X133817644Y-116478716D01*
X133750783Y-116446280D01*
X133700003Y-116420692D01*
X133665303Y-116401615D01*
X133643746Y-116387300D01*
X133632392Y-116375996D01*
X133628302Y-116365953D01*
X133629195Y-116348963D01*
X133647089Y-116331613D01*
X133650987Y-116330097D01*
X133663435Y-116329184D01*
X133682598Y-116333021D01*
G37*
G36*
X136895635Y-117763558D02*
G01*
X136924524Y-117773223D01*
X136966146Y-117789795D01*
X137023511Y-117814352D01*
X137099629Y-117847972D01*
X137140601Y-117866233D01*
X137204558Y-117894998D01*
X137251007Y-117916623D01*
X137282877Y-117932794D01*
X137303100Y-117945201D01*
X137314608Y-117955532D01*
X137320333Y-117965474D01*
X137323204Y-117976717D01*
X137323948Y-117983886D01*
X137322454Y-117999120D01*
X137316766Y-118021016D01*
X137305911Y-118052098D01*
X137288917Y-118094890D01*
X137264809Y-118151918D01*
X137232615Y-118225707D01*
X137191362Y-118318780D01*
X137160191Y-118388699D01*
X137126109Y-118464604D01*
X137099425Y-118522878D01*
X137078836Y-118565998D01*
X137063036Y-118596441D01*
X137050717Y-118616689D01*
X137040577Y-118629219D01*
X137031308Y-118636509D01*
X137021604Y-118641039D01*
X137009992Y-118644519D01*
X136995898Y-118645186D01*
X136976858Y-118641551D01*
X136949493Y-118632486D01*
X136910424Y-118616854D01*
X136856269Y-118593528D01*
X136783649Y-118561374D01*
X136771119Y-118555786D01*
X136693164Y-118520335D01*
X136634987Y-118492077D01*
X136594400Y-118469440D01*
X136569220Y-118450855D01*
X136557261Y-118434750D01*
X136556340Y-118419556D01*
X136564269Y-118403703D01*
X136568186Y-118399059D01*
X136576449Y-118395070D01*
X136590394Y-118395657D01*
X136613304Y-118401769D01*
X136648472Y-118414356D01*
X136699185Y-118434368D01*
X136768732Y-118462754D01*
X136813297Y-118480864D01*
X136881744Y-118507476D01*
X136931210Y-118524691D01*
X136963460Y-118533098D01*
X136980263Y-118533289D01*
X136980382Y-118533242D01*
X136996893Y-118517658D01*
X137019602Y-118483423D01*
X137046054Y-118434233D01*
X137065173Y-118394278D01*
X137083560Y-118346423D01*
X137087546Y-118311285D01*
X137076127Y-118284235D01*
X137048300Y-118260644D01*
X137003062Y-118235883D01*
X136994700Y-118231699D01*
X136953759Y-118209000D01*
X136931046Y-118190864D01*
X136922735Y-118174363D01*
X136922532Y-118172833D01*
X136926939Y-118147382D01*
X136948578Y-118137646D01*
X136987775Y-118143601D01*
X137044860Y-118165221D01*
X137069752Y-118176198D01*
X137102525Y-118189210D01*
X137122924Y-118193150D01*
X137137078Y-118188663D01*
X137151110Y-118176393D01*
X137156529Y-118170143D01*
X137174211Y-118141677D01*
X137192338Y-118103829D01*
X137207845Y-118064166D01*
X137217659Y-118030257D01*
X137218713Y-118009671D01*
X137211204Y-118003484D01*
X137184983Y-117987932D01*
X137143505Y-117965648D01*
X137090420Y-117938579D01*
X137029379Y-117908673D01*
X136964338Y-117877109D01*
X136913352Y-117851423D01*
X136878506Y-117832277D01*
X136856854Y-117817911D01*
X136845448Y-117806568D01*
X136841340Y-117796490D01*
X136842233Y-117779499D01*
X136860127Y-117762149D01*
X136864025Y-117760634D01*
X136876472Y-117759720D01*
X136895635Y-117763558D01*
G37*
G36*
X133207664Y-116137901D02*
G01*
X133236894Y-116142829D01*
X133272045Y-116153111D01*
X133318488Y-116170144D01*
X133381592Y-116195319D01*
X133400570Y-116203027D01*
X133455647Y-116225683D01*
X133493107Y-116242185D01*
X133516590Y-116254727D01*
X133529737Y-116265500D01*
X133536189Y-116276699D01*
X133539588Y-116290519D01*
X133540547Y-116300223D01*
X133538968Y-116315730D01*
X133533369Y-116337402D01*
X133522754Y-116367849D01*
X133506127Y-116409682D01*
X133486365Y-116456360D01*
X133482491Y-116465511D01*
X133450852Y-116537945D01*
X133410213Y-116629599D01*
X133394491Y-116664784D01*
X133350996Y-116760527D01*
X133314588Y-116838093D01*
X133285759Y-116896467D01*
X133265006Y-116934638D01*
X133252825Y-116951592D01*
X133237020Y-116959308D01*
X133209032Y-116954224D01*
X133198078Y-116943898D01*
X133193146Y-116927241D01*
X133195911Y-116901678D01*
X133207086Y-116864044D01*
X133227389Y-116811177D01*
X133257535Y-116739912D01*
X133262290Y-116728924D01*
X133285464Y-116673997D01*
X133298760Y-116636022D01*
X133301956Y-116610670D01*
X133294832Y-116593612D01*
X133277168Y-116580519D01*
X133248746Y-116567061D01*
X133248506Y-116566955D01*
X133230650Y-116560501D01*
X133212614Y-116558839D01*
X133191097Y-116563380D01*
X133162793Y-116575544D01*
X133124404Y-116596744D01*
X133072622Y-116628398D01*
X133004146Y-116671922D01*
X132998334Y-116675642D01*
X132931825Y-116717225D01*
X132881707Y-116745980D01*
X132845094Y-116763010D01*
X132819100Y-116769418D01*
X132800842Y-116766307D01*
X132787437Y-116754779D01*
X132779742Y-116740811D01*
X132778334Y-116720764D01*
X132779881Y-116718639D01*
X132796930Y-116703938D01*
X132829199Y-116679914D01*
X132872818Y-116649371D01*
X132923918Y-116615119D01*
X132939082Y-116605092D01*
X132988591Y-116571359D01*
X133029588Y-116541924D01*
X133058163Y-116519659D01*
X133070409Y-116507438D01*
X133071179Y-116503194D01*
X133063687Y-116481830D01*
X133044276Y-116455865D01*
X133039653Y-116450848D01*
X132999736Y-116392437D01*
X132980977Y-116332692D01*
X132981083Y-116327257D01*
X133076193Y-116327257D01*
X133094213Y-116369813D01*
X133128580Y-116408755D01*
X133152185Y-116424689D01*
X133190557Y-116445773D01*
X133235715Y-116467881D01*
X133280740Y-116487801D01*
X133318711Y-116502317D01*
X133342713Y-116508217D01*
X133356073Y-116498948D01*
X133374755Y-116469186D01*
X133399453Y-116417665D01*
X133414137Y-116384388D01*
X133427478Y-116347967D01*
X133428314Y-116322993D01*
X133414321Y-116304094D01*
X133383173Y-116285896D01*
X133332546Y-116263026D01*
X133269014Y-116240180D01*
X133203964Y-116228602D01*
X133148484Y-116231559D01*
X133105919Y-116248824D01*
X133079616Y-116280171D01*
X133076932Y-116287419D01*
X133076193Y-116327257D01*
X132981083Y-116327257D01*
X132982095Y-116275148D01*
X133001809Y-116223340D01*
X133038833Y-116180804D01*
X133091887Y-116151072D01*
X133159689Y-116137682D01*
X133178987Y-116136935D01*
X133207664Y-116137901D01*
G37*
G36*
X139078591Y-108236429D02*
G01*
X139088783Y-108248868D01*
X139100685Y-108273803D01*
X139116231Y-108314669D01*
X139137352Y-108374902D01*
X139148266Y-108407065D01*
X139168768Y-108473517D01*
X139179694Y-108521961D01*
X139181303Y-108555140D01*
X139181067Y-108555796D01*
X139173860Y-108575800D01*
X139157629Y-108586686D01*
X139142785Y-108591032D01*
X139106975Y-108601146D01*
X139052681Y-108616330D01*
X138982271Y-108635926D01*
X138898113Y-108659276D01*
X138802571Y-108685726D01*
X138698014Y-108714613D01*
X138586807Y-108745283D01*
X138477657Y-108775460D01*
X138373650Y-108804412D01*
X138278889Y-108830987D01*
X138195694Y-108854527D01*
X138126385Y-108874371D01*
X138073277Y-108889859D01*
X138038689Y-108900333D01*
X138024941Y-108905133D01*
X138016120Y-108907757D01*
X137994874Y-108901648D01*
X137990114Y-108895574D01*
X137977839Y-108869683D01*
X137962146Y-108829029D01*
X137944721Y-108778937D01*
X137927253Y-108724726D01*
X137911429Y-108671721D01*
X137898937Y-108625241D01*
X137896014Y-108611695D01*
X137960965Y-108611695D01*
X137961426Y-108631555D01*
X137968938Y-108665467D01*
X137983912Y-108717744D01*
X137992747Y-108746775D01*
X138006520Y-108790080D01*
X138017115Y-108820931D01*
X138022762Y-108834030D01*
X138032775Y-108835920D01*
X138056589Y-108832819D01*
X138070278Y-108828801D01*
X138081598Y-108817325D01*
X138082306Y-108791888D01*
X138081868Y-108783940D01*
X138085126Y-108761047D01*
X138099528Y-108750129D01*
X138105232Y-108748424D01*
X138118776Y-108752796D01*
X138128391Y-108776250D01*
X138135400Y-108797646D01*
X138146671Y-108805537D01*
X138170823Y-108800831D01*
X138182160Y-108797389D01*
X138199328Y-108785597D01*
X138202061Y-108763696D01*
X138204030Y-108745023D01*
X138217122Y-108728771D01*
X138235419Y-108729446D01*
X138251026Y-108749356D01*
X138258544Y-108764588D01*
X138271711Y-108770284D01*
X138298302Y-108765336D01*
X138300372Y-108764795D01*
X138323452Y-108754767D01*
X138327590Y-108743805D01*
X138324703Y-108737022D01*
X138326674Y-108716402D01*
X138337746Y-108699139D01*
X138352584Y-108695531D01*
X138358915Y-108699580D01*
X138373488Y-108719194D01*
X138383008Y-108730985D01*
X138408924Y-108734420D01*
X138415699Y-108733766D01*
X138433043Y-108726038D01*
X138435674Y-108704283D01*
X138436243Y-108689191D01*
X138446452Y-108670295D01*
X138463199Y-108670068D01*
X138479639Y-108690634D01*
X138488554Y-108707331D01*
X138501281Y-108712142D01*
X138525777Y-108703638D01*
X138543549Y-108695169D01*
X138555183Y-108682181D01*
X138553613Y-108660980D01*
X138551632Y-108649443D01*
X138554037Y-108620080D01*
X138566641Y-108609004D01*
X138583790Y-108617796D01*
X138599829Y-108648040D01*
X138605870Y-108664259D01*
X138616673Y-108674184D01*
X138637496Y-108669908D01*
X138658232Y-108657399D01*
X138672805Y-108626393D01*
X138673985Y-108621535D01*
X138684651Y-108600036D01*
X138700019Y-108601570D01*
X138721140Y-108626135D01*
X138723241Y-108629163D01*
X138739857Y-108643185D01*
X138763213Y-108639085D01*
X138779309Y-108631472D01*
X138786310Y-108618583D01*
X138783727Y-108592259D01*
X138782540Y-108574339D01*
X138790354Y-108549825D01*
X138806419Y-108542568D01*
X138824081Y-108553607D01*
X138836685Y-108583984D01*
X138836806Y-108584601D01*
X138842404Y-108604926D01*
X138853726Y-108610647D01*
X138879606Y-108606379D01*
X138907096Y-108598720D01*
X138920842Y-108587664D01*
X138916117Y-108571948D01*
X138913575Y-108566132D01*
X138915204Y-108544487D01*
X138916875Y-108541636D01*
X138932792Y-108535850D01*
X138953098Y-108543811D01*
X138967823Y-108562169D01*
X138975174Y-108570997D01*
X139000740Y-108572292D01*
X139006049Y-108571110D01*
X139020559Y-108565128D01*
X139024856Y-108551529D01*
X139022449Y-108522225D01*
X139020470Y-108495150D01*
X139024749Y-108480079D01*
X139038348Y-108474763D01*
X139043578Y-108474448D01*
X139058898Y-108483623D01*
X139070425Y-108512430D01*
X139078437Y-108537106D01*
X139088519Y-108547493D01*
X139105191Y-108544179D01*
X139113918Y-108539164D01*
X139118972Y-108528149D01*
X139117433Y-108507640D01*
X139108860Y-108473246D01*
X139092816Y-108420576D01*
X139082409Y-108388011D01*
X139067949Y-108344471D01*
X139056959Y-108313480D01*
X139051235Y-108300238D01*
X139050989Y-108300178D01*
X139036597Y-108303115D01*
X139002193Y-108311732D01*
X138950552Y-108325261D01*
X138884446Y-108342934D01*
X138806651Y-108363985D01*
X138719937Y-108387645D01*
X138627081Y-108413146D01*
X138530856Y-108439720D01*
X138434034Y-108466600D01*
X138339390Y-108493017D01*
X138249697Y-108518206D01*
X138167729Y-108541396D01*
X138096260Y-108561821D01*
X138038063Y-108578711D01*
X137995912Y-108591302D01*
X137972581Y-108598823D01*
X137967146Y-108601574D01*
X137960965Y-108611695D01*
X137896014Y-108611695D01*
X137891465Y-108590609D01*
X137890700Y-108573148D01*
X137895873Y-108570676D01*
X137921264Y-108561965D01*
X137965459Y-108548005D01*
X138025837Y-108529553D01*
X138099777Y-108507371D01*
X138184657Y-108482218D01*
X138277853Y-108454855D01*
X138376747Y-108426043D01*
X138478716Y-108396539D01*
X138581138Y-108367108D01*
X138681392Y-108338506D01*
X138776855Y-108311495D01*
X138864907Y-108286835D01*
X138942926Y-108265286D01*
X139008291Y-108247609D01*
X139058376Y-108234562D01*
X139068173Y-108233050D01*
X139078591Y-108236429D01*
G37*
G36*
X139538773Y-108105346D02*
G01*
X139549408Y-108121276D01*
X139564935Y-108154782D01*
X139585772Y-108206945D01*
X139612340Y-108278838D01*
X139645061Y-108371542D01*
X139684354Y-108486135D01*
X139814727Y-108870359D01*
X139851082Y-108868400D01*
X139861402Y-108867828D01*
X139883173Y-108868027D01*
X139896923Y-108874933D01*
X139908745Y-108893544D01*
X139924729Y-108928862D01*
X139938957Y-108959859D01*
X139950107Y-108976570D01*
X139961830Y-108979499D01*
X139979449Y-108972935D01*
X139981510Y-108972036D01*
X140007366Y-108964692D01*
X140025690Y-108971357D01*
X140040129Y-108995282D01*
X140054325Y-109039720D01*
X140054695Y-109041067D01*
X140064308Y-109078909D01*
X140066214Y-109101038D01*
X140059509Y-109114573D01*
X140043287Y-109126634D01*
X140034544Y-109132583D01*
X140018725Y-109150281D01*
X140017603Y-109173899D01*
X140017778Y-109175111D01*
X140021754Y-109190140D01*
X140031010Y-109202075D01*
X140049190Y-109212508D01*
X140079944Y-109223029D01*
X140126916Y-109235226D01*
X140193753Y-109250689D01*
X140222580Y-109257319D01*
X140272468Y-109269887D01*
X140304659Y-109280343D01*
X140323257Y-109290174D01*
X140332374Y-109300866D01*
X140336807Y-109314693D01*
X140335455Y-109338725D01*
X140333783Y-109340851D01*
X140314868Y-109353115D01*
X140279011Y-109371135D01*
X140230540Y-109392839D01*
X140173781Y-109416154D01*
X140019517Y-109476940D01*
X140033139Y-109516033D01*
X140046762Y-109555127D01*
X140191454Y-109501200D01*
X140199567Y-109498190D01*
X140253951Y-109478771D01*
X140299763Y-109463670D01*
X140332397Y-109454335D01*
X140347246Y-109452214D01*
X140353636Y-109457554D01*
X140364193Y-109477966D01*
X140363738Y-109487950D01*
X140354630Y-109506194D01*
X140334293Y-109533559D01*
X140308048Y-109564150D01*
X140300775Y-109572627D01*
X140252122Y-109625976D01*
X140134205Y-109753175D01*
X140152800Y-109803974D01*
X140157432Y-109818005D01*
X140164471Y-109850943D01*
X140163612Y-109872253D01*
X140154153Y-109878084D01*
X140121820Y-109886830D01*
X140068201Y-109896698D01*
X139994798Y-109907418D01*
X139903121Y-109918725D01*
X139880134Y-109921364D01*
X139805287Y-109929984D01*
X139738673Y-109937694D01*
X139684198Y-109944041D01*
X139645766Y-109948570D01*
X139627281Y-109950827D01*
X139616589Y-109949672D01*
X139602405Y-109938070D01*
X139585527Y-109911526D01*
X139563092Y-109866274D01*
X139557754Y-109854652D01*
X139540612Y-109813582D01*
X139529958Y-109781801D01*
X139527918Y-109765402D01*
X139532779Y-109760048D01*
X139555406Y-109746394D01*
X139588744Y-109732077D01*
X139618318Y-109720197D01*
X139643354Y-109704291D01*
X139650578Y-109685896D01*
X139643346Y-109660625D01*
X139642301Y-109658394D01*
X139636477Y-109650824D01*
X139626363Y-109647347D01*
X139608918Y-109648671D01*
X139581110Y-109655502D01*
X139539898Y-109668548D01*
X139482246Y-109688516D01*
X139405118Y-109716114D01*
X139394197Y-109720041D01*
X139311485Y-109749058D01*
X139248007Y-109769456D01*
X139201075Y-109781611D01*
X139167992Y-109785900D01*
X139146067Y-109782700D01*
X139132608Y-109772390D01*
X139124921Y-109755344D01*
X139124890Y-109744043D01*
X139131024Y-109726153D01*
X139144879Y-109699203D01*
X139167952Y-109660532D01*
X139201746Y-109607479D01*
X139247756Y-109537383D01*
X139250694Y-109532945D01*
X139291458Y-109471510D01*
X139328305Y-109416236D01*
X139358909Y-109370594D01*
X139380942Y-109338053D01*
X139392083Y-109322081D01*
X139394491Y-109317942D01*
X139397294Y-109294479D01*
X139390697Y-109255229D01*
X139374278Y-109197232D01*
X139359078Y-109145139D01*
X139351003Y-109102430D01*
X139353172Y-109072551D01*
X139366059Y-109050564D01*
X139390136Y-109031532D01*
X139400775Y-109024413D01*
X139412804Y-109011572D01*
X139413092Y-108993794D01*
X139403306Y-108962304D01*
X139401482Y-108957027D01*
X139354415Y-108820364D01*
X139311012Y-108693426D01*
X139271810Y-108577829D01*
X139237344Y-108475189D01*
X139208151Y-108387121D01*
X139184765Y-108315243D01*
X139167723Y-108261168D01*
X139162718Y-108244101D01*
X139220051Y-108244101D01*
X139233963Y-108293688D01*
X139247929Y-108331611D01*
X139265264Y-108351561D01*
X139284950Y-108348539D01*
X139290766Y-108345997D01*
X139312411Y-108347627D01*
X139319993Y-108355239D01*
X139319290Y-108373451D01*
X139307218Y-108390940D01*
X139288323Y-108398163D01*
X139277585Y-108400387D01*
X139275784Y-108413445D01*
X139284711Y-108442841D01*
X139287796Y-108450704D01*
X139304277Y-108479002D01*
X139321356Y-108491898D01*
X139325481Y-108492709D01*
X139348123Y-108504272D01*
X139354511Y-108520832D01*
X139341538Y-108535655D01*
X139332379Y-108541869D01*
X139327112Y-108557947D01*
X139333503Y-108587836D01*
X139335483Y-108594373D01*
X139344845Y-108618299D01*
X139357210Y-108625941D01*
X139380340Y-108623154D01*
X139407271Y-108620301D01*
X139428592Y-108622730D01*
X139436774Y-108631697D01*
X139433314Y-108649070D01*
X139417805Y-108665708D01*
X139395130Y-108674114D01*
X139379757Y-108675881D01*
X139371260Y-108683751D01*
X139376447Y-108705464D01*
X139386001Y-108723696D01*
X139413484Y-108739554D01*
X139414817Y-108739801D01*
X139437879Y-108751516D01*
X139441492Y-108769350D01*
X139424060Y-108786251D01*
X139416183Y-108790974D01*
X139409236Y-108805157D01*
X139416191Y-108831230D01*
X139422536Y-108846018D01*
X139435840Y-108860944D01*
X139457129Y-108861880D01*
X139478287Y-108861021D01*
X139503433Y-108868573D01*
X139512683Y-108882867D01*
X139503989Y-108898482D01*
X139475304Y-108909996D01*
X139473400Y-108910368D01*
X139455413Y-108915593D01*
X139452396Y-108926415D01*
X139461608Y-108951062D01*
X139468035Y-108964844D01*
X139484246Y-108982880D01*
X139510891Y-108988472D01*
X139517800Y-108988667D01*
X139526401Y-108989101D01*
X139534132Y-108991421D01*
X139541763Y-108997528D01*
X139550062Y-109009319D01*
X139559800Y-109028695D01*
X139571747Y-109057551D01*
X139586671Y-109097791D01*
X139605343Y-109151309D01*
X139628532Y-109220007D01*
X139657009Y-109305783D01*
X139691542Y-109410535D01*
X139732902Y-109536162D01*
X139734056Y-109539685D01*
X139740870Y-109566608D01*
X139736201Y-109582207D01*
X139717467Y-109596585D01*
X139710231Y-109601358D01*
X139696691Y-109614293D01*
X139696048Y-109631017D01*
X139706790Y-109660576D01*
X139710273Y-109669776D01*
X139718314Y-109701429D01*
X139717846Y-109722476D01*
X139711029Y-109730204D01*
X139686269Y-109746309D01*
X139651427Y-109762608D01*
X139592434Y-109786063D01*
X139609351Y-109833122D01*
X139613426Y-109843728D01*
X139627150Y-109871785D01*
X139638710Y-109885720D01*
X139638756Y-109885740D01*
X139654341Y-109886108D01*
X139689755Y-109883858D01*
X139741045Y-109879339D01*
X139804263Y-109872898D01*
X139875453Y-109864883D01*
X140099755Y-109838506D01*
X140086854Y-109793749D01*
X140084689Y-109785832D01*
X140078693Y-109755885D01*
X140078665Y-109738412D01*
X140084632Y-109730301D01*
X140104392Y-109707284D01*
X140134293Y-109674091D01*
X140170673Y-109634843D01*
X140257970Y-109541854D01*
X140146490Y-109578488D01*
X140116892Y-109587776D01*
X140071177Y-109600283D01*
X140036440Y-109607443D01*
X140018506Y-109607919D01*
X140013513Y-109603990D01*
X140000071Y-109581652D01*
X139988374Y-109548342D01*
X139974746Y-109495970D01*
X139931143Y-109504804D01*
X139902729Y-109508926D01*
X139883300Y-109503975D01*
X139865929Y-109485939D01*
X139865511Y-109485389D01*
X139853901Y-109463623D01*
X139837235Y-109424420D01*
X139816867Y-109371771D01*
X139794145Y-109309665D01*
X139770424Y-109242094D01*
X139747054Y-109173048D01*
X139725388Y-109106516D01*
X139706777Y-109046490D01*
X139692573Y-108996958D01*
X139684128Y-108961914D01*
X139682793Y-108945346D01*
X139683118Y-108944659D01*
X139699642Y-108926395D01*
X139726867Y-108908089D01*
X139762789Y-108889141D01*
X139729309Y-108791935D01*
X139724778Y-108778760D01*
X139708392Y-108730949D01*
X139686589Y-108667174D01*
X139661033Y-108592311D01*
X139633389Y-108511240D01*
X139605324Y-108428837D01*
X139597514Y-108405901D01*
X139570456Y-108326843D01*
X139549533Y-108267248D01*
X139533496Y-108224484D01*
X139521096Y-108195924D01*
X139511085Y-108178941D01*
X139502213Y-108170904D01*
X139493233Y-108169186D01*
X139482894Y-108171158D01*
X139471226Y-108174244D01*
X139436099Y-108183807D01*
X139388571Y-108196934D01*
X139335509Y-108211735D01*
X139220051Y-108244101D01*
X139162718Y-108244101D01*
X139157561Y-108226515D01*
X139154814Y-108212899D01*
X139155922Y-108211933D01*
X139173299Y-108204793D01*
X139207925Y-108193253D01*
X139255060Y-108178675D01*
X139309964Y-108162421D01*
X139367899Y-108145849D01*
X139424127Y-108130323D01*
X139473908Y-108117205D01*
X139512504Y-108107855D01*
X139535175Y-108103633D01*
X139538773Y-108105346D01*
G37*
G36*
X137172625Y-107923142D02*
G01*
X137298321Y-107963984D01*
X137414422Y-108026608D01*
X137520293Y-108110707D01*
X137615301Y-108215982D01*
X137698811Y-108342126D01*
X137708254Y-108359312D01*
X137741842Y-108428286D01*
X137775126Y-108507034D01*
X137805204Y-108587901D01*
X137829172Y-108663234D01*
X137844130Y-108725377D01*
X137844868Y-108729485D01*
X137852545Y-108771249D01*
X137863282Y-108828605D01*
X137875759Y-108894531D01*
X137888654Y-108962008D01*
X137890670Y-108972983D01*
X137899294Y-109029406D01*
X137908042Y-109099843D01*
X137916525Y-109179564D01*
X137924355Y-109263840D01*
X137931143Y-109347940D01*
X137936500Y-109427137D01*
X137940038Y-109496701D01*
X137941368Y-109551903D01*
X137940101Y-109588012D01*
X137942854Y-109594239D01*
X137957555Y-109600473D01*
X137987491Y-109605485D01*
X138035585Y-109609732D01*
X138104760Y-109613669D01*
X138258503Y-109624300D01*
X138469201Y-109650732D01*
X138674861Y-109691712D01*
X138884861Y-109748864D01*
X138887333Y-109749620D01*
X138942075Y-109766951D01*
X138993094Y-109784588D01*
X139044582Y-109804283D01*
X139100732Y-109827787D01*
X139165738Y-109856853D01*
X139243790Y-109893233D01*
X139339081Y-109938679D01*
X139406600Y-109971347D01*
X139489020Y-110011862D01*
X139566318Y-110050519D01*
X139634346Y-110085220D01*
X139688958Y-110113866D01*
X139726006Y-110134361D01*
X139774612Y-110164320D01*
X139853297Y-110217142D01*
X139938648Y-110278394D01*
X140024363Y-110343389D01*
X140104137Y-110407435D01*
X140171667Y-110465845D01*
X140205741Y-110496592D01*
X140235432Y-110521312D01*
X140262586Y-110539524D01*
X140293510Y-110554812D01*
X140334513Y-110570758D01*
X140391903Y-110590945D01*
X140400606Y-110593998D01*
X140568664Y-110664418D01*
X140736316Y-110755358D01*
X140899691Y-110863767D01*
X141054922Y-110986597D01*
X141198137Y-111120800D01*
X141325468Y-111263328D01*
X141433043Y-111411131D01*
X141435561Y-111415010D01*
X141459158Y-111447979D01*
X141483850Y-111473132D01*
X141516549Y-111496406D01*
X141564165Y-111523734D01*
X141625011Y-111557886D01*
X141751674Y-111636720D01*
X141857675Y-111715370D01*
X141945233Y-111795776D01*
X142016564Y-111879879D01*
X142073887Y-111969619D01*
X142089266Y-112000354D01*
X142117115Y-112086167D01*
X142124462Y-112177065D01*
X142111331Y-112275553D01*
X142077744Y-112384141D01*
X142076047Y-112388576D01*
X142058520Y-112435892D01*
X142048965Y-112469097D01*
X142046652Y-112495841D01*
X142050846Y-112523778D01*
X142060809Y-112560558D01*
X142095400Y-112693405D01*
X142130875Y-112871189D01*
X142154233Y-113047094D01*
X142165069Y-113216667D01*
X142162982Y-113375455D01*
X142147569Y-113519002D01*
X142137874Y-113563631D01*
X142110373Y-113649235D01*
X142070745Y-113745270D01*
X142021440Y-113847109D01*
X141964910Y-113950122D01*
X141903604Y-114049682D01*
X141839973Y-114141159D01*
X141776467Y-114219928D01*
X141773754Y-114222902D01*
X141750213Y-114246391D01*
X141711483Y-114283043D01*
X141659984Y-114330690D01*
X141598137Y-114387161D01*
X141528361Y-114450291D01*
X141453077Y-114517910D01*
X141374705Y-114587851D01*
X141295665Y-114657947D01*
X141218376Y-114726029D01*
X141145259Y-114789928D01*
X141078735Y-114847477D01*
X141021222Y-114896507D01*
X140978175Y-114932040D01*
X140935178Y-114965316D01*
X140891467Y-114996187D01*
X140844638Y-115025893D01*
X140792284Y-115055672D01*
X140732002Y-115086760D01*
X140661385Y-115120399D01*
X140578030Y-115157826D01*
X140479530Y-115200279D01*
X140363481Y-115248996D01*
X140227478Y-115305217D01*
X140205689Y-115314203D01*
X140151579Y-115336678D01*
X140102783Y-115357147D01*
X140067755Y-115372072D01*
X140015406Y-115394754D01*
X140048606Y-115337267D01*
X140052566Y-115330494D01*
X140072391Y-115297431D01*
X140101726Y-115249233D01*
X140138147Y-115189854D01*
X140179232Y-115123248D01*
X140222559Y-115053370D01*
X140353258Y-114842651D01*
X140504818Y-114597270D01*
X140668087Y-114331950D01*
X140671871Y-114325795D01*
X140701712Y-114277368D01*
X140740492Y-114214581D01*
X140785003Y-114142626D01*
X140832034Y-114066690D01*
X140878376Y-113991964D01*
X140925458Y-113916004D01*
X140981864Y-113824820D01*
X141039369Y-113731699D01*
X141093381Y-113644080D01*
X141139305Y-113569406D01*
X141141287Y-113566174D01*
X141179242Y-113504677D01*
X141213220Y-113450185D01*
X141241092Y-113406072D01*
X141260725Y-113375709D01*
X141269993Y-113362472D01*
X141273930Y-113354337D01*
X141270982Y-113332725D01*
X141269037Y-113329193D01*
X141264601Y-113324889D01*
X141256368Y-113322556D01*
X141241882Y-113322585D01*
X141218685Y-113325374D01*
X141184320Y-113331315D01*
X141136329Y-113340803D01*
X141072256Y-113354232D01*
X140989642Y-113371996D01*
X140886032Y-113394491D01*
X140882205Y-113395323D01*
X140814160Y-113410132D01*
X140731317Y-113428180D01*
X140638459Y-113448424D01*
X140540367Y-113469820D01*
X140441824Y-113491324D01*
X140347611Y-113511892D01*
X140262510Y-113530483D01*
X140191304Y-113546050D01*
X140138773Y-113557553D01*
X140096885Y-113566730D01*
X140031748Y-113580981D01*
X139960129Y-113596636D01*
X139891374Y-113611651D01*
X139840067Y-113622852D01*
X139760235Y-113640290D01*
X139681170Y-113657568D01*
X139614216Y-113672209D01*
X139587766Y-113677985D01*
X139503723Y-113696244D01*
X139405255Y-113717533D01*
X139298679Y-113740497D01*
X139190307Y-113763778D01*
X139086451Y-113786018D01*
X138993425Y-113805862D01*
X138917545Y-113821952D01*
X138899028Y-113825794D01*
X138873705Y-113830560D01*
X138859479Y-113832094D01*
X138857773Y-113829749D01*
X138870010Y-113822880D01*
X138897614Y-113810836D01*
X138942010Y-113792972D01*
X139004621Y-113768640D01*
X139086869Y-113737192D01*
X139190181Y-113697982D01*
X139197526Y-113695200D01*
X139290671Y-113660016D01*
X139401876Y-113618149D01*
X139527057Y-113571133D01*
X139662130Y-113520495D01*
X139803012Y-113467766D01*
X139945619Y-113414474D01*
X140085868Y-113362150D01*
X140219676Y-113312324D01*
X140303590Y-113280992D01*
X140416036Y-113238626D01*
X140520069Y-113198988D01*
X140613670Y-113162873D01*
X140694825Y-113131069D01*
X140761513Y-113104373D01*
X140811718Y-113083576D01*
X140843422Y-113069472D01*
X140854608Y-113062852D01*
X140853378Y-113055815D01*
X140838967Y-113041494D01*
X140838456Y-113041283D01*
X140834623Y-113040541D01*
X140828415Y-113040914D01*
X140818645Y-113042828D01*
X140804133Y-113046713D01*
X140783692Y-113052998D01*
X140756144Y-113062109D01*
X140720302Y-113074476D01*
X140674983Y-113090527D01*
X140619006Y-113110692D01*
X140551185Y-113135397D01*
X140470340Y-113165072D01*
X140375285Y-113200145D01*
X140264838Y-113241044D01*
X140137816Y-113288197D01*
X139993036Y-113342034D01*
X139829313Y-113402983D01*
X139645466Y-113471471D01*
X139440311Y-113547928D01*
X139409888Y-113559265D01*
X139278853Y-113608069D01*
X139151532Y-113655438D01*
X139030274Y-113700505D01*
X138917427Y-113742399D01*
X138815335Y-113780249D01*
X138726349Y-113813184D01*
X138652813Y-113840337D01*
X138597075Y-113860834D01*
X138561481Y-113873807D01*
X138498664Y-113897378D01*
X138450339Y-113918661D01*
X138409848Y-113941638D01*
X138369564Y-113970650D01*
X138321859Y-114010030D01*
X138295155Y-114032801D01*
X138248962Y-114072194D01*
X138189821Y-114122633D01*
X138120618Y-114181652D01*
X138044243Y-114246789D01*
X137963585Y-114315581D01*
X137881532Y-114385563D01*
X137827131Y-114431947D01*
X137737495Y-114508318D01*
X137647120Y-114585255D01*
X137559805Y-114659530D01*
X137479351Y-114727909D01*
X137409557Y-114787162D01*
X137354220Y-114834057D01*
X137306040Y-114874880D01*
X137225183Y-114943554D01*
X137139994Y-115016059D01*
X137058038Y-115085961D01*
X136986873Y-115146820D01*
X136978696Y-115153818D01*
X136924106Y-115200044D01*
X136876168Y-115239827D01*
X136837750Y-115270841D01*
X136811723Y-115290765D01*
X136800957Y-115297276D01*
X136801103Y-115292583D01*
X136807785Y-115269265D01*
X136821296Y-115229864D01*
X136840298Y-115178214D01*
X136863452Y-115118149D01*
X136882059Y-115070329D01*
X136910726Y-114995507D01*
X136943980Y-114907782D01*
X136979817Y-114812467D01*
X137016234Y-114714874D01*
X137051228Y-114620316D01*
X137081700Y-114537792D01*
X137116067Y-114445186D01*
X137149245Y-114356230D01*
X137179466Y-114275648D01*
X137204964Y-114208163D01*
X137223972Y-114158498D01*
X137247659Y-114096699D01*
X137277910Y-114016607D01*
X137308742Y-113933993D01*
X137336209Y-113859372D01*
X137346983Y-113829997D01*
X137372037Y-113762440D01*
X137402476Y-113681047D01*
X137436227Y-113591342D01*
X137471215Y-113498850D01*
X137505363Y-113409092D01*
X137567873Y-113244856D01*
X137629194Y-113082524D01*
X137681995Y-112941249D01*
X137726506Y-112820383D01*
X137762953Y-112719289D01*
X137791566Y-112637321D01*
X137812572Y-112573838D01*
X137826201Y-112528194D01*
X137832679Y-112499748D01*
X137832234Y-112487856D01*
X137829103Y-112484977D01*
X137816444Y-112479946D01*
X137803499Y-112488250D01*
X137788668Y-112512317D01*
X137770352Y-112554581D01*
X137746950Y-112617473D01*
X137732574Y-112657075D01*
X137709402Y-112719831D01*
X137680862Y-112796367D01*
X137648688Y-112882048D01*
X137614612Y-112972245D01*
X137580371Y-113062328D01*
X137557772Y-113121735D01*
X137518413Y-113225782D01*
X137477865Y-113333584D01*
X137438581Y-113438602D01*
X137403011Y-113534294D01*
X137373606Y-113614119D01*
X137344582Y-113692998D01*
X137312385Y-113779663D01*
X137280908Y-113863628D01*
X137252638Y-113938268D01*
X137230057Y-113996960D01*
X137227787Y-114002852D01*
X137208724Y-114052325D01*
X137180621Y-114126317D01*
X137149160Y-114209947D01*
X137116833Y-114296593D01*
X137086131Y-114379631D01*
X137084967Y-114382793D01*
X137055486Y-114462763D01*
X137025741Y-114543112D01*
X136997864Y-114618110D01*
X136973984Y-114682026D01*
X136956231Y-114729130D01*
X136945257Y-114758001D01*
X136922151Y-114818775D01*
X136894637Y-114891133D01*
X136887335Y-114910334D01*
X136865264Y-114968367D01*
X136836582Y-115043772D01*
X136801971Y-115135015D01*
X136770889Y-115217872D01*
X136747197Y-115282617D01*
X136730201Y-115331498D01*
X136719206Y-115366764D01*
X136713514Y-115390664D01*
X136712434Y-115405448D01*
X136715268Y-115413364D01*
X136721322Y-115416661D01*
X136724443Y-115417305D01*
X136732123Y-115417431D01*
X136741916Y-115414141D01*
X136756120Y-115405687D01*
X136777037Y-115390326D01*
X136806965Y-115366307D01*
X136848203Y-115331885D01*
X136903052Y-115285312D01*
X136973811Y-115224841D01*
X137020004Y-115186015D01*
X137066205Y-115148769D01*
X137103238Y-115120669D01*
X137128148Y-115103947D01*
X137137978Y-115100837D01*
X137140050Y-115107676D01*
X137148406Y-115134925D01*
X137161772Y-115178346D01*
X137178847Y-115233715D01*
X137198328Y-115296812D01*
X137210946Y-115337695D01*
X137240613Y-115434082D01*
X137274841Y-115545545D01*
X137312018Y-115666823D01*
X137350535Y-115792648D01*
X137388779Y-115917760D01*
X137425142Y-116036893D01*
X137458011Y-116144785D01*
X137485776Y-116236171D01*
X137499401Y-116280228D01*
X137519304Y-116339423D01*
X137535665Y-116379096D01*
X137549788Y-116401675D01*
X137562972Y-116409582D01*
X137576520Y-116405241D01*
X137580943Y-116396833D01*
X137591622Y-116365801D01*
X137607536Y-116312891D01*
X137628455Y-116238943D01*
X137654148Y-116144790D01*
X137666715Y-116097606D01*
X138162520Y-116097606D01*
X138167180Y-116111067D01*
X138179042Y-116126962D01*
X138180140Y-116128326D01*
X138201700Y-116151739D01*
X138218692Y-116165008D01*
X138220969Y-116165401D01*
X138239362Y-116158113D01*
X138241615Y-116156611D01*
X138332286Y-116156611D01*
X138336035Y-116188222D01*
X138358309Y-116223865D01*
X138400457Y-116267138D01*
X138418012Y-116283843D01*
X138439823Y-116306739D01*
X138449258Y-116319848D01*
X138456802Y-116329701D01*
X138478617Y-116350580D01*
X138509332Y-116376749D01*
X138549183Y-116409194D01*
X138607239Y-116456865D01*
X138649477Y-116492251D01*
X138677846Y-116517025D01*
X138694285Y-116532857D01*
X138700736Y-116541419D01*
X138700962Y-116541929D01*
X138714870Y-116554220D01*
X138740912Y-116568333D01*
X138771206Y-116590040D01*
X138793370Y-116630045D01*
X138797928Y-116642010D01*
X138808852Y-116662481D01*
X138825571Y-116679135D01*
X138853441Y-116696549D01*
X138897817Y-116719303D01*
X138985803Y-116762876D01*
X139005495Y-116732173D01*
X139018912Y-116707630D01*
X139023974Y-116690722D01*
X139022722Y-116687557D01*
X139010189Y-116668409D01*
X138987181Y-116637702D01*
X138957353Y-116600392D01*
X138955501Y-116598144D01*
X138916400Y-116553797D01*
X138887373Y-116528154D01*
X138866319Y-116519341D01*
X138841074Y-116513068D01*
X138810241Y-116497734D01*
X138787422Y-116480631D01*
X138747740Y-116447132D01*
X138698860Y-116403368D01*
X138644871Y-116353207D01*
X138589858Y-116300516D01*
X138537912Y-116249163D01*
X138493118Y-116203016D01*
X138459565Y-116165942D01*
X138445680Y-116149873D01*
X138415806Y-116117180D01*
X138392984Y-116094794D01*
X138381299Y-116086844D01*
X138379816Y-116087316D01*
X138365560Y-116099939D01*
X138346740Y-116123931D01*
X138345714Y-116125438D01*
X138332286Y-116156611D01*
X138241615Y-116156611D01*
X138266617Y-116139942D01*
X138296280Y-116116004D01*
X138321891Y-116091412D01*
X138336997Y-116071281D01*
X138340049Y-116066497D01*
X138358140Y-116046478D01*
X138384717Y-116022122D01*
X138386109Y-116020943D01*
X138416948Y-115992788D01*
X138429902Y-115972882D01*
X138426497Y-115955604D01*
X138408255Y-115935339D01*
X138395362Y-115923133D01*
X138378560Y-115909069D01*
X138363692Y-115903675D01*
X138346864Y-115908492D01*
X138324173Y-115925058D01*
X138291720Y-115954915D01*
X138245607Y-115999605D01*
X138212798Y-116031570D01*
X138183226Y-116061884D01*
X138167167Y-116082554D01*
X138162520Y-116097606D01*
X137666715Y-116097606D01*
X137684384Y-116031269D01*
X137718932Y-115899215D01*
X137757563Y-115749465D01*
X137760524Y-115737927D01*
X137777806Y-115670930D01*
X137778566Y-115667997D01*
X137830488Y-115667997D01*
X137831167Y-115689175D01*
X137834661Y-115708291D01*
X137843047Y-115728774D01*
X137858403Y-115754055D01*
X137882804Y-115787567D01*
X137918326Y-115832738D01*
X137967048Y-115892999D01*
X138007622Y-115942547D01*
X138047864Y-115990824D01*
X138080971Y-116029608D01*
X138104313Y-116055826D01*
X138115257Y-116066397D01*
X138117504Y-116067312D01*
X138123420Y-116067761D01*
X138131994Y-116063589D01*
X138146116Y-116052351D01*
X138168674Y-116031604D01*
X138202557Y-115998900D01*
X138250655Y-115951794D01*
X138270309Y-115932067D01*
X138302074Y-115897997D01*
X138324141Y-115871332D01*
X138332616Y-115856594D01*
X138327092Y-115844880D01*
X138308640Y-115817060D01*
X138279540Y-115776885D01*
X138242188Y-115727653D01*
X138198978Y-115672659D01*
X138152826Y-115615640D01*
X138108930Y-115563806D01*
X138075928Y-115528310D01*
X138052165Y-115507397D01*
X138035993Y-115499311D01*
X138015688Y-115498271D01*
X137967469Y-115508737D01*
X137916903Y-115533255D01*
X137872126Y-115568393D01*
X137854343Y-115586710D01*
X137838092Y-115608481D01*
X137831678Y-115631719D01*
X137830490Y-115667381D01*
X137830488Y-115667997D01*
X137778566Y-115667997D01*
X137798389Y-115591544D01*
X137819941Y-115508731D01*
X137840140Y-115431456D01*
X137843862Y-115417251D01*
X137859249Y-115358517D01*
X137879448Y-115281383D01*
X137903504Y-115189514D01*
X137930454Y-115086572D01*
X137959340Y-114976221D01*
X137989204Y-114862125D01*
X138019086Y-114747946D01*
X138035862Y-114683970D01*
X138062909Y-114581345D01*
X138087963Y-114486942D01*
X138110346Y-114403263D01*
X138129386Y-114332811D01*
X138144408Y-114278086D01*
X138154739Y-114241594D01*
X138159703Y-114225833D01*
X138162358Y-114221776D01*
X138180726Y-114201942D01*
X138212728Y-114171519D01*
X138254776Y-114133846D01*
X138303275Y-114092264D01*
X138437374Y-113979682D01*
X138842643Y-113891337D01*
X138892121Y-113880554D01*
X139002252Y-113856579D01*
X139128435Y-113829132D01*
X139265798Y-113799271D01*
X139409472Y-113768056D01*
X139554587Y-113736545D01*
X139696271Y-113705796D01*
X139829655Y-113676866D01*
X139832119Y-113676332D01*
X139950710Y-113650607D01*
X140065322Y-113625718D01*
X140173170Y-113602271D01*
X140271473Y-113580875D01*
X140357447Y-113562133D01*
X140428304Y-113546652D01*
X140481267Y-113535039D01*
X140513549Y-113527901D01*
X140517498Y-113527018D01*
X140560635Y-113517403D01*
X140608920Y-113506698D01*
X140665404Y-113494230D01*
X140733136Y-113479328D01*
X140815172Y-113461322D01*
X140914560Y-113439540D01*
X141034351Y-113413308D01*
X141035460Y-113413066D01*
X141090920Y-113401402D01*
X141137611Y-113392443D01*
X141170654Y-113387070D01*
X141185168Y-113386159D01*
X141185196Y-113386172D01*
X141182557Y-113397316D01*
X141169031Y-113424490D01*
X141146808Y-113463632D01*
X141118077Y-113510681D01*
X141089379Y-113556533D01*
X141049910Y-113620045D01*
X141004893Y-113692822D01*
X140957918Y-113769057D01*
X140912577Y-113842944D01*
X140871892Y-113909289D01*
X140822915Y-113988907D01*
X140774723Y-114067022D01*
X140731224Y-114137300D01*
X140696322Y-114193413D01*
X140673261Y-114230408D01*
X140631037Y-114298354D01*
X140583380Y-114375226D01*
X140534575Y-114454113D01*
X140488903Y-114528107D01*
X140395849Y-114678971D01*
X140286038Y-114856675D01*
X140186232Y-115017803D01*
X140097245Y-115161038D01*
X140019892Y-115285063D01*
X139994159Y-115326812D01*
X139962855Y-115379459D01*
X139938438Y-115422783D01*
X139922931Y-115453157D01*
X139918361Y-115466951D01*
X139919180Y-115468894D01*
X139927851Y-115476583D01*
X139945304Y-115476940D01*
X139974735Y-115469170D01*
X140019349Y-115452474D01*
X140082340Y-115426052D01*
X140207246Y-115372414D01*
X140324803Y-115322332D01*
X140420775Y-115281943D01*
X140495330Y-115251179D01*
X140548636Y-115229970D01*
X140580862Y-115218246D01*
X140592175Y-115215938D01*
X140592204Y-115216704D01*
X140583101Y-115230493D01*
X140560005Y-115257160D01*
X140525967Y-115293606D01*
X140484036Y-115336737D01*
X140437263Y-115383456D01*
X140388697Y-115430666D01*
X140341390Y-115475272D01*
X140298389Y-115514176D01*
X140272889Y-115536711D01*
X140234785Y-115571775D01*
X140208014Y-115600183D01*
X140187981Y-115627810D01*
X140170091Y-115660533D01*
X140149749Y-115704223D01*
X140147425Y-115709396D01*
X140121383Y-115773851D01*
X140105560Y-115830586D01*
X140096766Y-115890839D01*
X140092361Y-115957491D01*
X140091775Y-116048002D01*
X140096617Y-116136078D01*
X140106447Y-116214648D01*
X140120823Y-116276638D01*
X140131358Y-116312232D01*
X140138692Y-116343588D01*
X140139827Y-116359381D01*
X140139540Y-116359905D01*
X140125600Y-116371562D01*
X140096348Y-116390562D01*
X140057425Y-116413656D01*
X140014477Y-116437596D01*
X139973143Y-116459129D01*
X139939067Y-116475009D01*
X139906349Y-116491100D01*
X139855593Y-116520363D01*
X139842272Y-116528736D01*
X139796844Y-116557290D01*
X139775142Y-116571822D01*
X139735975Y-116598049D01*
X139678865Y-116638804D01*
X139631388Y-116675723D01*
X139594164Y-116703335D01*
X139539281Y-116737326D01*
X139487915Y-116762952D01*
X139425675Y-116791945D01*
X139356870Y-116835955D01*
X139340814Y-116850951D01*
X139298894Y-116890101D01*
X139275369Y-116911488D01*
X139235988Y-116940200D01*
X139192689Y-116966574D01*
X139170647Y-116978868D01*
X139125751Y-117006472D01*
X139082991Y-117037364D01*
X139037854Y-117075215D01*
X138985829Y-117123698D01*
X138922400Y-117186484D01*
X138882438Y-117226158D01*
X138840307Y-117265154D01*
X138806531Y-117291148D01*
X138776711Y-117306895D01*
X138746446Y-117315152D01*
X138711339Y-117318672D01*
X138693271Y-117318569D01*
X138659285Y-117313216D01*
X138618582Y-117300338D01*
X138568530Y-117278751D01*
X138506493Y-117247270D01*
X138429836Y-117204711D01*
X138335926Y-117149889D01*
X138303654Y-117130773D01*
X138233419Y-117089336D01*
X138164126Y-117048647D01*
X138102335Y-117012554D01*
X138054608Y-116984904D01*
X138053962Y-116984532D01*
X137985427Y-116943240D01*
X137902496Y-116890330D01*
X137809668Y-116828904D01*
X137711441Y-116762062D01*
X137612313Y-116692902D01*
X137516782Y-116624524D01*
X137429348Y-116560028D01*
X137354509Y-116502513D01*
X137347278Y-116496833D01*
X137309210Y-116468006D01*
X137277137Y-116445368D01*
X137257366Y-116433406D01*
X137234220Y-116428601D01*
X137191495Y-116438948D01*
X137139181Y-116470656D01*
X137076938Y-116523892D01*
X136964043Y-116641546D01*
X136863169Y-116770736D01*
X136774701Y-116912884D01*
X136694987Y-117073238D01*
X136693364Y-117076861D01*
X136670058Y-117127466D01*
X136650078Y-117168351D01*
X136635499Y-117195414D01*
X136628403Y-117204556D01*
X136622915Y-117199223D01*
X136602229Y-117177826D01*
X136567463Y-117141382D01*
X136519943Y-117091296D01*
X136460994Y-117028969D01*
X136391943Y-116955807D01*
X136314117Y-116873215D01*
X136228841Y-116782594D01*
X136137442Y-116685353D01*
X136041245Y-116582892D01*
X135973200Y-116510387D01*
X135878550Y-116409569D01*
X135788890Y-116314111D01*
X135705650Y-116225531D01*
X135630260Y-116145348D01*
X135564149Y-116075081D01*
X135508744Y-116016250D01*
X135465474Y-115970374D01*
X135435772Y-115938972D01*
X135421061Y-115923562D01*
X135381474Y-115882975D01*
X135430343Y-115791913D01*
X135442030Y-115770138D01*
X135494770Y-115671886D01*
X135537402Y-115592303D01*
X135570924Y-115529290D01*
X135596329Y-115480750D01*
X135614616Y-115444583D01*
X135626778Y-115418692D01*
X135633813Y-115400976D01*
X135636716Y-115389338D01*
X135636482Y-115381680D01*
X135634108Y-115375900D01*
X135630589Y-115369904D01*
X135628537Y-115366703D01*
X135603306Y-115345965D01*
X135561430Y-115325901D01*
X135509211Y-115308650D01*
X135452948Y-115296355D01*
X135398941Y-115291157D01*
X135373093Y-115291025D01*
X135291615Y-115295884D01*
X135209881Y-115309915D01*
X135121318Y-115334500D01*
X135019355Y-115371022D01*
X134870588Y-115437462D01*
X134711528Y-115531450D01*
X134563780Y-115645459D01*
X134425226Y-115780947D01*
X134396307Y-115811674D01*
X134363400Y-115844537D01*
X134338720Y-115866717D01*
X134326119Y-115874576D01*
X134324697Y-115873627D01*
X134322597Y-115857069D01*
X134325422Y-115824277D01*
X134332772Y-115780913D01*
X134336113Y-115765665D01*
X134362994Y-115677669D01*
X134402752Y-115582081D01*
X134451606Y-115486439D01*
X134505772Y-115398281D01*
X134561469Y-115325145D01*
X134585627Y-115298278D01*
X134701289Y-115187701D01*
X134826303Y-115095103D01*
X134958383Y-115021420D01*
X135095246Y-114967592D01*
X135234607Y-114934558D01*
X135374183Y-114923255D01*
X135511691Y-114934624D01*
X135533500Y-114938270D01*
X135569012Y-114943968D01*
X135590869Y-114947155D01*
X135593490Y-114945609D01*
X135588748Y-114930137D01*
X135571603Y-114900814D01*
X135543849Y-114860932D01*
X135462982Y-114746454D01*
X135332676Y-114537560D01*
X135216828Y-114316880D01*
X135112507Y-114079101D01*
X135108966Y-114070244D01*
X135014067Y-113803658D01*
X134950055Y-113566310D01*
X135255325Y-113566310D01*
X135273638Y-113741739D01*
X135276811Y-113770300D01*
X135284562Y-113828369D01*
X135292597Y-113875132D01*
X135300134Y-113906387D01*
X135306392Y-113917927D01*
X135316435Y-113919306D01*
X135346848Y-113924668D01*
X135391118Y-113933073D01*
X135443578Y-113943466D01*
X135566325Y-113968247D01*
X135592516Y-114027338D01*
X135600860Y-114045346D01*
X135625604Y-114093540D01*
X135650016Y-114135569D01*
X135681328Y-114184708D01*
X135621135Y-114319903D01*
X135560942Y-114455098D01*
X135597069Y-114484627D01*
X135605114Y-114491215D01*
X135636206Y-114516759D01*
X135676608Y-114550027D01*
X135719670Y-114585545D01*
X135740071Y-114602274D01*
X135776278Y-114631360D01*
X135803529Y-114652452D01*
X135817096Y-114661845D01*
X135830279Y-114657729D01*
X135859126Y-114642453D01*
X135899216Y-114618423D01*
X135946236Y-114588107D01*
X136064422Y-114509458D01*
X136137637Y-114541876D01*
X136175164Y-114557647D01*
X136212079Y-114571432D01*
X136235693Y-114578209D01*
X136240496Y-114579540D01*
X136252985Y-114589961D01*
X136265822Y-114613117D01*
X136280701Y-114652556D01*
X136299312Y-114711833D01*
X136313899Y-114757800D01*
X136330157Y-114802856D01*
X136343945Y-114834678D01*
X136353305Y-114848313D01*
X136358367Y-114849067D01*
X136383658Y-114849495D01*
X136424645Y-114848718D01*
X136475841Y-114846982D01*
X136531753Y-114844543D01*
X136586891Y-114841651D01*
X136635768Y-114838558D01*
X136672892Y-114835513D01*
X136692772Y-114832770D01*
X136696299Y-114825277D01*
X136703881Y-114798467D01*
X136713786Y-114756879D01*
X136724775Y-114705436D01*
X136727242Y-114693331D01*
X136738344Y-114641133D01*
X136747077Y-114607195D01*
X136755147Y-114587014D01*
X136764259Y-114576088D01*
X136776120Y-114569914D01*
X136782859Y-114566716D01*
X136795525Y-114555506D01*
X136808613Y-114534484D01*
X136824539Y-114499338D01*
X136845723Y-114445754D01*
X136875424Y-114367262D01*
X136903517Y-114290082D01*
X136922426Y-114233979D01*
X136932042Y-114199276D01*
X136932260Y-114186296D01*
X136930642Y-114186347D01*
X136912132Y-114191803D01*
X136876836Y-114204282D01*
X136828999Y-114222242D01*
X136772868Y-114244143D01*
X136744333Y-114255269D01*
X136661953Y-114284054D01*
X136591524Y-114301782D01*
X136526388Y-114309378D01*
X136459886Y-114307765D01*
X136385362Y-114297863D01*
X136356892Y-114292604D01*
X136269561Y-114269129D01*
X136191521Y-114234038D01*
X136112019Y-114182802D01*
X136103428Y-114176463D01*
X136011972Y-114093568D01*
X135939099Y-113997465D01*
X135885648Y-113890950D01*
X135852456Y-113776830D01*
X135840361Y-113657903D01*
X135840886Y-113651455D01*
X136030954Y-113651455D01*
X136035027Y-113714090D01*
X136059508Y-113817482D01*
X136105925Y-113911195D01*
X136174116Y-113994846D01*
X136211119Y-114026436D01*
X136274038Y-114067517D01*
X136342085Y-114101212D01*
X136405094Y-114121928D01*
X136436972Y-114127641D01*
X136537307Y-114130822D01*
X136634859Y-114113010D01*
X136726388Y-114076182D01*
X136808661Y-114022315D01*
X136878437Y-113953386D01*
X136932485Y-113871375D01*
X136967563Y-113778257D01*
X136981738Y-113689523D01*
X136978304Y-113586837D01*
X136954414Y-113489865D01*
X136911772Y-113401275D01*
X136852085Y-113323735D01*
X136777056Y-113259914D01*
X136688392Y-113212477D01*
X136587797Y-113184094D01*
X136552607Y-113179276D01*
X136500600Y-113176259D01*
X136456628Y-113178380D01*
X136425904Y-113185270D01*
X136413638Y-113196553D01*
X136414361Y-113199419D01*
X136425400Y-113218911D01*
X136447694Y-113252214D01*
X136478640Y-113295546D01*
X136515639Y-113345113D01*
X136618902Y-113480722D01*
X136602780Y-113536482D01*
X136597939Y-113552345D01*
X136580636Y-113602590D01*
X136562040Y-113650119D01*
X136537422Y-113707996D01*
X136430125Y-113713042D01*
X136322828Y-113718089D01*
X136212886Y-113589830D01*
X136199403Y-113574251D01*
X136159445Y-113529848D01*
X136124792Y-113493868D01*
X136098776Y-113469671D01*
X136084729Y-113460615D01*
X136083495Y-113460629D01*
X136068177Y-113472664D01*
X136053784Y-113503018D01*
X136041795Y-113546437D01*
X136033692Y-113597668D01*
X136030954Y-113651455D01*
X135840886Y-113651455D01*
X135850201Y-113536973D01*
X135882815Y-113416839D01*
X135883615Y-113414704D01*
X135937576Y-113304070D01*
X136009603Y-113207215D01*
X136097073Y-113125824D01*
X136197362Y-113061583D01*
X136307849Y-113016178D01*
X136425911Y-112991295D01*
X136548924Y-112988621D01*
X136611123Y-112998677D01*
X136686104Y-113019768D01*
X136763912Y-113048644D01*
X136836092Y-113082157D01*
X136894189Y-113117159D01*
X136911549Y-113130248D01*
X136989133Y-113204247D01*
X137056403Y-113293597D01*
X137108944Y-113391636D01*
X137142345Y-113491700D01*
X137151121Y-113525859D01*
X137161228Y-113555783D01*
X137169058Y-113569039D01*
X137174706Y-113563543D01*
X137188648Y-113537906D01*
X137209369Y-113493174D01*
X137235998Y-113431250D01*
X137267658Y-113354043D01*
X137293999Y-113288228D01*
X137317307Y-113228538D01*
X137333183Y-113185131D01*
X137342592Y-113154824D01*
X137346504Y-113134436D01*
X137345887Y-113120783D01*
X137341709Y-113110684D01*
X137339752Y-113107237D01*
X137335706Y-113094944D01*
X137337188Y-113079062D01*
X137345642Y-113055192D01*
X137362512Y-113018939D01*
X137389240Y-112965901D01*
X137451065Y-112844916D01*
X137340607Y-112741988D01*
X137338191Y-112739738D01*
X137294839Y-112699236D01*
X137257172Y-112663869D01*
X137229157Y-112637371D01*
X137214763Y-112623480D01*
X137210898Y-112620719D01*
X137196678Y-112620191D01*
X137172931Y-112629539D01*
X137136418Y-112650253D01*
X137083900Y-112683828D01*
X137042181Y-112711113D01*
X137005462Y-112733934D01*
X136980711Y-112746366D01*
X136963483Y-112749987D01*
X136949336Y-112746374D01*
X136933826Y-112737105D01*
X136927889Y-112733566D01*
X136895125Y-112718156D01*
X136849520Y-112700298D01*
X136799035Y-112683177D01*
X136698840Y-112651904D01*
X136655732Y-112526042D01*
X136612623Y-112400180D01*
X136437792Y-112410536D01*
X136410351Y-112412166D01*
X136351823Y-112415669D01*
X136304358Y-112418549D01*
X136272256Y-112420543D01*
X136259818Y-112421390D01*
X136256608Y-112429828D01*
X136248595Y-112457297D01*
X136237211Y-112499271D01*
X136223768Y-112551042D01*
X136190864Y-112680196D01*
X136107118Y-112715178D01*
X136059192Y-112736245D01*
X136014005Y-112757864D01*
X135981361Y-112775346D01*
X135939350Y-112800532D01*
X135819083Y-112742550D01*
X135698815Y-112684566D01*
X135604632Y-112789277D01*
X135557302Y-112841409D01*
X135520943Y-112882254D01*
X135497652Y-112912643D01*
X135486440Y-112936842D01*
X135486321Y-112959113D01*
X135496307Y-112983722D01*
X135515411Y-113014932D01*
X135542647Y-113057008D01*
X135614120Y-113169920D01*
X135577269Y-113259861D01*
X135576299Y-113262238D01*
X135556106Y-113315907D01*
X135538110Y-113370644D01*
X135526102Y-113414952D01*
X135511785Y-113480101D01*
X135383555Y-113523206D01*
X135255325Y-113566310D01*
X134950055Y-113566310D01*
X134942181Y-113537116D01*
X134892575Y-113267406D01*
X134864515Y-112991310D01*
X134856588Y-112864521D01*
X134753639Y-113086482D01*
X134744940Y-113105321D01*
X134635349Y-113357000D01*
X134529342Y-113626492D01*
X134428861Y-113908094D01*
X134335851Y-114196106D01*
X134252256Y-114484828D01*
X134180020Y-114768556D01*
X134144938Y-114925736D01*
X134104500Y-115135697D01*
X134073289Y-115336452D01*
X134051701Y-115524943D01*
X134040136Y-115698115D01*
X134038992Y-115852910D01*
X134039190Y-115859850D01*
X134040659Y-115916582D01*
X134041592Y-115963383D01*
X134041913Y-115995565D01*
X134041546Y-116008440D01*
X134039894Y-116007974D01*
X134021028Y-116000269D01*
X133982308Y-115983692D01*
X133925235Y-115958905D01*
X133851311Y-115926568D01*
X133762038Y-115887344D01*
X133658919Y-115841893D01*
X133543456Y-115790878D01*
X133417148Y-115734961D01*
X133281500Y-115674802D01*
X133138013Y-115611064D01*
X132988189Y-115544408D01*
X131936673Y-115076244D01*
X131945971Y-115037679D01*
X131948031Y-115029701D01*
X131959672Y-114990506D01*
X131978138Y-114933021D01*
X132002318Y-114860481D01*
X132031101Y-114776123D01*
X132063377Y-114683179D01*
X132098033Y-114584887D01*
X132133961Y-114484480D01*
X132170046Y-114385192D01*
X132176268Y-114368251D01*
X132327203Y-113973218D01*
X132492405Y-113569086D01*
X132669652Y-113160579D01*
X132856725Y-112752425D01*
X133051401Y-112349345D01*
X133251461Y-111956066D01*
X133454683Y-111577311D01*
X133658847Y-111217805D01*
X133673495Y-111192831D01*
X133868508Y-110869099D01*
X134065043Y-110558840D01*
X134262542Y-110262637D01*
X134460444Y-109981075D01*
X134658191Y-109714741D01*
X134855221Y-109464218D01*
X135050977Y-109230090D01*
X135244897Y-109012945D01*
X135436422Y-108813364D01*
X135624994Y-108631934D01*
X135810051Y-108469239D01*
X135991036Y-108325864D01*
X136167388Y-108202394D01*
X136338548Y-108099413D01*
X136503954Y-108017506D01*
X136663051Y-107957259D01*
X136815276Y-107919256D01*
X136894985Y-107908013D01*
X137037970Y-107904384D01*
X137172625Y-107923142D01*
G37*
D13*
%TO.C,R6*%
X137353641Y-100270000D02*
X137046359Y-100270000D01*
X137353641Y-101030000D02*
X137046359Y-101030000D01*
%TO.C,C1*%
X141890000Y-90459664D02*
X141890000Y-90675336D01*
X142610000Y-90459664D02*
X142610000Y-90675336D01*
D12*
%TO.C,BT1*%
X124744221Y-123904088D02*
X126144897Y-127757582D01*
X125453798Y-122382397D02*
X124744221Y-123904088D01*
X126144897Y-127757582D02*
X132671219Y-130800856D01*
X128589352Y-115655812D02*
X127414896Y-118174441D01*
X132671219Y-130800856D02*
X136525770Y-129397913D01*
X136525770Y-129397913D02*
X137235345Y-127876223D01*
X139196897Y-123668478D02*
X140371353Y-121149848D01*
X140371353Y-121149848D02*
X128589352Y-115655812D01*
D14*
%TO.C,G\u002A\u002A\u002A*%
G36*
X158766824Y-75851916D02*
G01*
X159088562Y-76121885D01*
X158818591Y-76443625D01*
X158548620Y-76765365D01*
X158226880Y-76495393D01*
X157905142Y-76225424D01*
X158175112Y-75903683D01*
X158445083Y-75581945D01*
X158766824Y-75851916D01*
G37*
G36*
X160421158Y-74315957D02*
G01*
X160528406Y-74405948D01*
X160438414Y-74513194D01*
X160348425Y-74620440D01*
X160241179Y-74530450D01*
X160133932Y-74440459D01*
X160223923Y-74333214D01*
X160313913Y-74225967D01*
X160421158Y-74315957D01*
G37*
G36*
X160850144Y-74675917D02*
G01*
X160957389Y-74765909D01*
X160867399Y-74873154D01*
X160777409Y-74980401D01*
X160670163Y-74890412D01*
X160562916Y-74800421D01*
X160652907Y-74693175D01*
X160742897Y-74585928D01*
X160850144Y-74675917D01*
G37*
G36*
X161264287Y-79409594D02*
G01*
X161371533Y-79499584D01*
X161281543Y-79606831D01*
X161191552Y-79714077D01*
X161084305Y-79624087D01*
X160977060Y-79534096D01*
X161067051Y-79426849D01*
X161157041Y-79319604D01*
X161264287Y-79409594D01*
G37*
G36*
X161570066Y-73817948D02*
G01*
X161677312Y-73907937D01*
X161587321Y-74015186D01*
X161497331Y-74122432D01*
X161390086Y-74032442D01*
X161282840Y-73942451D01*
X161372830Y-73835205D01*
X161462819Y-73727958D01*
X161570066Y-73817948D01*
G37*
G36*
X161937447Y-71202107D02*
G01*
X162044694Y-71292097D01*
X161774723Y-71613835D01*
X161504752Y-71935574D01*
X161397507Y-71845583D01*
X161290259Y-71755593D01*
X161560231Y-71433855D01*
X161830202Y-71112116D01*
X161937447Y-71202107D01*
G37*
G36*
X162006471Y-71991052D02*
G01*
X162113718Y-72081042D01*
X162023727Y-72188288D01*
X161933737Y-72295535D01*
X161826490Y-72205546D01*
X161719246Y-72115554D01*
X161809236Y-72008309D01*
X161899225Y-71901062D01*
X162006471Y-71991052D01*
G37*
G36*
X162289988Y-72959979D02*
G01*
X162397234Y-73049968D01*
X162307243Y-73157216D01*
X162217254Y-73264461D01*
X162110007Y-73174472D01*
X162002761Y-73084482D01*
X162092751Y-72977234D01*
X162182742Y-72869989D01*
X162289988Y-72959979D01*
G37*
G36*
X162753486Y-73714413D02*
G01*
X162860731Y-73804403D01*
X162770741Y-73911649D01*
X162680751Y-74018895D01*
X162573505Y-73928904D01*
X162466258Y-73838915D01*
X162556248Y-73731669D01*
X162646238Y-73624423D01*
X162753486Y-73714413D01*
G37*
G36*
X163446317Y-70275112D02*
G01*
X163768055Y-70545083D01*
X163498084Y-70866824D01*
X163228115Y-71188562D01*
X162906375Y-70918591D01*
X162584635Y-70648620D01*
X162854607Y-70326880D01*
X163124576Y-70005142D01*
X163446317Y-70275112D01*
G37*
G36*
X163140537Y-75866758D02*
G01*
X163247782Y-75956749D01*
X163157793Y-76063994D01*
X163067803Y-76171241D01*
X162960556Y-76081251D01*
X162853310Y-75991259D01*
X162943300Y-75884014D01*
X163033291Y-75776768D01*
X163140537Y-75866758D01*
G37*
G36*
X163742081Y-78199084D02*
G01*
X163849328Y-78289074D01*
X163759338Y-78396321D01*
X163669348Y-78503567D01*
X163562100Y-78413577D01*
X163454854Y-78323586D01*
X163544844Y-78216339D01*
X163634834Y-78109093D01*
X163742081Y-78199084D01*
G37*
G36*
X163798856Y-72032985D02*
G01*
X163906104Y-72122974D01*
X163816111Y-72230222D01*
X163726122Y-72337468D01*
X163618876Y-72247477D01*
X163511629Y-72157487D01*
X163601620Y-72050241D01*
X163691611Y-71942995D01*
X163798856Y-72032985D01*
G37*
G36*
X164060110Y-79562484D02*
G01*
X164167355Y-79652475D01*
X164077365Y-79759720D01*
X163987376Y-79866966D01*
X163880130Y-79776976D01*
X163772882Y-79686986D01*
X163862872Y-79579740D01*
X163952863Y-79472493D01*
X164060110Y-79562484D01*
G37*
G36*
X164067531Y-77375625D02*
G01*
X164174776Y-77465617D01*
X164084786Y-77572862D01*
X163994796Y-77680109D01*
X163887549Y-77590119D01*
X163780303Y-77500127D01*
X163870294Y-77392884D01*
X163960284Y-77285636D01*
X164067531Y-77375625D01*
G37*
G36*
X164102042Y-77770100D02*
G01*
X164209289Y-77860090D01*
X164119297Y-77967335D01*
X164029309Y-78074582D01*
X163922061Y-77984591D01*
X163814815Y-77894601D01*
X163904807Y-77787355D01*
X163994796Y-77680109D01*
X164102042Y-77770100D01*
G37*
G36*
X164365889Y-73970838D02*
G01*
X164473136Y-74060829D01*
X164383144Y-74168074D01*
X164293154Y-74275321D01*
X164185908Y-74185330D01*
X164078663Y-74095340D01*
X164168652Y-73988094D01*
X164258642Y-73880848D01*
X164365889Y-73970838D01*
G37*
G36*
X164656825Y-72752907D02*
G01*
X164764072Y-72842897D01*
X164674083Y-72950144D01*
X164584091Y-73057389D01*
X164476846Y-72967399D01*
X164369599Y-72877409D01*
X164459588Y-72770163D01*
X164549579Y-72662916D01*
X164656825Y-72752907D01*
G37*
G36*
X164932923Y-75908691D02*
G01*
X165040167Y-75998681D01*
X164860187Y-76213173D01*
X164680206Y-76427667D01*
X164572959Y-76337676D01*
X164465715Y-76247686D01*
X164645694Y-76033194D01*
X164825675Y-75818701D01*
X164932923Y-75908691D01*
G37*
G36*
X164818254Y-78005558D02*
G01*
X165032746Y-78185539D01*
X164942757Y-78292784D01*
X164852766Y-78400032D01*
X164638274Y-78220051D01*
X164423781Y-78040069D01*
X164513771Y-77932824D01*
X164603762Y-77825577D01*
X164818254Y-78005558D01*
G37*
G36*
X165085811Y-73112869D02*
G01*
X165193057Y-73202859D01*
X165103067Y-73310104D01*
X165013076Y-73417351D01*
X164905829Y-73327360D01*
X164798585Y-73237370D01*
X164888574Y-73130124D01*
X164978565Y-73022879D01*
X165085811Y-73112869D01*
G37*
G36*
X165307725Y-71105991D02*
G01*
X165843956Y-71555943D01*
X165663975Y-71770435D01*
X165483994Y-71984929D01*
X164947762Y-71534976D01*
X164411533Y-71085024D01*
X164591512Y-70870533D01*
X164771493Y-70656042D01*
X165307725Y-71105991D01*
G37*
G36*
X165714447Y-78026525D02*
G01*
X165821693Y-78116514D01*
X165731702Y-78223761D01*
X165641712Y-78331007D01*
X165534466Y-78241017D01*
X165427220Y-78151027D01*
X165517210Y-78043780D01*
X165607201Y-77936535D01*
X165714447Y-78026525D01*
G37*
G36*
X166801750Y-74552713D02*
G01*
X166908996Y-74642702D01*
X166819006Y-74749948D01*
X166729017Y-74857196D01*
X166621770Y-74767206D01*
X166514523Y-74677215D01*
X166604515Y-74569969D01*
X166694504Y-74462722D01*
X166801750Y-74552713D01*
G37*
G36*
X166843682Y-72760327D02*
G01*
X166950930Y-72850318D01*
X166860939Y-72957565D01*
X166770949Y-73064811D01*
X166663702Y-72974821D01*
X166556457Y-72884831D01*
X166646447Y-72777584D01*
X166736437Y-72670337D01*
X166843682Y-72760327D01*
G37*
G36*
X167085267Y-75521638D02*
G01*
X167192513Y-75611629D01*
X167102523Y-75718876D01*
X167012532Y-75826122D01*
X166905287Y-75736132D01*
X166798041Y-75646142D01*
X166888031Y-75538895D01*
X166978020Y-75431648D01*
X167085267Y-75521638D01*
G37*
G36*
X167230735Y-74912672D02*
G01*
X167337981Y-75002664D01*
X167247992Y-75109910D01*
X167158001Y-75217156D01*
X167050755Y-75127166D01*
X166943508Y-75037176D01*
X167033498Y-74929930D01*
X167123489Y-74822683D01*
X167230735Y-74912672D01*
G37*
G36*
X169023120Y-74954607D02*
G01*
X169344858Y-75224576D01*
X169074888Y-75546317D01*
X168804917Y-75868055D01*
X168483176Y-75598084D01*
X168161438Y-75328115D01*
X168431409Y-75006375D01*
X168701380Y-74684635D01*
X169023120Y-74954607D01*
G37*
G36*
X162718973Y-73319941D02*
G01*
X162826219Y-73409931D01*
X162736229Y-73517176D01*
X162646238Y-73624423D01*
X162538993Y-73534431D01*
X162431746Y-73444442D01*
X162341756Y-73551690D01*
X162251765Y-73658934D01*
X162144519Y-73568944D01*
X162037274Y-73478954D01*
X162127263Y-73371707D01*
X162217254Y-73264461D01*
X162324499Y-73354451D01*
X162431746Y-73444442D01*
X162521736Y-73337196D01*
X162611726Y-73229949D01*
X162718973Y-73319941D01*
G37*
G36*
X159126783Y-75422932D02*
G01*
X159877507Y-76052863D01*
X159247576Y-76803586D01*
X158617642Y-77554311D01*
X157866919Y-76924379D01*
X157116196Y-76294447D01*
X157145156Y-76259934D01*
X157510670Y-76259934D01*
X158046900Y-76709887D01*
X158583130Y-77159838D01*
X159033082Y-76623607D01*
X159483034Y-76087376D01*
X158946803Y-75637423D01*
X158410572Y-75187473D01*
X157960619Y-75723703D01*
X157510670Y-76259934D01*
X157145156Y-76259934D01*
X157746128Y-75543724D01*
X158376060Y-74793000D01*
X159126783Y-75422932D01*
G37*
G36*
X163806276Y-69846128D02*
G01*
X164557000Y-70476060D01*
X163927068Y-71226783D01*
X163297137Y-71977507D01*
X162546414Y-71347576D01*
X161795689Y-70717642D01*
X161824648Y-70683130D01*
X162190162Y-70683130D01*
X162726393Y-71133082D01*
X163262624Y-71583034D01*
X163712577Y-71046803D01*
X164162527Y-70510572D01*
X163626297Y-70060619D01*
X163090066Y-69610670D01*
X162640113Y-70146900D01*
X162190162Y-70683130D01*
X161824648Y-70683130D01*
X162425621Y-69966919D01*
X163055553Y-69216196D01*
X163806276Y-69846128D01*
G37*
G36*
X169383081Y-74525621D02*
G01*
X170133804Y-75155553D01*
X169503872Y-75906276D01*
X168873940Y-76657000D01*
X168123217Y-76027068D01*
X167372493Y-75397137D01*
X167401453Y-75362624D01*
X167766966Y-75362624D01*
X168303197Y-75812577D01*
X168839428Y-76262527D01*
X169289381Y-75726297D01*
X169739330Y-75190066D01*
X169203100Y-74740113D01*
X168666870Y-74290162D01*
X168216918Y-74826393D01*
X167766966Y-75362624D01*
X167401453Y-75362624D01*
X168002424Y-74646414D01*
X168632358Y-73895689D01*
X169383081Y-74525621D01*
G37*
G36*
X162137098Y-75755801D02*
G01*
X162244344Y-75845792D01*
X161974375Y-76167531D01*
X161704403Y-76489269D01*
X161811649Y-76579259D01*
X161918895Y-76669249D01*
X161828904Y-76776495D01*
X161738915Y-76883742D01*
X161524423Y-76703762D01*
X161309931Y-76523781D01*
X161489910Y-76309289D01*
X161669891Y-76094796D01*
X161562645Y-76004807D01*
X161455399Y-75914815D01*
X161545389Y-75807569D01*
X161635379Y-75700323D01*
X161742626Y-75790313D01*
X161849873Y-75880303D01*
X161939863Y-75773058D01*
X162029852Y-75665810D01*
X162137098Y-75755801D01*
G37*
G36*
X163722411Y-73430897D02*
G01*
X164044150Y-73700867D01*
X164134140Y-73593621D01*
X164224130Y-73486375D01*
X164331377Y-73576365D01*
X164438623Y-73666355D01*
X164348632Y-73773601D01*
X164258642Y-73880848D01*
X164151396Y-73790858D01*
X164044150Y-73700867D01*
X163954159Y-73808114D01*
X163864169Y-73915360D01*
X163756924Y-73825370D01*
X163649677Y-73735379D01*
X163559687Y-73842626D01*
X163469697Y-73949873D01*
X163255204Y-73769891D01*
X163040711Y-73589910D01*
X163220691Y-73375418D01*
X163400672Y-73160926D01*
X163722411Y-73430897D01*
G37*
G36*
X166594679Y-72185875D02*
G01*
X166916417Y-72455845D01*
X166826427Y-72563093D01*
X166736437Y-72670337D01*
X166629191Y-72580348D01*
X166521944Y-72490358D01*
X166431953Y-72597603D01*
X166341963Y-72704850D01*
X166127471Y-72524868D01*
X165912980Y-72344889D01*
X165822989Y-72452135D01*
X165732998Y-72559381D01*
X165625752Y-72469391D01*
X165518507Y-72379401D01*
X165698486Y-72164908D01*
X165878467Y-71950416D01*
X165985713Y-72040406D01*
X166092959Y-72130396D01*
X166182949Y-72023151D01*
X166272940Y-71915904D01*
X166594679Y-72185875D01*
G37*
G36*
X167043333Y-77314023D02*
G01*
X167150581Y-77404014D01*
X167060590Y-77511259D01*
X166970599Y-77618507D01*
X166863353Y-77528516D01*
X166756107Y-77438524D01*
X166666117Y-77545771D01*
X166576126Y-77653017D01*
X166790619Y-77832998D01*
X167005111Y-78012980D01*
X166915121Y-78120225D01*
X166825132Y-78227471D01*
X166610638Y-78047491D01*
X166396147Y-77867511D01*
X166306156Y-77974757D01*
X166216165Y-78082003D01*
X166001674Y-77902023D01*
X165787181Y-77722042D01*
X165697189Y-77829288D01*
X165607201Y-77936535D01*
X165499954Y-77846543D01*
X165392708Y-77756554D01*
X165482698Y-77649307D01*
X165572688Y-77542063D01*
X165679934Y-77632052D01*
X165787181Y-77722042D01*
X165967160Y-77507549D01*
X166147141Y-77293057D01*
X166254387Y-77383048D01*
X166361635Y-77473037D01*
X166451624Y-77365791D01*
X166541614Y-77258545D01*
X166648861Y-77348534D01*
X166756107Y-77438524D01*
X166846097Y-77331280D01*
X166936087Y-77224033D01*
X167043333Y-77314023D01*
G37*
G36*
X163171337Y-77354660D02*
G01*
X163385831Y-77534640D01*
X163295841Y-77641886D01*
X163205850Y-77749133D01*
X163313096Y-77839124D01*
X163420342Y-77929114D01*
X163240361Y-78143606D01*
X163060383Y-78358098D01*
X163167627Y-78448088D01*
X163274875Y-78538079D01*
X163184884Y-78645325D01*
X163094894Y-78752572D01*
X162987647Y-78662579D01*
X162880401Y-78572591D01*
X162790412Y-78679837D01*
X162700421Y-78787084D01*
X162593175Y-78697093D01*
X162485928Y-78607103D01*
X162575917Y-78499856D01*
X162665909Y-78392611D01*
X162773154Y-78482601D01*
X162880401Y-78572591D01*
X162970392Y-78465345D01*
X163060383Y-78358098D01*
X162953135Y-78268106D01*
X162845888Y-78178117D01*
X162755899Y-78285364D01*
X162665909Y-78392611D01*
X162558662Y-78302620D01*
X162451415Y-78212630D01*
X162541406Y-78105383D01*
X162631397Y-77998138D01*
X162738644Y-78088127D01*
X162845888Y-78178117D01*
X162935878Y-78070872D01*
X163025870Y-77963625D01*
X162918623Y-77873635D01*
X162811377Y-77783645D01*
X162901368Y-77676399D01*
X162991358Y-77569152D01*
X162884111Y-77479162D01*
X162776864Y-77389171D01*
X162866856Y-77281926D01*
X162956846Y-77174679D01*
X163171337Y-77354660D01*
G37*
G36*
X163787725Y-75313272D02*
G01*
X164002218Y-75493251D01*
X164092207Y-75386006D01*
X164182197Y-75278759D01*
X164289444Y-75368749D01*
X164396690Y-75458741D01*
X164486681Y-75351493D01*
X164576671Y-75244248D01*
X164683917Y-75334237D01*
X164791163Y-75424228D01*
X164701174Y-75531474D01*
X164611182Y-75638721D01*
X164503937Y-75548731D01*
X164396690Y-75458741D01*
X164306700Y-75565986D01*
X164216709Y-75673232D01*
X164323957Y-75763222D01*
X164431201Y-75853212D01*
X164341211Y-75960460D01*
X164251221Y-76067706D01*
X164143976Y-75977715D01*
X164036728Y-75887725D01*
X163856749Y-76102218D01*
X163676768Y-76316709D01*
X163784014Y-76406700D01*
X163891259Y-76496690D01*
X163981251Y-76389444D01*
X164071241Y-76282197D01*
X164285733Y-76462178D01*
X164500226Y-76642159D01*
X164410235Y-76749405D01*
X164320245Y-76856651D01*
X164212999Y-76766661D01*
X164105752Y-76676671D01*
X164015763Y-76783917D01*
X163925772Y-76891163D01*
X164033018Y-76981152D01*
X164140265Y-77071143D01*
X164050274Y-77178389D01*
X163960284Y-77285636D01*
X163853037Y-77195646D01*
X163745792Y-77105656D01*
X163655801Y-77212902D01*
X163565810Y-77320148D01*
X163458566Y-77230158D01*
X163351319Y-77140167D01*
X163441309Y-77032923D01*
X163531299Y-76925675D01*
X163424053Y-76835685D01*
X163316806Y-76745694D01*
X163226817Y-76852940D01*
X163136827Y-76960187D01*
X163029581Y-76870199D01*
X162922333Y-76780206D01*
X163012324Y-76672959D01*
X163102314Y-76565715D01*
X162995068Y-76475725D01*
X162887822Y-76385733D01*
X162977814Y-76278487D01*
X163067803Y-76171241D01*
X163175048Y-76261230D01*
X163282294Y-76351221D01*
X163462275Y-76136728D01*
X163642256Y-75922236D01*
X163427764Y-75742256D01*
X163213272Y-75562275D01*
X163123280Y-75669521D01*
X163033291Y-75776768D01*
X162926043Y-75686778D01*
X162818799Y-75596788D01*
X162908789Y-75489540D01*
X162998779Y-75382294D01*
X163106024Y-75472285D01*
X163213272Y-75562275D01*
X163393251Y-75347782D01*
X163573232Y-75133291D01*
X163787725Y-75313272D01*
G37*
G36*
X164982275Y-71929449D02*
G01*
X165304014Y-72199419D01*
X165214023Y-72306667D01*
X165124033Y-72413913D01*
X165016786Y-72323923D01*
X164909541Y-72233932D01*
X164729560Y-72448425D01*
X164549579Y-72662916D01*
X164442334Y-72572926D01*
X164335086Y-72482937D01*
X164155106Y-72697428D01*
X163975125Y-72911921D01*
X163867880Y-72821930D01*
X163760633Y-72731940D01*
X163580652Y-72946433D01*
X163400672Y-73160926D01*
X163293426Y-73070935D01*
X163186180Y-72980944D01*
X163276170Y-72873700D01*
X163366160Y-72766453D01*
X163258914Y-72676462D01*
X163151670Y-72586472D01*
X163061677Y-72693719D01*
X162971688Y-72800965D01*
X163078935Y-72890954D01*
X163186180Y-72980944D01*
X163096191Y-73088192D01*
X163006200Y-73195438D01*
X162898953Y-73105447D01*
X162791707Y-73015457D01*
X162701716Y-73122703D01*
X162611726Y-73229949D01*
X162504481Y-73139958D01*
X162397234Y-73049968D01*
X162487224Y-72942723D01*
X162577215Y-72835477D01*
X162469969Y-72745485D01*
X162362722Y-72655496D01*
X162272732Y-72762744D01*
X162182742Y-72869989D01*
X162075496Y-72779998D01*
X161968249Y-72690008D01*
X161788270Y-72904499D01*
X161608288Y-73118993D01*
X161822780Y-73298973D01*
X162037274Y-73478954D01*
X161947283Y-73586200D01*
X161857292Y-73693446D01*
X161642799Y-73513465D01*
X161428307Y-73333486D01*
X161338317Y-73440731D01*
X161248326Y-73547977D01*
X161141080Y-73457987D01*
X161033835Y-73367997D01*
X160943844Y-73475243D01*
X160853853Y-73582489D01*
X160746608Y-73492499D01*
X160639362Y-73402509D01*
X160549372Y-73509755D01*
X160459381Y-73617002D01*
X160566627Y-73706992D01*
X160673874Y-73796983D01*
X160763864Y-73689736D01*
X160853853Y-73582489D01*
X161068347Y-73762470D01*
X161282840Y-73942451D01*
X161192849Y-74049697D01*
X161102859Y-74156943D01*
X161210104Y-74246933D01*
X161317351Y-74336924D01*
X161407342Y-74229677D01*
X161497331Y-74122432D01*
X161604578Y-74212421D01*
X161711824Y-74302412D01*
X161801815Y-74195166D01*
X161891805Y-74087919D01*
X161784559Y-73997930D01*
X161677312Y-73907937D01*
X161767302Y-73800693D01*
X161857292Y-73693446D01*
X162286277Y-74053408D01*
X162715262Y-74413368D01*
X162625271Y-74520615D01*
X162535282Y-74627860D01*
X162642528Y-74717851D01*
X162749774Y-74807841D01*
X162929755Y-74593349D01*
X163109735Y-74378857D01*
X163216982Y-74468848D01*
X163324228Y-74558837D01*
X163414217Y-74451591D01*
X163504208Y-74344344D01*
X163396963Y-74254354D01*
X163289716Y-74164364D01*
X163379706Y-74057116D01*
X163469697Y-73949873D01*
X163791434Y-74219842D01*
X164113173Y-74489813D01*
X164203164Y-74382566D01*
X164293154Y-74275321D01*
X164400400Y-74365311D01*
X164507647Y-74455300D01*
X164417656Y-74562547D01*
X164327667Y-74669794D01*
X164434912Y-74759784D01*
X164542159Y-74849774D01*
X164722140Y-74635282D01*
X164902120Y-74420789D01*
X164860990Y-74386277D01*
X165296592Y-74386277D01*
X165403839Y-74476268D01*
X165511085Y-74566258D01*
X165601076Y-74459012D01*
X165691066Y-74351765D01*
X165583819Y-74261776D01*
X165476572Y-74171785D01*
X165386582Y-74279032D01*
X165296592Y-74386277D01*
X164860990Y-74386277D01*
X164794873Y-74330799D01*
X164687627Y-74240809D01*
X164777617Y-74133562D01*
X164867608Y-74026316D01*
X164974854Y-74116307D01*
X165082100Y-74206297D01*
X165172090Y-74099051D01*
X165262081Y-73991805D01*
X165369328Y-74081795D01*
X165476572Y-74171785D01*
X165656554Y-73957292D01*
X165836535Y-73742799D01*
X165729288Y-73652811D01*
X165622042Y-73562819D01*
X165442063Y-73777312D01*
X165262081Y-73991805D01*
X165154834Y-73901815D01*
X165047588Y-73811824D01*
X164957598Y-73919070D01*
X164867608Y-74026316D01*
X164653115Y-73846335D01*
X164438623Y-73666355D01*
X164528612Y-73559110D01*
X164618603Y-73451862D01*
X164725850Y-73541854D01*
X164833097Y-73631843D01*
X164923086Y-73524597D01*
X165013076Y-73417351D01*
X165120323Y-73507342D01*
X165227568Y-73597331D01*
X165317558Y-73490086D01*
X165407549Y-73382840D01*
X165300303Y-73292849D01*
X165193057Y-73202859D01*
X165283048Y-73095613D01*
X165373037Y-72988365D01*
X165158545Y-72808386D01*
X164944052Y-72628406D01*
X165034043Y-72521158D01*
X165124033Y-72413913D01*
X165445771Y-72683883D01*
X165767511Y-72953853D01*
X165857501Y-72846608D01*
X165947491Y-72739362D01*
X166054737Y-72829352D01*
X166161983Y-72919341D01*
X165982003Y-73133835D01*
X165802023Y-73348326D01*
X165909269Y-73438317D01*
X166016514Y-73528307D01*
X165926525Y-73635553D01*
X165836535Y-73742799D01*
X165943780Y-73832790D01*
X166051027Y-73922780D01*
X166141017Y-73815534D01*
X166231007Y-73708288D01*
X166338253Y-73798278D01*
X166445501Y-73888270D01*
X166355509Y-73995514D01*
X166265518Y-74102761D01*
X166158274Y-74012771D01*
X166051027Y-73922780D01*
X165961037Y-74030026D01*
X165871046Y-74137274D01*
X165978293Y-74227263D01*
X166085539Y-74317254D01*
X166175528Y-74210007D01*
X166265518Y-74102761D01*
X166372766Y-74192751D01*
X166480011Y-74282742D01*
X166570002Y-74175496D01*
X166659992Y-74068249D01*
X166552745Y-73978260D01*
X166445501Y-73888270D01*
X166535491Y-73781023D01*
X166625480Y-73673776D01*
X166410988Y-73493797D01*
X166196496Y-73313814D01*
X166286485Y-73206568D01*
X166376476Y-73099323D01*
X166698215Y-73369294D01*
X167019953Y-73639264D01*
X167109943Y-73532019D01*
X167199934Y-73424772D01*
X167092688Y-73334781D01*
X166985441Y-73244792D01*
X167075431Y-73137545D01*
X167165422Y-73030299D01*
X167272667Y-73120290D01*
X167379914Y-73210280D01*
X167469904Y-73103034D01*
X167559895Y-72995786D01*
X167774386Y-73175767D01*
X167988879Y-73355747D01*
X167898889Y-73462994D01*
X167808899Y-73570241D01*
X167594407Y-73390259D01*
X167379914Y-73210280D01*
X167289925Y-73317525D01*
X167199934Y-73424772D01*
X167307179Y-73514762D01*
X167414426Y-73604752D01*
X167324437Y-73711998D01*
X167234446Y-73819246D01*
X167341691Y-73909236D01*
X167448938Y-73999225D01*
X167358948Y-74106471D01*
X167268958Y-74213718D01*
X167483450Y-74393698D01*
X167697942Y-74573679D01*
X167607952Y-74680924D01*
X167517962Y-74788171D01*
X167196222Y-74518200D01*
X166874484Y-74248231D01*
X166784494Y-74355475D01*
X166694504Y-74462722D01*
X166587256Y-74372732D01*
X166480011Y-74282742D01*
X166300032Y-74497234D01*
X166120051Y-74711726D01*
X166012804Y-74621736D01*
X165905558Y-74531746D01*
X165725577Y-74746238D01*
X165545597Y-74960731D01*
X165331105Y-74780751D01*
X165116612Y-74600770D01*
X165026622Y-74708018D01*
X164936632Y-74815262D01*
X165043879Y-74905253D01*
X165151123Y-74995243D01*
X165061134Y-75102489D01*
X164971143Y-75209735D01*
X164863899Y-75119745D01*
X164756651Y-75029755D01*
X164666661Y-75137001D01*
X164576671Y-75244248D01*
X164362178Y-75064267D01*
X164147686Y-74884285D01*
X164057695Y-74991533D01*
X163967706Y-75098779D01*
X163860460Y-75008789D01*
X163753212Y-74918799D01*
X163663222Y-75026043D01*
X163573232Y-75133291D01*
X163358741Y-74953310D01*
X163144248Y-74773329D01*
X163054257Y-74880576D01*
X162964267Y-74987822D01*
X162857020Y-74897832D01*
X162749774Y-74807841D01*
X162659784Y-74915088D01*
X162569794Y-75022333D01*
X162677041Y-75112324D01*
X162784285Y-75202314D01*
X162694296Y-75309561D01*
X162604306Y-75416806D01*
X162711551Y-75506796D01*
X162818799Y-75596788D01*
X162728808Y-75704034D01*
X162638818Y-75811279D01*
X162746063Y-75901269D01*
X162853310Y-75991259D01*
X162763319Y-76098507D01*
X162673329Y-76205752D01*
X162780576Y-76295743D01*
X162887822Y-76385733D01*
X162797832Y-76492980D01*
X162707841Y-76600226D01*
X162600595Y-76510235D01*
X162493349Y-76420245D01*
X162403359Y-76527492D01*
X162313368Y-76634738D01*
X162420615Y-76724729D01*
X162527860Y-76814718D01*
X162617851Y-76707472D01*
X162707841Y-76600226D01*
X162815088Y-76690216D01*
X162922333Y-76780206D01*
X162652364Y-77101944D01*
X162382392Y-77423684D01*
X162596885Y-77603665D01*
X162811377Y-77783645D01*
X162721388Y-77890890D01*
X162631397Y-77998138D01*
X162524150Y-77908146D01*
X162416903Y-77818157D01*
X162326914Y-77925403D01*
X162236924Y-78032649D01*
X162129677Y-77942658D01*
X162022432Y-77852669D01*
X161842451Y-78067160D01*
X161662470Y-78281653D01*
X161769716Y-78371644D01*
X161876963Y-78461635D01*
X161966952Y-78354387D01*
X162056943Y-78247141D01*
X162164189Y-78337131D01*
X162271435Y-78427121D01*
X162181445Y-78534369D01*
X162091455Y-78641614D01*
X162305948Y-78821594D01*
X162520440Y-79001575D01*
X162610430Y-78894329D01*
X162700421Y-78787084D01*
X162807666Y-78877074D01*
X162914914Y-78967063D01*
X163004902Y-78859818D01*
X163094894Y-78752572D01*
X163202140Y-78842562D01*
X163309386Y-78932552D01*
X163489367Y-78718060D01*
X163669348Y-78503567D01*
X163776593Y-78593557D01*
X163883840Y-78683547D01*
X164098330Y-78863528D01*
X164127288Y-78829017D01*
X164492804Y-78829017D01*
X164600052Y-78919006D01*
X164707298Y-79008996D01*
X164797287Y-78901750D01*
X164887278Y-78794504D01*
X164780031Y-78704515D01*
X164672785Y-78614523D01*
X164582794Y-78721770D01*
X164492804Y-78829017D01*
X164127288Y-78829017D01*
X164278312Y-78649035D01*
X164458293Y-78434543D01*
X164565539Y-78524533D01*
X164672785Y-78614523D01*
X164762776Y-78507277D01*
X164852766Y-78400032D01*
X164960012Y-78490021D01*
X165174504Y-78670002D01*
X165281751Y-78759992D01*
X165496243Y-78939973D01*
X165586234Y-78832726D01*
X165676224Y-78725480D01*
X165568977Y-78635491D01*
X165461730Y-78545501D01*
X165551722Y-78438253D01*
X165641712Y-78331007D01*
X165748958Y-78420997D01*
X165856203Y-78510988D01*
X166036186Y-78296496D01*
X166216165Y-78082003D01*
X166430659Y-78261983D01*
X166537903Y-78351974D01*
X166645150Y-78441963D01*
X166465169Y-78656457D01*
X166285189Y-78870949D01*
X166392435Y-78960939D01*
X166499682Y-79050930D01*
X166859642Y-78621944D01*
X167219604Y-78192959D01*
X167112358Y-78102969D01*
X167005111Y-78012980D01*
X167185092Y-77798486D01*
X167365071Y-77583994D01*
X167472319Y-77673984D01*
X167579565Y-77763975D01*
X167669555Y-77656728D01*
X167759545Y-77549483D01*
X167330560Y-77189521D01*
X166901575Y-76829560D01*
X166811586Y-76936806D01*
X166721594Y-77044052D01*
X166507103Y-76864072D01*
X166424845Y-76795049D01*
X167296050Y-76795049D01*
X167403294Y-76885038D01*
X167510541Y-76975029D01*
X167600531Y-76867783D01*
X167690521Y-76760537D01*
X167583275Y-76670546D01*
X167476029Y-76580557D01*
X167386039Y-76687802D01*
X167296050Y-76795049D01*
X166424845Y-76795049D01*
X166292611Y-76684091D01*
X166382601Y-76576846D01*
X166472591Y-76469599D01*
X166579837Y-76559588D01*
X166687084Y-76649579D01*
X166777074Y-76542334D01*
X166867063Y-76435086D01*
X166759818Y-76345098D01*
X166652572Y-76255106D01*
X166562579Y-76362353D01*
X166472591Y-76469599D01*
X166365345Y-76379608D01*
X166258098Y-76289617D01*
X166078117Y-76504112D01*
X165898138Y-76718603D01*
X165683645Y-76538623D01*
X165469152Y-76358642D01*
X165379162Y-76465889D01*
X165289171Y-76573136D01*
X165503665Y-76753115D01*
X165718157Y-76933097D01*
X165808146Y-76825850D01*
X165898138Y-76718603D01*
X166112630Y-76898585D01*
X166327121Y-77078565D01*
X166237131Y-77185811D01*
X166147141Y-77293057D01*
X166039896Y-77203067D01*
X165932649Y-77113076D01*
X165752669Y-77327568D01*
X165572688Y-77542063D01*
X165358195Y-77362081D01*
X165143703Y-77182100D01*
X165053712Y-77289346D01*
X164963723Y-77396592D01*
X165070968Y-77486582D01*
X165178215Y-77576572D01*
X165088224Y-77683819D01*
X164998235Y-77791066D01*
X164783742Y-77611085D01*
X164569249Y-77431105D01*
X164479259Y-77538351D01*
X164389269Y-77645597D01*
X164282022Y-77555608D01*
X164174776Y-77465617D01*
X164264767Y-77358370D01*
X164354757Y-77251123D01*
X164247511Y-77161134D01*
X164140265Y-77071143D01*
X164230255Y-76963899D01*
X164320245Y-76856651D01*
X164534738Y-77036632D01*
X164749230Y-77216612D01*
X164839220Y-77109365D01*
X164929211Y-77002120D01*
X164821964Y-76912129D01*
X164714718Y-76822140D01*
X164984689Y-76500400D01*
X165254660Y-76178663D01*
X165147413Y-76088671D01*
X165040167Y-75998681D01*
X165130158Y-75891434D01*
X165220148Y-75784190D01*
X165327394Y-75874181D01*
X165434640Y-75964169D01*
X165524630Y-75856924D01*
X165614621Y-75749677D01*
X165721867Y-75839667D01*
X165829114Y-75929658D01*
X165739124Y-76036904D01*
X165649133Y-76144150D01*
X165756379Y-76234140D01*
X165863625Y-76324130D01*
X166133597Y-76002391D01*
X166403567Y-75680652D01*
X166189074Y-75500672D01*
X165974582Y-75320691D01*
X165884591Y-75427939D01*
X165794601Y-75535185D01*
X165687355Y-75445193D01*
X165580109Y-75355204D01*
X165490119Y-75462451D01*
X165400127Y-75569697D01*
X165292884Y-75479706D01*
X165185636Y-75389716D01*
X165095646Y-75496963D01*
X165005656Y-75604208D01*
X164898409Y-75514217D01*
X164791163Y-75424228D01*
X164881152Y-75316982D01*
X164971143Y-75209735D01*
X165078389Y-75299726D01*
X165185636Y-75389716D01*
X165275625Y-75282469D01*
X165365617Y-75175224D01*
X165472862Y-75265214D01*
X165580109Y-75355204D01*
X165670100Y-75247958D01*
X165760090Y-75140711D01*
X165867335Y-75230703D01*
X165974582Y-75320691D01*
X166064572Y-75213444D01*
X166154562Y-75106200D01*
X166261808Y-75196191D01*
X166369056Y-75286180D01*
X166459046Y-75178935D01*
X166549035Y-75071688D01*
X166656281Y-75161677D01*
X166763528Y-75251670D01*
X166583547Y-75466160D01*
X166403567Y-75680652D01*
X166725305Y-75950624D01*
X167047043Y-76220594D01*
X166957054Y-76327841D01*
X166867063Y-76435086D01*
X166974310Y-76525077D01*
X167081556Y-76615068D01*
X167261537Y-76400575D01*
X167441517Y-76186083D01*
X167763255Y-76456054D01*
X168084995Y-76726024D01*
X168174985Y-76618778D01*
X168264976Y-76511533D01*
X168479467Y-76691512D01*
X168693958Y-76871493D01*
X168603969Y-76978738D01*
X168513979Y-77085985D01*
X168299487Y-76906005D01*
X168084995Y-76726024D01*
X167995003Y-76833271D01*
X167905014Y-76940517D01*
X168012260Y-77030507D01*
X168119506Y-77120497D01*
X167939527Y-77334990D01*
X167759545Y-77549483D01*
X167866792Y-77639474D01*
X167974037Y-77729464D01*
X167794057Y-77943956D01*
X167614077Y-78158448D01*
X167506831Y-78068457D01*
X167399584Y-77978467D01*
X167309594Y-78085713D01*
X167219604Y-78192959D01*
X167326849Y-78282949D01*
X167434096Y-78372940D01*
X167074135Y-78801925D01*
X166714174Y-79230908D01*
X166606927Y-79140920D01*
X166499682Y-79050930D01*
X166409692Y-79158176D01*
X166319701Y-79265422D01*
X166426947Y-79355412D01*
X166534193Y-79445402D01*
X166444204Y-79552648D01*
X166354214Y-79659895D01*
X166139720Y-79479914D01*
X165925228Y-79299934D01*
X165835238Y-79407179D01*
X165745248Y-79514426D01*
X165852493Y-79604417D01*
X165959741Y-79694407D01*
X165869750Y-79801652D01*
X165779759Y-79908899D01*
X165887006Y-79998889D01*
X165994253Y-80088879D01*
X165724282Y-80410618D01*
X165454311Y-80732358D01*
X165347064Y-80642365D01*
X165239818Y-80552376D01*
X165419798Y-80337884D01*
X165599779Y-80123392D01*
X165385286Y-79943411D01*
X165170794Y-79763430D01*
X165080804Y-79870677D01*
X164990813Y-79977923D01*
X165098060Y-80067914D01*
X165205306Y-80157903D01*
X165025325Y-80372395D01*
X164845346Y-80586889D01*
X165059838Y-80766870D01*
X165274329Y-80946850D01*
X165184340Y-81054096D01*
X165094349Y-81161343D01*
X164772610Y-80891370D01*
X164450872Y-80621400D01*
X164270891Y-80835893D01*
X164090911Y-81050385D01*
X163983664Y-80960394D01*
X163876418Y-80870405D01*
X163786427Y-80977651D01*
X163696437Y-81084898D01*
X163910930Y-81264877D01*
X164125424Y-81444858D01*
X164215413Y-81337611D01*
X164305403Y-81230367D01*
X164412649Y-81320356D01*
X164519896Y-81410346D01*
X164609887Y-81303100D01*
X164699876Y-81195854D01*
X164807122Y-81285844D01*
X164914369Y-81375835D01*
X164734388Y-81590327D01*
X164554407Y-81804819D01*
X164339915Y-81624840D01*
X164125424Y-81444858D01*
X164035432Y-81552107D01*
X163945441Y-81659350D01*
X164052689Y-81749341D01*
X164159934Y-81839330D01*
X164069944Y-81946577D01*
X163979955Y-82053824D01*
X163765461Y-81873844D01*
X163550970Y-81693863D01*
X163640959Y-81586616D01*
X163730951Y-81479370D01*
X163516457Y-81299390D01*
X163301965Y-81119409D01*
X163211975Y-81226655D01*
X163121985Y-81333901D01*
X163014737Y-81243912D01*
X162907490Y-81153921D01*
X163267452Y-80724936D01*
X163627413Y-80295952D01*
X163520168Y-80205961D01*
X163412922Y-80115972D01*
X163052961Y-80544955D01*
X162693000Y-80973940D01*
X162264015Y-80613979D01*
X161835030Y-80254017D01*
X161863988Y-80219506D01*
X162229503Y-80219506D01*
X162336750Y-80309496D01*
X162443995Y-80399487D01*
X162533986Y-80292240D01*
X162623976Y-80184995D01*
X162731222Y-80274985D01*
X162838467Y-80364976D01*
X162928459Y-80257728D01*
X163018449Y-80150483D01*
X162911202Y-80060492D01*
X162803956Y-79970502D01*
X162713966Y-80077750D01*
X162623976Y-80184995D01*
X162516729Y-80095003D01*
X162409483Y-80005014D01*
X162319493Y-80112260D01*
X162229503Y-80219506D01*
X161863988Y-80219506D01*
X162015010Y-80039527D01*
X162194991Y-79825033D01*
X162302238Y-79915024D01*
X162409483Y-80005014D01*
X162589463Y-79790521D01*
X162769443Y-79576029D01*
X162876690Y-79666019D01*
X162983936Y-79756010D01*
X163012895Y-79721498D01*
X163378409Y-79721498D01*
X163700148Y-79991469D01*
X164021885Y-80261438D01*
X164050843Y-80226928D01*
X164416359Y-80226928D01*
X164523607Y-80316918D01*
X164630852Y-80406908D01*
X164810833Y-80192415D01*
X164990813Y-79977923D01*
X164883567Y-79887933D01*
X164776321Y-79797942D01*
X164596343Y-80012434D01*
X164416359Y-80226928D01*
X164050843Y-80226928D01*
X164291858Y-79939700D01*
X164561829Y-79617962D01*
X164520699Y-79583450D01*
X164956302Y-79583450D01*
X165063548Y-79673440D01*
X165170794Y-79763430D01*
X165260784Y-79656184D01*
X165350775Y-79548938D01*
X165458021Y-79638928D01*
X165565268Y-79728918D01*
X165655258Y-79621672D01*
X165745248Y-79514426D01*
X165638002Y-79424437D01*
X165530754Y-79334446D01*
X165440764Y-79441691D01*
X165350775Y-79548938D01*
X165243529Y-79458948D01*
X165136282Y-79368958D01*
X165046292Y-79476203D01*
X164956302Y-79583450D01*
X164520699Y-79583450D01*
X164240090Y-79347992D01*
X164091714Y-79223489D01*
X164527317Y-79223489D01*
X164634563Y-79313479D01*
X164741808Y-79403469D01*
X164831800Y-79296222D01*
X164921790Y-79188978D01*
X165029036Y-79278967D01*
X165136282Y-79368958D01*
X165226273Y-79261712D01*
X165316263Y-79154465D01*
X165275133Y-79119953D01*
X165710736Y-79119953D01*
X165817981Y-79209943D01*
X165925228Y-79299934D01*
X166015219Y-79192688D01*
X166105208Y-79085441D01*
X165997962Y-78995451D01*
X165890715Y-78905460D01*
X165800726Y-79012706D01*
X165710736Y-79119953D01*
X165275133Y-79119953D01*
X165209016Y-79064475D01*
X165101769Y-78974484D01*
X165011781Y-79081730D01*
X164921790Y-79188978D01*
X164814543Y-79098987D01*
X164707298Y-79008996D01*
X164617307Y-79116243D01*
X164527317Y-79223489D01*
X164091714Y-79223489D01*
X163918352Y-79078020D01*
X163648380Y-79399759D01*
X163378409Y-79721498D01*
X163012895Y-79721498D01*
X163073926Y-79648764D01*
X163163917Y-79541517D01*
X163056671Y-79451527D01*
X162949425Y-79361537D01*
X162859435Y-79468783D01*
X162769443Y-79576029D01*
X162662198Y-79486039D01*
X162554951Y-79396050D01*
X162464962Y-79503294D01*
X162374971Y-79610541D01*
X162267725Y-79520551D01*
X162160479Y-79430560D01*
X162250468Y-79323315D01*
X162340459Y-79216068D01*
X162125967Y-79036087D01*
X161911476Y-78856107D01*
X161821484Y-78963353D01*
X161731493Y-79070599D01*
X161838741Y-79160590D01*
X161945986Y-79250581D01*
X161855996Y-79357826D01*
X161766006Y-79465071D01*
X161551514Y-79285092D01*
X161337020Y-79105111D01*
X161247031Y-79212358D01*
X161157041Y-79319604D01*
X161049794Y-79229614D01*
X160942547Y-79139623D01*
X160852557Y-79246869D01*
X160762568Y-79354115D01*
X160655321Y-79264125D01*
X160548075Y-79174135D01*
X160638065Y-79066890D01*
X160728056Y-78959642D01*
X160513563Y-78779663D01*
X160299070Y-78599682D01*
X160389061Y-78492435D01*
X160479051Y-78385189D01*
X160800790Y-78655160D01*
X161122529Y-78925132D01*
X161212519Y-78817884D01*
X161302509Y-78710638D01*
X160873524Y-78350677D01*
X160444540Y-77990715D01*
X160473499Y-77956203D01*
X160839012Y-77956203D01*
X161053504Y-78136186D01*
X161267997Y-78316165D01*
X161357987Y-78208920D01*
X161447977Y-78101674D01*
X161233486Y-77921693D01*
X161018993Y-77741712D01*
X160929003Y-77848958D01*
X160839012Y-77956203D01*
X160473499Y-77956203D01*
X160534530Y-77883470D01*
X160624520Y-77776224D01*
X160517274Y-77686234D01*
X160410027Y-77596243D01*
X160590008Y-77381751D01*
X160769989Y-77167258D01*
X160662744Y-77077268D01*
X160555496Y-76987278D01*
X160285525Y-77309016D01*
X160015554Y-77630754D01*
X160122800Y-77720746D01*
X160230047Y-77810736D01*
X160140057Y-77917981D01*
X160050066Y-78025228D01*
X159942821Y-77935238D01*
X159835574Y-77845248D01*
X159745583Y-77952493D01*
X159655593Y-78059741D01*
X159762839Y-78149730D01*
X159870086Y-78239720D01*
X159780096Y-78346966D01*
X159690105Y-78454214D01*
X159475614Y-78274233D01*
X159261121Y-78094253D01*
X159351111Y-77987006D01*
X159441101Y-77879759D01*
X159226608Y-77699779D01*
X159012116Y-77519798D01*
X159102107Y-77412553D01*
X159192097Y-77305306D01*
X159299343Y-77395295D01*
X159406589Y-77485286D01*
X159496580Y-77378041D01*
X159586570Y-77270794D01*
X159693816Y-77360784D01*
X159801062Y-77450775D01*
X159891052Y-77343529D01*
X159981042Y-77236282D01*
X159873797Y-77146292D01*
X159766550Y-77056302D01*
X159856540Y-76949056D01*
X159946531Y-76841808D01*
X160053778Y-76931800D01*
X160161022Y-77021790D01*
X160430994Y-76700052D01*
X160700965Y-76378312D01*
X160593719Y-76288323D01*
X160486472Y-76198330D01*
X160306492Y-76412824D01*
X160126511Y-76627317D01*
X160019265Y-76537328D01*
X159912019Y-76447336D01*
X160091999Y-76232844D01*
X160271980Y-76018352D01*
X160379226Y-76108342D01*
X160486472Y-76198330D01*
X160666453Y-75983840D01*
X160846433Y-75769348D01*
X160953679Y-75859338D01*
X161060926Y-75949328D01*
X160970935Y-76056574D01*
X160880944Y-76163820D01*
X161095438Y-76343800D01*
X161309931Y-76523781D01*
X161219941Y-76631027D01*
X161129949Y-76738274D01*
X161022703Y-76648284D01*
X160915457Y-76558293D01*
X160825467Y-76665539D01*
X160735477Y-76772785D01*
X160842723Y-76862776D01*
X160949968Y-76952766D01*
X161039958Y-76845519D01*
X161129949Y-76738274D01*
X161237196Y-76828264D01*
X161344442Y-76918254D01*
X161254451Y-77025501D01*
X161164461Y-77132746D01*
X161271707Y-77222737D01*
X161378954Y-77312726D01*
X161288963Y-77419974D01*
X161198973Y-77527220D01*
X161306220Y-77617210D01*
X161413465Y-77707201D01*
X161683437Y-77385461D01*
X161953408Y-77063723D01*
X162060654Y-77153712D01*
X162167900Y-77243703D01*
X162257890Y-77136457D01*
X162347880Y-77029211D01*
X162133388Y-76849230D01*
X161918895Y-76669249D01*
X162188866Y-76347511D01*
X162458837Y-76025772D01*
X162351591Y-75935783D01*
X162244344Y-75845792D01*
X162334335Y-75738545D01*
X162424325Y-75631299D01*
X162209833Y-75451319D01*
X161995340Y-75271337D01*
X161815360Y-75485831D01*
X161635379Y-75700323D01*
X161420886Y-75520342D01*
X161206394Y-75340361D01*
X161026414Y-75554854D01*
X160846433Y-75769348D01*
X160739186Y-75679356D01*
X160631940Y-75589367D01*
X160721930Y-75482120D01*
X160811921Y-75374875D01*
X160704675Y-75284884D01*
X160597428Y-75194894D01*
X160687421Y-75087647D01*
X160777409Y-74980401D01*
X160884655Y-75070392D01*
X160991902Y-75160383D01*
X161081894Y-75053135D01*
X161171883Y-74945888D01*
X161064636Y-74855899D01*
X160957389Y-74765909D01*
X160986348Y-74731397D01*
X161351862Y-74731397D01*
X161459110Y-74821388D01*
X161566355Y-74911377D01*
X161656345Y-74804132D01*
X161746335Y-74696885D01*
X161960829Y-74876864D01*
X162175321Y-75056846D01*
X162265311Y-74949600D01*
X162355300Y-74842353D01*
X162248056Y-74752364D01*
X162140809Y-74662373D01*
X162230799Y-74555127D01*
X162320789Y-74447880D01*
X162213543Y-74357890D01*
X162106297Y-74267900D01*
X161926316Y-74482392D01*
X161746335Y-74696885D01*
X161639090Y-74606894D01*
X161531843Y-74516903D01*
X161441854Y-74624150D01*
X161351862Y-74731397D01*
X160986348Y-74731397D01*
X161047380Y-74658662D01*
X161137370Y-74551415D01*
X160815631Y-74281445D01*
X160493893Y-74011476D01*
X160403903Y-74118720D01*
X160313913Y-74225967D01*
X160206667Y-74135977D01*
X160099419Y-74045986D01*
X159919440Y-74260479D01*
X159739459Y-74474971D01*
X159632211Y-74384981D01*
X159524967Y-74294991D01*
X159614957Y-74187745D01*
X159704947Y-74080499D01*
X159597701Y-73990508D01*
X159490455Y-73900517D01*
X159220484Y-74222256D01*
X158950513Y-74543995D01*
X159057760Y-74633986D01*
X159165005Y-74723976D01*
X159254997Y-74616729D01*
X159344986Y-74509483D01*
X159559479Y-74689463D01*
X159773971Y-74869443D01*
X159863961Y-74762198D01*
X159953950Y-74654951D01*
X160061197Y-74744941D01*
X160168444Y-74834932D01*
X160258434Y-74727687D01*
X160348425Y-74620440D01*
X160455671Y-74710430D01*
X160562916Y-74800421D01*
X160472926Y-74907666D01*
X160382937Y-75014914D01*
X160490182Y-75104902D01*
X160597428Y-75194894D01*
X160507438Y-75302140D01*
X160417448Y-75409386D01*
X160310202Y-75319396D01*
X160202957Y-75229406D01*
X160112966Y-75336651D01*
X160022974Y-75443896D01*
X160237468Y-75623878D01*
X160451959Y-75803858D01*
X160361969Y-75911105D01*
X160271980Y-76018352D01*
X159735749Y-75568400D01*
X159199517Y-75118449D01*
X159228477Y-75083936D01*
X159593990Y-75083936D01*
X159701236Y-75173926D01*
X159808483Y-75263917D01*
X159898473Y-75156671D01*
X159988463Y-75049425D01*
X159881217Y-74959435D01*
X159773971Y-74869443D01*
X159683981Y-74976690D01*
X159593990Y-75083936D01*
X159228477Y-75083936D01*
X159289508Y-75011202D01*
X159379498Y-74903956D01*
X159272250Y-74813966D01*
X159165005Y-74723976D01*
X159075015Y-74831222D01*
X158985024Y-74938467D01*
X158770533Y-74758488D01*
X158556042Y-74578507D01*
X159304921Y-73686025D01*
X159670435Y-73686025D01*
X159777681Y-73776016D01*
X159884929Y-73866006D01*
X159974919Y-73758759D01*
X160064908Y-73651514D01*
X159957662Y-73561523D01*
X159850416Y-73471533D01*
X159760426Y-73578779D01*
X159670435Y-73686025D01*
X159304921Y-73686025D01*
X159455943Y-73506044D01*
X159664881Y-73257041D01*
X160030396Y-73257041D01*
X160137642Y-73347031D01*
X160244889Y-73437020D01*
X160334879Y-73329775D01*
X160424868Y-73222529D01*
X160532116Y-73312519D01*
X160639362Y-73402509D01*
X160819341Y-73188017D01*
X160999323Y-72973524D01*
X160784831Y-72793543D01*
X160570337Y-72613563D01*
X160480348Y-72720809D01*
X160390358Y-72828056D01*
X160497603Y-72918047D01*
X160604850Y-73008037D01*
X160514859Y-73115282D01*
X160424868Y-73222529D01*
X160317623Y-73132538D01*
X160210377Y-73042547D01*
X160120386Y-73149794D01*
X160030396Y-73257041D01*
X159664881Y-73257041D01*
X160355845Y-72433583D01*
X160463093Y-72523573D01*
X160570337Y-72613563D01*
X160660327Y-72506318D01*
X160750318Y-72399070D01*
X160857565Y-72489061D01*
X160964811Y-72579051D01*
X161054801Y-72471805D01*
X161144792Y-72364559D01*
X160930299Y-72184578D01*
X160715807Y-72004598D01*
X160805796Y-71897352D01*
X160895786Y-71790105D01*
X161217525Y-72060075D01*
X161539264Y-72330047D01*
X161269294Y-72651785D01*
X160999323Y-72973524D01*
X161213814Y-73153504D01*
X161428307Y-73333486D01*
X161518298Y-73226239D01*
X161608288Y-73118993D01*
X161501042Y-73029003D01*
X161393797Y-72939012D01*
X161663766Y-72617274D01*
X161933737Y-72295535D01*
X162148231Y-72475516D01*
X162362722Y-72655496D01*
X162452713Y-72548250D01*
X162542702Y-72441004D01*
X162649948Y-72530994D01*
X162757196Y-72620983D01*
X162847186Y-72513737D01*
X162937176Y-72406492D01*
X162829930Y-72316502D01*
X162722683Y-72226511D01*
X162632693Y-72333757D01*
X162542702Y-72441004D01*
X162435457Y-72351013D01*
X162328210Y-72261022D01*
X162418200Y-72153778D01*
X162508192Y-72046531D01*
X162615437Y-72136521D01*
X162722683Y-72226511D01*
X162812672Y-72119265D01*
X162902664Y-72012019D01*
X163009910Y-72102008D01*
X163331648Y-72371980D01*
X163760633Y-72731940D01*
X163940614Y-72517448D01*
X164120594Y-72302957D01*
X164227841Y-72392946D01*
X164335086Y-72482937D01*
X164515068Y-72268444D01*
X164695049Y-72053950D01*
X164587802Y-71963961D01*
X164480557Y-71873971D01*
X164390565Y-71981217D01*
X164300575Y-72088463D01*
X164193329Y-71998473D01*
X164086083Y-71908483D01*
X164176074Y-71801236D01*
X164266064Y-71693990D01*
X164373310Y-71783981D01*
X164480557Y-71873971D01*
X164570546Y-71766725D01*
X164660537Y-71659479D01*
X164982275Y-71929449D01*
G37*
D13*
%TO.C,R1*%
X139353641Y-63395000D02*
X139046359Y-63395000D01*
X139353641Y-64155000D02*
X139046359Y-64155000D01*
%TO.C,R5*%
X157276141Y-81220000D02*
X156968859Y-81220000D01*
X157276141Y-81980000D02*
X156968859Y-81980000D01*
%TO.C,R7*%
X127088641Y-131795000D02*
X126781359Y-131795000D01*
X127088641Y-132555000D02*
X126781359Y-132555000D01*
%TD*%
%LPC*%
D15*
%TO.C,SW3*%
X135442647Y-69021496D03*
X135521150Y-70519442D03*
X135678159Y-73515332D03*
D16*
X134785538Y-75112736D03*
X132588552Y-75227876D03*
X132190799Y-67638290D03*
X134387783Y-67523151D03*
%TD*%
D17*
%TO.C,SW4*%
X171675000Y-65675000D03*
X177675000Y-65675000D03*
X171675000Y-61975000D03*
X177675000Y-61975000D03*
%TD*%
D18*
%TO.C,U1*%
X144299999Y-90087500D03*
X144300000Y-88817500D03*
X144300000Y-87547499D03*
X144300000Y-86277499D03*
X149250001Y-86277500D03*
X149250000Y-87547500D03*
X149250000Y-88817501D03*
X149250000Y-90087501D03*
%TD*%
D19*
%TO.C,R3*%
X145270000Y-95000000D03*
X144250000Y-95000000D03*
%TD*%
D20*
%TO.C,J1*%
X121503015Y-135254072D03*
D21*
X123750000Y-136350000D03*
X125996985Y-137445928D03*
%TD*%
D22*
%TO.C,R2*%
X168470000Y-70900000D03*
X169490000Y-70900000D03*
%TD*%
D19*
%TO.C,R4*%
X140482500Y-81200000D03*
X139462500Y-81200000D03*
%TD*%
%TO.C,R6*%
X137710000Y-100650000D03*
X136690000Y-100650000D03*
%TD*%
D23*
%TO.C,C1*%
X142250000Y-90087500D03*
X142250000Y-91047500D03*
%TD*%
D24*
%TO.C,BT1*%
X139394201Y-126321422D03*
X125255799Y-119728578D03*
D25*
X132325000Y-123025000D03*
%TD*%
D19*
%TO.C,R1*%
X139710000Y-63775000D03*
X138690000Y-63775000D03*
%TD*%
%TO.C,R5*%
X157632500Y-81600000D03*
X156612500Y-81600000D03*
%TD*%
%TO.C,R7*%
X127445000Y-132175000D03*
X126425000Y-132175000D03*
%TD*%
%LPD*%
M02*
