%TF.GenerationSoftware,KiCad,Pcbnew,9.0.6*%
%TF.CreationDate,2026-03-17T22:06:48+09:00*%
%TF.ProjectId,HW-LEEK-001,48572d4c-4545-44b2-9d30-30312e6b6963,rev?*%
%TF.SameCoordinates,Original*%
%TF.FileFunction,Copper,L2,Bot*%
%TF.FilePolarity,Positive*%
%FSLAX46Y46*%
G04 Gerber Fmt 4.6, Leading zero omitted, Abs format (unit mm)*
G04 Created by KiCad (PCBNEW 9.0.6) date 2026-03-17 22:06:48*
%MOMM*%
%LPD*%
G01*
G04 APERTURE LIST*
G04 Aperture macros list*
%AMRoundRect*
0 Rectangle with rounded corners*
0 $1 Rounding radius*
0 $2 $3 $4 $5 $6 $7 $8 $9 X,Y pos of 4 corners*
0 Add a 4 corners polygon primitive as box body*
4,1,4,$2,$3,$4,$5,$6,$7,$8,$9,$2,$3,0*
0 Add four circle primitives for the rounded corners*
1,1,$1+$1,$2,$3*
1,1,$1+$1,$4,$5*
1,1,$1+$1,$6,$7*
1,1,$1+$1,$8,$9*
0 Add four rect primitives between the rounded corners*
20,1,$1+$1,$2,$3,$4,$5,0*
20,1,$1+$1,$4,$5,$6,$7,0*
20,1,$1+$1,$6,$7,$8,$9,0*
20,1,$1+$1,$8,$9,$2,$3,0*%
%AMHorizOval*
0 Thick line with rounded ends*
0 $1 width*
0 $2 $3 position (X,Y) of the first rounded end (center of the circle)*
0 $4 $5 position (X,Y) of the second rounded end (center of the circle)*
0 Add line between two ends*
20,1,$1,$2,$3,$4,$5,0*
0 Add two circle primitives to create the rounded ends*
1,1,$1,$2,$3*
1,1,$1,$4,$5*%
%AMRotRect*
0 Rectangle, with rotation*
0 The origin of the aperture is its center*
0 $1 length*
0 $2 width*
0 $3 Rotation angle, in degrees counterclockwise*
0 Add horizontal line*
21,1,$1,$2,0,0,$3*%
G04 Aperture macros list end*
%TA.AperFunction,SMDPad,CuDef*%
%ADD10RotRect,1.250000X0.900000X183.000000*%
%TD*%
%TA.AperFunction,SMDPad,CuDef*%
%ADD11RotRect,0.800000X0.900000X93.000000*%
%TD*%
%TA.AperFunction,SMDPad,CuDef*%
%ADD12R,1.000000X0.750000*%
%TD*%
%TA.AperFunction,SMDPad,CuDef*%
%ADD13RoundRect,0.150000X-0.825000X-0.150000X0.825000X-0.150000X0.825000X0.150000X-0.825000X0.150000X0*%
%TD*%
%TA.AperFunction,SMDPad,CuDef*%
%ADD14RoundRect,0.135000X0.135000X0.185000X-0.135000X0.185000X-0.135000X-0.185000X0.135000X-0.185000X0*%
%TD*%
%TA.AperFunction,ComponentPad*%
%ADD15RoundRect,0.250000X-0.857096X-0.388603X0.221457X-0.914648X0.857096X0.388603X-0.221457X0.914648X0*%
%TD*%
%TA.AperFunction,ComponentPad*%
%ADD16HorizOval,1.700000X-0.054796X-0.112349X0.054796X0.112349X0*%
%TD*%
%TA.AperFunction,SMDPad,CuDef*%
%ADD17RoundRect,0.135000X-0.135000X-0.185000X0.135000X-0.185000X0.135000X0.185000X-0.135000X0.185000X0*%
%TD*%
%TA.AperFunction,SMDPad,CuDef*%
%ADD18RoundRect,0.140000X-0.170000X0.140000X-0.170000X-0.140000X0.170000X-0.140000X0.170000X0.140000X0*%
%TD*%
%TA.AperFunction,SMDPad,CuDef*%
%ADD19RotRect,3.900000X4.180000X155.000000*%
%TD*%
%TA.AperFunction,SMDPad,CuDef*%
%ADD20C,7.000000*%
%TD*%
%TA.AperFunction,ViaPad*%
%ADD21C,0.600000*%
%TD*%
%TA.AperFunction,Conductor*%
%ADD22C,0.200000*%
%TD*%
G04 APERTURE END LIST*
D10*
%TO.P,SW3,1,1*%
%TO.N,unconnected-(SW3-Pad1)*%
X135442647Y-69021496D03*
%TO.P,SW3,2,2*%
%TO.N,/BATT+*%
X135521150Y-70519442D03*
%TO.P,SW3,3,3*%
%TO.N,+3V0*%
X135678159Y-73515332D03*
D11*
%TO.P,SW3,4,4*%
%TO.N,unconnected-(SW3-Pad4)*%
X134785538Y-75112736D03*
%TO.P,SW3,5,5*%
%TO.N,unconnected-(SW3-Pad5)*%
X132588552Y-75227876D03*
%TO.P,SW3,6,6*%
%TO.N,unconnected-(SW3-Pad6)*%
X132190799Y-67638290D03*
%TO.P,SW3,7,7*%
%TO.N,unconnected-(SW3-Pad7)*%
X134387783Y-67523151D03*
%TD*%
D12*
%TO.P,SW4,1,A*%
%TO.N,/SELECT*%
X171675000Y-65675000D03*
%TO.P,SW4,2,B*%
X177675000Y-65675000D03*
%TO.P,SW4,3,C*%
%TO.N,GND*%
X171675000Y-61975000D03*
%TO.P,SW4,4,D*%
X177675000Y-61975000D03*
%TD*%
D13*
%TO.P,U1,1,VCC*%
%TO.N,+3V0*%
X144299999Y-90087500D03*
%TO.P,U1,2,PA6*%
%TO.N,/GREEN_GROUP_2*%
X144300000Y-88817500D03*
%TO.P,U1,3,PA7*%
%TO.N,/WHITE_GROUP_2*%
X144300000Y-87547499D03*
%TO.P,U1,4,PA1*%
%TO.N,/GREEN_GROUP_1*%
X144300000Y-86277499D03*
%TO.P,U1,5,PA2*%
%TO.N,/SELECT*%
X149250001Y-86277500D03*
%TO.P,U1,6,~{RESET}/PA0*%
%TO.N,/UPDI*%
X149250000Y-87547500D03*
%TO.P,U1,7,PA3*%
%TO.N,/WHITE_GROUP_1*%
X149250000Y-88817501D03*
%TO.P,U1,8,GND*%
%TO.N,GND*%
X149250000Y-90087501D03*
%TD*%
D14*
%TO.P,R3,1*%
%TO.N,GND*%
X145270000Y-95000000D03*
%TO.P,R3,2*%
%TO.N,Net-(D1-K)*%
X144250000Y-95000000D03*
%TD*%
D15*
%TO.P,J1,1,Pin_1*%
%TO.N,GND*%
X121503015Y-135254072D03*
D16*
%TO.P,J1,2,Pin_2*%
%TO.N,+3V0*%
X123750000Y-136350000D03*
%TO.P,J1,3,Pin_3*%
%TO.N,/UPDI*%
X125996985Y-137445928D03*
%TD*%
D17*
%TO.P,R2,1*%
%TO.N,GND*%
X168470000Y-70900000D03*
%TO.P,R2,2*%
%TO.N,Net-(D5-K)*%
X169490000Y-70900000D03*
%TD*%
D14*
%TO.P,R4,1*%
%TO.N,GND*%
X140482500Y-81200000D03*
%TO.P,R4,2*%
%TO.N,Net-(D2-K)*%
X139462500Y-81200000D03*
%TD*%
%TO.P,R6,1*%
%TO.N,GND*%
X137710000Y-100650000D03*
%TO.P,R6,2*%
%TO.N,Net-(D6-K)*%
X136690000Y-100650000D03*
%TD*%
D18*
%TO.P,C1,1*%
%TO.N,+3V0*%
X142250000Y-90087500D03*
%TO.P,C1,2*%
%TO.N,GND*%
X142250000Y-91047500D03*
%TD*%
D19*
%TO.P,BT1,1,+*%
%TO.N,/BATT+*%
X139394201Y-126321422D03*
X125255799Y-119728578D03*
D20*
%TO.P,BT1,2,-*%
%TO.N,GND*%
X132325000Y-123025000D03*
%TD*%
D14*
%TO.P,R1,1*%
%TO.N,GND*%
X139710000Y-63775000D03*
%TO.P,R1,2*%
%TO.N,Net-(D4-K)*%
X138690000Y-63775000D03*
%TD*%
%TO.P,R5,1*%
%TO.N,GND*%
X157632500Y-81600000D03*
%TO.P,R5,2*%
%TO.N,Net-(D3-K)*%
X156612500Y-81600000D03*
%TD*%
%TO.P,R7,1*%
%TO.N,GND*%
X127445000Y-132175000D03*
%TO.P,R7,2*%
%TO.N,Net-(D7-K)*%
X126425000Y-132175000D03*
%TD*%
D21*
%TO.N,GND*%
X135700000Y-116775000D03*
X132875000Y-105850000D03*
X134476000Y-105850000D03*
X137550000Y-116775000D03*
%TO.N,/BATT+*%
X123375000Y-123050000D03*
X139394201Y-126321423D03*
%TO.N,/GREEN_GROUP_2*%
X142375000Y-96750000D03*
%TO.N,Net-(D2-K)*%
X139462500Y-79050000D03*
%TO.N,Net-(D3-K)*%
X156612500Y-83650000D03*
%TO.N,Net-(D4-K)*%
X138690000Y-61700000D03*
%TO.N,Net-(D5-K)*%
X169490000Y-69400000D03*
%TO.N,Net-(D6-K)*%
X135062500Y-113850000D03*
%TO.N,Net-(D7-K)*%
X126425000Y-130500000D03*
%TO.N,/UPDI*%
X126975000Y-135575000D03*
X144375000Y-116475000D03*
%TO.N,/GREEN_GROUP_2*%
X141337500Y-79050000D03*
X158487500Y-83650000D03*
%TO.N,Net-(D1-K)*%
X144250000Y-96750000D03*
%TO.N,/GREEN_GROUP_1*%
X140265000Y-61700000D03*
X171065000Y-69400000D03*
%TO.N,/WHITE_GROUP_1*%
X145777999Y-107625000D03*
X147175000Y-108975000D03*
X136637500Y-113850000D03*
%TO.N,/WHITE_GROUP_2*%
X143202235Y-109352235D03*
X128000000Y-130500000D03*
X144038263Y-110213265D03*
%TD*%
D22*
%TO.N,/WHITE_GROUP_1*%
X148632499Y-88200000D02*
X149250000Y-88817501D01*
X146977999Y-88200000D02*
X148632499Y-88200000D01*
X147175000Y-108975000D02*
X147175000Y-107750000D01*
X147175000Y-107750000D02*
X146977999Y-107552999D01*
X146977999Y-107552999D02*
X146977999Y-88200000D01*
%TO.N,/UPDI*%
X146575000Y-114325000D02*
X144425000Y-116475000D01*
X144425000Y-116475000D02*
X144375000Y-116475000D01*
X148602500Y-86900000D02*
X146575000Y-86900000D01*
X149250000Y-87547500D02*
X148602500Y-86900000D01*
X146575000Y-86900000D02*
X146575000Y-114325000D01*
%TO.N,/GREEN_GROUP_1*%
X144302499Y-86275000D02*
X144300000Y-86277499D01*
X171081000Y-70494000D02*
X169975000Y-71600000D01*
X169975000Y-71600000D02*
X160655398Y-71600000D01*
X160655398Y-71600000D02*
X145977899Y-86277499D01*
X171081000Y-69416000D02*
X171081000Y-70494000D01*
X171065000Y-69400000D02*
X171081000Y-69416000D01*
X145977899Y-86277499D02*
X144302499Y-86277499D01*
X144302499Y-86277499D02*
X144302499Y-86275000D01*
%TO.N,/GREEN_GROUP_2*%
X143325001Y-88817500D02*
X144300000Y-88817500D01*
X143024000Y-87206531D02*
X143024000Y-88516499D01*
X143284032Y-86946499D02*
X143024000Y-87206531D01*
X143024000Y-88516499D02*
X143325001Y-88817500D01*
X145875999Y-86946499D02*
X143284032Y-86946499D01*
X147197498Y-85625000D02*
X145875999Y-86946499D01*
%TO.N,/WHITE_GROUP_2*%
X145274999Y-87547499D02*
X144300000Y-87547499D01*
X146174000Y-88446500D02*
X145274999Y-87547499D01*
X146174000Y-106380470D02*
X146174000Y-88446500D01*
%TO.N,/GREEN_GROUP_2*%
X145575999Y-89118500D02*
X145274999Y-88817500D01*
X145274999Y-88817500D02*
X144300000Y-88817500D01*
X142375000Y-94750000D02*
X145575999Y-91549001D01*
X145575999Y-91549001D02*
X145575999Y-89118500D01*
X141337500Y-79050000D02*
X141337500Y-86829999D01*
X141337500Y-86829999D02*
X143325001Y-88817500D01*
%TO.N,Net-(D1-K)*%
X144250000Y-95000000D02*
X144250000Y-96750000D01*
%TO.N,GND*%
X171675000Y-61975000D02*
X177675000Y-61975000D01*
%TO.N,+3V0*%
X134445671Y-76050000D02*
X133876000Y-76619671D01*
X128207371Y-117344105D02*
X133876000Y-111675476D01*
X128207371Y-125167629D02*
X128207371Y-117344105D01*
X123750000Y-129625000D02*
X128207371Y-125167629D01*
X142250000Y-90087500D02*
X137325000Y-85162500D01*
X137325000Y-85162500D02*
X137325000Y-75162173D01*
X133876000Y-111675476D02*
X133876000Y-90050000D01*
X135678159Y-75492012D02*
X135120171Y-76050000D01*
X135678159Y-73515332D02*
X135678159Y-75492012D01*
X135120171Y-76050000D02*
X134445671Y-76050000D01*
X142250000Y-90087500D02*
X144299999Y-90087500D01*
X137325000Y-75162173D02*
X135678159Y-73515332D01*
X123750000Y-136350000D02*
X123750000Y-129625000D01*
X133876000Y-76619671D02*
X133876000Y-90475000D01*
%TO.N,/BATT+*%
X133475000Y-111509376D02*
X133475000Y-75100000D01*
X123375000Y-121609376D02*
X133475000Y-111509376D01*
X134316363Y-71724229D02*
X134316363Y-74258637D01*
X133475000Y-75100000D02*
X134316363Y-74258637D01*
X135521150Y-70519442D02*
X134316363Y-71724229D01*
X123375000Y-123050000D02*
X123375000Y-121609376D01*
%TO.N,/GREEN_GROUP_2*%
X142375000Y-94750000D02*
X142375000Y-96750000D01*
%TO.N,Net-(D2-K)*%
X139462500Y-81200000D02*
X139462500Y-79050000D01*
%TO.N,Net-(D3-K)*%
X156612500Y-81600000D02*
X156612500Y-83650000D01*
%TO.N,Net-(D4-K)*%
X138690000Y-63775000D02*
X138690000Y-61700000D01*
%TO.N,Net-(D5-K)*%
X169490000Y-70900000D02*
X169490000Y-69400000D01*
%TO.N,Net-(D6-K)*%
X136690000Y-112222500D02*
X135062500Y-113850000D01*
X136690000Y-100650000D02*
X136690000Y-112222500D01*
%TO.N,Net-(D7-K)*%
X126425000Y-132175000D02*
X126425000Y-130500000D01*
%TO.N,/UPDI*%
X126975000Y-135575000D02*
X126975000Y-136467913D01*
X126975000Y-136467913D02*
X125996985Y-137445928D01*
%TO.N,/SELECT*%
X149250001Y-86277500D02*
X157722500Y-86277500D01*
X177675000Y-66325000D02*
X177675000Y-65675000D01*
X157722500Y-86277500D02*
X177675000Y-66325000D01*
X177675000Y-65675000D02*
X171675000Y-65675000D01*
%TO.N,/GREEN_GROUP_2*%
X158487500Y-83650000D02*
X156512500Y-85625000D01*
X156512500Y-85625000D02*
X147197498Y-85625000D01*
%TO.N,/GREEN_GROUP_1*%
X144300000Y-86277499D02*
X144300000Y-65735000D01*
X144300000Y-65735000D02*
X140265000Y-61700000D01*
%TO.N,/WHITE_GROUP_1*%
X139552999Y-113850000D02*
X145777999Y-107625000D01*
X136637500Y-113850000D02*
X139552999Y-113850000D01*
%TO.N,/WHITE_GROUP_2*%
X136637500Y-124087926D02*
X130225426Y-130500000D01*
X138151000Y-116100528D02*
X144038263Y-110213265D01*
X136637500Y-124087926D02*
X138151000Y-122574426D01*
X130225426Y-130500000D02*
X128000000Y-130500000D01*
X143202235Y-109352235D02*
X146174000Y-106380470D01*
X138151000Y-122574426D02*
X138151000Y-116100528D01*
%TD*%
%TA.AperFunction,Conductor*%
%TO.N,GND*%
G36*
X139797327Y-50964406D02*
G01*
X140353950Y-50975178D01*
X140357675Y-50975307D01*
X140883847Y-51001508D01*
X140887631Y-51001755D01*
X140953375Y-51007049D01*
X141676687Y-51065297D01*
X141680513Y-51065667D01*
X142402148Y-51146975D01*
X142406833Y-51147595D01*
X143069402Y-51248448D01*
X143074925Y-51249418D01*
X143688047Y-51371685D01*
X143694264Y-51373093D01*
X144267696Y-51518683D01*
X144274331Y-51520567D01*
X144777680Y-51678824D01*
X144818223Y-51691572D01*
X144824959Y-51693905D01*
X145349598Y-51892650D01*
X145355995Y-51895280D01*
X145868950Y-52123123D01*
X145876704Y-52126896D01*
X146415842Y-52412948D01*
X146427959Y-52420294D01*
X146851289Y-52711303D01*
X146865549Y-52722743D01*
X147075254Y-52918078D01*
X147202624Y-53036720D01*
X147215876Y-53051184D01*
X147498318Y-53413238D01*
X147507052Y-53426003D01*
X147635866Y-53642030D01*
X147708379Y-53763639D01*
X147732550Y-53804174D01*
X147740699Y-53820449D01*
X147865809Y-54124167D01*
X147896893Y-54199625D01*
X147902942Y-54218446D01*
X148011017Y-54677651D01*
X148013442Y-54691370D01*
X148087359Y-55310948D01*
X148088004Y-55318129D01*
X148139214Y-56162304D01*
X148139409Y-56166962D01*
X148143508Y-56345231D01*
X148143540Y-56348480D01*
X148142758Y-56591696D01*
X148142741Y-56593411D01*
X148137553Y-56897680D01*
X148137533Y-56898642D01*
X148128584Y-57259298D01*
X148128570Y-57259828D01*
X148116546Y-57673114D01*
X148116538Y-57673368D01*
X148102166Y-58134856D01*
X148102164Y-58134918D01*
X148089352Y-58539807D01*
X148087338Y-58603437D01*
X148087310Y-58603501D01*
X148086063Y-58643720D01*
X148084436Y-58695138D01*
X148084460Y-58695479D01*
X148070635Y-59141659D01*
X148070262Y-59153717D01*
X148070195Y-59153869D01*
X148069023Y-59193723D01*
X148069022Y-59193761D01*
X148067438Y-59244904D01*
X148067494Y-59245725D01*
X148063677Y-59375592D01*
X148052873Y-59743127D01*
X148052773Y-59743353D01*
X148051702Y-59782940D01*
X148051701Y-59782988D01*
X148051696Y-59783178D01*
X148051687Y-59783468D01*
X148050206Y-59833830D01*
X148050292Y-59835064D01*
X148036202Y-60356186D01*
X148035870Y-60368481D01*
X148035743Y-60368769D01*
X148034799Y-60408071D01*
X148034799Y-60408079D01*
X148033426Y-60458880D01*
X148033541Y-60460472D01*
X148022268Y-60930261D01*
X148019956Y-61026583D01*
X148019803Y-61026934D01*
X148019002Y-61066303D01*
X148018992Y-61066726D01*
X148017792Y-61116747D01*
X148017937Y-61118657D01*
X148007663Y-61624002D01*
X148005828Y-61714273D01*
X148005652Y-61714681D01*
X148005020Y-61753936D01*
X148005010Y-61754470D01*
X148004000Y-61804150D01*
X148004178Y-61806366D01*
X147998093Y-62185056D01*
X147994183Y-62428372D01*
X147993985Y-62428837D01*
X147993544Y-62468033D01*
X147993538Y-62468460D01*
X147992744Y-62517952D01*
X147992956Y-62520465D01*
X147986539Y-63092638D01*
X147985719Y-63165712D01*
X147985499Y-63166236D01*
X147985272Y-63205457D01*
X147985267Y-63205970D01*
X147984716Y-63255069D01*
X147984970Y-63257884D01*
X147981204Y-63910679D01*
X147981204Y-63910680D01*
X147981132Y-63923133D01*
X147980892Y-63923715D01*
X147980902Y-63962810D01*
X147980900Y-63963323D01*
X147980619Y-64012191D01*
X147980918Y-64015314D01*
X147981113Y-64667523D01*
X147981122Y-64697464D01*
X147980859Y-64698113D01*
X147981132Y-64737209D01*
X147981133Y-64737793D01*
X147981134Y-64737794D01*
X147981149Y-64786229D01*
X147981500Y-64789671D01*
X147985994Y-65430322D01*
X147986381Y-65485554D01*
X147986096Y-65486272D01*
X147986658Y-65525293D01*
X147986662Y-65525841D01*
X147986663Y-65525849D01*
X147987001Y-65574018D01*
X147987416Y-65577806D01*
X147997422Y-66271689D01*
X147997603Y-66284243D01*
X147997297Y-66285036D01*
X147998178Y-66324062D01*
X147998186Y-66324579D01*
X147998186Y-66324595D01*
X147998875Y-66372339D01*
X147999363Y-66376502D01*
X148015207Y-67077773D01*
X148015207Y-67077775D01*
X148015304Y-67082093D01*
X148015492Y-67090378D01*
X148015162Y-67091254D01*
X148016386Y-67130030D01*
X148016402Y-67130710D01*
X148016403Y-67130736D01*
X148017474Y-67178101D01*
X148018049Y-67182669D01*
X148040339Y-67888159D01*
X148040339Y-67888160D01*
X148040738Y-67900807D01*
X148040385Y-67901775D01*
X148041989Y-67940439D01*
X148042012Y-67941144D01*
X148042014Y-67941175D01*
X148043498Y-67988096D01*
X148044176Y-67993104D01*
X148073515Y-68699662D01*
X148074043Y-68712382D01*
X148073664Y-68713454D01*
X148075690Y-68752072D01*
X148075725Y-68752893D01*
X148075726Y-68752902D01*
X148077647Y-68799169D01*
X148078451Y-68804673D01*
X148115433Y-69509207D01*
X148115432Y-69509207D01*
X148116101Y-69521962D01*
X148115698Y-69523152D01*
X148118184Y-69561614D01*
X148118228Y-69562449D01*
X148118228Y-69562450D01*
X148120630Y-69608200D01*
X148121585Y-69614251D01*
X148166789Y-70313569D01*
X148166789Y-70313572D01*
X148167618Y-70326408D01*
X148167187Y-70327734D01*
X148170177Y-70366023D01*
X148170233Y-70366877D01*
X148173152Y-70412020D01*
X148174292Y-70418687D01*
X148229290Y-71122587D01*
X148228832Y-71124072D01*
X148232385Y-71162220D01*
X148232458Y-71163142D01*
X148232461Y-71163173D01*
X148235924Y-71207491D01*
X148237290Y-71214846D01*
X148300610Y-71894380D01*
X148300610Y-71894381D01*
X148301821Y-71907382D01*
X148301338Y-71909046D01*
X148305502Y-71946899D01*
X148305601Y-71947951D01*
X148305607Y-71948005D01*
X148309657Y-71991454D01*
X148311301Y-71999592D01*
X148384479Y-72664556D01*
X148384479Y-72664559D01*
X148385921Y-72677669D01*
X148385413Y-72679549D01*
X148390268Y-72717183D01*
X148390401Y-72718386D01*
X148395067Y-72760778D01*
X148397061Y-72769812D01*
X148419232Y-72941621D01*
X148482301Y-73430356D01*
X148481773Y-73432488D01*
X148487390Y-73469790D01*
X148487558Y-73471089D01*
X148487558Y-73471090D01*
X148492879Y-73512323D01*
X148495310Y-73522389D01*
X148587901Y-74137223D01*
X148591685Y-74162350D01*
X148591143Y-74164783D01*
X148597609Y-74201694D01*
X148597832Y-74203173D01*
X148603831Y-74243007D01*
X148606815Y-74254237D01*
X148697264Y-74770498D01*
X148714800Y-74870585D01*
X148714258Y-74873379D01*
X148721659Y-74909739D01*
X148721955Y-74911427D01*
X148728657Y-74949673D01*
X148732351Y-74962270D01*
X148824091Y-75412955D01*
X148852399Y-75552021D01*
X148851877Y-75555249D01*
X148860327Y-75590974D01*
X148860718Y-75592893D01*
X148860717Y-75592895D01*
X148868119Y-75629253D01*
X148872736Y-75643434D01*
X149001623Y-76188291D01*
X149001622Y-76188291D01*
X149006097Y-76207209D01*
X149005441Y-76214628D01*
X149015220Y-76245772D01*
X149016248Y-76250115D01*
X149016252Y-76250129D01*
X149022746Y-76277581D01*
X149027411Y-76287791D01*
X149032931Y-76302175D01*
X149535306Y-77902036D01*
X149572318Y-78019902D01*
X149574139Y-78038767D01*
X149584151Y-78057588D01*
X149587590Y-78068539D01*
X149590538Y-78077927D01*
X149590538Y-78077928D01*
X149594385Y-78082523D01*
X149608775Y-78103879D01*
X149781310Y-78428211D01*
X150185498Y-79188009D01*
X150185497Y-79188009D01*
X150193895Y-79203795D01*
X150196101Y-79214536D01*
X150212478Y-79238727D01*
X150215580Y-79244556D01*
X150215581Y-79244558D01*
X150226206Y-79264531D01*
X150233936Y-79273988D01*
X150233673Y-79274202D01*
X150244697Y-79286314D01*
X150264247Y-79315190D01*
X150371604Y-79473759D01*
X150387213Y-79501405D01*
X150393824Y-79506579D01*
X150398530Y-79513530D01*
X150398529Y-79513530D01*
X150420823Y-79528230D01*
X150428992Y-79534106D01*
X150463191Y-79560874D01*
X150562050Y-79638253D01*
X150565227Y-79643201D01*
X150593302Y-79662714D01*
X150620231Y-79683792D01*
X150620235Y-79683793D01*
X150624914Y-79686157D01*
X150625129Y-79686285D01*
X150625912Y-79686626D01*
X150625913Y-79686627D01*
X150630724Y-79688724D01*
X150660690Y-79695257D01*
X150667513Y-79696949D01*
X150697075Y-79705177D01*
X150697079Y-79705176D01*
X150702319Y-79705571D01*
X150719437Y-79708068D01*
X150802985Y-79726286D01*
X150802984Y-79726286D01*
X150812308Y-79728319D01*
X150819545Y-79729897D01*
X150824577Y-79732985D01*
X150858317Y-79738351D01*
X150861765Y-79739103D01*
X150861769Y-79739103D01*
X150891710Y-79745633D01*
X150891714Y-79745632D01*
X150897028Y-79745730D01*
X150897531Y-79745774D01*
X150898032Y-79745720D01*
X150903344Y-79745514D01*
X150903350Y-79745515D01*
X150933174Y-79738374D01*
X150940029Y-79736938D01*
X150970213Y-79731509D01*
X150970216Y-79731506D01*
X150975173Y-79729559D01*
X150991658Y-79724374D01*
X151130414Y-79691159D01*
X151161729Y-79686323D01*
X151168951Y-79681933D01*
X151174603Y-79680581D01*
X151177174Y-79679966D01*
X151198733Y-79664323D01*
X151207138Y-79658735D01*
X151387957Y-79548882D01*
X151406077Y-79542460D01*
X151421711Y-79528375D01*
X151439696Y-79517449D01*
X151443506Y-79512245D01*
X151460543Y-79493390D01*
X151638481Y-79333091D01*
X151649012Y-79327950D01*
X151667874Y-79306612D01*
X151689036Y-79287548D01*
X151689039Y-79287541D01*
X151696341Y-79277758D01*
X151696421Y-79277818D01*
X151705610Y-79263922D01*
X151891845Y-79053245D01*
X151898229Y-79049544D01*
X151918106Y-79023538D01*
X151939787Y-78999012D01*
X151939789Y-78999004D01*
X151945281Y-78989579D01*
X151953909Y-78976695D01*
X152153653Y-78715367D01*
X152157641Y-78712805D01*
X152177776Y-78683807D01*
X152199214Y-78655760D01*
X152199215Y-78655753D01*
X152199816Y-78654531D01*
X152209277Y-78638440D01*
X152426862Y-78325088D01*
X152429354Y-78323383D01*
X152449547Y-78292418D01*
X152470634Y-78262051D01*
X152470634Y-78262050D01*
X152472306Y-78259643D01*
X152478879Y-78247440D01*
X152713149Y-77888215D01*
X152714634Y-77887160D01*
X152734905Y-77854853D01*
X152755726Y-77822928D01*
X152755726Y-77822925D01*
X152759093Y-77817763D01*
X152763035Y-77810023D01*
X152787537Y-77770975D01*
X153013582Y-77410734D01*
X153014336Y-77410189D01*
X153034780Y-77376951D01*
X153055485Y-77343956D01*
X153055485Y-77343953D01*
X153060256Y-77336351D01*
X153062272Y-77332257D01*
X153243284Y-77037984D01*
X153328910Y-76898781D01*
X153329089Y-76898652D01*
X153349696Y-76864989D01*
X153370585Y-76831031D01*
X153370585Y-76831029D01*
X153376580Y-76821284D01*
X153377070Y-76820272D01*
X153680502Y-76324618D01*
X154027287Y-75762675D01*
X154027624Y-75762133D01*
X154390434Y-75185466D01*
X154391241Y-75184205D01*
X154391753Y-75183416D01*
X154770458Y-74599079D01*
X154771642Y-74597287D01*
X155167762Y-74009755D01*
X155169291Y-74007543D01*
X155582392Y-73424253D01*
X155584405Y-73421494D01*
X156014750Y-72848760D01*
X156017267Y-72845525D01*
X156464943Y-72289824D01*
X156468071Y-72286097D01*
X156935897Y-71750695D01*
X156937519Y-71748877D01*
X157597230Y-71025791D01*
X157597404Y-71025710D01*
X157624132Y-70996305D01*
X157650861Y-70967009D01*
X157650861Y-70967007D01*
X157658658Y-70958462D01*
X157659232Y-70957690D01*
X157938918Y-70650000D01*
X167700069Y-70650000D01*
X168220000Y-70650000D01*
X168220000Y-70087154D01*
X168219998Y-70087153D01*
X168080811Y-70127591D01*
X168080808Y-70127593D01*
X167942714Y-70209261D01*
X167942705Y-70209268D01*
X167829268Y-70322705D01*
X167829261Y-70322714D01*
X167747593Y-70460808D01*
X167747592Y-70460811D01*
X167702833Y-70614871D01*
X167702832Y-70614877D01*
X167700069Y-70650000D01*
X157938918Y-70650000D01*
X158241218Y-70317432D01*
X158241413Y-70317340D01*
X158267900Y-70288077D01*
X158268027Y-70287939D01*
X158302486Y-70250031D01*
X158303134Y-70249154D01*
X158843224Y-69652511D01*
X158843444Y-69652407D01*
X158870135Y-69622782D01*
X158896593Y-69593555D01*
X158896593Y-69593552D01*
X158904277Y-69585065D01*
X158904996Y-69584089D01*
X159406306Y-69027702D01*
X159406548Y-69027587D01*
X159432957Y-68998124D01*
X159459519Y-68968644D01*
X159459519Y-68968641D01*
X159467107Y-68960221D01*
X159467904Y-68959134D01*
X159933507Y-68439695D01*
X159933776Y-68439566D01*
X159960317Y-68409785D01*
X159986551Y-68380519D01*
X159986551Y-68380517D01*
X159994028Y-68372177D01*
X159994905Y-68370976D01*
X160427885Y-67885163D01*
X160428177Y-67885022D01*
X160454496Y-67855305D01*
X160480742Y-67825858D01*
X160480742Y-67825857D01*
X160488136Y-67817562D01*
X160489083Y-67816254D01*
X160892487Y-67360793D01*
X160892800Y-67360640D01*
X160918875Y-67331000D01*
X160945142Y-67301344D01*
X160945142Y-67301342D01*
X160952454Y-67293088D01*
X160953483Y-67291660D01*
X161330359Y-66863269D01*
X161330692Y-66863104D01*
X161356637Y-66833398D01*
X161382798Y-66803662D01*
X161382798Y-66803659D01*
X161390003Y-66795471D01*
X161391094Y-66793946D01*
X161744544Y-66389276D01*
X161744893Y-66389102D01*
X161770709Y-66359319D01*
X161796758Y-66329496D01*
X161796758Y-66329494D01*
X161803869Y-66321354D01*
X161805008Y-66319749D01*
X162138085Y-65935505D01*
X162138446Y-65935323D01*
X162164222Y-65905352D01*
X162190067Y-65875538D01*
X162190066Y-65875538D01*
X162197122Y-65867400D01*
X162198287Y-65865744D01*
X162514022Y-65498642D01*
X162514385Y-65498458D01*
X162539902Y-65468553D01*
X162540138Y-65468279D01*
X162572784Y-65430322D01*
X162573957Y-65428642D01*
X162875390Y-65075387D01*
X162875748Y-65075203D01*
X162901285Y-65045040D01*
X162926905Y-65015016D01*
X162926905Y-65015014D01*
X162933938Y-65006773D01*
X162935085Y-65005116D01*
X163225224Y-64662429D01*
X163225567Y-64662251D01*
X163250956Y-64632037D01*
X163251089Y-64631880D01*
X163283556Y-64593532D01*
X163284648Y-64591941D01*
X163566561Y-64256464D01*
X163566879Y-64256298D01*
X163592285Y-64225852D01*
X163617646Y-64195673D01*
X163617646Y-64195672D01*
X163624703Y-64187275D01*
X163625710Y-64185796D01*
X163902432Y-63854189D01*
X163902715Y-63854040D01*
X163927734Y-63823869D01*
X163927920Y-63823647D01*
X163960452Y-63784661D01*
X163961356Y-63783325D01*
X164235872Y-63452299D01*
X164236114Y-63452171D01*
X164261307Y-63421627D01*
X164286614Y-63391112D01*
X164286614Y-63391109D01*
X164293833Y-63382406D01*
X164294595Y-63381271D01*
X164569924Y-63047481D01*
X164570118Y-63047378D01*
X164595079Y-63016985D01*
X164620537Y-62986122D01*
X164620537Y-62986120D01*
X164627823Y-62977288D01*
X164628447Y-62976355D01*
X164907626Y-62636428D01*
X164907772Y-62636351D01*
X164932819Y-62605754D01*
X164958145Y-62574918D01*
X164958146Y-62574914D01*
X164965570Y-62565875D01*
X164966032Y-62565181D01*
X165103020Y-62397844D01*
X170675000Y-62397844D01*
X170681401Y-62457372D01*
X170681403Y-62457379D01*
X170731645Y-62592086D01*
X170731649Y-62592093D01*
X170817809Y-62707187D01*
X170817812Y-62707190D01*
X170932906Y-62793350D01*
X170932913Y-62793354D01*
X171067620Y-62843596D01*
X171067627Y-62843598D01*
X171127155Y-62849999D01*
X171127172Y-62850000D01*
X171425000Y-62850000D01*
X171925000Y-62850000D01*
X172222828Y-62850000D01*
X172222844Y-62849999D01*
X172282372Y-62843598D01*
X172282379Y-62843596D01*
X172417086Y-62793354D01*
X172417093Y-62793350D01*
X172532187Y-62707190D01*
X172532190Y-62707187D01*
X172618350Y-62592093D01*
X172618354Y-62592086D01*
X172668596Y-62457379D01*
X172668598Y-62457372D01*
X172674999Y-62397844D01*
X176675000Y-62397844D01*
X176681401Y-62457372D01*
X176681403Y-62457379D01*
X176731645Y-62592086D01*
X176731649Y-62592093D01*
X176817809Y-62707187D01*
X176817812Y-62707190D01*
X176932906Y-62793350D01*
X176932913Y-62793354D01*
X177067620Y-62843596D01*
X177067627Y-62843598D01*
X177127155Y-62849999D01*
X177127172Y-62850000D01*
X177425000Y-62850000D01*
X177925000Y-62850000D01*
X178222828Y-62850000D01*
X178222844Y-62849999D01*
X178282372Y-62843598D01*
X178282379Y-62843596D01*
X178417086Y-62793354D01*
X178417093Y-62793350D01*
X178532187Y-62707190D01*
X178532190Y-62707187D01*
X178618350Y-62592093D01*
X178618354Y-62592086D01*
X178668596Y-62457379D01*
X178668598Y-62457372D01*
X178674999Y-62397844D01*
X178675000Y-62397827D01*
X178675000Y-62225000D01*
X177925000Y-62225000D01*
X177925000Y-62850000D01*
X177425000Y-62850000D01*
X177425000Y-62225000D01*
X176675000Y-62225000D01*
X176675000Y-62397844D01*
X172674999Y-62397844D01*
X172675000Y-62397827D01*
X172675000Y-62225000D01*
X171925000Y-62225000D01*
X171925000Y-62850000D01*
X171425000Y-62850000D01*
X171425000Y-62225000D01*
X170675000Y-62225000D01*
X170675000Y-62397844D01*
X165103020Y-62397844D01*
X165252029Y-62215823D01*
X165252125Y-62215772D01*
X165277215Y-62185056D01*
X165302486Y-62154188D01*
X165302486Y-62154186D01*
X165310082Y-62144909D01*
X165310389Y-62144445D01*
X165606183Y-61782346D01*
X165606232Y-61782321D01*
X165631282Y-61751622D01*
X165656611Y-61720616D01*
X165656611Y-61720615D01*
X165664533Y-61710918D01*
X165664680Y-61710692D01*
X165794048Y-61552155D01*
X170675000Y-61552155D01*
X170675000Y-61725000D01*
X171425000Y-61725000D01*
X171925000Y-61725000D01*
X172675000Y-61725000D01*
X172675000Y-61552172D01*
X172674999Y-61552155D01*
X176675000Y-61552155D01*
X176675000Y-61725000D01*
X177425000Y-61725000D01*
X177925000Y-61725000D01*
X178675000Y-61725000D01*
X178675000Y-61552172D01*
X178674999Y-61552155D01*
X178668598Y-61492627D01*
X178668596Y-61492620D01*
X178618354Y-61357913D01*
X178618350Y-61357906D01*
X178532190Y-61242812D01*
X178532187Y-61242809D01*
X178417093Y-61156649D01*
X178417086Y-61156645D01*
X178282379Y-61106403D01*
X178282372Y-61106401D01*
X178222844Y-61100000D01*
X177925000Y-61100000D01*
X177925000Y-61725000D01*
X177425000Y-61725000D01*
X177425000Y-61100000D01*
X177127155Y-61100000D01*
X177067627Y-61106401D01*
X177067620Y-61106403D01*
X176932913Y-61156645D01*
X176932906Y-61156649D01*
X176817812Y-61242809D01*
X176817809Y-61242812D01*
X176731649Y-61357906D01*
X176731645Y-61357913D01*
X176681403Y-61492620D01*
X176681401Y-61492627D01*
X176675000Y-61552155D01*
X172674999Y-61552155D01*
X172668598Y-61492627D01*
X172668596Y-61492620D01*
X172618354Y-61357913D01*
X172618350Y-61357906D01*
X172532190Y-61242812D01*
X172532187Y-61242809D01*
X172417093Y-61156649D01*
X172417086Y-61156645D01*
X172282379Y-61106403D01*
X172282372Y-61106401D01*
X172222844Y-61100000D01*
X171925000Y-61100000D01*
X171925000Y-61725000D01*
X171425000Y-61725000D01*
X171425000Y-61100000D01*
X171127155Y-61100000D01*
X171067627Y-61106401D01*
X171067620Y-61106403D01*
X170932913Y-61156645D01*
X170932906Y-61156649D01*
X170817812Y-61242809D01*
X170817809Y-61242812D01*
X170731649Y-61357906D01*
X170731645Y-61357913D01*
X170681403Y-61492620D01*
X170681401Y-61492627D01*
X170675000Y-61552155D01*
X165794048Y-61552155D01*
X165962008Y-61346324D01*
X165962019Y-61346315D01*
X165973150Y-61332673D01*
X165995600Y-61305158D01*
X165995603Y-61305156D01*
X166013346Y-61283411D01*
X166023572Y-61270880D01*
X166023572Y-61270878D01*
X166034254Y-61257788D01*
X166034267Y-61257766D01*
X166381080Y-60832714D01*
X166381085Y-60832718D01*
X166381104Y-60832683D01*
X166781928Y-60341806D01*
X166782645Y-60340939D01*
X167365809Y-59642717D01*
X167369867Y-59638097D01*
X167784974Y-59188800D01*
X167794461Y-59179576D01*
X168130301Y-58886315D01*
X168143119Y-58876518D01*
X168500375Y-58638677D01*
X168509812Y-58632985D01*
X168931543Y-58403550D01*
X168942697Y-58398186D01*
X168946312Y-58396665D01*
X169370406Y-58218202D01*
X169382931Y-58213706D01*
X169850710Y-58073658D01*
X169862063Y-58070836D01*
X170405801Y-57962726D01*
X170414452Y-57961321D01*
X171066956Y-57878988D01*
X171072676Y-57878402D01*
X171862979Y-57815859D01*
X171866981Y-57815608D01*
X172511229Y-57785613D01*
X172515293Y-57785493D01*
X173152779Y-57777149D01*
X173156901Y-57777164D01*
X173787243Y-57790368D01*
X173791442Y-57790529D01*
X174414225Y-57825180D01*
X174418488Y-57825493D01*
X175033142Y-57881481D01*
X175037529Y-57881961D01*
X175643702Y-57959187D01*
X175648170Y-57959840D01*
X176245398Y-58058197D01*
X176249891Y-58059023D01*
X176690458Y-58148492D01*
X176837835Y-58178421D01*
X176842404Y-58179440D01*
X177420542Y-58319761D01*
X177425079Y-58320954D01*
X177993120Y-58482129D01*
X177997712Y-58483529D01*
X178555141Y-58665440D01*
X178559669Y-58667017D01*
X179106135Y-58869585D01*
X179110724Y-58871393D01*
X179374541Y-58981409D01*
X179645674Y-59094476D01*
X179650280Y-59096507D01*
X180172290Y-59339534D01*
X180177693Y-59342212D01*
X180823575Y-59682185D01*
X180830327Y-59686015D01*
X181140407Y-59875000D01*
X181410493Y-60039610D01*
X181417921Y-60044511D01*
X181519468Y-60116874D01*
X181928116Y-60408080D01*
X181934625Y-60412718D01*
X181942573Y-60418883D01*
X182003178Y-60469961D01*
X182397481Y-60802285D01*
X182405720Y-60809892D01*
X182800795Y-61209238D01*
X182808974Y-61218367D01*
X183146444Y-61634719D01*
X183154130Y-61645296D01*
X183436361Y-62080190D01*
X183443106Y-62091943D01*
X183672203Y-62547097D01*
X183677750Y-62559854D01*
X183871958Y-63085237D01*
X183876468Y-63100318D01*
X183993101Y-63605160D01*
X183995841Y-63622616D01*
X184036964Y-64108570D01*
X184037107Y-64127627D01*
X184004383Y-64598271D01*
X184001493Y-64617613D01*
X183895124Y-65077500D01*
X183889426Y-65095656D01*
X183707865Y-65549029D01*
X183700167Y-65564882D01*
X183440780Y-66014618D01*
X183432101Y-66027681D01*
X183088114Y-66480446D01*
X183082787Y-66486983D01*
X182966233Y-66620483D01*
X182965083Y-66621782D01*
X182801453Y-66803993D01*
X182800751Y-66804769D01*
X182597221Y-67027599D01*
X182596744Y-67028118D01*
X182356089Y-67288605D01*
X182355742Y-67288978D01*
X182157658Y-67501625D01*
X182102025Y-67561350D01*
X182080139Y-67584845D01*
X182079874Y-67585129D01*
X181770843Y-67914804D01*
X181770633Y-67915028D01*
X181652562Y-68040363D01*
X181430466Y-68276121D01*
X181430317Y-68276278D01*
X181061573Y-68666115D01*
X181061428Y-68666269D01*
X180665563Y-69083349D01*
X180665438Y-69083481D01*
X180244377Y-69525808D01*
X180244266Y-69525923D01*
X179799869Y-69991560D01*
X179799771Y-69991664D01*
X179335316Y-70477199D01*
X179335226Y-70477292D01*
X178858591Y-70974521D01*
X178850582Y-70982876D01*
X178348861Y-71505266D01*
X177832387Y-72042051D01*
X177313491Y-72580438D01*
X177302915Y-72591411D01*
X176762032Y-73151693D01*
X176211746Y-73720817D01*
X175655442Y-74295272D01*
X175576196Y-74376978D01*
X175092518Y-74875667D01*
X175092451Y-74875736D01*
X174526696Y-75458151D01*
X174526628Y-75458221D01*
X173960009Y-76040612D01*
X173959940Y-76040683D01*
X173393684Y-76621769D01*
X173393613Y-76621842D01*
X172830416Y-77198835D01*
X172830341Y-77198912D01*
X172270987Y-77770975D01*
X172270908Y-77771055D01*
X171719314Y-78334157D01*
X171719230Y-78334243D01*
X171175308Y-78888437D01*
X171175217Y-78888529D01*
X170786762Y-79283497D01*
X170642089Y-79430595D01*
X170352500Y-79724372D01*
X170121625Y-79958586D01*
X170121518Y-79958695D01*
X169617115Y-80469127D01*
X169617104Y-80469137D01*
X168896948Y-81197727D01*
X168896948Y-81197728D01*
X168888369Y-81206406D01*
X168888251Y-81206457D01*
X168860844Y-81234252D01*
X168860279Y-81234825D01*
X168860275Y-81234830D01*
X168824252Y-81271276D01*
X168823837Y-81271787D01*
X168180599Y-81924190D01*
X168180600Y-81924191D01*
X168172133Y-81932778D01*
X168171994Y-81932839D01*
X168144459Y-81960849D01*
X168116245Y-81989466D01*
X168116244Y-81989468D01*
X168108217Y-81997610D01*
X168107726Y-81998215D01*
X167501816Y-82614596D01*
X167501817Y-82614597D01*
X167493289Y-82623271D01*
X167493124Y-82623343D01*
X167465660Y-82651380D01*
X167429474Y-82688191D01*
X167428885Y-82688921D01*
X166858685Y-83271024D01*
X166858686Y-83271025D01*
X166850124Y-83279765D01*
X166849929Y-83279850D01*
X166822399Y-83308071D01*
X166822221Y-83308253D01*
X166786560Y-83344659D01*
X166785881Y-83345503D01*
X166249425Y-83895420D01*
X166249426Y-83895421D01*
X166240916Y-83904144D01*
X166240689Y-83904244D01*
X166212985Y-83932777D01*
X166212979Y-83932784D01*
X166177589Y-83969063D01*
X166176806Y-83970042D01*
X165672471Y-84489515D01*
X165672470Y-84489516D01*
X165663953Y-84498287D01*
X165663693Y-84498402D01*
X165636666Y-84526392D01*
X165636265Y-84526806D01*
X165636245Y-84526828D01*
X165600891Y-84563244D01*
X165599988Y-84564379D01*
X165126076Y-85055212D01*
X165126077Y-85055213D01*
X165117521Y-85064075D01*
X165117221Y-85064207D01*
X165089819Y-85092766D01*
X165089614Y-85092977D01*
X165089613Y-85092978D01*
X165054755Y-85129082D01*
X165053731Y-85130378D01*
X164608414Y-85594513D01*
X164608415Y-85594514D01*
X164599900Y-85603388D01*
X164599561Y-85603540D01*
X164572313Y-85632142D01*
X164572117Y-85632347D01*
X164537477Y-85668451D01*
X164536324Y-85669921D01*
X164117878Y-86109187D01*
X164109376Y-86118111D01*
X164108997Y-86118282D01*
X164082237Y-86146599D01*
X164081910Y-86146943D01*
X164081887Y-86146969D01*
X164047297Y-86183281D01*
X164046003Y-86184945D01*
X163652724Y-86601140D01*
X163644237Y-86610120D01*
X163643813Y-86610314D01*
X163617181Y-86638751D01*
X163616604Y-86639363D01*
X163616564Y-86639407D01*
X163582589Y-86675363D01*
X163581151Y-86677229D01*
X163211260Y-87072231D01*
X163211261Y-87072232D01*
X163202771Y-87081298D01*
X163202300Y-87081515D01*
X163175731Y-87110173D01*
X163175351Y-87110580D01*
X163175332Y-87110601D01*
X163141594Y-87146630D01*
X163140009Y-87148706D01*
X162791694Y-87524426D01*
X162791695Y-87524427D01*
X162783265Y-87533521D01*
X162782744Y-87533765D01*
X162756136Y-87562785D01*
X162746159Y-87573547D01*
X162722553Y-87599011D01*
X162720830Y-87601293D01*
X162392437Y-87959474D01*
X162392435Y-87959477D01*
X162384001Y-87968674D01*
X162383437Y-87968942D01*
X162357211Y-87997892D01*
X162356822Y-87998318D01*
X162323829Y-88034306D01*
X162321962Y-88036807D01*
X162011655Y-88379382D01*
X162011654Y-88379381D01*
X162003278Y-88388627D01*
X162002673Y-88388920D01*
X161976724Y-88417943D01*
X161976271Y-88418445D01*
X161976254Y-88418465D01*
X161943649Y-88454461D01*
X161941655Y-88457168D01*
X161647716Y-88785950D01*
X161647715Y-88785949D01*
X161639390Y-88795260D01*
X161638747Y-88795577D01*
X161613025Y-88824752D01*
X161612665Y-88825156D01*
X161612646Y-88825178D01*
X161580318Y-88861339D01*
X161578207Y-88864247D01*
X161298912Y-89181059D01*
X161298911Y-89181058D01*
X161290640Y-89190439D01*
X161289960Y-89190780D01*
X161264456Y-89220140D01*
X161263990Y-89220670D01*
X161263946Y-89220722D01*
X161232135Y-89256808D01*
X161229942Y-89259874D01*
X160963542Y-89566576D01*
X160955321Y-89576039D01*
X160954615Y-89576400D01*
X160929357Y-89605931D01*
X160928914Y-89606442D01*
X160928870Y-89606494D01*
X160897413Y-89642712D01*
X160895139Y-89645941D01*
X160639911Y-89944372D01*
X160639912Y-89944373D01*
X160631743Y-89953924D01*
X160631016Y-89954302D01*
X160605843Y-89984209D01*
X160605525Y-89984582D01*
X160574409Y-90020965D01*
X160572099Y-90024302D01*
X160326292Y-90316355D01*
X160326291Y-90316354D01*
X160318203Y-90325963D01*
X160317472Y-90326351D01*
X160292661Y-90356311D01*
X160292280Y-90356765D01*
X160292241Y-90356812D01*
X160261446Y-90393402D01*
X160259128Y-90396807D01*
X160021020Y-90684351D01*
X160013021Y-90694010D01*
X160012292Y-90694405D01*
X159987713Y-90724573D01*
X159987309Y-90725061D01*
X159956797Y-90761910D01*
X159954512Y-90765326D01*
X159722417Y-91050216D01*
X159722416Y-91050217D01*
X159714500Y-91059933D01*
X159713787Y-91060326D01*
X159689515Y-91090599D01*
X159689119Y-91091086D01*
X159689080Y-91091135D01*
X159658771Y-91128342D01*
X159656553Y-91131713D01*
X159641326Y-91150708D01*
X159428788Y-91415811D01*
X159420952Y-91425586D01*
X159420265Y-91425971D01*
X159396045Y-91456652D01*
X159395773Y-91456993D01*
X159395772Y-91456994D01*
X159365684Y-91494523D01*
X159363568Y-91497796D01*
X159138416Y-91783030D01*
X159138417Y-91783031D01*
X159130680Y-91792831D01*
X159130034Y-91793201D01*
X159106096Y-91823976D01*
X159105793Y-91824361D01*
X159105746Y-91824422D01*
X159075830Y-91862323D01*
X159073848Y-91865437D01*
X158849663Y-92153675D01*
X158849662Y-92153675D01*
X158841997Y-92163528D01*
X158841401Y-92163874D01*
X158817693Y-92194776D01*
X158817302Y-92195279D01*
X158817282Y-92195306D01*
X158787496Y-92233605D01*
X158785672Y-92236516D01*
X158560781Y-92529666D01*
X158560780Y-92529665D01*
X158553206Y-92539537D01*
X158552668Y-92539854D01*
X158529106Y-92570954D01*
X158528826Y-92571320D01*
X158528777Y-92571385D01*
X158499022Y-92610172D01*
X158497376Y-92612835D01*
X158270021Y-92912941D01*
X158262435Y-92922954D01*
X158261703Y-92923392D01*
X158238380Y-92954705D01*
X158237992Y-92955218D01*
X158209245Y-92993165D01*
X158207059Y-92996760D01*
X157882912Y-93431991D01*
X157882913Y-93431992D01*
X157875311Y-93442198D01*
X157874353Y-93442785D01*
X157851564Y-93474084D01*
X157851116Y-93474686D01*
X157851094Y-93474717D01*
X157823391Y-93511914D01*
X157820584Y-93516634D01*
X157501922Y-93954308D01*
X157494439Y-93964584D01*
X157493483Y-93965185D01*
X157471009Y-93996765D01*
X157470548Y-93997399D01*
X157443283Y-94034848D01*
X157440514Y-94039620D01*
X157127459Y-94479549D01*
X157127460Y-94479550D01*
X157123023Y-94485786D01*
X157120090Y-94489908D01*
X157119136Y-94490521D01*
X157097005Y-94522349D01*
X157095485Y-94524485D01*
X157069719Y-94560693D01*
X157066991Y-94565514D01*
X156759559Y-95007661D01*
X156759560Y-95007662D01*
X156752306Y-95018095D01*
X156751354Y-95018722D01*
X156729529Y-95050854D01*
X156729142Y-95051411D01*
X156729141Y-95051412D01*
X156702714Y-95089419D01*
X156700032Y-95094281D01*
X156398274Y-95538554D01*
X156398275Y-95538555D01*
X156391123Y-95549083D01*
X156390179Y-95549720D01*
X156368828Y-95581909D01*
X156368450Y-95582466D01*
X156368397Y-95582545D01*
X156349684Y-95610097D01*
X156342323Y-95620935D01*
X156339689Y-95625838D01*
X156043622Y-96072197D01*
X156036595Y-96082789D01*
X156035653Y-96083441D01*
X156014640Y-96115890D01*
X156014206Y-96116545D01*
X155988609Y-96155136D01*
X155986009Y-96160104D01*
X155695675Y-96608471D01*
X155695674Y-96608472D01*
X155688757Y-96619152D01*
X155687819Y-96619816D01*
X155667221Y-96652408D01*
X155666805Y-96653052D01*
X155666748Y-96653143D01*
X155641576Y-96692019D01*
X155639026Y-96697026D01*
X155354452Y-97147341D01*
X155347654Y-97158096D01*
X155346719Y-97158774D01*
X155326412Y-97191710D01*
X155325987Y-97192384D01*
X155301287Y-97231473D01*
X155298782Y-97236530D01*
X155020016Y-97688706D01*
X155020014Y-97688709D01*
X155013326Y-97699556D01*
X155012395Y-97700245D01*
X154992519Y-97733303D01*
X154992072Y-97734029D01*
X154992067Y-97734038D01*
X154967789Y-97773421D01*
X154965329Y-97778530D01*
X154692376Y-98232544D01*
X154685818Y-98243453D01*
X154684888Y-98244158D01*
X154665339Y-98277515D01*
X154664975Y-98278121D01*
X154641116Y-98317808D01*
X154638704Y-98322965D01*
X154371611Y-98778731D01*
X154371610Y-98778733D01*
X154365168Y-98789724D01*
X154364243Y-98790442D01*
X154345071Y-98824016D01*
X154344683Y-98824679D01*
X154321316Y-98864554D01*
X154318953Y-98869758D01*
X154057740Y-99327232D01*
X154057739Y-99327234D01*
X154051422Y-99338295D01*
X154050501Y-99339027D01*
X154031764Y-99372720D01*
X154031380Y-99373393D01*
X154031339Y-99373468D01*
X154008435Y-99413582D01*
X154006120Y-99418836D01*
X153773506Y-99837153D01*
X153744623Y-99889095D01*
X153743703Y-99889843D01*
X153725251Y-99923932D01*
X153724926Y-99924517D01*
X153724924Y-99924518D01*
X153702497Y-99964850D01*
X153700231Y-99970156D01*
X153450868Y-100430862D01*
X153450867Y-100430863D01*
X153444807Y-100442058D01*
X153443895Y-100442818D01*
X153425927Y-100476938D01*
X153425517Y-100477697D01*
X153403572Y-100518245D01*
X153401352Y-100523608D01*
X153184661Y-100935128D01*
X153152026Y-100997106D01*
X153151115Y-100997882D01*
X153133490Y-101032306D01*
X153133158Y-101032938D01*
X153133155Y-101032940D01*
X153111675Y-101073735D01*
X153109503Y-101079159D01*
X152872123Y-101542828D01*
X152872122Y-101542829D01*
X152866312Y-101554176D01*
X152865407Y-101554966D01*
X152848243Y-101589467D01*
X152847922Y-101590096D01*
X152847861Y-101590218D01*
X152826847Y-101631267D01*
X152824735Y-101636724D01*
X152593399Y-102101767D01*
X152593400Y-102101768D01*
X152587719Y-102113189D01*
X152586815Y-102113996D01*
X152570006Y-102148794D01*
X152569640Y-102149531D01*
X152569613Y-102149586D01*
X152552733Y-102183522D01*
X152549162Y-102190701D01*
X152547103Y-102196206D01*
X152321833Y-102662585D01*
X152321832Y-102662587D01*
X152316277Y-102674085D01*
X152315381Y-102674904D01*
X152299027Y-102709794D01*
X152298661Y-102710554D01*
X152298655Y-102710569D01*
X152278638Y-102752013D01*
X152276630Y-102757583D01*
X152218227Y-102882195D01*
X152052039Y-103236782D01*
X152051145Y-103237619D01*
X152035176Y-103272758D01*
X152034840Y-103273477D01*
X152034833Y-103273494D01*
X152015321Y-103315129D01*
X152013367Y-103320752D01*
X151800394Y-103789439D01*
X151795175Y-103800925D01*
X151794515Y-103801553D01*
X151778705Y-103837165D01*
X151778505Y-103837606D01*
X151778449Y-103837732D01*
X151758828Y-103880912D01*
X151757405Y-103885150D01*
X151673428Y-104074328D01*
X151673428Y-104074329D01*
X151668398Y-104085661D01*
X151668012Y-104086033D01*
X151652240Y-104122058D01*
X151652069Y-104122444D01*
X151652048Y-104122492D01*
X151632092Y-104167449D01*
X151631263Y-104169973D01*
X151539099Y-104380504D01*
X151539098Y-104380506D01*
X151534124Y-104391866D01*
X151533788Y-104392193D01*
X151518199Y-104428240D01*
X151518041Y-104428603D01*
X151517984Y-104428735D01*
X151498130Y-104474088D01*
X151497408Y-104476325D01*
X151396748Y-104709118D01*
X151396747Y-104709118D01*
X151391845Y-104720453D01*
X151391551Y-104720742D01*
X151376148Y-104756756D01*
X151376139Y-104756777D01*
X151375946Y-104757226D01*
X151356127Y-104803063D01*
X151355494Y-104805051D01*
X151246108Y-105060822D01*
X151246107Y-105060823D01*
X151246106Y-105060822D01*
X151241268Y-105072133D01*
X151241008Y-105072391D01*
X151225592Y-105108790D01*
X151225558Y-105108870D01*
X151225389Y-105109267D01*
X151205803Y-105155065D01*
X151205250Y-105156823D01*
X151086913Y-105436258D01*
X151082102Y-105447619D01*
X151081869Y-105447850D01*
X151066611Y-105484194D01*
X151066564Y-105484308D01*
X151046847Y-105530866D01*
X151046358Y-105532439D01*
X150918773Y-105836373D01*
X150914052Y-105847618D01*
X150913847Y-105847825D01*
X150898801Y-105883949D01*
X150898797Y-105883959D01*
X150898665Y-105884275D01*
X150879008Y-105931104D01*
X150878574Y-105932514D01*
X150741519Y-106261593D01*
X150736839Y-106272833D01*
X150736655Y-106273019D01*
X150721528Y-106309598D01*
X150721527Y-106309599D01*
X150721527Y-106309601D01*
X150701972Y-106356551D01*
X150701587Y-106357816D01*
X150554835Y-106712690D01*
X150550170Y-106723972D01*
X150550005Y-106724139D01*
X150535033Y-106760575D01*
X150534929Y-106760827D01*
X150515447Y-106807940D01*
X150515108Y-106809066D01*
X150358375Y-107190502D01*
X150358376Y-107190503D01*
X150353761Y-107201736D01*
X150353612Y-107201888D01*
X150338550Y-107238756D01*
X150338456Y-107238984D01*
X150319212Y-107285820D01*
X150318909Y-107286832D01*
X150151919Y-107695584D01*
X150151920Y-107695585D01*
X150147325Y-107706834D01*
X150147193Y-107706969D01*
X150132378Y-107743418D01*
X150132263Y-107743702D01*
X150132180Y-107743905D01*
X150112938Y-107791007D01*
X150112661Y-107791934D01*
X149936622Y-108225092D01*
X149935158Y-108228694D01*
X149935156Y-108228697D01*
X149930577Y-108239961D01*
X149930459Y-108240083D01*
X149915760Y-108276416D01*
X149915628Y-108276744D01*
X149915556Y-108276923D01*
X149896260Y-108324407D01*
X149896017Y-108325228D01*
X149707791Y-108790558D01*
X149707792Y-108790559D01*
X149703236Y-108801824D01*
X149703129Y-108801934D01*
X149688346Y-108838634D01*
X149688344Y-108838637D01*
X149688344Y-108838638D01*
X149669042Y-108886360D01*
X149668822Y-108887110D01*
X149480698Y-109354185D01*
X149465016Y-109393120D01*
X149464918Y-109393221D01*
X149450026Y-109430334D01*
X149449918Y-109430604D01*
X149449916Y-109430605D01*
X149430928Y-109477754D01*
X149430731Y-109478428D01*
X149229584Y-109979775D01*
X149215629Y-110014556D01*
X149215541Y-110014647D01*
X149200939Y-110051168D01*
X149200813Y-110051484D01*
X149200759Y-110051619D01*
X149181638Y-110099277D01*
X149181460Y-110099887D01*
X148959290Y-110655585D01*
X148959291Y-110655586D01*
X148954795Y-110666830D01*
X148954717Y-110666912D01*
X148939944Y-110703978D01*
X148932119Y-110723553D01*
X148920893Y-110751632D01*
X148920733Y-110752184D01*
X148686701Y-111339429D01*
X148682231Y-111350643D01*
X148682162Y-111350716D01*
X148667743Y-111386996D01*
X148667632Y-111387278D01*
X148667589Y-111387386D01*
X148648412Y-111435507D01*
X148648265Y-111436018D01*
X148402102Y-112055506D01*
X148397656Y-112066692D01*
X148397592Y-112066760D01*
X148383255Y-112102931D01*
X148382996Y-112103585D01*
X148382893Y-112103847D01*
X148382854Y-112103944D01*
X148363900Y-112151645D01*
X148363768Y-112152103D01*
X148105204Y-112804524D01*
X148105205Y-112804525D01*
X148100785Y-112815678D01*
X148100725Y-112815741D01*
X148085998Y-112852991D01*
X148085996Y-112852992D01*
X148085997Y-112852992D01*
X148067089Y-112900700D01*
X148066969Y-112901118D01*
X147795714Y-113587217D01*
X147795713Y-113587216D01*
X147791327Y-113598310D01*
X147791276Y-113598364D01*
X147777266Y-113633875D01*
X147777023Y-113634492D01*
X147776744Y-113635200D01*
X147776711Y-113635282D01*
X147757692Y-113683388D01*
X147757580Y-113683780D01*
X147473362Y-114404249D01*
X147473363Y-114404250D01*
X147469015Y-114415274D01*
X147468967Y-114415325D01*
X147454506Y-114452057D01*
X147454504Y-114452062D01*
X147435419Y-114500438D01*
X147435321Y-114500784D01*
X147137998Y-115255989D01*
X147133553Y-115267277D01*
X147133510Y-115267323D01*
X147118961Y-115304343D01*
X147118935Y-115304410D01*
X147099997Y-115352514D01*
X147099908Y-115352828D01*
X146789077Y-116143788D01*
X146789078Y-116143789D01*
X146784664Y-116155020D01*
X146784626Y-116155061D01*
X146770356Y-116191434D01*
X146770331Y-116191496D01*
X146751147Y-116240314D01*
X146751064Y-116240606D01*
X146426458Y-117068005D01*
X146422067Y-117079197D01*
X146422031Y-117079235D01*
X146407923Y-117115246D01*
X146407727Y-117115748D01*
X146407564Y-117116165D01*
X146407542Y-117116221D01*
X146388574Y-117164571D01*
X146388500Y-117164832D01*
X146049407Y-118030472D01*
X146045485Y-118040483D01*
X146045473Y-118040498D01*
X146030991Y-118077486D01*
X146030891Y-118077743D01*
X146030884Y-118077761D01*
X146012194Y-118125473D01*
X146012167Y-118125569D01*
X145536917Y-119339512D01*
X145536912Y-119339525D01*
X145075115Y-120518718D01*
X145075107Y-120518737D01*
X144648990Y-121606307D01*
X144648981Y-121606332D01*
X144251054Y-122621309D01*
X143944917Y-123401505D01*
X143884596Y-123555233D01*
X143884579Y-123555276D01*
X143553004Y-124399379D01*
X143543827Y-124422740D01*
X143231414Y-125216970D01*
X143230534Y-125219206D01*
X143230507Y-125219274D01*
X142977944Y-125860239D01*
X142940369Y-125955597D01*
X142710549Y-126537604D01*
X142673683Y-126630964D01*
X142673642Y-126631067D01*
X142427498Y-127252780D01*
X142427448Y-127252905D01*
X142200665Y-127823904D01*
X142200605Y-127824055D01*
X142168944Y-127903470D01*
X141991109Y-128349524D01*
X141797328Y-128833386D01*
X141617636Y-129279706D01*
X141450272Y-129692882D01*
X141355559Y-129925097D01*
X141293469Y-130077326D01*
X141293343Y-130077635D01*
X141145366Y-130437670D01*
X141145228Y-130438003D01*
X141004750Y-130776986D01*
X141004603Y-130777338D01*
X140869475Y-131100594D01*
X140869325Y-131100953D01*
X140737832Y-131412761D01*
X140737683Y-131413111D01*
X140608227Y-131717477D01*
X140608087Y-131717806D01*
X140478988Y-132018918D01*
X140478863Y-132019208D01*
X140358271Y-132298514D01*
X140352573Y-132311714D01*
X140348391Y-132321399D01*
X140348286Y-132321642D01*
X140214433Y-132629853D01*
X140214352Y-132630040D01*
X140075965Y-132947260D01*
X140075778Y-132947685D01*
X139726704Y-133739756D01*
X139726363Y-133740525D01*
X139387982Y-134494436D01*
X139387591Y-134495297D01*
X139058999Y-135212702D01*
X139058554Y-135213662D01*
X138738653Y-135896631D01*
X138738149Y-135897695D01*
X138425893Y-136548189D01*
X138425323Y-136549360D01*
X138119716Y-137169235D01*
X138119076Y-137170515D01*
X137819106Y-137761659D01*
X137818391Y-137763046D01*
X137523105Y-138327248D01*
X137522311Y-138328741D01*
X137230607Y-138868069D01*
X137229731Y-138869660D01*
X136940614Y-139385985D01*
X136939655Y-139387667D01*
X136652096Y-139882908D01*
X136651056Y-139884665D01*
X136364085Y-140360664D01*
X136362967Y-140362483D01*
X136075420Y-140821385D01*
X136074232Y-140823244D01*
X135785233Y-141266720D01*
X135783985Y-141268598D01*
X135492254Y-141698956D01*
X135490959Y-141700828D01*
X135195630Y-142119724D01*
X135194306Y-142121566D01*
X134895101Y-142529888D01*
X134893068Y-142532585D01*
X134448621Y-143105703D01*
X134445434Y-143109644D01*
X134007134Y-143629489D01*
X134003241Y-143633890D01*
X133567232Y-144103903D01*
X133562557Y-144108678D01*
X133125675Y-144531472D01*
X133120175Y-144536484D01*
X132679094Y-144914839D01*
X132672791Y-144919899D01*
X132223991Y-145256708D01*
X132216984Y-145261598D01*
X131993647Y-145406291D01*
X131756788Y-145559744D01*
X131749271Y-145564245D01*
X131273707Y-145826612D01*
X131265927Y-145830554D01*
X130770941Y-146059841D01*
X130763196Y-146063114D01*
X130244689Y-146261824D01*
X130237260Y-146264404D01*
X129691181Y-146434848D01*
X129684300Y-146436780D01*
X129116757Y-146578616D01*
X129102886Y-146581254D01*
X128651633Y-146640693D01*
X128644138Y-146641450D01*
X127932232Y-146691508D01*
X127928500Y-146691714D01*
X127125969Y-146723883D01*
X127122274Y-146723975D01*
X126400325Y-146731376D01*
X126393110Y-146731240D01*
X125954411Y-146710188D01*
X125952373Y-146710074D01*
X125937952Y-146709143D01*
X125934053Y-146707529D01*
X125934026Y-146707529D01*
X125912920Y-146707529D01*
X125908936Y-146707272D01*
X125907907Y-146706896D01*
X125899596Y-146706313D01*
X125238857Y-146613100D01*
X125235685Y-146612611D01*
X124570899Y-146501208D01*
X124567619Y-146500613D01*
X123916998Y-146373514D01*
X123913619Y-146372805D01*
X123276761Y-146229881D01*
X123273294Y-146229050D01*
X122649772Y-146070160D01*
X122646230Y-146069201D01*
X122035710Y-145894229D01*
X122032106Y-145893137D01*
X121434094Y-145701922D01*
X121430446Y-145700693D01*
X120844573Y-145493101D01*
X120840898Y-145491733D01*
X120266760Y-145267622D01*
X120263076Y-145266115D01*
X119700242Y-145025325D01*
X119696569Y-145023683D01*
X119446892Y-144907145D01*
X119144572Y-144766035D01*
X119140967Y-144764280D01*
X118599400Y-144489608D01*
X118595816Y-144487715D01*
X118064408Y-144195923D01*
X118060883Y-144193912D01*
X117539021Y-143884718D01*
X117535582Y-143882604D01*
X117511190Y-143867058D01*
X117145352Y-143633890D01*
X117022954Y-143555879D01*
X117019616Y-143553675D01*
X116515818Y-143209239D01*
X116512596Y-143206960D01*
X116017197Y-142844603D01*
X116014102Y-142842264D01*
X115529106Y-142463668D01*
X115524378Y-142459787D01*
X115077007Y-142073590D01*
X115072469Y-142069471D01*
X114882156Y-141888018D01*
X114584943Y-141604643D01*
X114581618Y-141601350D01*
X114505102Y-141522658D01*
X114087107Y-141092773D01*
X114084086Y-141089554D01*
X113879207Y-140863260D01*
X113617897Y-140574637D01*
X113614580Y-140570817D01*
X113292196Y-140183850D01*
X113212155Y-140087774D01*
X113207590Y-140081950D01*
X113062255Y-139884665D01*
X112902252Y-139667469D01*
X112897257Y-139660153D01*
X112850074Y-139585463D01*
X112511556Y-139049589D01*
X112507964Y-139043528D01*
X112417694Y-138880843D01*
X112174930Y-138443333D01*
X112171343Y-138436355D01*
X112119894Y-138327990D01*
X111892411Y-137848846D01*
X111888963Y-137840876D01*
X111663562Y-137265240D01*
X111660436Y-137256255D01*
X111508169Y-136757803D01*
X111487969Y-136691679D01*
X111485374Y-136681722D01*
X111465967Y-136592191D01*
X111365153Y-136127111D01*
X111363310Y-136116329D01*
X111294675Y-135570349D01*
X111293776Y-135558961D01*
X111276193Y-135020101D01*
X111276364Y-135008400D01*
X111309494Y-134474909D01*
X111310774Y-134463254D01*
X111394559Y-133933330D01*
X111396877Y-133922081D01*
X111531523Y-133394013D01*
X111534724Y-133383452D01*
X111720621Y-132855756D01*
X111724479Y-132846116D01*
X111733332Y-132826425D01*
X111963130Y-132315272D01*
X111966543Y-132308276D01*
X112035455Y-132177613D01*
X112114558Y-132027626D01*
X112117204Y-132022870D01*
X112296344Y-131716979D01*
X112298820Y-131712935D01*
X112517131Y-131371485D01*
X112519286Y-131368231D01*
X112785696Y-130979227D01*
X112787404Y-130976797D01*
X112793641Y-130968147D01*
X113110772Y-130528284D01*
X113112068Y-130526523D01*
X113500843Y-130007015D01*
X113501628Y-130005980D01*
X113964338Y-129403771D01*
X113964809Y-129403164D01*
X114509901Y-128706595D01*
X114510200Y-128706215D01*
X115146175Y-127903515D01*
X115146180Y-127903519D01*
X115146204Y-127903478D01*
X115608324Y-127320752D01*
X115608665Y-127320562D01*
X115633107Y-127289502D01*
X115657645Y-127258561D01*
X115657645Y-127258560D01*
X115664389Y-127250057D01*
X115665441Y-127248413D01*
X116079742Y-126721953D01*
X116080107Y-126721747D01*
X116104391Y-126690631D01*
X116128811Y-126659601D01*
X116128811Y-126659598D01*
X116135444Y-126651171D01*
X116136569Y-126649400D01*
X116535998Y-126137616D01*
X116536388Y-126137393D01*
X116560558Y-126106146D01*
X116584798Y-126075089D01*
X116584798Y-126075087D01*
X116591329Y-126066720D01*
X116592521Y-126064826D01*
X116977732Y-125566851D01*
X116978148Y-125566611D01*
X117002163Y-125535269D01*
X117026244Y-125504139D01*
X117026244Y-125504136D01*
X117032680Y-125495817D01*
X117033943Y-125493791D01*
X117405580Y-125008775D01*
X117406020Y-125008518D01*
X117429850Y-124977100D01*
X117453784Y-124945865D01*
X117453784Y-124945862D01*
X117460107Y-124937611D01*
X117461442Y-124935449D01*
X117474000Y-124918893D01*
X117820178Y-124462498D01*
X117820641Y-124462225D01*
X117844213Y-124430811D01*
X117868055Y-124399379D01*
X117868055Y-124399377D01*
X117874288Y-124391161D01*
X117875693Y-124388858D01*
X118222159Y-123927143D01*
X118222649Y-123926850D01*
X118246149Y-123895172D01*
X118269693Y-123863798D01*
X118269693Y-123863796D01*
X118275823Y-123855628D01*
X118277284Y-123853204D01*
X118279291Y-123850500D01*
X118612162Y-123401815D01*
X118612674Y-123401505D01*
X118635925Y-123369785D01*
X118659332Y-123338235D01*
X118659332Y-123338232D01*
X118665335Y-123330142D01*
X118666854Y-123327590D01*
X118990821Y-122885633D01*
X118991354Y-122885306D01*
X119014380Y-122853494D01*
X119037609Y-122821806D01*
X119037610Y-122821801D01*
X119043520Y-122813739D01*
X119045089Y-122811068D01*
X119358767Y-122377717D01*
X119359321Y-122377372D01*
X119382168Y-122345388D01*
X119405156Y-122313631D01*
X119405156Y-122313629D01*
X119410966Y-122305604D01*
X119412584Y-122302809D01*
X119716637Y-121877178D01*
X119717208Y-121876817D01*
X119739809Y-121844741D01*
X119762610Y-121812823D01*
X119762610Y-121812819D01*
X119768314Y-121804836D01*
X119769966Y-121801939D01*
X120065063Y-121383134D01*
X120065648Y-121382759D01*
X120087972Y-121350621D01*
X120110605Y-121318501D01*
X120110605Y-121318499D01*
X120116201Y-121310558D01*
X120117900Y-121307538D01*
X120170350Y-121232033D01*
X120404676Y-120894705D01*
X120405274Y-120894316D01*
X120427351Y-120862064D01*
X120449774Y-120829785D01*
X120449774Y-120829780D01*
X120455299Y-120821829D01*
X120457016Y-120818727D01*
X120729005Y-120421385D01*
X120729004Y-120421385D01*
X120736107Y-120411010D01*
X120736716Y-120410608D01*
X120758597Y-120378156D01*
X120780750Y-120345794D01*
X120780750Y-120345790D01*
X120786195Y-120337837D01*
X120787921Y-120334664D01*
X121059989Y-119931166D01*
X121060605Y-119930753D01*
X121082269Y-119898124D01*
X121104167Y-119865648D01*
X121104167Y-119865645D01*
X121109534Y-119857687D01*
X121111261Y-119854457D01*
X121376954Y-119454294D01*
X121377573Y-119453872D01*
X121398971Y-119421134D01*
X121420660Y-119388469D01*
X121420660Y-119388466D01*
X121425947Y-119380505D01*
X121427674Y-119377222D01*
X121543208Y-119200465D01*
X121687629Y-118979515D01*
X121688250Y-118979085D01*
X121709487Y-118946074D01*
X121730860Y-118913377D01*
X121730860Y-118913376D01*
X121736076Y-118905397D01*
X121737788Y-118902084D01*
X121992650Y-118505945D01*
X121993266Y-118505512D01*
X122014235Y-118472394D01*
X122035401Y-118439497D01*
X122035401Y-118439496D01*
X122040574Y-118431457D01*
X122042260Y-118428134D01*
X122292644Y-118032708D01*
X122293251Y-118032275D01*
X122313943Y-117999071D01*
X122334916Y-117965950D01*
X122334916Y-117965948D01*
X122340039Y-117957859D01*
X122341687Y-117954551D01*
X122588296Y-117558840D01*
X122588979Y-117558344D01*
X122609412Y-117524957D01*
X122630039Y-117491860D01*
X122630039Y-117491858D01*
X122634935Y-117484003D01*
X122636754Y-117480282D01*
X122933782Y-116994967D01*
X122940387Y-116984174D01*
X122941150Y-116983610D01*
X122961195Y-116950178D01*
X122981531Y-116916951D01*
X122981530Y-116916951D01*
X122986175Y-116909364D01*
X122988185Y-116905160D01*
X123286082Y-116408317D01*
X123286844Y-116407742D01*
X123306567Y-116374150D01*
X123326608Y-116340727D01*
X123326608Y-116340726D01*
X123331166Y-116333125D01*
X123333154Y-116328869D01*
X123625301Y-115831323D01*
X123626063Y-115830737D01*
X123645467Y-115796979D01*
X123665202Y-115763370D01*
X123665202Y-115763369D01*
X123669681Y-115755742D01*
X123671643Y-115751438D01*
X123958046Y-115253190D01*
X123958808Y-115252593D01*
X123977891Y-115218666D01*
X123997314Y-115184878D01*
X123997314Y-115184876D01*
X124001712Y-115177226D01*
X124003647Y-115172877D01*
X124284315Y-114673916D01*
X124285077Y-114673307D01*
X124303859Y-114639172D01*
X124322943Y-114605246D01*
X124322943Y-114605244D01*
X124327258Y-114597574D01*
X124329159Y-114593190D01*
X124604112Y-114093496D01*
X124604872Y-114092877D01*
X124623296Y-114058633D01*
X124642092Y-114024474D01*
X124642091Y-114024474D01*
X124646318Y-114016795D01*
X124648197Y-114012349D01*
X124917437Y-113511929D01*
X124918195Y-113511299D01*
X124936281Y-113476904D01*
X124954761Y-113442558D01*
X124954761Y-113442555D01*
X124958913Y-113434839D01*
X124960758Y-113430356D01*
X125224289Y-112929214D01*
X125225047Y-112928572D01*
X125242830Y-112893955D01*
X125260951Y-112859497D01*
X125260951Y-112859495D01*
X125265022Y-112851755D01*
X125266833Y-112847231D01*
X125524669Y-112345347D01*
X125525425Y-112344694D01*
X125542865Y-112309928D01*
X125560661Y-112275289D01*
X125560661Y-112275285D01*
X125564652Y-112267518D01*
X125566428Y-112262957D01*
X125818579Y-111760326D01*
X125819333Y-111759662D01*
X125836441Y-111724719D01*
X125853895Y-111689929D01*
X125853895Y-111689927D01*
X125857797Y-111682150D01*
X125859541Y-111677538D01*
X126106020Y-111174146D01*
X126106771Y-111173471D01*
X126123522Y-111138400D01*
X126140651Y-111103418D01*
X126140651Y-111103415D01*
X126144466Y-111095624D01*
X126146174Y-111090974D01*
X126386989Y-110586811D01*
X126387740Y-110586123D01*
X126404197Y-110550785D01*
X126420931Y-110515752D01*
X126420931Y-110515750D01*
X126424668Y-110507927D01*
X126426336Y-110503245D01*
X126661492Y-109998312D01*
X126662239Y-109997614D01*
X126678318Y-109962183D01*
X126694736Y-109926931D01*
X126694736Y-109926929D01*
X126698381Y-109919103D01*
X126700018Y-109914368D01*
X126731805Y-109844326D01*
X126929528Y-109408648D01*
X126930271Y-109407940D01*
X126945989Y-109372376D01*
X126962067Y-109336950D01*
X126962067Y-109336949D01*
X126965628Y-109329104D01*
X126967229Y-109324320D01*
X127018419Y-109208501D01*
X127191094Y-108817818D01*
X127191833Y-108817100D01*
X127207186Y-108781410D01*
X127222922Y-108745808D01*
X127222922Y-108745806D01*
X127226401Y-108737936D01*
X127227957Y-108733124D01*
X127446195Y-108225822D01*
X127446931Y-108225092D01*
X127461937Y-108189228D01*
X127477306Y-108153504D01*
X127477306Y-108153502D01*
X127480700Y-108145613D01*
X127482216Y-108140765D01*
X127527482Y-108032586D01*
X127694828Y-107632655D01*
X127695560Y-107631915D01*
X127710203Y-107595913D01*
X127725216Y-107560035D01*
X127725216Y-107560032D01*
X127728534Y-107552103D01*
X127730004Y-107547228D01*
X127936997Y-107038315D01*
X127937725Y-107037564D01*
X127952008Y-107001410D01*
X127966656Y-106965398D01*
X127966655Y-106965397D01*
X127969882Y-106957467D01*
X127971311Y-106952551D01*
X128172704Y-106442796D01*
X128173425Y-106442037D01*
X128187306Y-106405835D01*
X128201626Y-106369592D01*
X128201625Y-106369589D01*
X128204768Y-106361637D01*
X128206156Y-106356678D01*
X128401943Y-105846104D01*
X128402661Y-105845333D01*
X128416202Y-105808922D01*
X128430125Y-105772614D01*
X128430124Y-105772611D01*
X128433178Y-105764650D01*
X128434518Y-105759671D01*
X128624721Y-105248232D01*
X128625433Y-105247451D01*
X128638602Y-105210907D01*
X128652156Y-105174463D01*
X128652155Y-105174461D01*
X128655126Y-105166476D01*
X128656420Y-105161464D01*
X128841035Y-104649177D01*
X128841742Y-104648386D01*
X128854538Y-104611709D01*
X128867719Y-104575135D01*
X128867718Y-104575133D01*
X128870602Y-104567134D01*
X128871850Y-104562089D01*
X129050889Y-104048939D01*
X129051590Y-104048138D01*
X129064014Y-104011319D01*
X129076815Y-103974633D01*
X129076814Y-103974631D01*
X129079614Y-103966609D01*
X129080814Y-103961537D01*
X129254254Y-103447593D01*
X129254895Y-103446846D01*
X129266992Y-103409847D01*
X129279444Y-103372950D01*
X129279443Y-103372948D01*
X129282249Y-103364636D01*
X129283315Y-103359920D01*
X129454788Y-102835487D01*
X129455403Y-102834758D01*
X129467165Y-102797635D01*
X129479281Y-102760581D01*
X129479280Y-102760579D01*
X129482041Y-102752138D01*
X129483030Y-102747560D01*
X129645961Y-102233350D01*
X129646613Y-102232560D01*
X129657992Y-102195378D01*
X129669745Y-102158288D01*
X129669744Y-102158286D01*
X129672348Y-102150071D01*
X129673363Y-102145154D01*
X129828133Y-101639469D01*
X129828819Y-101638621D01*
X129839812Y-101601310D01*
X129851159Y-101564238D01*
X129851158Y-101564236D01*
X129853622Y-101556190D01*
X129854644Y-101550973D01*
X130001607Y-101052207D01*
X130002318Y-101051307D01*
X130012862Y-101014006D01*
X130023827Y-100976797D01*
X130023826Y-100976795D01*
X130026154Y-100968899D01*
X130027172Y-100963391D01*
X130166674Y-100469939D01*
X130167407Y-100468990D01*
X130177513Y-100431602D01*
X130188048Y-100394338D01*
X130188047Y-100394335D01*
X130190245Y-100386563D01*
X130191242Y-100380807D01*
X130195570Y-100364796D01*
X130323630Y-99891037D01*
X130324378Y-99890044D01*
X130334042Y-99852520D01*
X130344121Y-99815234D01*
X130344120Y-99815233D01*
X130346196Y-99807557D01*
X130347156Y-99801599D01*
X130406865Y-99569767D01*
X130472772Y-99313871D01*
X130473525Y-99312845D01*
X130482708Y-99275293D01*
X130492349Y-99237861D01*
X130492348Y-99237858D01*
X130494304Y-99230267D01*
X130495211Y-99224162D01*
X130614390Y-98736823D01*
X130615143Y-98735770D01*
X130623855Y-98698118D01*
X130633031Y-98660600D01*
X130633030Y-98660599D01*
X130634878Y-98653048D01*
X130635726Y-98646817D01*
X130673814Y-98482226D01*
X130748781Y-98158269D01*
X130749526Y-98157199D01*
X130757762Y-98119461D01*
X130766470Y-98081831D01*
X130766469Y-98081829D01*
X130768214Y-98074293D01*
X130768991Y-98068006D01*
X130876240Y-97576591D01*
X130876971Y-97575512D01*
X130884737Y-97537656D01*
X130892970Y-97499935D01*
X130892969Y-97499933D01*
X130894620Y-97492373D01*
X130895317Y-97486085D01*
X130997061Y-96990167D01*
X130997772Y-96989089D01*
X131005076Y-96951100D01*
X131012833Y-96913293D01*
X131012832Y-96913292D01*
X131014394Y-96905685D01*
X131015006Y-96899453D01*
X131111545Y-96397373D01*
X131112229Y-96396309D01*
X131119057Y-96358304D01*
X131126367Y-96320291D01*
X131126366Y-96320288D01*
X131127850Y-96312574D01*
X131128378Y-96306431D01*
X131152453Y-96172447D01*
X131219988Y-95796595D01*
X131220643Y-95795549D01*
X131227037Y-95757365D01*
X131233877Y-95719303D01*
X131233876Y-95719300D01*
X131235287Y-95711451D01*
X131235726Y-95705479D01*
X131322692Y-95186204D01*
X131323311Y-95185189D01*
X131329260Y-95146984D01*
X131335670Y-95108713D01*
X131335669Y-95108709D01*
X131337006Y-95100730D01*
X131337367Y-95094924D01*
X131390952Y-94750831D01*
X131419956Y-94564582D01*
X131420541Y-94563600D01*
X131426091Y-94525189D01*
X131432055Y-94486896D01*
X131432054Y-94486893D01*
X131433325Y-94478734D01*
X131433608Y-94473170D01*
X131446886Y-94381284D01*
X131512087Y-93930093D01*
X131512632Y-93929155D01*
X131517778Y-93890713D01*
X131523340Y-93852226D01*
X131523339Y-93852224D01*
X131524546Y-93843878D01*
X131524757Y-93838572D01*
X131599386Y-93281117D01*
X131599892Y-93280226D01*
X131604670Y-93241644D01*
X131609834Y-93203076D01*
X131609833Y-93203074D01*
X131610979Y-93194519D01*
X131611128Y-93189499D01*
X131682161Y-92616017D01*
X131682628Y-92615177D01*
X131687060Y-92576462D01*
X131691848Y-92537812D01*
X131691847Y-92537810D01*
X131692933Y-92529050D01*
X131693030Y-92524322D01*
X131760717Y-91933160D01*
X131761145Y-91932374D01*
X131765253Y-91893537D01*
X131769689Y-91854803D01*
X131769688Y-91854800D01*
X131770718Y-91845811D01*
X131770769Y-91841407D01*
X131772369Y-91826289D01*
X131835361Y-91230909D01*
X131835751Y-91230180D01*
X131839556Y-91191256D01*
X131843667Y-91152410D01*
X131843666Y-91152408D01*
X131844645Y-91143161D01*
X131844658Y-91139074D01*
X131845378Y-91131715D01*
X131906402Y-90507626D01*
X131906756Y-90506952D01*
X131910291Y-90467858D01*
X131914091Y-90428996D01*
X131914090Y-90428995D01*
X131915018Y-90419514D01*
X131915001Y-90415763D01*
X131974148Y-89761666D01*
X131974465Y-89761052D01*
X131977730Y-89722053D01*
X131981269Y-89682918D01*
X131981268Y-89682916D01*
X131982145Y-89673224D01*
X131982106Y-89669783D01*
X131983726Y-89650436D01*
X132038905Y-88991396D01*
X132039190Y-88990836D01*
X132042237Y-88951593D01*
X132045508Y-88912534D01*
X132045507Y-88912533D01*
X132046340Y-88902600D01*
X132046284Y-88899484D01*
X132101085Y-88193868D01*
X132101901Y-88192189D01*
X132104170Y-88154142D01*
X132107117Y-88116202D01*
X132107116Y-88116200D01*
X132107584Y-88110182D01*
X132107321Y-88101314D01*
X132120689Y-87877200D01*
X132121507Y-87875435D01*
X132123060Y-87837446D01*
X132125323Y-87799520D01*
X132125322Y-87799518D01*
X132125668Y-87793724D01*
X132125226Y-87784502D01*
X132126097Y-87763201D01*
X132138154Y-87468404D01*
X132138631Y-87467345D01*
X132139782Y-87428600D01*
X132141367Y-87389869D01*
X132141366Y-87389867D01*
X132141701Y-87381686D01*
X132141345Y-87376024D01*
X132153183Y-86977861D01*
X132153499Y-86977144D01*
X132154364Y-86938107D01*
X132155530Y-86898918D01*
X132155529Y-86898917D01*
X132155810Y-86889495D01*
X132155528Y-86885619D01*
X132165967Y-86415033D01*
X132166198Y-86414503D01*
X132166851Y-86375186D01*
X132167724Y-86335867D01*
X132167723Y-86335866D01*
X132167949Y-86325740D01*
X132167721Y-86322855D01*
X132168110Y-86299500D01*
X132176588Y-85789678D01*
X132176767Y-85789262D01*
X132177250Y-85749844D01*
X132177907Y-85710381D01*
X132177906Y-85710379D01*
X132178082Y-85699826D01*
X132177892Y-85697557D01*
X132178341Y-85661022D01*
X132185082Y-85111672D01*
X132185230Y-85111326D01*
X132185572Y-85071727D01*
X132186057Y-85032290D01*
X132186056Y-85032288D01*
X132186190Y-85021418D01*
X132186024Y-85019538D01*
X132186941Y-84913764D01*
X132191469Y-84390935D01*
X132191596Y-84390636D01*
X132191813Y-84351229D01*
X132192158Y-84311502D01*
X132192254Y-84300484D01*
X132192103Y-84298831D01*
X132193921Y-83970042D01*
X132195760Y-83637424D01*
X132195875Y-83637150D01*
X132195982Y-83597332D01*
X132196200Y-83557955D01*
X132196199Y-83557953D01*
X132196261Y-83546821D01*
X132196122Y-83545341D01*
X132196660Y-83345503D01*
X132197965Y-82861092D01*
X132198072Y-82860836D01*
X132198072Y-82821373D01*
X132198180Y-82781608D01*
X132198179Y-82781607D01*
X132198210Y-82770368D01*
X132198073Y-82768963D01*
X132198076Y-82651039D01*
X132198089Y-82071920D01*
X132198193Y-82071668D01*
X132198090Y-82032080D01*
X132198091Y-81992429D01*
X132198090Y-81992426D01*
X132198090Y-81981201D01*
X132197953Y-81979840D01*
X132196135Y-81279876D01*
X132196240Y-81279620D01*
X132196032Y-81240233D01*
X132195929Y-81200392D01*
X132195928Y-81200389D01*
X132195899Y-81189211D01*
X132195756Y-81187808D01*
X132194885Y-81022396D01*
X132192106Y-80494937D01*
X132192217Y-80494665D01*
X132191896Y-80455004D01*
X132191688Y-80415468D01*
X132191687Y-80415467D01*
X132191629Y-80404334D01*
X132191474Y-80402856D01*
X132190819Y-80321819D01*
X132186009Y-79727073D01*
X132186130Y-79726773D01*
X132185686Y-79687102D01*
X132185367Y-79647635D01*
X132185366Y-79647633D01*
X132185277Y-79636592D01*
X132185102Y-79634984D01*
X132177845Y-78986251D01*
X132177982Y-78985907D01*
X132177396Y-78946179D01*
X132176957Y-78906860D01*
X132176956Y-78906859D01*
X132176835Y-78895958D01*
X132176629Y-78894119D01*
X132176547Y-78888529D01*
X132167621Y-78282422D01*
X132167782Y-78282012D01*
X132167032Y-78242484D01*
X132166453Y-78203105D01*
X132166452Y-78203103D01*
X132166296Y-78192490D01*
X132166044Y-78190304D01*
X132164190Y-78092456D01*
X132155341Y-77625521D01*
X132155540Y-77625008D01*
X132154584Y-77585561D01*
X132153841Y-77546319D01*
X132153840Y-77546317D01*
X132153647Y-77536102D01*
X132153321Y-77533392D01*
X132141018Y-77025436D01*
X132141274Y-77024761D01*
X132140056Y-76985714D01*
X132139105Y-76946422D01*
X132139104Y-76946420D01*
X132138871Y-76936787D01*
X132138419Y-76933221D01*
X132124663Y-76491986D01*
X132125016Y-76491026D01*
X132123423Y-76452215D01*
X132122210Y-76413285D01*
X132122208Y-76413282D01*
X132121940Y-76404663D01*
X132121268Y-76399684D01*
X132118188Y-76324618D01*
X132116240Y-76277124D01*
X132133160Y-76209335D01*
X132184044Y-76161454D01*
X132233646Y-76148212D01*
X132278303Y-76145871D01*
X132744013Y-76121463D01*
X132811988Y-76137612D01*
X132860444Y-76187949D01*
X132874500Y-76245293D01*
X132874500Y-111209278D01*
X132854815Y-111276317D01*
X132838181Y-111296959D01*
X126687345Y-117447794D01*
X126626022Y-117481279D01*
X126556330Y-117476295D01*
X126547259Y-117472495D01*
X125339619Y-116909364D01*
X124539904Y-116536451D01*
X124539898Y-116536449D01*
X124539894Y-116536447D01*
X124483172Y-116517066D01*
X124483174Y-116517066D01*
X124339699Y-116505659D01*
X124198834Y-116535135D01*
X124198830Y-116535137D01*
X124071969Y-116603106D01*
X124071968Y-116603106D01*
X124071966Y-116603108D01*
X123969396Y-116704065D01*
X123938397Y-116755378D01*
X123938390Y-116755390D01*
X122457696Y-119930753D01*
X122132748Y-120627609D01*
X122131385Y-120630531D01*
X122112005Y-120687250D01*
X122112004Y-120687254D01*
X122100596Y-120830727D01*
X122130072Y-120971592D01*
X122130077Y-120971604D01*
X122198041Y-121098453D01*
X122198042Y-121098456D01*
X122198044Y-121098458D01*
X122299002Y-121201030D01*
X122350319Y-121232031D01*
X122704561Y-121397216D01*
X122717979Y-121409030D01*
X122734179Y-121416601D01*
X122743659Y-121431640D01*
X122757001Y-121443388D01*
X122761901Y-121460582D01*
X122771436Y-121475708D01*
X122773237Y-121500351D01*
X122776153Y-121510581D01*
X122776152Y-121510686D01*
X122776029Y-121524605D01*
X122774499Y-121530319D01*
X122774499Y-121688433D01*
X122774500Y-121688436D01*
X122774500Y-121698953D01*
X122774500Y-122470234D01*
X122754815Y-122537273D01*
X122753602Y-122539125D01*
X122665609Y-122670814D01*
X122665602Y-122670827D01*
X122605264Y-122816498D01*
X122605261Y-122816510D01*
X122574500Y-122971153D01*
X122574500Y-123128846D01*
X122605261Y-123283489D01*
X122605264Y-123283501D01*
X122665602Y-123429172D01*
X122665609Y-123429185D01*
X122753210Y-123560288D01*
X122753213Y-123560292D01*
X122864707Y-123671786D01*
X122864711Y-123671789D01*
X122995814Y-123759390D01*
X122995827Y-123759397D01*
X123141498Y-123819735D01*
X123141503Y-123819737D01*
X123296153Y-123850499D01*
X123296156Y-123850500D01*
X123296158Y-123850500D01*
X123453844Y-123850500D01*
X123453845Y-123850499D01*
X123608497Y-123819737D01*
X123754179Y-123759394D01*
X123885289Y-123671789D01*
X123996789Y-123560289D01*
X124084394Y-123429179D01*
X124144737Y-123283497D01*
X124175500Y-123128842D01*
X124175500Y-122971158D01*
X124175500Y-122971155D01*
X124175499Y-122971153D01*
X124165726Y-122922020D01*
X124144737Y-122816503D01*
X124109563Y-122731585D01*
X124084397Y-122670827D01*
X124084390Y-122670814D01*
X123996398Y-122539125D01*
X123975520Y-122472447D01*
X123975500Y-122470234D01*
X123975500Y-122184504D01*
X123995185Y-122117465D01*
X124047989Y-122071710D01*
X124117147Y-122061766D01*
X124151898Y-122072120D01*
X125971694Y-122920705D01*
X125971703Y-122920708D01*
X126028425Y-122940089D01*
X126028428Y-122940090D01*
X126171897Y-122951496D01*
X126171897Y-122951495D01*
X126171898Y-122951496D01*
X126312763Y-122922020D01*
X126312762Y-122922020D01*
X126312768Y-122922019D01*
X126439629Y-122854050D01*
X126542201Y-122753091D01*
X126573202Y-122701775D01*
X126587634Y-122670827D01*
X127370489Y-120991986D01*
X127416661Y-120939547D01*
X127483855Y-120920395D01*
X127550736Y-120940611D01*
X127596070Y-120993776D01*
X127606871Y-121044391D01*
X127606871Y-124867531D01*
X127587186Y-124934570D01*
X127570552Y-124955212D01*
X123269481Y-129256282D01*
X123269479Y-129256285D01*
X123219361Y-129343094D01*
X123219359Y-129343096D01*
X123190425Y-129393209D01*
X123190424Y-129393210D01*
X123174544Y-129452472D01*
X123149499Y-129545943D01*
X123149499Y-129545945D01*
X123149499Y-129714046D01*
X123149500Y-129714059D01*
X123149500Y-134293663D01*
X123129815Y-134360702D01*
X123077011Y-134406457D01*
X123007853Y-134416401D01*
X122944297Y-134387376D01*
X122938845Y-134382358D01*
X122821532Y-134267744D01*
X122821528Y-134267740D01*
X122733825Y-134213291D01*
X122733797Y-134213276D01*
X122374310Y-134037942D01*
X121904958Y-135000258D01*
X121883110Y-134962415D01*
X121794672Y-134873977D01*
X121686358Y-134811442D01*
X121565550Y-134779072D01*
X121456536Y-134779072D01*
X121924913Y-133818758D01*
X121565405Y-133643415D01*
X121468501Y-133607825D01*
X121468495Y-133607824D01*
X121294733Y-133584433D01*
X121120266Y-133601744D01*
X120954497Y-133658823D01*
X120806353Y-133752597D01*
X120683835Y-133877999D01*
X120683833Y-133878001D01*
X120629375Y-133965717D01*
X120629365Y-133965735D01*
X120399234Y-134437571D01*
X120399235Y-134437572D01*
X121249201Y-134852128D01*
X121211358Y-134873977D01*
X121122920Y-134962415D01*
X121060385Y-135070729D01*
X121028015Y-135191537D01*
X121028015Y-135300548D01*
X120180050Y-134886968D01*
X119949914Y-135358822D01*
X119914319Y-135455733D01*
X119890929Y-135629498D01*
X119908240Y-135803966D01*
X119965318Y-135969734D01*
X119965320Y-135969737D01*
X120059093Y-136117879D01*
X120184497Y-136240399D01*
X120184501Y-136240403D01*
X120272204Y-136294852D01*
X120272217Y-136294859D01*
X120631718Y-136470199D01*
X121101069Y-135507883D01*
X121122920Y-135545729D01*
X121211358Y-135634167D01*
X121319672Y-135696702D01*
X121440480Y-135729072D01*
X121549492Y-135729072D01*
X121081115Y-136689384D01*
X121081116Y-136689385D01*
X121440614Y-136864724D01*
X121440618Y-136864726D01*
X121537528Y-136900318D01*
X121537534Y-136900319D01*
X121711296Y-136923710D01*
X121885763Y-136906399D01*
X122051534Y-136849320D01*
X122051537Y-136849318D01*
X122205241Y-136752025D01*
X122272414Y-136732801D01*
X122339316Y-136752946D01*
X122384708Y-136806063D01*
X122388806Y-136816428D01*
X122452882Y-137002521D01*
X122452883Y-137002524D01*
X122552684Y-137190220D01*
X122672547Y-137349281D01*
X122680614Y-137359986D01*
X122833526Y-137507652D01*
X123007656Y-137629579D01*
X123198716Y-137722764D01*
X123402001Y-137784914D01*
X123612506Y-137814498D01*
X123825046Y-137810788D01*
X124034390Y-137773875D01*
X124235382Y-137704668D01*
X124415005Y-137609158D01*
X124483437Y-137595066D01*
X124548627Y-137620208D01*
X124589875Y-137676603D01*
X124595335Y-137697111D01*
X124630661Y-137897455D01*
X124630666Y-137897472D01*
X124699867Y-138098449D01*
X124699868Y-138098452D01*
X124799669Y-138286148D01*
X124927595Y-138455909D01*
X124927599Y-138455914D01*
X125080511Y-138603580D01*
X125254641Y-138725507D01*
X125445701Y-138818692D01*
X125648986Y-138880842D01*
X125859491Y-138910426D01*
X126072031Y-138906716D01*
X126281375Y-138869803D01*
X126482367Y-138800596D01*
X126670058Y-138700797D01*
X126670057Y-138700797D01*
X126670060Y-138700796D01*
X126737585Y-138649911D01*
X126839826Y-138572867D01*
X126987492Y-138419955D01*
X127109419Y-138245825D01*
X127312196Y-137830067D01*
X127374346Y-137626782D01*
X127403930Y-137416277D01*
X127400220Y-137203737D01*
X127364690Y-137002236D01*
X127372434Y-136932798D01*
X127386792Y-136907403D01*
X127392408Y-136899740D01*
X127455520Y-136836629D01*
X127514692Y-136734139D01*
X127534577Y-136699698D01*
X127575500Y-136546970D01*
X127575500Y-136388856D01*
X127575500Y-136154765D01*
X127595185Y-136087726D01*
X127596398Y-136085874D01*
X127684390Y-135954185D01*
X127684390Y-135954184D01*
X127684394Y-135954179D01*
X127744737Y-135808497D01*
X127775500Y-135653842D01*
X127775500Y-135496158D01*
X127775500Y-135496155D01*
X127775499Y-135496153D01*
X127752726Y-135381666D01*
X127744737Y-135341503D01*
X127734425Y-135316607D01*
X127684397Y-135195827D01*
X127684390Y-135195814D01*
X127596789Y-135064711D01*
X127596786Y-135064707D01*
X127485292Y-134953213D01*
X127485288Y-134953210D01*
X127354185Y-134865609D01*
X127354172Y-134865602D01*
X127208501Y-134805264D01*
X127208489Y-134805261D01*
X127053845Y-134774500D01*
X127053842Y-134774500D01*
X126896158Y-134774500D01*
X126896155Y-134774500D01*
X126741510Y-134805261D01*
X126741498Y-134805264D01*
X126595827Y-134865602D01*
X126595814Y-134865609D01*
X126464711Y-134953210D01*
X126464707Y-134953213D01*
X126353213Y-135064707D01*
X126353210Y-135064711D01*
X126265609Y-135195814D01*
X126265602Y-135195827D01*
X126205264Y-135341498D01*
X126205261Y-135341510D01*
X126174500Y-135496153D01*
X126174500Y-135653846D01*
X126205261Y-135808489D01*
X126205264Y-135808501D01*
X126206179Y-135810709D01*
X126206313Y-135811958D01*
X126207031Y-135814324D01*
X126206582Y-135814460D01*
X126213646Y-135880178D01*
X126182370Y-135942657D01*
X126122280Y-135978308D01*
X126093781Y-135982140D01*
X125921941Y-135985139D01*
X125921937Y-135985140D01*
X125712603Y-136022051D01*
X125712598Y-136022052D01*
X125712594Y-136022053D01*
X125712588Y-136022054D01*
X125712588Y-136022055D01*
X125511604Y-136091259D01*
X125511598Y-136091262D01*
X125331980Y-136186769D01*
X125263547Y-136200862D01*
X125198357Y-136175720D01*
X125157109Y-136119325D01*
X125151649Y-136098816D01*
X125150317Y-136091261D01*
X125116322Y-135898465D01*
X125070184Y-135764470D01*
X125047117Y-135697478D01*
X125047116Y-135697475D01*
X124947315Y-135509779D01*
X124819389Y-135340018D01*
X124819385Y-135340013D01*
X124795147Y-135316607D01*
X124666474Y-135192348D01*
X124666470Y-135192345D01*
X124666469Y-135192344D01*
X124492342Y-135070420D01*
X124420142Y-135035206D01*
X124368516Y-134988126D01*
X124350500Y-134923756D01*
X124350500Y-129925097D01*
X124370185Y-129858058D01*
X124386819Y-129837416D01*
X126430363Y-127793872D01*
X128687891Y-125536345D01*
X128766948Y-125399413D01*
X128791668Y-125307156D01*
X128828032Y-125247499D01*
X128890879Y-125216970D01*
X128960255Y-125225265D01*
X129014133Y-125269750D01*
X129014544Y-125270363D01*
X129108282Y-125410653D01*
X129108299Y-125410676D01*
X129357625Y-125714480D01*
X129635519Y-125992374D01*
X129939323Y-126241700D01*
X129939337Y-126241710D01*
X130266102Y-126460047D01*
X130266120Y-126460058D01*
X130411201Y-126537604D01*
X132098423Y-122919345D01*
X133785893Y-119300552D01*
X133785892Y-119300551D01*
X133674190Y-119254284D01*
X133298087Y-119140194D01*
X132912628Y-119063521D01*
X132912629Y-119063521D01*
X132521504Y-119025000D01*
X132128496Y-119025000D01*
X131737370Y-119063521D01*
X131351912Y-119140194D01*
X130975813Y-119254282D01*
X130612714Y-119404683D01*
X130612709Y-119404685D01*
X130266120Y-119589941D01*
X130266102Y-119589952D01*
X129939337Y-119808289D01*
X129939323Y-119808299D01*
X129635519Y-120057625D01*
X129357625Y-120335519D01*
X129108299Y-120639323D01*
X129108289Y-120639337D01*
X129034973Y-120749063D01*
X128981361Y-120793868D01*
X128912036Y-120802575D01*
X128849009Y-120772421D01*
X128812289Y-120712978D01*
X128807871Y-120680172D01*
X128807871Y-117644201D01*
X128827556Y-117577162D01*
X128844185Y-117556525D01*
X134244713Y-112155997D01*
X134244716Y-112155996D01*
X134356520Y-112044192D01*
X134406639Y-111957380D01*
X134435577Y-111907261D01*
X134476501Y-111754533D01*
X134476501Y-111596419D01*
X134476501Y-111588824D01*
X134476500Y-111588806D01*
X134476500Y-91297500D01*
X141445496Y-91297500D01*
X141487968Y-91443695D01*
X141570278Y-91582874D01*
X141570285Y-91582883D01*
X141684616Y-91697214D01*
X141684625Y-91697221D01*
X141823804Y-91779531D01*
X141979089Y-91824645D01*
X142000000Y-91826289D01*
X142500000Y-91826289D01*
X142520910Y-91824645D01*
X142676195Y-91779531D01*
X142815374Y-91697221D01*
X142815383Y-91697214D01*
X142929714Y-91582883D01*
X142929721Y-91582874D01*
X143012031Y-91443695D01*
X143054504Y-91297500D01*
X142500000Y-91297500D01*
X142500000Y-91826289D01*
X142000000Y-91826289D01*
X142000000Y-91297500D01*
X141445496Y-91297500D01*
X134476500Y-91297500D01*
X134476500Y-76919768D01*
X134485144Y-76890327D01*
X134491668Y-76860341D01*
X134495422Y-76855325D01*
X134496185Y-76852729D01*
X134512819Y-76832087D01*
X134658087Y-76686819D01*
X134719410Y-76653334D01*
X134745768Y-76650500D01*
X135033502Y-76650500D01*
X135033518Y-76650501D01*
X135041114Y-76650501D01*
X135199225Y-76650501D01*
X135199228Y-76650501D01*
X135351956Y-76609577D01*
X135413301Y-76574159D01*
X135488887Y-76530520D01*
X135600691Y-76418716D01*
X135600691Y-76418714D01*
X135610895Y-76408511D01*
X135610899Y-76408506D01*
X136036665Y-75982740D01*
X136036670Y-75982736D01*
X136046873Y-75972532D01*
X136046875Y-75972532D01*
X136158679Y-75860728D01*
X136215290Y-75762674D01*
X136237736Y-75723797D01*
X136278659Y-75571070D01*
X136278659Y-75412955D01*
X136278659Y-75264429D01*
X136298344Y-75197390D01*
X136351148Y-75151635D01*
X136420306Y-75141691D01*
X136483862Y-75170716D01*
X136490340Y-75176748D01*
X136688181Y-75374589D01*
X136721666Y-75435912D01*
X136724500Y-75462270D01*
X136724500Y-85075830D01*
X136724499Y-85075848D01*
X136724499Y-85241554D01*
X136724498Y-85241554D01*
X136765424Y-85394289D01*
X136765425Y-85394290D01*
X136787754Y-85432964D01*
X136787755Y-85432965D01*
X136844477Y-85531212D01*
X136844481Y-85531217D01*
X136963349Y-85650085D01*
X136963355Y-85650090D01*
X141403181Y-90089916D01*
X141436666Y-90151239D01*
X141439500Y-90177597D01*
X141439500Y-90292197D01*
X141442356Y-90328491D01*
X141442357Y-90328497D01*
X141487504Y-90483890D01*
X141487507Y-90483897D01*
X141499910Y-90504870D01*
X141517093Y-90572594D01*
X141499912Y-90631108D01*
X141487968Y-90651304D01*
X141445496Y-90797500D01*
X141751648Y-90797500D01*
X141814766Y-90814767D01*
X141823605Y-90819994D01*
X141823608Y-90819994D01*
X141823610Y-90819996D01*
X141979002Y-90865142D01*
X141979005Y-90865142D01*
X141979007Y-90865143D01*
X142015310Y-90868000D01*
X142015318Y-90868000D01*
X142484682Y-90868000D01*
X142484690Y-90868000D01*
X142520993Y-90865143D01*
X142520995Y-90865142D01*
X142520997Y-90865142D01*
X142676389Y-90819996D01*
X142676389Y-90819995D01*
X142676395Y-90819994D01*
X142685233Y-90814767D01*
X142748352Y-90797500D01*
X143110093Y-90797500D01*
X143173213Y-90814768D01*
X143204420Y-90833223D01*
X143214601Y-90839244D01*
X143256223Y-90851336D01*
X143372425Y-90885097D01*
X143372428Y-90885097D01*
X143372430Y-90885098D01*
X143409305Y-90888000D01*
X144851499Y-90888000D01*
X144860184Y-90890550D01*
X144869146Y-90889262D01*
X144893186Y-90900240D01*
X144918538Y-90907685D01*
X144924465Y-90914525D01*
X144932702Y-90918287D01*
X144946991Y-90940521D01*
X144964293Y-90960489D01*
X144966580Y-90971003D01*
X144970476Y-90977065D01*
X144975499Y-91012000D01*
X144975499Y-91248903D01*
X144955814Y-91315942D01*
X144939180Y-91336584D01*
X141894481Y-94381282D01*
X141894480Y-94381284D01*
X141856284Y-94447442D01*
X141815423Y-94518215D01*
X141774499Y-94670943D01*
X141774499Y-94670945D01*
X141774499Y-94839046D01*
X141774500Y-94839059D01*
X141774500Y-96170234D01*
X141754815Y-96237273D01*
X141753602Y-96239125D01*
X141665609Y-96370814D01*
X141665602Y-96370827D01*
X141605264Y-96516498D01*
X141605261Y-96516510D01*
X141574500Y-96671153D01*
X141574500Y-96828846D01*
X141605261Y-96983489D01*
X141605264Y-96983501D01*
X141665602Y-97129172D01*
X141665609Y-97129185D01*
X141753210Y-97260288D01*
X141753213Y-97260292D01*
X141864707Y-97371786D01*
X141864711Y-97371789D01*
X141995814Y-97459390D01*
X141995827Y-97459397D01*
X142093696Y-97499935D01*
X142141503Y-97519737D01*
X142296153Y-97550499D01*
X142296156Y-97550500D01*
X142296158Y-97550500D01*
X142453844Y-97550500D01*
X142453845Y-97550499D01*
X142608497Y-97519737D01*
X142754179Y-97459394D01*
X142885289Y-97371789D01*
X142996789Y-97260289D01*
X143084394Y-97129179D01*
X143144737Y-96983497D01*
X143175500Y-96828842D01*
X143175500Y-96671158D01*
X143175500Y-96671155D01*
X143175499Y-96671153D01*
X143144738Y-96516510D01*
X143144737Y-96516503D01*
X143100610Y-96409970D01*
X143084397Y-96370827D01*
X143084390Y-96370814D01*
X142996398Y-96239125D01*
X142975520Y-96172447D01*
X142975500Y-96170234D01*
X142975500Y-95050097D01*
X142995185Y-94983058D01*
X143011819Y-94962416D01*
X143135189Y-94839046D01*
X143267821Y-94706413D01*
X143329142Y-94672930D01*
X143398833Y-94677914D01*
X143454767Y-94719785D01*
X143479184Y-94785250D01*
X143479500Y-94794096D01*
X143479500Y-95249169D01*
X143479501Y-95249191D01*
X143482335Y-95285205D01*
X143527129Y-95439388D01*
X143527131Y-95439393D01*
X143585774Y-95538554D01*
X143608865Y-95577598D01*
X143613178Y-95581911D01*
X143646665Y-95643231D01*
X143649500Y-95669595D01*
X143649500Y-96170234D01*
X143629815Y-96237273D01*
X143628602Y-96239125D01*
X143540609Y-96370814D01*
X143540602Y-96370827D01*
X143480264Y-96516498D01*
X143480261Y-96516510D01*
X143449500Y-96671153D01*
X143449500Y-96828846D01*
X143480261Y-96983489D01*
X143480264Y-96983501D01*
X143540602Y-97129172D01*
X143540609Y-97129185D01*
X143628210Y-97260288D01*
X143628213Y-97260292D01*
X143739707Y-97371786D01*
X143739711Y-97371789D01*
X143870814Y-97459390D01*
X143870827Y-97459397D01*
X143968696Y-97499935D01*
X144016503Y-97519737D01*
X144171153Y-97550499D01*
X144171156Y-97550500D01*
X144171158Y-97550500D01*
X144328844Y-97550500D01*
X144328845Y-97550499D01*
X144483497Y-97519737D01*
X144629179Y-97459394D01*
X144760289Y-97371789D01*
X144871789Y-97260289D01*
X144959394Y-97129179D01*
X145019737Y-96983497D01*
X145050500Y-96828842D01*
X145050500Y-96671158D01*
X145050500Y-96671155D01*
X145050499Y-96671153D01*
X145019738Y-96516510D01*
X145019737Y-96516503D01*
X144975610Y-96409970D01*
X144959397Y-96370827D01*
X144959390Y-96370814D01*
X144871398Y-96239125D01*
X144865747Y-96221078D01*
X144855523Y-96205169D01*
X144851071Y-96174207D01*
X144850520Y-96172447D01*
X144850500Y-96170234D01*
X144850500Y-95928753D01*
X144870185Y-95861714D01*
X144922989Y-95815959D01*
X144992147Y-95806015D01*
X145009095Y-95809676D01*
X145020000Y-95812844D01*
X145020000Y-95260408D01*
X145020382Y-95250679D01*
X145020499Y-95249191D01*
X145020500Y-95249181D01*
X145020499Y-94750820D01*
X145020382Y-94749332D01*
X145020000Y-94739607D01*
X145020000Y-94187154D01*
X145019998Y-94187153D01*
X144880811Y-94227591D01*
X144880810Y-94227592D01*
X144823611Y-94261419D01*
X144755886Y-94278600D01*
X144697371Y-94261419D01*
X144646072Y-94231081D01*
X144639393Y-94227131D01*
X144639392Y-94227130D01*
X144639391Y-94227130D01*
X144639388Y-94227129D01*
X144485208Y-94182335D01*
X144485202Y-94182334D01*
X144449188Y-94179500D01*
X144094096Y-94179500D01*
X144027057Y-94159815D01*
X143981302Y-94107011D01*
X143971358Y-94037853D01*
X144000383Y-93974297D01*
X144006401Y-93967833D01*
X145361819Y-92612416D01*
X145423142Y-92578931D01*
X145492834Y-92583915D01*
X145548767Y-92625787D01*
X145573184Y-92691251D01*
X145573500Y-92700097D01*
X145573500Y-94085025D01*
X145553815Y-94152064D01*
X145523953Y-94184185D01*
X145520000Y-94187153D01*
X145520000Y-95812844D01*
X145523952Y-95815812D01*
X145565744Y-95871805D01*
X145573500Y-95914973D01*
X145573500Y-106080373D01*
X145553815Y-106147412D01*
X145537181Y-106168054D01*
X143187574Y-108517660D01*
X143126251Y-108551145D01*
X143124085Y-108551596D01*
X142968743Y-108582496D01*
X142968733Y-108582499D01*
X142823062Y-108642837D01*
X142823049Y-108642844D01*
X142691946Y-108730445D01*
X142691942Y-108730448D01*
X142580448Y-108841942D01*
X142580445Y-108841946D01*
X142492844Y-108973049D01*
X142492837Y-108973062D01*
X142432499Y-109118733D01*
X142432496Y-109118745D01*
X142401735Y-109273388D01*
X142401735Y-109431081D01*
X142432496Y-109585724D01*
X142432499Y-109585736D01*
X142492837Y-109731407D01*
X142492844Y-109731420D01*
X142568286Y-109844326D01*
X142589164Y-109911004D01*
X142570680Y-109978384D01*
X142552865Y-110000898D01*
X139340583Y-113213181D01*
X139279260Y-113246666D01*
X139252902Y-113249500D01*
X137217266Y-113249500D01*
X137150227Y-113229815D01*
X137148375Y-113228602D01*
X137016685Y-113140609D01*
X137016672Y-113140602D01*
X136908436Y-113095770D01*
X136854032Y-113051929D01*
X136831967Y-112985635D01*
X136849246Y-112917936D01*
X136868203Y-112893532D01*
X137170520Y-112591216D01*
X137249577Y-112454284D01*
X137290501Y-112301557D01*
X137290501Y-112143442D01*
X137290501Y-112135847D01*
X137290500Y-112135829D01*
X137290500Y-101578753D01*
X137310185Y-101511714D01*
X137362989Y-101465959D01*
X137432147Y-101456015D01*
X137449095Y-101459676D01*
X137460000Y-101462844D01*
X137460000Y-101462843D01*
X137960000Y-101462843D01*
X138099194Y-101422404D01*
X138237285Y-101340738D01*
X138237294Y-101340731D01*
X138350731Y-101227294D01*
X138350738Y-101227285D01*
X138432406Y-101089191D01*
X138432407Y-101089188D01*
X138477166Y-100935128D01*
X138477167Y-100935122D01*
X138479931Y-100900000D01*
X137960000Y-100900000D01*
X137960000Y-101462843D01*
X137460000Y-101462843D01*
X137460000Y-100910408D01*
X137460004Y-100909404D01*
X137460039Y-100905034D01*
X137460500Y-100899181D01*
X137460499Y-100400820D01*
X137460434Y-100400000D01*
X137460382Y-100399332D01*
X137460000Y-100389607D01*
X137460000Y-99837154D01*
X137960000Y-99837154D01*
X137960000Y-100400000D01*
X138479931Y-100400000D01*
X138477167Y-100364877D01*
X138477166Y-100364871D01*
X138432407Y-100210811D01*
X138432406Y-100210808D01*
X138350738Y-100072714D01*
X138350731Y-100072705D01*
X138237294Y-99959268D01*
X138237285Y-99959261D01*
X138099191Y-99877593D01*
X138099188Y-99877591D01*
X137960001Y-99837153D01*
X137960000Y-99837154D01*
X137460000Y-99837154D01*
X137459998Y-99837153D01*
X137320811Y-99877591D01*
X137320810Y-99877592D01*
X137263611Y-99911419D01*
X137195886Y-99928600D01*
X137137371Y-99911419D01*
X137080174Y-99877593D01*
X137079393Y-99877131D01*
X137079392Y-99877130D01*
X137079391Y-99877130D01*
X137079388Y-99877129D01*
X136925208Y-99832335D01*
X136925202Y-99832334D01*
X136889181Y-99829500D01*
X136490830Y-99829500D01*
X136490808Y-99829501D01*
X136454794Y-99832335D01*
X136300611Y-99877129D01*
X136300606Y-99877131D01*
X136162404Y-99958863D01*
X136162396Y-99958869D01*
X136048869Y-100072396D01*
X136048863Y-100072404D01*
X135967131Y-100210606D01*
X135967129Y-100210611D01*
X135922335Y-100364791D01*
X135922334Y-100364797D01*
X135919500Y-100400811D01*
X135919500Y-100899169D01*
X135919501Y-100899191D01*
X135922335Y-100935205D01*
X135967129Y-101089388D01*
X135967131Y-101089393D01*
X136042679Y-101217139D01*
X136048865Y-101227598D01*
X136053178Y-101231911D01*
X136086665Y-101293231D01*
X136089500Y-101319595D01*
X136089500Y-111922402D01*
X136069815Y-111989441D01*
X136053181Y-112010083D01*
X135047839Y-113015425D01*
X134986516Y-113048910D01*
X134984350Y-113049361D01*
X134829008Y-113080261D01*
X134828998Y-113080264D01*
X134683327Y-113140602D01*
X134683314Y-113140609D01*
X134552211Y-113228210D01*
X134552207Y-113228213D01*
X134440713Y-113339707D01*
X134440710Y-113339711D01*
X134353109Y-113470814D01*
X134353102Y-113470827D01*
X134292764Y-113616498D01*
X134292761Y-113616510D01*
X134262000Y-113771153D01*
X134262000Y-113928846D01*
X134292761Y-114083489D01*
X134292764Y-114083501D01*
X134353102Y-114229172D01*
X134353109Y-114229185D01*
X134440710Y-114360288D01*
X134440713Y-114360292D01*
X134552207Y-114471786D01*
X134552211Y-114471789D01*
X134683314Y-114559390D01*
X134683327Y-114559397D01*
X134791681Y-114604278D01*
X134829003Y-114619737D01*
X134924482Y-114638729D01*
X134983653Y-114650499D01*
X134983656Y-114650500D01*
X134983658Y-114650500D01*
X135141344Y-114650500D01*
X135141345Y-114650499D01*
X135295997Y-114619737D01*
X135441679Y-114559394D01*
X135572789Y-114471789D01*
X135684289Y-114360289D01*
X135707193Y-114326010D01*
X135746898Y-114266589D01*
X135800510Y-114221783D01*
X135869835Y-114213076D01*
X135932862Y-114243230D01*
X135953102Y-114266589D01*
X136015707Y-114360284D01*
X136015713Y-114360292D01*
X136127207Y-114471786D01*
X136127211Y-114471789D01*
X136258314Y-114559390D01*
X136258327Y-114559397D01*
X136366681Y-114604278D01*
X136404003Y-114619737D01*
X136499482Y-114638729D01*
X136558653Y-114650499D01*
X136558656Y-114650500D01*
X136558658Y-114650500D01*
X136716344Y-114650500D01*
X136716345Y-114650499D01*
X136870997Y-114619737D01*
X137016679Y-114559394D01*
X137071163Y-114522989D01*
X137148375Y-114471398D01*
X137215053Y-114450520D01*
X137217266Y-114450500D01*
X138652431Y-114450500D01*
X138719470Y-114470185D01*
X138765225Y-114522989D01*
X138775169Y-114592147D01*
X138746144Y-114655703D01*
X138740112Y-114662181D01*
X137782286Y-115620006D01*
X137670481Y-115731810D01*
X137670480Y-115731812D01*
X137638614Y-115787006D01*
X137591423Y-115868743D01*
X137550499Y-116021471D01*
X137550499Y-116021473D01*
X137550499Y-116189574D01*
X137550500Y-116189587D01*
X137550500Y-122274328D01*
X137530815Y-122341367D01*
X137514181Y-122362009D01*
X136534033Y-123342156D01*
X136472710Y-123375641D01*
X136403018Y-123370657D01*
X136347085Y-123328785D01*
X136322668Y-123263321D01*
X136322949Y-123242317D01*
X136325000Y-123221498D01*
X136325000Y-122828496D01*
X136286478Y-122437370D01*
X136209805Y-122051912D01*
X136095717Y-121675813D01*
X135945316Y-121312714D01*
X135945314Y-121312709D01*
X135760058Y-120966120D01*
X135760047Y-120966102D01*
X135541710Y-120639337D01*
X135541700Y-120639323D01*
X135292374Y-120335519D01*
X135014480Y-120057625D01*
X134710676Y-119808299D01*
X134710662Y-119808289D01*
X134383897Y-119589952D01*
X134383879Y-119589941D01*
X134238798Y-119512394D01*
X132551577Y-123130655D01*
X130864105Y-126749446D01*
X130864106Y-126749447D01*
X130975809Y-126795715D01*
X131351912Y-126909805D01*
X131737371Y-126986478D01*
X131737370Y-126986478D01*
X132128496Y-127025000D01*
X132521499Y-127025000D01*
X132542317Y-127022949D01*
X132610964Y-127035966D01*
X132661675Y-127084030D01*
X132678352Y-127151880D01*
X132655698Y-127217975D01*
X132642156Y-127234033D01*
X130013010Y-129863181D01*
X129951687Y-129896666D01*
X129925329Y-129899500D01*
X128579766Y-129899500D01*
X128512727Y-129879815D01*
X128510875Y-129878602D01*
X128379185Y-129790609D01*
X128379172Y-129790602D01*
X128233501Y-129730264D01*
X128233489Y-129730261D01*
X128078845Y-129699500D01*
X128078842Y-129699500D01*
X127921158Y-129699500D01*
X127921155Y-129699500D01*
X127766510Y-129730261D01*
X127766498Y-129730264D01*
X127620827Y-129790602D01*
X127620814Y-129790609D01*
X127489711Y-129878210D01*
X127489707Y-129878213D01*
X127378213Y-129989707D01*
X127378210Y-129989711D01*
X127315602Y-130083411D01*
X127261990Y-130128216D01*
X127192665Y-130136923D01*
X127129637Y-130106768D01*
X127109398Y-130083411D01*
X127046789Y-129989711D01*
X127046786Y-129989707D01*
X126935292Y-129878213D01*
X126935288Y-129878210D01*
X126804185Y-129790609D01*
X126804172Y-129790602D01*
X126658501Y-129730264D01*
X126658489Y-129730261D01*
X126503845Y-129699500D01*
X126503842Y-129699500D01*
X126346158Y-129699500D01*
X126346155Y-129699500D01*
X126191510Y-129730261D01*
X126191498Y-129730264D01*
X126045827Y-129790602D01*
X126045814Y-129790609D01*
X125914711Y-129878210D01*
X125914707Y-129878213D01*
X125803213Y-129989707D01*
X125803210Y-129989711D01*
X125715609Y-130120814D01*
X125715602Y-130120827D01*
X125655264Y-130266498D01*
X125655261Y-130266510D01*
X125624500Y-130421153D01*
X125624500Y-130578846D01*
X125655261Y-130733489D01*
X125655264Y-130733501D01*
X125715602Y-130879172D01*
X125715609Y-130879185D01*
X125803602Y-131010874D01*
X125824480Y-131077551D01*
X125824500Y-131079765D01*
X125824500Y-131505404D01*
X125804815Y-131572443D01*
X125788181Y-131593085D01*
X125783869Y-131597396D01*
X125783863Y-131597404D01*
X125702131Y-131735606D01*
X125702129Y-131735611D01*
X125657335Y-131889791D01*
X125657334Y-131889797D01*
X125654500Y-131925811D01*
X125654500Y-132424169D01*
X125654501Y-132424191D01*
X125657335Y-132460205D01*
X125702129Y-132614388D01*
X125702131Y-132614393D01*
X125783863Y-132752595D01*
X125783869Y-132752603D01*
X125897396Y-132866130D01*
X125897400Y-132866133D01*
X125897402Y-132866135D01*
X126035607Y-132947869D01*
X126076268Y-132959682D01*
X126189791Y-132992664D01*
X126189794Y-132992664D01*
X126189796Y-132992665D01*
X126225819Y-132995500D01*
X126624180Y-132995499D01*
X126660204Y-132992665D01*
X126814393Y-132947869D01*
X126872369Y-132913581D01*
X126940093Y-132896398D01*
X126998612Y-132913581D01*
X127055805Y-132947404D01*
X127195000Y-132987844D01*
X127195000Y-132987843D01*
X127695000Y-132987843D01*
X127834194Y-132947404D01*
X127972285Y-132865738D01*
X127972294Y-132865731D01*
X128085731Y-132752294D01*
X128085738Y-132752285D01*
X128167406Y-132614191D01*
X128167407Y-132614188D01*
X128212166Y-132460128D01*
X128212167Y-132460122D01*
X128214931Y-132425000D01*
X127695000Y-132425000D01*
X127695000Y-132987843D01*
X127195000Y-132987843D01*
X127195000Y-132435408D01*
X127195004Y-132434404D01*
X127195039Y-132430034D01*
X127195500Y-132424181D01*
X127195499Y-131925820D01*
X127195434Y-131925000D01*
X127195382Y-131924332D01*
X127195000Y-131914607D01*
X127195000Y-131362154D01*
X127194999Y-131362154D01*
X127184095Y-131365322D01*
X127157837Y-131365246D01*
X127131853Y-131368983D01*
X127123456Y-131365148D01*
X127114225Y-131365122D01*
X127092179Y-131350864D01*
X127068297Y-131339958D01*
X127063305Y-131332191D01*
X127055555Y-131327179D01*
X127044717Y-131303266D01*
X127030523Y-131281180D01*
X127028579Y-131267660D01*
X127026712Y-131263541D01*
X127025500Y-131246245D01*
X127025500Y-131079765D01*
X127045185Y-131012726D01*
X127046398Y-131010874D01*
X127109398Y-130916588D01*
X127163010Y-130871783D01*
X127232335Y-130863076D01*
X127295363Y-130893230D01*
X127315602Y-130916589D01*
X127378207Y-131010284D01*
X127378213Y-131010292D01*
X127489707Y-131121786D01*
X127489711Y-131121789D01*
X127620814Y-131209390D01*
X127626191Y-131212264D01*
X127625298Y-131213932D01*
X127672850Y-131252245D01*
X127694921Y-131318537D01*
X127695000Y-131322974D01*
X127695000Y-131925000D01*
X128214931Y-131925000D01*
X128212167Y-131889877D01*
X128212166Y-131889871D01*
X128167407Y-131735811D01*
X128167406Y-131735808D01*
X128085738Y-131597714D01*
X128085731Y-131597705D01*
X127999942Y-131511916D01*
X127966457Y-131450593D01*
X127971441Y-131380901D01*
X128013313Y-131324968D01*
X128072896Y-131301832D01*
X128072868Y-131301689D01*
X128073685Y-131301526D01*
X128075474Y-131300832D01*
X128078844Y-131300500D01*
X128141041Y-131288127D01*
X128233497Y-131269737D01*
X128379179Y-131209394D01*
X128470273Y-131148527D01*
X128510875Y-131121398D01*
X128577553Y-131100520D01*
X128579766Y-131100500D01*
X130138757Y-131100500D01*
X130138773Y-131100501D01*
X130146369Y-131100501D01*
X130304480Y-131100501D01*
X130304483Y-131100501D01*
X130457211Y-131059577D01*
X130507330Y-131030639D01*
X130594142Y-130980520D01*
X130705946Y-130868716D01*
X130705946Y-130868714D01*
X130716154Y-130858507D01*
X130716155Y-130858504D01*
X137118019Y-124456642D01*
X137448792Y-124125867D01*
X137510111Y-124092386D01*
X137579802Y-124097370D01*
X137635736Y-124139241D01*
X137660153Y-124204706D01*
X137648851Y-124265957D01*
X136771522Y-126147399D01*
X136303126Y-127151880D01*
X136269787Y-127223375D01*
X136250407Y-127280094D01*
X136250406Y-127280098D01*
X136238998Y-127423571D01*
X136268474Y-127564436D01*
X136268479Y-127564448D01*
X136336443Y-127691297D01*
X136336444Y-127691300D01*
X136336446Y-127691302D01*
X136437404Y-127793874D01*
X136488721Y-127824875D01*
X136488728Y-127824878D01*
X136488731Y-127824880D01*
X136725513Y-127935293D01*
X140110096Y-129513549D01*
X140110105Y-129513552D01*
X140166827Y-129532933D01*
X140166830Y-129532934D01*
X140310299Y-129544340D01*
X140310299Y-129544339D01*
X140310300Y-129544340D01*
X140451165Y-129514864D01*
X140451164Y-129514864D01*
X140451170Y-129514863D01*
X140578031Y-129446894D01*
X140680603Y-129345935D01*
X140711604Y-129294619D01*
X140718672Y-129279463D01*
X141115969Y-128427454D01*
X142518611Y-125419478D01*
X142537996Y-125362744D01*
X142549403Y-125219274D01*
X142519926Y-125078403D01*
X142482620Y-125008775D01*
X142465670Y-124977139D01*
X142451956Y-124951542D01*
X142350998Y-124848970D01*
X142299681Y-124817969D01*
X142299677Y-124817967D01*
X142299670Y-124817963D01*
X139703621Y-123607407D01*
X138678673Y-123129466D01*
X138667594Y-123119711D01*
X138653919Y-123114154D01*
X138641900Y-123097088D01*
X138626235Y-123083295D01*
X138622188Y-123069097D01*
X138613689Y-123057029D01*
X138612804Y-123036175D01*
X138607083Y-123016101D01*
X138611302Y-123000756D01*
X138610729Y-122987222D01*
X138620739Y-122966440D01*
X138624017Y-122954525D01*
X138629471Y-122945190D01*
X138631520Y-122943142D01*
X138701573Y-122821806D01*
X138710577Y-122806211D01*
X138751500Y-122653484D01*
X138751500Y-122495369D01*
X138751500Y-116400625D01*
X138771185Y-116333586D01*
X138787819Y-116312944D01*
X141417375Y-113683388D01*
X144052925Y-111047837D01*
X144114246Y-111014354D01*
X144116413Y-111013903D01*
X144174348Y-111002378D01*
X144271760Y-110983002D01*
X144417442Y-110922659D01*
X144548552Y-110835054D01*
X144660052Y-110723554D01*
X144747657Y-110592444D01*
X144808000Y-110446762D01*
X144838763Y-110292107D01*
X144838763Y-110134423D01*
X144838763Y-110134420D01*
X144838762Y-110134418D01*
X144831772Y-110099277D01*
X144808000Y-109979768D01*
X144800482Y-109961617D01*
X144747660Y-109834092D01*
X144747653Y-109834079D01*
X144672211Y-109721173D01*
X144651333Y-109654496D01*
X144669817Y-109587116D01*
X144687628Y-109564605D01*
X145762819Y-108489415D01*
X145824142Y-108455930D01*
X145893834Y-108460914D01*
X145949767Y-108502786D01*
X145974184Y-108568250D01*
X145974500Y-108577096D01*
X145974500Y-114024903D01*
X145954815Y-114091942D01*
X145938181Y-114112584D01*
X144412584Y-115638181D01*
X144351261Y-115671666D01*
X144324903Y-115674500D01*
X144296155Y-115674500D01*
X144141510Y-115705261D01*
X144141498Y-115705264D01*
X143995827Y-115765602D01*
X143995814Y-115765609D01*
X143864711Y-115853210D01*
X143864707Y-115853213D01*
X143753213Y-115964707D01*
X143753210Y-115964711D01*
X143665609Y-116095814D01*
X143665602Y-116095827D01*
X143605264Y-116241498D01*
X143605261Y-116241510D01*
X143574500Y-116396153D01*
X143574500Y-116553846D01*
X143605261Y-116708489D01*
X143605264Y-116708501D01*
X143665602Y-116854172D01*
X143665609Y-116854185D01*
X143753210Y-116985288D01*
X143753213Y-116985292D01*
X143864707Y-117096786D01*
X143864711Y-117096789D01*
X143995814Y-117184390D01*
X143995827Y-117184397D01*
X144141498Y-117244735D01*
X144141503Y-117244737D01*
X144296153Y-117275499D01*
X144296156Y-117275500D01*
X144296158Y-117275500D01*
X144453844Y-117275500D01*
X144453845Y-117275499D01*
X144608497Y-117244737D01*
X144754179Y-117184394D01*
X144885289Y-117096789D01*
X144996789Y-116985289D01*
X145084394Y-116854179D01*
X145144737Y-116708497D01*
X145163222Y-116615563D01*
X145195604Y-116553656D01*
X145197099Y-116552134D01*
X146933506Y-114815728D01*
X146933511Y-114815724D01*
X146943714Y-114805520D01*
X146943716Y-114805520D01*
X147055520Y-114693716D01*
X147060606Y-114684906D01*
X147131437Y-114562224D01*
X147131440Y-114562216D01*
X147134577Y-114556785D01*
X147175500Y-114404057D01*
X147175500Y-114245943D01*
X147175500Y-109892847D01*
X147195185Y-109825808D01*
X147247989Y-109780053D01*
X147275309Y-109771230D01*
X147291291Y-109768050D01*
X147408497Y-109744737D01*
X147554179Y-109684394D01*
X147685289Y-109596789D01*
X147796789Y-109485289D01*
X147884394Y-109354179D01*
X147944737Y-109208497D01*
X147975500Y-109053842D01*
X147975500Y-108896158D01*
X147975500Y-108896155D01*
X147975499Y-108896153D01*
X147971446Y-108875779D01*
X147944737Y-108741503D01*
X147940157Y-108730445D01*
X147884397Y-108595827D01*
X147884390Y-108595814D01*
X147796398Y-108464125D01*
X147775520Y-108397447D01*
X147775500Y-108395234D01*
X147775500Y-107670944D01*
X147775499Y-107670940D01*
X147765042Y-107631915D01*
X147765041Y-107631913D01*
X147755233Y-107595309D01*
X147745782Y-107560035D01*
X147742349Y-107547222D01*
X147734578Y-107518217D01*
X147734576Y-107518213D01*
X147655524Y-107381290D01*
X147655518Y-107381282D01*
X147614818Y-107340582D01*
X147581333Y-107279259D01*
X147578499Y-107252901D01*
X147578499Y-90524919D01*
X147598184Y-90457880D01*
X147650988Y-90412125D01*
X147720146Y-90402181D01*
X147783702Y-90431206D01*
X147821476Y-90489984D01*
X147821576Y-90490326D01*
X147823717Y-90497698D01*
X147907314Y-90639053D01*
X147907321Y-90639062D01*
X148023438Y-90755179D01*
X148023447Y-90755186D01*
X148164803Y-90838783D01*
X148164806Y-90838784D01*
X148322504Y-90884600D01*
X148322510Y-90884601D01*
X148359350Y-90887500D01*
X148359366Y-90887501D01*
X149000000Y-90887501D01*
X149500000Y-90887501D01*
X150140634Y-90887501D01*
X150140649Y-90887500D01*
X150177489Y-90884601D01*
X150177495Y-90884600D01*
X150335193Y-90838784D01*
X150335196Y-90838783D01*
X150476552Y-90755186D01*
X150476561Y-90755179D01*
X150592678Y-90639062D01*
X150592685Y-90639053D01*
X150676281Y-90497699D01*
X150722100Y-90339987D01*
X150722295Y-90337502D01*
X150722295Y-90337501D01*
X149500000Y-90337501D01*
X149500000Y-90887501D01*
X149000000Y-90887501D01*
X149000000Y-90211501D01*
X149019685Y-90144462D01*
X149072489Y-90098707D01*
X149124000Y-90087501D01*
X149250000Y-90087501D01*
X149250000Y-89961501D01*
X149269685Y-89894462D01*
X149322489Y-89848707D01*
X149374000Y-89837501D01*
X150722295Y-89837501D01*
X150722295Y-89837499D01*
X150722100Y-89835014D01*
X150676281Y-89677302D01*
X150592685Y-89535948D01*
X150587900Y-89529779D01*
X150590366Y-89527865D01*
X150563802Y-89479277D01*
X150568749Y-89409583D01*
X150589856Y-89376733D01*
X150588301Y-89375527D01*
X150593077Y-89369369D01*
X150593081Y-89369366D01*
X150676744Y-89227899D01*
X150722598Y-89070070D01*
X150725500Y-89033195D01*
X150725500Y-88601807D01*
X150722598Y-88564932D01*
X150676744Y-88407103D01*
X150593081Y-88265636D01*
X150593078Y-88265633D01*
X150588298Y-88259470D01*
X150590750Y-88257567D01*
X150564154Y-88208920D01*
X150569103Y-88139226D01*
X150589942Y-88106799D01*
X150588301Y-88105526D01*
X150593077Y-88099368D01*
X150593081Y-88099365D01*
X150676744Y-87957898D01*
X150722598Y-87800069D01*
X150725500Y-87763194D01*
X150725500Y-87331806D01*
X150722598Y-87294931D01*
X150676744Y-87137102D01*
X150667871Y-87122098D01*
X150634175Y-87065120D01*
X150616992Y-86997396D01*
X150639152Y-86931134D01*
X150693619Y-86887371D01*
X150740907Y-86878000D01*
X157635831Y-86878000D01*
X157635847Y-86878001D01*
X157643443Y-86878001D01*
X157801554Y-86878001D01*
X157801557Y-86878001D01*
X157954285Y-86837077D01*
X158004404Y-86808139D01*
X158091216Y-86758020D01*
X158203020Y-86646216D01*
X158203020Y-86646214D01*
X158213228Y-86636007D01*
X158213230Y-86636004D01*
X178033506Y-66815728D01*
X178033511Y-66815724D01*
X178043714Y-66805520D01*
X178043716Y-66805520D01*
X178155520Y-66693716D01*
X178208727Y-66601557D01*
X178259292Y-66553344D01*
X178275430Y-66547380D01*
X178275215Y-66546802D01*
X178417328Y-66493797D01*
X178417327Y-66493797D01*
X178417331Y-66493796D01*
X178532546Y-66407546D01*
X178618796Y-66292331D01*
X178669091Y-66157483D01*
X178675500Y-66097873D01*
X178675499Y-65252128D01*
X178669091Y-65192517D01*
X178666112Y-65184531D01*
X178618797Y-65057671D01*
X178618793Y-65057664D01*
X178532547Y-64942455D01*
X178532544Y-64942452D01*
X178417335Y-64856206D01*
X178417328Y-64856202D01*
X178282482Y-64805908D01*
X178282483Y-64805908D01*
X178222883Y-64799501D01*
X178222881Y-64799500D01*
X178222873Y-64799500D01*
X178222864Y-64799500D01*
X177127129Y-64799500D01*
X177127123Y-64799501D01*
X177067516Y-64805908D01*
X176932671Y-64856202D01*
X176932664Y-64856206D01*
X176817456Y-64942452D01*
X176817455Y-64942453D01*
X176817454Y-64942454D01*
X176755802Y-65024811D01*
X176699868Y-65066682D01*
X176656535Y-65074500D01*
X172693465Y-65074500D01*
X172626426Y-65054815D01*
X172594198Y-65024811D01*
X172532546Y-64942454D01*
X172509709Y-64925358D01*
X172417335Y-64856206D01*
X172417328Y-64856202D01*
X172282482Y-64805908D01*
X172282483Y-64805908D01*
X172222883Y-64799501D01*
X172222881Y-64799500D01*
X172222873Y-64799500D01*
X172222864Y-64799500D01*
X171127129Y-64799500D01*
X171127123Y-64799501D01*
X171067516Y-64805908D01*
X170932671Y-64856202D01*
X170932664Y-64856206D01*
X170817455Y-64942452D01*
X170817452Y-64942455D01*
X170731206Y-65057664D01*
X170731202Y-65057671D01*
X170680908Y-65192517D01*
X170675383Y-65243914D01*
X170674501Y-65252123D01*
X170674500Y-65252135D01*
X170674500Y-66097870D01*
X170674501Y-66097876D01*
X170680908Y-66157483D01*
X170731202Y-66292328D01*
X170731206Y-66292335D01*
X170817452Y-66407544D01*
X170817455Y-66407547D01*
X170932664Y-66493793D01*
X170932671Y-66493797D01*
X171067517Y-66544091D01*
X171067516Y-66544091D01*
X171074444Y-66544835D01*
X171127127Y-66550500D01*
X172222872Y-66550499D01*
X172282483Y-66544091D01*
X172417331Y-66493796D01*
X172532546Y-66407546D01*
X172594199Y-66325188D01*
X172650132Y-66283318D01*
X172693465Y-66275500D01*
X176575902Y-66275500D01*
X176642941Y-66295185D01*
X176688696Y-66347989D01*
X176698640Y-66417147D01*
X176669615Y-66480703D01*
X176663583Y-66487181D01*
X159499531Y-83651232D01*
X159438208Y-83684717D01*
X159368516Y-83679733D01*
X159312583Y-83637861D01*
X159288446Y-83575694D01*
X159288000Y-83571167D01*
X159288000Y-83571158D01*
X159257237Y-83416503D01*
X159227828Y-83345503D01*
X159196897Y-83270827D01*
X159196890Y-83270814D01*
X159109289Y-83139711D01*
X159109286Y-83139707D01*
X158997792Y-83028213D01*
X158997788Y-83028210D01*
X158866685Y-82940609D01*
X158866672Y-82940602D01*
X158721001Y-82880264D01*
X158720989Y-82880261D01*
X158566345Y-82849500D01*
X158566342Y-82849500D01*
X158408658Y-82849500D01*
X158408655Y-82849500D01*
X158254010Y-82880261D01*
X158253998Y-82880264D01*
X158108327Y-82940602D01*
X158108314Y-82940609D01*
X157977211Y-83028210D01*
X157977207Y-83028213D01*
X157865713Y-83139707D01*
X157865710Y-83139711D01*
X157778109Y-83270814D01*
X157778102Y-83270827D01*
X157717764Y-83416498D01*
X157717761Y-83416508D01*
X157686862Y-83571848D01*
X157678096Y-83588604D01*
X157674077Y-83607083D01*
X157655334Y-83632119D01*
X157654477Y-83633759D01*
X157652926Y-83635337D01*
X157624681Y-83663582D01*
X157563358Y-83697067D01*
X157493666Y-83692083D01*
X157437733Y-83650211D01*
X157413316Y-83584747D01*
X157413000Y-83575901D01*
X157413000Y-83571155D01*
X157412999Y-83571153D01*
X157382238Y-83416510D01*
X157382238Y-83416508D01*
X157382237Y-83416503D01*
X157352828Y-83345503D01*
X157321897Y-83270827D01*
X157321890Y-83270814D01*
X157233898Y-83139125D01*
X157213020Y-83072447D01*
X157213000Y-83070234D01*
X157213000Y-82528753D01*
X157232685Y-82461714D01*
X157285489Y-82415959D01*
X157354647Y-82406015D01*
X157371595Y-82409676D01*
X157382500Y-82412844D01*
X157382500Y-82412843D01*
X157882500Y-82412843D01*
X158021694Y-82372404D01*
X158159785Y-82290738D01*
X158159794Y-82290731D01*
X158273231Y-82177294D01*
X158273238Y-82177285D01*
X158354906Y-82039191D01*
X158354907Y-82039188D01*
X158399666Y-81885128D01*
X158399667Y-81885122D01*
X158402431Y-81850000D01*
X157882500Y-81850000D01*
X157882500Y-82412843D01*
X157382500Y-82412843D01*
X157382500Y-81860408D01*
X157382504Y-81859404D01*
X157382539Y-81855034D01*
X157383000Y-81849181D01*
X157382999Y-81350820D01*
X157382934Y-81350000D01*
X157382882Y-81349332D01*
X157382500Y-81339607D01*
X157382500Y-80787154D01*
X157882500Y-80787154D01*
X157882500Y-81350000D01*
X158402431Y-81350000D01*
X158399667Y-81314877D01*
X158399666Y-81314871D01*
X158354907Y-81160811D01*
X158354906Y-81160808D01*
X158273238Y-81022714D01*
X158273231Y-81022705D01*
X158159794Y-80909268D01*
X158159785Y-80909261D01*
X158021691Y-80827593D01*
X158021688Y-80827591D01*
X157882501Y-80787153D01*
X157882500Y-80787154D01*
X157382500Y-80787154D01*
X157382498Y-80787153D01*
X157243311Y-80827591D01*
X157243310Y-80827592D01*
X157186111Y-80861419D01*
X157118386Y-80878600D01*
X157059871Y-80861419D01*
X157002674Y-80827593D01*
X157001893Y-80827131D01*
X157001892Y-80827130D01*
X157001891Y-80827130D01*
X157001888Y-80827129D01*
X156847708Y-80782335D01*
X156847702Y-80782334D01*
X156811681Y-80779500D01*
X156413330Y-80779500D01*
X156413308Y-80779501D01*
X156377294Y-80782335D01*
X156223111Y-80827129D01*
X156223106Y-80827131D01*
X156084904Y-80908863D01*
X156084896Y-80908869D01*
X155971369Y-81022396D01*
X155971363Y-81022404D01*
X155889631Y-81160606D01*
X155889629Y-81160611D01*
X155844835Y-81314791D01*
X155844834Y-81314797D01*
X155842000Y-81350811D01*
X155842000Y-81849169D01*
X155842001Y-81849191D01*
X155844835Y-81885205D01*
X155889629Y-82039388D01*
X155889631Y-82039393D01*
X155971365Y-82177598D01*
X155975678Y-82181911D01*
X156009165Y-82243231D01*
X156012000Y-82269595D01*
X156012000Y-83070234D01*
X155992315Y-83137273D01*
X155991102Y-83139125D01*
X155903109Y-83270814D01*
X155903102Y-83270827D01*
X155842764Y-83416498D01*
X155842761Y-83416510D01*
X155812000Y-83571153D01*
X155812000Y-83728846D01*
X155842761Y-83883489D01*
X155842764Y-83883501D01*
X155903102Y-84029172D01*
X155903109Y-84029185D01*
X155990710Y-84160288D01*
X155990713Y-84160292D01*
X156102207Y-84271786D01*
X156102211Y-84271789D01*
X156233314Y-84359390D01*
X156233327Y-84359397D01*
X156340539Y-84403805D01*
X156379003Y-84419737D01*
X156533653Y-84450499D01*
X156533656Y-84450500D01*
X156538402Y-84450500D01*
X156605441Y-84470185D01*
X156651196Y-84522989D01*
X156661140Y-84592147D01*
X156632115Y-84655703D01*
X156626085Y-84662178D01*
X156405412Y-84882853D01*
X156300084Y-84988181D01*
X156238761Y-85021666D01*
X156212403Y-85024500D01*
X148379495Y-85024500D01*
X148312456Y-85004815D01*
X148266701Y-84952011D01*
X148256757Y-84882853D01*
X148285782Y-84819297D01*
X148291814Y-84812819D01*
X160867814Y-72236819D01*
X160929137Y-72203334D01*
X160955495Y-72200500D01*
X169888331Y-72200500D01*
X169888347Y-72200501D01*
X169895943Y-72200501D01*
X170054054Y-72200501D01*
X170054057Y-72200501D01*
X170206785Y-72159577D01*
X170270671Y-72122692D01*
X170343716Y-72080520D01*
X170455520Y-71968716D01*
X170455520Y-71968714D01*
X170465724Y-71958511D01*
X170465728Y-71958506D01*
X171439506Y-70984728D01*
X171439511Y-70984724D01*
X171449714Y-70974520D01*
X171449716Y-70974520D01*
X171561520Y-70862716D01*
X171625888Y-70751227D01*
X171639135Y-70728283D01*
X171640576Y-70725787D01*
X171640577Y-70725785D01*
X171681500Y-70573058D01*
X171681500Y-70414943D01*
X171681500Y-69955820D01*
X171701185Y-69888781D01*
X171702398Y-69886929D01*
X171774390Y-69779185D01*
X171774390Y-69779184D01*
X171774394Y-69779179D01*
X171781439Y-69762172D01*
X171800235Y-69716792D01*
X171834737Y-69633497D01*
X171865500Y-69478842D01*
X171865500Y-69321158D01*
X171865500Y-69321155D01*
X171865499Y-69321153D01*
X171860905Y-69298058D01*
X171834737Y-69166503D01*
X171834735Y-69166498D01*
X171774397Y-69020827D01*
X171774390Y-69020814D01*
X171686789Y-68889711D01*
X171686786Y-68889707D01*
X171575292Y-68778213D01*
X171575288Y-68778210D01*
X171444185Y-68690609D01*
X171444172Y-68690602D01*
X171298501Y-68630264D01*
X171298489Y-68630261D01*
X171143845Y-68599500D01*
X171143842Y-68599500D01*
X170986158Y-68599500D01*
X170986155Y-68599500D01*
X170831510Y-68630261D01*
X170831498Y-68630264D01*
X170685827Y-68690602D01*
X170685814Y-68690609D01*
X170554711Y-68778210D01*
X170554707Y-68778213D01*
X170443213Y-68889707D01*
X170443210Y-68889711D01*
X170380602Y-68983411D01*
X170326990Y-69028216D01*
X170257665Y-69036923D01*
X170194637Y-69006768D01*
X170174398Y-68983411D01*
X170111789Y-68889711D01*
X170111786Y-68889707D01*
X170000292Y-68778213D01*
X170000288Y-68778210D01*
X169869185Y-68690609D01*
X169869172Y-68690602D01*
X169723501Y-68630264D01*
X169723489Y-68630261D01*
X169568845Y-68599500D01*
X169568842Y-68599500D01*
X169411158Y-68599500D01*
X169411155Y-68599500D01*
X169256510Y-68630261D01*
X169256498Y-68630264D01*
X169110827Y-68690602D01*
X169110814Y-68690609D01*
X168979711Y-68778210D01*
X168979707Y-68778213D01*
X168868213Y-68889707D01*
X168868210Y-68889711D01*
X168780609Y-69020814D01*
X168780602Y-69020827D01*
X168720264Y-69166498D01*
X168720261Y-69166510D01*
X168689500Y-69321153D01*
X168689500Y-69478846D01*
X168720261Y-69633489D01*
X168720264Y-69633501D01*
X168780602Y-69779172D01*
X168780609Y-69779185D01*
X168861537Y-69900302D01*
X168882415Y-69966980D01*
X168863930Y-70034360D01*
X168811951Y-70081050D01*
X168742981Y-70092226D01*
X168723840Y-70088269D01*
X168720001Y-70087153D01*
X168720000Y-70087154D01*
X168720000Y-70639591D01*
X168719999Y-70640045D01*
X168719981Y-70644694D01*
X168719500Y-70650819D01*
X168719500Y-70776355D01*
X168719500Y-70776454D01*
X168709582Y-70809781D01*
X168699817Y-70843039D01*
X168699638Y-70843193D01*
X168699571Y-70843421D01*
X168673165Y-70866132D01*
X168647013Y-70888794D01*
X168646752Y-70888850D01*
X168646600Y-70888982D01*
X168645333Y-70889159D01*
X168595501Y-70900000D01*
X168470000Y-70900000D01*
X168459815Y-70910184D01*
X168450315Y-70942539D01*
X168397511Y-70988294D01*
X168346000Y-70999500D01*
X160576341Y-70999500D01*
X160423611Y-71040423D01*
X160400830Y-71053577D01*
X160400829Y-71053577D01*
X160286685Y-71119477D01*
X160286680Y-71119481D01*
X160226567Y-71179595D01*
X160174878Y-71231284D01*
X160174876Y-71231286D01*
X152958592Y-78447571D01*
X145765483Y-85640680D01*
X145738555Y-85655383D01*
X145712737Y-85671976D01*
X145706536Y-85672867D01*
X145704160Y-85674165D01*
X145677802Y-85676999D01*
X145645808Y-85676999D01*
X145578769Y-85657314D01*
X145558126Y-85640679D01*
X145526870Y-85609422D01*
X145526862Y-85609416D01*
X145385396Y-85525754D01*
X145385393Y-85525753D01*
X145227573Y-85479901D01*
X145227567Y-85479900D01*
X145190701Y-85476999D01*
X145190694Y-85476999D01*
X145024500Y-85476999D01*
X144957461Y-85457314D01*
X144911706Y-85404510D01*
X144900500Y-85352999D01*
X144900500Y-65824060D01*
X144900501Y-65824047D01*
X144900501Y-65655944D01*
X144897092Y-65643222D01*
X144859577Y-65503216D01*
X144856487Y-65497864D01*
X144780524Y-65366290D01*
X144780518Y-65366282D01*
X141099573Y-61685337D01*
X141066088Y-61624014D01*
X141065637Y-61621847D01*
X141034738Y-61466510D01*
X141034737Y-61466503D01*
X141034735Y-61466498D01*
X140974397Y-61320827D01*
X140974390Y-61320814D01*
X140886789Y-61189711D01*
X140886786Y-61189707D01*
X140775292Y-61078213D01*
X140775288Y-61078210D01*
X140644185Y-60990609D01*
X140644172Y-60990602D01*
X140498501Y-60930264D01*
X140498489Y-60930261D01*
X140343845Y-60899500D01*
X140343842Y-60899500D01*
X140186158Y-60899500D01*
X140186155Y-60899500D01*
X140031510Y-60930261D01*
X140031498Y-60930264D01*
X139885827Y-60990602D01*
X139885814Y-60990609D01*
X139754711Y-61078210D01*
X139754707Y-61078213D01*
X139643213Y-61189707D01*
X139643210Y-61189711D01*
X139580602Y-61283411D01*
X139526990Y-61328216D01*
X139457665Y-61336923D01*
X139394637Y-61306768D01*
X139374398Y-61283411D01*
X139311789Y-61189711D01*
X139311786Y-61189707D01*
X139200292Y-61078213D01*
X139200288Y-61078210D01*
X139069185Y-60990609D01*
X139069172Y-60990602D01*
X138923501Y-60930264D01*
X138923489Y-60930261D01*
X138768845Y-60899500D01*
X138768842Y-60899500D01*
X138611158Y-60899500D01*
X138611155Y-60899500D01*
X138456510Y-60930261D01*
X138456498Y-60930264D01*
X138310827Y-60990602D01*
X138310814Y-60990609D01*
X138179711Y-61078210D01*
X138179707Y-61078213D01*
X138068213Y-61189707D01*
X138068210Y-61189711D01*
X137980609Y-61320814D01*
X137980602Y-61320827D01*
X137920264Y-61466498D01*
X137920261Y-61466510D01*
X137889500Y-61621153D01*
X137889500Y-61778846D01*
X137920261Y-61933489D01*
X137920264Y-61933501D01*
X137980602Y-62079172D01*
X137980609Y-62079185D01*
X138068602Y-62210874D01*
X138089480Y-62277551D01*
X138089500Y-62279765D01*
X138089500Y-63105404D01*
X138069815Y-63172443D01*
X138053181Y-63193085D01*
X138048869Y-63197396D01*
X138048863Y-63197404D01*
X137967131Y-63335606D01*
X137967129Y-63335611D01*
X137922335Y-63489791D01*
X137922334Y-63489797D01*
X137919500Y-63525811D01*
X137919500Y-64024169D01*
X137919501Y-64024191D01*
X137922335Y-64060205D01*
X137967129Y-64214388D01*
X137967131Y-64214393D01*
X138048863Y-64352595D01*
X138048869Y-64352603D01*
X138162396Y-64466130D01*
X138162400Y-64466133D01*
X138162402Y-64466135D01*
X138300607Y-64547869D01*
X138341268Y-64559682D01*
X138454791Y-64592664D01*
X138454794Y-64592664D01*
X138454796Y-64592665D01*
X138490819Y-64595500D01*
X138889180Y-64595499D01*
X138925204Y-64592665D01*
X139079393Y-64547869D01*
X139137369Y-64513581D01*
X139205093Y-64496398D01*
X139263612Y-64513581D01*
X139320805Y-64547404D01*
X139460000Y-64587844D01*
X139460000Y-64587843D01*
X139960000Y-64587843D01*
X140099194Y-64547404D01*
X140237285Y-64465738D01*
X140237294Y-64465731D01*
X140350731Y-64352294D01*
X140350738Y-64352285D01*
X140432406Y-64214191D01*
X140432407Y-64214188D01*
X140477166Y-64060128D01*
X140477167Y-64060122D01*
X140479931Y-64025000D01*
X139960000Y-64025000D01*
X139960000Y-64587843D01*
X139460000Y-64587843D01*
X139460000Y-64035408D01*
X139460004Y-64034404D01*
X139460039Y-64030034D01*
X139460500Y-64024181D01*
X139460499Y-63525820D01*
X139460434Y-63525000D01*
X139460382Y-63524332D01*
X139460000Y-63514607D01*
X139460000Y-62990856D01*
X139376891Y-62964404D01*
X139373558Y-62962154D01*
X139960000Y-62962154D01*
X139960000Y-63525000D01*
X140479931Y-63525000D01*
X140477167Y-63489877D01*
X140477166Y-63489871D01*
X140432407Y-63335811D01*
X140432406Y-63335808D01*
X140350738Y-63197714D01*
X140350731Y-63197705D01*
X140237294Y-63084268D01*
X140237285Y-63084261D01*
X140099191Y-63002593D01*
X140099188Y-63002591D01*
X139960001Y-62962153D01*
X139960000Y-62962154D01*
X139373558Y-62962154D01*
X139348907Y-62945515D01*
X139320555Y-62927179D01*
X139320031Y-62926023D01*
X139318980Y-62925314D01*
X139305649Y-62894291D01*
X139291712Y-62863541D01*
X139291571Y-62861529D01*
X139291395Y-62861120D01*
X139291498Y-62860498D01*
X139290500Y-62846245D01*
X139290500Y-62279765D01*
X139310185Y-62212726D01*
X139311398Y-62210874D01*
X139349275Y-62154188D01*
X139374398Y-62116587D01*
X139428010Y-62071783D01*
X139497335Y-62063076D01*
X139560363Y-62093230D01*
X139580602Y-62116589D01*
X139643207Y-62210284D01*
X139643213Y-62210292D01*
X139754707Y-62321786D01*
X139754711Y-62321789D01*
X139885814Y-62409390D01*
X139885827Y-62409397D01*
X139981702Y-62449109D01*
X140031503Y-62469737D01*
X140096147Y-62482595D01*
X140186849Y-62500638D01*
X140248760Y-62533023D01*
X140250339Y-62534574D01*
X143663181Y-65947416D01*
X143696666Y-66008739D01*
X143699500Y-66035097D01*
X143699500Y-85352999D01*
X143679815Y-85420038D01*
X143627011Y-85465793D01*
X143575500Y-85476999D01*
X143409298Y-85476999D01*
X143372432Y-85479900D01*
X143372426Y-85479901D01*
X143214606Y-85525753D01*
X143214603Y-85525754D01*
X143073137Y-85609416D01*
X143073129Y-85609422D01*
X142956923Y-85725628D01*
X142956917Y-85725636D01*
X142873255Y-85867102D01*
X142873254Y-85867105D01*
X142827402Y-86024925D01*
X142827401Y-86024931D01*
X142824500Y-86061797D01*
X142824500Y-86493185D01*
X142824501Y-86493218D01*
X142824655Y-86495173D01*
X142824590Y-86495481D01*
X142824596Y-86495631D01*
X142824566Y-86495632D01*
X142824721Y-86496047D01*
X142817373Y-86529822D01*
X142810287Y-86563549D01*
X142809934Y-86564023D01*
X142809870Y-86564320D01*
X142788718Y-86592575D01*
X142655285Y-86726010D01*
X142655284Y-86726010D01*
X142655283Y-86726011D01*
X142543481Y-86837813D01*
X142543475Y-86837821D01*
X142496563Y-86919077D01*
X142445997Y-86967293D01*
X142377390Y-86980517D01*
X142312525Y-86954549D01*
X142301495Y-86944759D01*
X141974319Y-86617583D01*
X141940834Y-86556260D01*
X141938000Y-86529902D01*
X141938000Y-79629765D01*
X141957685Y-79562726D01*
X141958898Y-79560874D01*
X141962478Y-79555517D01*
X142046894Y-79429179D01*
X142107237Y-79283497D01*
X142138000Y-79128842D01*
X142138000Y-78971158D01*
X142138000Y-78971155D01*
X142137999Y-78971153D01*
X142125143Y-78906522D01*
X142107237Y-78816503D01*
X142070453Y-78727697D01*
X142046897Y-78670827D01*
X142046890Y-78670814D01*
X141959289Y-78539711D01*
X141959286Y-78539707D01*
X141847792Y-78428213D01*
X141847788Y-78428210D01*
X141716685Y-78340609D01*
X141716672Y-78340602D01*
X141571001Y-78280264D01*
X141570989Y-78280261D01*
X141416345Y-78249500D01*
X141416342Y-78249500D01*
X141258658Y-78249500D01*
X141258655Y-78249500D01*
X141104010Y-78280261D01*
X141103998Y-78280264D01*
X140958327Y-78340602D01*
X140958314Y-78340609D01*
X140827211Y-78428210D01*
X140827207Y-78428213D01*
X140715713Y-78539707D01*
X140715710Y-78539711D01*
X140628109Y-78670814D01*
X140628102Y-78670827D01*
X140567764Y-78816498D01*
X140567761Y-78816510D01*
X140537000Y-78971153D01*
X140537000Y-79128846D01*
X140567761Y-79283489D01*
X140567764Y-79283501D01*
X140628102Y-79429172D01*
X140628109Y-79429185D01*
X140694290Y-79528230D01*
X140712522Y-79555517D01*
X140716102Y-79560874D01*
X140736980Y-79627551D01*
X140737000Y-79629765D01*
X140737000Y-80321819D01*
X140732500Y-80337144D01*
X140732500Y-82053142D01*
X140737000Y-82078179D01*
X140737000Y-86743329D01*
X140736999Y-86743347D01*
X140736999Y-86909053D01*
X140736998Y-86909053D01*
X140777923Y-87061785D01*
X140789313Y-87081511D01*
X140789314Y-87081516D01*
X140789315Y-87081516D01*
X140856975Y-87198708D01*
X140856981Y-87198716D01*
X140975849Y-87317584D01*
X140975855Y-87317589D01*
X142543478Y-88885212D01*
X142543480Y-88885215D01*
X142655284Y-88997019D01*
X142655285Y-88997019D01*
X142810619Y-89152354D01*
X142844103Y-89213676D01*
X142839119Y-89283368D01*
X142797247Y-89339301D01*
X142731783Y-89363718D01*
X142684333Y-89355645D01*
X142683887Y-89357182D01*
X142520997Y-89309857D01*
X142520991Y-89309856D01*
X142484697Y-89307000D01*
X142484690Y-89307000D01*
X142370098Y-89307000D01*
X142303059Y-89287315D01*
X142282417Y-89270681D01*
X137961819Y-84950083D01*
X137928334Y-84888760D01*
X137925500Y-84862402D01*
X137925500Y-78971153D01*
X138662000Y-78971153D01*
X138662000Y-79128846D01*
X138692761Y-79283489D01*
X138692764Y-79283501D01*
X138753102Y-79429172D01*
X138753109Y-79429185D01*
X138819290Y-79528230D01*
X138837522Y-79555517D01*
X138841102Y-79560874D01*
X138861980Y-79627551D01*
X138862000Y-79629765D01*
X138862000Y-80530404D01*
X138842315Y-80597443D01*
X138825681Y-80618085D01*
X138821369Y-80622396D01*
X138821363Y-80622404D01*
X138739631Y-80760606D01*
X138739629Y-80760611D01*
X138694835Y-80914791D01*
X138694834Y-80914797D01*
X138692000Y-80950811D01*
X138692000Y-81449169D01*
X138692001Y-81449191D01*
X138694835Y-81485205D01*
X138739629Y-81639388D01*
X138739631Y-81639393D01*
X138821363Y-81777595D01*
X138821369Y-81777603D01*
X138934896Y-81891130D01*
X138934900Y-81891133D01*
X138934902Y-81891135D01*
X139073107Y-81972869D01*
X139101786Y-81981201D01*
X139227291Y-82017664D01*
X139227294Y-82017664D01*
X139227296Y-82017665D01*
X139263319Y-82020500D01*
X139661680Y-82020499D01*
X139697704Y-82017665D01*
X139851893Y-81972869D01*
X139909869Y-81938581D01*
X139977593Y-81921398D01*
X140036112Y-81938581D01*
X140093305Y-81972404D01*
X140232500Y-82012844D01*
X140232500Y-81460408D01*
X140232882Y-81450679D01*
X140232999Y-81449191D01*
X140233000Y-81449181D01*
X140232999Y-80950820D01*
X140232882Y-80949332D01*
X140232500Y-80939607D01*
X140232500Y-80387154D01*
X140232499Y-80387154D01*
X140221595Y-80390322D01*
X140151725Y-80390122D01*
X140093055Y-80352179D01*
X140064212Y-80288541D01*
X140063000Y-80271245D01*
X140063000Y-79629765D01*
X140082685Y-79562726D01*
X140083898Y-79560874D01*
X140087478Y-79555517D01*
X140171894Y-79429179D01*
X140232237Y-79283497D01*
X140263000Y-79128842D01*
X140263000Y-78971158D01*
X140263000Y-78971155D01*
X140262999Y-78971153D01*
X140250143Y-78906522D01*
X140232237Y-78816503D01*
X140195453Y-78727697D01*
X140171897Y-78670827D01*
X140171890Y-78670814D01*
X140084289Y-78539711D01*
X140084286Y-78539707D01*
X139972792Y-78428213D01*
X139972788Y-78428210D01*
X139841685Y-78340609D01*
X139841672Y-78340602D01*
X139696001Y-78280264D01*
X139695989Y-78280261D01*
X139541345Y-78249500D01*
X139541342Y-78249500D01*
X139383658Y-78249500D01*
X139383655Y-78249500D01*
X139229010Y-78280261D01*
X139228998Y-78280264D01*
X139083327Y-78340602D01*
X139083314Y-78340609D01*
X138952211Y-78428210D01*
X138952207Y-78428213D01*
X138840713Y-78539707D01*
X138840710Y-78539711D01*
X138753109Y-78670814D01*
X138753102Y-78670827D01*
X138692764Y-78816498D01*
X138692761Y-78816510D01*
X138662000Y-78971153D01*
X137925500Y-78971153D01*
X137925500Y-75251232D01*
X137925501Y-75251219D01*
X137925501Y-75083118D01*
X137925501Y-75083116D01*
X137884577Y-74930388D01*
X137853801Y-74877083D01*
X137805520Y-74793457D01*
X137693716Y-74681653D01*
X137693715Y-74681652D01*
X137689385Y-74677322D01*
X137689374Y-74677312D01*
X136854224Y-73842162D01*
X136820739Y-73780839D01*
X136818076Y-73760981D01*
X136776059Y-72959238D01*
X136766540Y-72900044D01*
X136709256Y-72768013D01*
X136617095Y-72657470D01*
X136542830Y-72607719D01*
X136497523Y-72577367D01*
X136360228Y-72534200D01*
X136360221Y-72534199D01*
X136300369Y-72530919D01*
X136300361Y-72530918D01*
X135047353Y-72596587D01*
X134979375Y-72580438D01*
X134930919Y-72530101D01*
X134916863Y-72472757D01*
X134916863Y-72024325D01*
X134936548Y-71957286D01*
X134953178Y-71936648D01*
X135379252Y-71510573D01*
X135440573Y-71477090D01*
X135460429Y-71474427D01*
X136242845Y-71433423D01*
X136302039Y-71423904D01*
X136434070Y-71366620D01*
X136544613Y-71274459D01*
X136624715Y-71154888D01*
X136667884Y-71017592D01*
X136671164Y-70957729D01*
X136671161Y-70957681D01*
X136654524Y-70640218D01*
X136619050Y-69963348D01*
X136609531Y-69904154D01*
X136552247Y-69772123D01*
X136552246Y-69772122D01*
X136548717Y-69763987D01*
X136550410Y-69763252D01*
X136534892Y-69706432D01*
X136544564Y-69665721D01*
X136543551Y-69665403D01*
X136546210Y-69656944D01*
X136546212Y-69656942D01*
X136589381Y-69519646D01*
X136592661Y-69459783D01*
X136540547Y-68465402D01*
X136531028Y-68406208D01*
X136473744Y-68274177D01*
X136381583Y-68163634D01*
X136350401Y-68142745D01*
X136262011Y-68083531D01*
X136124716Y-68040364D01*
X136124709Y-68040363D01*
X136064857Y-68037083D01*
X136064849Y-68037082D01*
X135489851Y-68067217D01*
X135421873Y-68051068D01*
X135373417Y-68000731D01*
X135359547Y-67936603D01*
X135359774Y-67932441D01*
X135360420Y-67920665D01*
X135358716Y-67888160D01*
X135352295Y-67765639D01*
X135313540Y-67026148D01*
X135304021Y-66966954D01*
X135246737Y-66834923D01*
X135154575Y-66724379D01*
X135035004Y-66644278D01*
X135035003Y-66644277D01*
X135035002Y-66644277D01*
X134897711Y-66601109D01*
X134897704Y-66601108D01*
X134837850Y-66597828D01*
X134837842Y-66597827D01*
X133843464Y-66649943D01*
X133843460Y-66649943D01*
X133784277Y-66659460D01*
X133784271Y-66659461D01*
X133652241Y-66716744D01*
X133652240Y-66716744D01*
X133541697Y-66808906D01*
X133541695Y-66808909D01*
X133461595Y-66928477D01*
X133461594Y-66928478D01*
X133418425Y-67065772D01*
X133418425Y-67065773D01*
X133415146Y-67125631D01*
X133415145Y-67125640D01*
X133456812Y-67920661D01*
X133462026Y-68020154D01*
X133471545Y-68079348D01*
X133528829Y-68211379D01*
X133620991Y-68321923D01*
X133740562Y-68402024D01*
X133877857Y-68445193D01*
X133937721Y-68448474D01*
X133937722Y-68448473D01*
X133937723Y-68448474D01*
X133976750Y-68446428D01*
X134163202Y-68436656D01*
X134231179Y-68452805D01*
X134279635Y-68503141D01*
X134293506Y-68567263D01*
X134292632Y-68583211D01*
X134292632Y-68583212D01*
X134337898Y-69446899D01*
X134344747Y-69577590D01*
X134354266Y-69636784D01*
X134384484Y-69706432D01*
X134415080Y-69776951D01*
X134413387Y-69777685D01*
X134428904Y-69834511D01*
X134419234Y-69875217D01*
X134420246Y-69875535D01*
X134417586Y-69883994D01*
X134417585Y-69883996D01*
X134374416Y-70021292D01*
X134374415Y-70021296D01*
X134371136Y-70081149D01*
X134371135Y-70081158D01*
X134405050Y-70728283D01*
X134388901Y-70796261D01*
X134368901Y-70822454D01*
X133947649Y-71243707D01*
X133835844Y-71355511D01*
X133835842Y-71355514D01*
X133802359Y-71413510D01*
X133802358Y-71413512D01*
X133756786Y-71492443D01*
X133756786Y-71492444D01*
X133715862Y-71645172D01*
X133715862Y-71645174D01*
X133715862Y-71813275D01*
X133715863Y-71813288D01*
X133715863Y-72097121D01*
X133696178Y-72164160D01*
X133643374Y-72209915D01*
X133595307Y-72220045D01*
X133595353Y-72220912D01*
X133591303Y-72221124D01*
X133591300Y-72221124D01*
X133545635Y-72223517D01*
X133473994Y-72227272D01*
X133473989Y-72227272D01*
X133473987Y-72227273D01*
X133457065Y-72230409D01*
X133421244Y-72237048D01*
X133421240Y-72237049D01*
X133309516Y-72273350D01*
X133309514Y-72273350D01*
X133261097Y-72296444D01*
X133162575Y-72360426D01*
X133121783Y-72395266D01*
X133121772Y-72395277D01*
X133043179Y-72482562D01*
X133043174Y-72482568D01*
X133012790Y-72526778D01*
X132959458Y-72631446D01*
X132941552Y-72682013D01*
X132941550Y-72682020D01*
X132917127Y-72796928D01*
X132913178Y-72847122D01*
X132912920Y-72850406D01*
X132919070Y-72967721D01*
X132919071Y-72967724D01*
X132926849Y-73009697D01*
X132928845Y-73020463D01*
X132965144Y-73132186D01*
X132988239Y-73180608D01*
X132988240Y-73180609D01*
X132988239Y-73180609D01*
X133011289Y-73216103D01*
X133052220Y-73279132D01*
X133087063Y-73319927D01*
X133149311Y-73375975D01*
X133174357Y-73398526D01*
X133174364Y-73398532D01*
X133218565Y-73428911D01*
X133218569Y-73428913D01*
X133218573Y-73428916D01*
X133323241Y-73482247D01*
X133373811Y-73500154D01*
X133488719Y-73524578D01*
X133542201Y-73528787D01*
X133585371Y-73526524D01*
X133653349Y-73542672D01*
X133701806Y-73593008D01*
X133715863Y-73650354D01*
X133715863Y-73958539D01*
X133696178Y-74025578D01*
X133679544Y-74046220D01*
X133392247Y-74333516D01*
X133330924Y-74367001D01*
X133261232Y-74362017D01*
X133236816Y-74349503D01*
X133235774Y-74349003D01*
X133098480Y-74305834D01*
X133098473Y-74305833D01*
X133038619Y-74302553D01*
X133038611Y-74302552D01*
X132151038Y-74349070D01*
X132083060Y-74332921D01*
X132034604Y-74282584D01*
X132020688Y-74231126D01*
X131991406Y-73614904D01*
X131991406Y-73614899D01*
X131959441Y-72941628D01*
X131959442Y-72941621D01*
X131959441Y-72941622D01*
X131930003Y-72320997D01*
X131930003Y-72320991D01*
X131917688Y-72061075D01*
X131905073Y-71794817D01*
X131905099Y-71794746D01*
X131903173Y-71754721D01*
X131902986Y-71750780D01*
X131900738Y-71703313D01*
X131900682Y-71702926D01*
X131891429Y-71510575D01*
X131876500Y-71200229D01*
X131876561Y-71200059D01*
X131874568Y-71160074D01*
X131873027Y-71128028D01*
X131872117Y-71109111D01*
X131871983Y-71108215D01*
X131848043Y-70627826D01*
X131848114Y-70627628D01*
X131846052Y-70587864D01*
X131844084Y-70548371D01*
X131844083Y-70548369D01*
X131843511Y-70536890D01*
X131843354Y-70535843D01*
X131842854Y-70526192D01*
X131819293Y-70071803D01*
X131819371Y-70071583D01*
X131817235Y-70032126D01*
X131815175Y-69992383D01*
X131815174Y-69992381D01*
X131814587Y-69981051D01*
X131814407Y-69979869D01*
X131807489Y-69852022D01*
X132755781Y-69852022D01*
X132761929Y-69969326D01*
X132761929Y-69969330D01*
X132761930Y-69969334D01*
X132766069Y-69991664D01*
X132771705Y-70022076D01*
X132771706Y-70022081D01*
X132808006Y-70133803D01*
X132808006Y-70133804D01*
X132831098Y-70182218D01*
X132831100Y-70182221D01*
X132831102Y-70182225D01*
X132895081Y-70280745D01*
X132901391Y-70288133D01*
X132929922Y-70321538D01*
X133017211Y-70400134D01*
X133017217Y-70400139D01*
X133017223Y-70400144D01*
X133017229Y-70400148D01*
X133017234Y-70400152D01*
X133061420Y-70430521D01*
X133061429Y-70430526D01*
X133061433Y-70430529D01*
X133061437Y-70430531D01*
X133166094Y-70483858D01*
X133166100Y-70483860D01*
X133166103Y-70483862D01*
X133216679Y-70501771D01*
X133331586Y-70526192D01*
X133385057Y-70530401D01*
X133502369Y-70524255D01*
X133555122Y-70514478D01*
X133666846Y-70478176D01*
X133715265Y-70455081D01*
X133813786Y-70391101D01*
X133854580Y-70356259D01*
X133933185Y-70268958D01*
X133963570Y-70224749D01*
X134016902Y-70120080D01*
X134034809Y-70069510D01*
X134059233Y-69954604D01*
X134063442Y-69901125D01*
X134062795Y-69888781D01*
X134057295Y-69783813D01*
X134055985Y-69776746D01*
X134047519Y-69731063D01*
X134024985Y-69661709D01*
X134011220Y-69619344D01*
X134011219Y-69619341D01*
X133988124Y-69570921D01*
X133988123Y-69570920D01*
X133988121Y-69570915D01*
X133943958Y-69502912D01*
X133924141Y-69472397D01*
X133913368Y-69459783D01*
X133889301Y-69431604D01*
X133889297Y-69431601D01*
X133889296Y-69431599D01*
X133802014Y-69353008D01*
X133802007Y-69353003D01*
X133802003Y-69352999D01*
X133793763Y-69347336D01*
X133757797Y-69322616D01*
X133757785Y-69322609D01*
X133653114Y-69269277D01*
X133602573Y-69251379D01*
X133602556Y-69251374D01*
X133602552Y-69251373D01*
X133487646Y-69226948D01*
X133434163Y-69222739D01*
X133434162Y-69222739D01*
X133316856Y-69228887D01*
X133316851Y-69228887D01*
X133316849Y-69228888D01*
X133301752Y-69231686D01*
X133264099Y-69238664D01*
X133152381Y-69274963D01*
X133152378Y-69274965D01*
X133103960Y-69298058D01*
X133005439Y-69362039D01*
X132964641Y-69396884D01*
X132886049Y-69484167D01*
X132886034Y-69484187D01*
X132855658Y-69528384D01*
X132855649Y-69528399D01*
X132802320Y-69633065D01*
X132784415Y-69683628D01*
X132759990Y-69798534D01*
X132755781Y-69852022D01*
X131807489Y-69852022D01*
X131789862Y-69526290D01*
X131789946Y-69526051D01*
X131787717Y-69486657D01*
X131785566Y-69446899D01*
X131785564Y-69446896D01*
X131784954Y-69435608D01*
X131784757Y-69434332D01*
X131784603Y-69431604D01*
X131759363Y-68985420D01*
X131759451Y-68985167D01*
X131757091Y-68945272D01*
X131754873Y-68906048D01*
X131754872Y-68906047D01*
X131754237Y-68894808D01*
X131754029Y-68893485D01*
X131748777Y-68804673D01*
X131741910Y-68688551D01*
X131757603Y-68620470D01*
X131807614Y-68571677D01*
X131859203Y-68557404D01*
X132735117Y-68511498D01*
X132794311Y-68501979D01*
X132926342Y-68444696D01*
X133036885Y-68352534D01*
X133116987Y-68232963D01*
X133160156Y-68095668D01*
X133163436Y-68035804D01*
X133160534Y-67980438D01*
X133139802Y-67584845D01*
X133116556Y-67141287D01*
X133107037Y-67082093D01*
X133049753Y-66950062D01*
X132957591Y-66839518D01*
X132838020Y-66759417D01*
X132838019Y-66759416D01*
X132838018Y-66759416D01*
X132700727Y-66716248D01*
X132700720Y-66716247D01*
X132640866Y-66712967D01*
X132640858Y-66712966D01*
X131741907Y-66760080D01*
X131673929Y-66743931D01*
X131625473Y-66693594D01*
X131611710Y-66644774D01*
X131610036Y-66620483D01*
X131577296Y-66145354D01*
X131577362Y-66145157D01*
X131574551Y-66105519D01*
X131571827Y-66065986D01*
X131571826Y-66065984D01*
X131571035Y-66054500D01*
X131570859Y-66053461D01*
X131563159Y-65944880D01*
X131532259Y-65509117D01*
X131532316Y-65508946D01*
X131529458Y-65469617D01*
X131526630Y-65429736D01*
X131526629Y-65429735D01*
X131525814Y-65418228D01*
X131525657Y-65417312D01*
X131507593Y-65168735D01*
X131483445Y-64836432D01*
X131483495Y-64836283D01*
X131480534Y-64796370D01*
X131477676Y-64757032D01*
X131477675Y-64757031D01*
X131476830Y-64745388D01*
X131476695Y-64744617D01*
X131430472Y-64121412D01*
X131430513Y-64121289D01*
X131427520Y-64081613D01*
X131424582Y-64041998D01*
X131424581Y-64041997D01*
X131423714Y-64030299D01*
X131423600Y-64029650D01*
X131372952Y-63358179D01*
X131372986Y-63358077D01*
X131369923Y-63318020D01*
X131366961Y-63278746D01*
X131366073Y-63266970D01*
X131365979Y-63266439D01*
X131310503Y-62540842D01*
X131310530Y-62540761D01*
X131307419Y-62500500D01*
X131304429Y-62461395D01*
X131304428Y-62461394D01*
X131303522Y-62449532D01*
X131303447Y-62449109D01*
X131301880Y-62428837D01*
X131239685Y-61624002D01*
X131146790Y-60400649D01*
X131069384Y-59319953D01*
X131007179Y-58372520D01*
X131007118Y-58371507D01*
X131004178Y-58320317D01*
X130959826Y-57548112D01*
X130959765Y-57546928D01*
X130927059Y-56837897D01*
X130926992Y-56836169D01*
X130908553Y-56232638D01*
X130908501Y-56229968D01*
X130908087Y-56183937D01*
X130903943Y-55723096D01*
X130903964Y-55719488D01*
X130912780Y-55300406D01*
X130912997Y-55295255D01*
X130921806Y-55155778D01*
X137349500Y-55155778D01*
X137349500Y-55444221D01*
X137349501Y-55444238D01*
X137387149Y-55730206D01*
X137387150Y-55730211D01*
X137387151Y-55730217D01*
X137461809Y-56008844D01*
X137461814Y-56008860D01*
X137572191Y-56275336D01*
X137572199Y-56275352D01*
X137716420Y-56525148D01*
X137716431Y-56525164D01*
X137892024Y-56754002D01*
X137892030Y-56754009D01*
X138095990Y-56957969D01*
X138095997Y-56957975D01*
X138235375Y-57064923D01*
X138324844Y-57133575D01*
X138324851Y-57133579D01*
X138574647Y-57277800D01*
X138574663Y-57277808D01*
X138841139Y-57388185D01*
X138841145Y-57388186D01*
X138841155Y-57388191D01*
X139119783Y-57462849D01*
X139405772Y-57500500D01*
X139405779Y-57500500D01*
X139694221Y-57500500D01*
X139694228Y-57500500D01*
X139980217Y-57462849D01*
X140258845Y-57388191D01*
X140258857Y-57388185D01*
X140258860Y-57388185D01*
X140525336Y-57277808D01*
X140525339Y-57277806D01*
X140525345Y-57277804D01*
X140775156Y-57133575D01*
X141004004Y-56957974D01*
X141207974Y-56754004D01*
X141383575Y-56525156D01*
X141527804Y-56275345D01*
X141545494Y-56232639D01*
X141638185Y-56008860D01*
X141638185Y-56008857D01*
X141638191Y-56008845D01*
X141712849Y-55730217D01*
X141750500Y-55444228D01*
X141750500Y-55155772D01*
X141712849Y-54869783D01*
X141638191Y-54591155D01*
X141638186Y-54591145D01*
X141638185Y-54591139D01*
X141527808Y-54324663D01*
X141527800Y-54324647D01*
X141383579Y-54074851D01*
X141383575Y-54074844D01*
X141207974Y-53845996D01*
X141207969Y-53845990D01*
X141004009Y-53642030D01*
X141004002Y-53642024D01*
X140775164Y-53466431D01*
X140775162Y-53466429D01*
X140775156Y-53466425D01*
X140775151Y-53466422D01*
X140775148Y-53466420D01*
X140525352Y-53322199D01*
X140525336Y-53322191D01*
X140258860Y-53211814D01*
X140258848Y-53211810D01*
X140258845Y-53211809D01*
X139980217Y-53137151D01*
X139980211Y-53137150D01*
X139980206Y-53137149D01*
X139694238Y-53099501D01*
X139694233Y-53099500D01*
X139694228Y-53099500D01*
X139405772Y-53099500D01*
X139405766Y-53099500D01*
X139405761Y-53099501D01*
X139119793Y-53137149D01*
X139119786Y-53137150D01*
X139119783Y-53137151D01*
X138939394Y-53185486D01*
X138841155Y-53211809D01*
X138841139Y-53211814D01*
X138574663Y-53322191D01*
X138574647Y-53322199D01*
X138324851Y-53466420D01*
X138324835Y-53466431D01*
X138095997Y-53642024D01*
X138095990Y-53642030D01*
X137892030Y-53845990D01*
X137892024Y-53845997D01*
X137716431Y-54074835D01*
X137716420Y-54074851D01*
X137572199Y-54324647D01*
X137572191Y-54324663D01*
X137461814Y-54591139D01*
X137461809Y-54591155D01*
X137426865Y-54721570D01*
X137387152Y-54869780D01*
X137387149Y-54869793D01*
X137349501Y-55155761D01*
X137349500Y-55155778D01*
X130921806Y-55155778D01*
X130934426Y-54955975D01*
X130935095Y-54948764D01*
X130967895Y-54681188D01*
X130969529Y-54671245D01*
X131010886Y-54471005D01*
X131015252Y-54455219D01*
X131207558Y-53904665D01*
X131217102Y-53883787D01*
X131238814Y-53845996D01*
X131488110Y-53412071D01*
X131501500Y-53393123D01*
X131872680Y-52960343D01*
X131887536Y-52945717D01*
X132188599Y-52695543D01*
X132201168Y-52686371D01*
X132607016Y-52427670D01*
X132616574Y-52422161D01*
X133110552Y-52166126D01*
X133118356Y-52162421D01*
X133681791Y-51918664D01*
X133688623Y-51915946D01*
X134303875Y-51692287D01*
X134310282Y-51690156D01*
X134960071Y-51493691D01*
X134966570Y-51491917D01*
X135634043Y-51329264D01*
X135640999Y-51327780D01*
X136312031Y-51204798D01*
X136317708Y-51203895D01*
X136860091Y-51130460D01*
X136863465Y-51130052D01*
X137433821Y-51069240D01*
X137436867Y-51068954D01*
X138023384Y-51021599D01*
X138026224Y-51021404D01*
X138619478Y-50987972D01*
X138622296Y-50987848D01*
X139212754Y-50968773D01*
X139215710Y-50968714D01*
X139794055Y-50964387D01*
X139797327Y-50964406D01*
G37*
%TD.AperFunction*%
%TD*%
M02*
