%TF.GenerationSoftware,KiCad,Pcbnew,9.0.6*%
%TF.CreationDate,2026-03-10T20:13:12+09:00*%
%TF.ProjectId,HW-LEEK-001,48572d4c-4545-44b2-9d30-30312e6b6963,rev?*%
%TF.SameCoordinates,Original*%
%TF.FileFunction,Soldermask,Bot*%
%TF.FilePolarity,Negative*%
%FSLAX46Y46*%
G04 Gerber Fmt 4.6, Leading zero omitted, Abs format (unit mm)*
G04 Created by KiCad (PCBNEW 9.0.6) date 2026-03-10 20:13:12*
%MOMM*%
%LPD*%
G01*
G04 APERTURE LIST*
G04 Aperture macros list*
%AMRoundRect*
0 Rectangle with rounded corners*
0 $1 Rounding radius*
0 $2 $3 $4 $5 $6 $7 $8 $9 X,Y pos of 4 corners*
0 Add a 4 corners polygon primitive as box body*
4,1,4,$2,$3,$4,$5,$6,$7,$8,$9,$2,$3,0*
0 Add four circle primitives for the rounded corners*
1,1,$1+$1,$2,$3*
1,1,$1+$1,$4,$5*
1,1,$1+$1,$6,$7*
1,1,$1+$1,$8,$9*
0 Add four rect primitives between the rounded corners*
20,1,$1+$1,$2,$3,$4,$5,0*
20,1,$1+$1,$4,$5,$6,$7,0*
20,1,$1+$1,$6,$7,$8,$9,0*
20,1,$1+$1,$8,$9,$2,$3,0*%
%AMHorizOval*
0 Thick line with rounded ends*
0 $1 width*
0 $2 $3 position (X,Y) of the first rounded end (center of the circle)*
0 $4 $5 position (X,Y) of the second rounded end (center of the circle)*
0 Add line between two ends*
20,1,$1,$2,$3,$4,$5,0*
0 Add two circle primitives to create the rounded ends*
1,1,$1,$2,$3*
1,1,$1,$4,$5*%
%AMRotRect*
0 Rectangle, with rotation*
0 The origin of the aperture is its center*
0 $1 length*
0 $2 width*
0 $3 Rotation angle, in degrees counterclockwise*
0 Add horizontal line*
21,1,$1,$2,0,0,$3*%
G04 Aperture macros list end*
%ADD10RoundRect,0.150000X-0.825000X-0.150000X0.825000X-0.150000X0.825000X0.150000X-0.825000X0.150000X0*%
%ADD11RoundRect,0.140000X-0.170000X0.140000X-0.170000X-0.140000X0.170000X-0.140000X0.170000X0.140000X0*%
%ADD12RotRect,1.250000X0.900000X183.000000*%
%ADD13RotRect,0.800000X0.900000X93.000000*%
%ADD14R,1.000000X0.750000*%
%ADD15RoundRect,0.135000X0.135000X0.185000X-0.135000X0.185000X-0.135000X-0.185000X0.135000X-0.185000X0*%
%ADD16RoundRect,0.250000X-0.857096X-0.388603X0.221457X-0.914648X0.857096X0.388603X-0.221457X0.914648X0*%
%ADD17HorizOval,1.700000X-0.054796X-0.112349X0.054796X0.112349X0*%
%ADD18RotRect,3.900000X4.180000X155.000000*%
%ADD19C,7.000000*%
G04 APERTURE END LIST*
D10*
%TO.C,U1*%
X149250000Y-90087501D03*
X149250000Y-88817501D03*
X149250000Y-87547500D03*
X149250001Y-86277500D03*
X144300000Y-86277499D03*
X144300000Y-87547499D03*
X144300000Y-88817500D03*
X144299999Y-90087500D03*
%TD*%
D11*
%TO.C,C1*%
X142250000Y-91047500D03*
X142250000Y-90087500D03*
%TD*%
D12*
%TO.C,SW3*%
X135442647Y-69021496D03*
X135521150Y-70519442D03*
X135678159Y-73515332D03*
D13*
X134785538Y-75112736D03*
X132588552Y-75227876D03*
X132190799Y-67638290D03*
X134387783Y-67523151D03*
%TD*%
D14*
%TO.C,SW4*%
X171675000Y-65675000D03*
X177675000Y-65675000D03*
X171675000Y-61975000D03*
X177675000Y-61975000D03*
%TD*%
D15*
%TO.C,R3*%
X143395000Y-94750000D03*
X142375000Y-94750000D03*
%TD*%
D16*
%TO.C,J1*%
X121503015Y-135254072D03*
D17*
X123750000Y-136350000D03*
X125996985Y-137445928D03*
%TD*%
D15*
%TO.C,R2*%
X170510000Y-68000000D03*
X169490000Y-68000000D03*
%TD*%
%TO.C,R4*%
X140482500Y-81200000D03*
X139462500Y-81200000D03*
%TD*%
%TO.C,R6*%
X136690000Y-100650000D03*
X137710000Y-100650000D03*
%TD*%
%TO.C,R1*%
X139710000Y-63775000D03*
X138690000Y-63775000D03*
%TD*%
%TO.C,R5*%
X157632500Y-81600000D03*
X156612500Y-81600000D03*
%TD*%
%TO.C,R7*%
X127445000Y-132175000D03*
X126425000Y-132175000D03*
%TD*%
D18*
%TO.C,BT1*%
X139394201Y-126321423D03*
X125255799Y-119728577D03*
D19*
X132325000Y-123025000D03*
%TD*%
M02*
