%TF.GenerationSoftware,KiCad,Pcbnew,9.0.6*%
%TF.CreationDate,2026-03-10T20:13:12+09:00*%
%TF.ProjectId,HW-LEEK-001,48572d4c-4545-44b2-9d30-30312e6b6963,rev?*%
%TF.SameCoordinates,Original*%
%TF.FileFunction,Legend,Top*%
%TF.FilePolarity,Positive*%
%FSLAX46Y46*%
G04 Gerber Fmt 4.6, Leading zero omitted, Abs format (unit mm)*
G04 Created by KiCad (PCBNEW 9.0.6) date 2026-03-10 20:13:12*
%MOMM*%
%LPD*%
G01*
G04 APERTURE LIST*
G04 Aperture macros list*
%AMRoundRect*
0 Rectangle with rounded corners*
0 $1 Rounding radius*
0 $2 $3 $4 $5 $6 $7 $8 $9 X,Y pos of 4 corners*
0 Add a 4 corners polygon primitive as box body*
4,1,4,$2,$3,$4,$5,$6,$7,$8,$9,$2,$3,0*
0 Add four circle primitives for the rounded corners*
1,1,$1+$1,$2,$3*
1,1,$1+$1,$4,$5*
1,1,$1+$1,$6,$7*
1,1,$1+$1,$8,$9*
0 Add four rect primitives between the rounded corners*
20,1,$1+$1,$2,$3,$4,$5,0*
20,1,$1+$1,$4,$5,$6,$7,0*
20,1,$1+$1,$6,$7,$8,$9,0*
20,1,$1+$1,$8,$9,$2,$3,0*%
%AMHorizOval*
0 Thick line with rounded ends*
0 $1 width*
0 $2 $3 position (X,Y) of the first rounded end (center of the circle)*
0 $4 $5 position (X,Y) of the second rounded end (center of the circle)*
0 Add line between two ends*
20,1,$1,$2,$3,$4,$5,0*
0 Add two circle primitives to create the rounded ends*
1,1,$1,$2,$3*
1,1,$1,$4,$5*%
G04 Aperture macros list end*
%ADD10C,0.120000*%
%ADD11C,0.000000*%
%ADD12RoundRect,0.218750X-0.218750X-0.256250X0.218750X-0.256250X0.218750X0.256250X-0.218750X0.256250X0*%
%ADD13RoundRect,0.243750X-0.243750X-0.456250X0.243750X-0.456250X0.243750X0.456250X-0.243750X0.456250X0*%
%ADD14RoundRect,0.250000X-0.857096X-0.388603X0.221457X-0.914648X0.857096X0.388603X-0.221457X0.914648X0*%
%ADD15HorizOval,1.700000X-0.054796X-0.112349X0.054796X0.112349X0*%
G04 APERTURE END LIST*
D10*
%TO.C,D5*%
X168792500Y-68665000D02*
X168792500Y-70135000D01*
X168792500Y-70135000D02*
X171077500Y-70135000D01*
X171077500Y-68665000D02*
X168792500Y-68665000D01*
%TO.C,D3*%
X155865000Y-82690000D02*
X155865000Y-84610000D01*
X155865000Y-84610000D02*
X158550000Y-84610000D01*
X158550000Y-82690000D02*
X155865000Y-82690000D01*
%TO.C,D1*%
X141627500Y-95790000D02*
X141627500Y-97710000D01*
X141627500Y-97710000D02*
X144312500Y-97710000D01*
X144312500Y-95790000D02*
X141627500Y-95790000D01*
D11*
%TO.C,G\u002A\u002A\u002A*%
G36*
X180492569Y-60144753D02*
G01*
X180893735Y-60388716D01*
X176808244Y-64472662D01*
X175926710Y-65348723D01*
X175105077Y-66155299D01*
X174362122Y-66874630D01*
X173716623Y-67488957D01*
X173187357Y-67980520D01*
X172793101Y-68331559D01*
X172552632Y-68524315D01*
X172490288Y-68556609D01*
X172253972Y-68462078D01*
X172184117Y-68364536D01*
X172143339Y-68123792D01*
X172155495Y-68055018D01*
X172254014Y-67939581D01*
X172517290Y-67657424D01*
X172926254Y-67228310D01*
X173461838Y-66672003D01*
X174104971Y-66008266D01*
X174836585Y-65256863D01*
X175637612Y-64437557D01*
X176145990Y-63919181D01*
X180091403Y-59900789D01*
X180492569Y-60144753D01*
G37*
G36*
X182351524Y-61577982D02*
G01*
X182571683Y-61774366D01*
X182603742Y-61807866D01*
X182910370Y-62134257D01*
X180226340Y-64919918D01*
X178844418Y-66356359D01*
X177622898Y-67631010D01*
X176538386Y-68768592D01*
X175567489Y-69793829D01*
X174686813Y-70731445D01*
X173872965Y-71606162D01*
X173102550Y-72442704D01*
X172937378Y-72623185D01*
X172277188Y-73344202D01*
X171768646Y-73893168D01*
X171386928Y-74291489D01*
X171107210Y-74560573D01*
X170904666Y-74721825D01*
X170754472Y-74796651D01*
X170631803Y-74806457D01*
X170511835Y-74772651D01*
X170465783Y-74754434D01*
X170308129Y-74576556D01*
X170342659Y-74280164D01*
X170555532Y-73908371D01*
X170839168Y-73591170D01*
X171107998Y-73322462D01*
X171533008Y-72885385D01*
X172092097Y-72303361D01*
X172763162Y-71599812D01*
X173524102Y-70798159D01*
X174352814Y-69921825D01*
X175227197Y-68994230D01*
X176125148Y-68038798D01*
X177024566Y-67078950D01*
X177903348Y-66138108D01*
X178739393Y-65239694D01*
X179510599Y-64407129D01*
X179728940Y-64170526D01*
X180366921Y-63480200D01*
X180947282Y-62855490D01*
X181446341Y-62321623D01*
X181840419Y-61903826D01*
X182105834Y-61627327D01*
X182218907Y-61517353D01*
X182220037Y-61516722D01*
X182351524Y-61577982D01*
G37*
G36*
X129821218Y-102139339D02*
G01*
X130197365Y-102231837D01*
X130763931Y-102384993D01*
X131491057Y-102590401D01*
X132348886Y-102839658D01*
X133307558Y-103124359D01*
X134116894Y-103368904D01*
X135218469Y-103702369D01*
X136514957Y-104091752D01*
X137949722Y-104520224D01*
X139466128Y-104970961D01*
X141007540Y-105427135D01*
X142517322Y-105871920D01*
X143938838Y-106288488D01*
X144218846Y-106370226D01*
X145402504Y-106716585D01*
X146508090Y-107042211D01*
X147510387Y-107339524D01*
X148384177Y-107600946D01*
X149104245Y-107818897D01*
X149645372Y-107985798D01*
X149982342Y-108094071D01*
X150089941Y-108134804D01*
X150062158Y-108270423D01*
X149947597Y-108617713D01*
X149757735Y-109145622D01*
X149504050Y-109823100D01*
X149198019Y-110619095D01*
X148851121Y-111502556D01*
X148764588Y-111720315D01*
X148368917Y-112715304D01*
X147972288Y-113715510D01*
X147594561Y-114670649D01*
X147255594Y-115530436D01*
X146975245Y-116244588D01*
X146782955Y-116738052D01*
X146536605Y-117368610D01*
X146304192Y-117953117D01*
X146112836Y-118423981D01*
X145994906Y-118701969D01*
X145847951Y-119051613D01*
X145651652Y-119546590D01*
X145445916Y-120086055D01*
X145425018Y-120142176D01*
X144837644Y-121700972D01*
X144198896Y-123355133D01*
X143523303Y-125069559D01*
X142825396Y-126809148D01*
X142119704Y-128538796D01*
X141420756Y-130223402D01*
X140743083Y-131827864D01*
X140101213Y-133317081D01*
X139509676Y-134655949D01*
X138983002Y-135809368D01*
X138650725Y-136508155D01*
X137653969Y-138468705D01*
X136686622Y-140184435D01*
X135736902Y-141669116D01*
X134793026Y-142936525D01*
X133843212Y-144000435D01*
X132875677Y-144874620D01*
X131878640Y-145572854D01*
X130840318Y-146108912D01*
X130238206Y-146342786D01*
X129560390Y-146511155D01*
X128692162Y-146627452D01*
X127699968Y-146690523D01*
X126650253Y-146699212D01*
X125609464Y-146652364D01*
X124644047Y-146548825D01*
X124084598Y-146449761D01*
X121854923Y-145856681D01*
X119779980Y-145063732D01*
X117867870Y-144075121D01*
X116126696Y-142895054D01*
X114564557Y-141527735D01*
X114523473Y-141486796D01*
X113446199Y-140302956D01*
X112606664Y-139137057D01*
X111985124Y-137959385D01*
X111719099Y-137266315D01*
X111400621Y-136076893D01*
X111398198Y-136053136D01*
X114166107Y-136053136D01*
X114238497Y-136892534D01*
X114517787Y-137778674D01*
X114996828Y-138684410D01*
X115668474Y-139582598D01*
X116098000Y-140044200D01*
X116997799Y-140865251D01*
X118006303Y-141625517D01*
X119171170Y-142357285D01*
X120540061Y-143092843D01*
X120760333Y-143202728D01*
X121928617Y-143756688D01*
X122925627Y-144172660D01*
X123794118Y-144463517D01*
X124576848Y-144642129D01*
X125316574Y-144721370D01*
X125817013Y-144725056D01*
X126376192Y-144702752D01*
X126744671Y-144662630D01*
X126993592Y-144584519D01*
X127194099Y-144448248D01*
X127365123Y-144286135D01*
X127723456Y-143802026D01*
X127861016Y-143266550D01*
X127779785Y-142646356D01*
X127503893Y-141952633D01*
X126940009Y-141034110D01*
X126181884Y-140189034D01*
X125211536Y-139402234D01*
X124010986Y-138658535D01*
X122978652Y-138134021D01*
X121883706Y-137667541D01*
X120921303Y-137359753D01*
X120106616Y-137212741D01*
X119454816Y-137228591D01*
X118981075Y-137409388D01*
X118816090Y-137561835D01*
X118598227Y-138012903D01*
X118632868Y-138506284D01*
X118915891Y-139032226D01*
X119443171Y-139580975D01*
X119784037Y-139851248D01*
X120411956Y-140251052D01*
X120906035Y-140426914D01*
X121267709Y-140379103D01*
X121470740Y-140165355D01*
X121517478Y-139821714D01*
X121312201Y-139453150D01*
X120862188Y-139071250D01*
X120729443Y-138985589D01*
X120444097Y-138778590D01*
X120388348Y-138661556D01*
X120544716Y-138637719D01*
X120895724Y-138710316D01*
X121377348Y-138865708D01*
X122268064Y-139228779D01*
X123173935Y-139672776D01*
X124010826Y-140152411D01*
X124694603Y-140622398D01*
X124804701Y-140710525D01*
X125291798Y-141160893D01*
X125758610Y-141675815D01*
X126155319Y-142192348D01*
X126432110Y-142647553D01*
X126524946Y-142883992D01*
X126514721Y-143239884D01*
X126288831Y-143477750D01*
X125866362Y-143595588D01*
X125266396Y-143591399D01*
X124508017Y-143463180D01*
X123610309Y-143208932D01*
X123566048Y-143194196D01*
X122165144Y-142653093D01*
X120812635Y-141993571D01*
X119542731Y-141240409D01*
X118389640Y-140418390D01*
X117387572Y-139552294D01*
X116570736Y-138666901D01*
X115973341Y-137786992D01*
X115894794Y-137637190D01*
X115562447Y-136821394D01*
X115451823Y-136144896D01*
X115563312Y-135607060D01*
X115897307Y-135207250D01*
X116454200Y-134944829D01*
X117234383Y-134819161D01*
X117639051Y-134807010D01*
X118885978Y-134914199D01*
X120236315Y-135220135D01*
X121649159Y-135705067D01*
X123083608Y-136349242D01*
X124498760Y-137132909D01*
X125853710Y-138036315D01*
X127107558Y-139039709D01*
X127851407Y-139738630D01*
X128313020Y-140193091D01*
X128715543Y-140570834D01*
X129020341Y-140836929D01*
X129188778Y-140956446D01*
X129202025Y-140959701D01*
X129420667Y-140902419D01*
X129592174Y-140824167D01*
X129806006Y-140590084D01*
X129809300Y-140248215D01*
X129621185Y-139816566D01*
X129260785Y-139313138D01*
X128747229Y-138755936D01*
X128099644Y-138162964D01*
X127337155Y-137552224D01*
X126478890Y-136941722D01*
X125543975Y-136349460D01*
X124551538Y-135793442D01*
X123902246Y-135468369D01*
X122042962Y-134674989D01*
X120284735Y-134118215D01*
X118620492Y-133796166D01*
X117276350Y-133705581D01*
X116380599Y-133748012D01*
X115684317Y-133897087D01*
X115141193Y-134169113D01*
X114704915Y-134580398D01*
X114670614Y-134623141D01*
X114307764Y-135287623D01*
X114166107Y-136053136D01*
X111398198Y-136053136D01*
X111289630Y-134988561D01*
X111388646Y-133939442D01*
X111700190Y-132867663D01*
X111919747Y-132340721D01*
X112090308Y-131981143D01*
X112277606Y-131632043D01*
X112504289Y-131260721D01*
X112793005Y-130834477D01*
X113166401Y-130320611D01*
X113647125Y-129686423D01*
X114257825Y-128899213D01*
X114650679Y-128397633D01*
X115127662Y-127788946D01*
X115565830Y-127227949D01*
X115931901Y-126757395D01*
X116192591Y-126420036D01*
X116294391Y-126286241D01*
X116459282Y-126066892D01*
X116750123Y-125681592D01*
X117134640Y-125173038D01*
X117580556Y-124583924D01*
X117930989Y-124121344D01*
X120322540Y-120809344D01*
X122496759Y-117474295D01*
X124446114Y-114130156D01*
X126163070Y-110790892D01*
X127640092Y-107470463D01*
X128869648Y-104182831D01*
X129148010Y-103334693D01*
X129324733Y-102821029D01*
X129490628Y-102410306D01*
X129620654Y-102161523D01*
X129665348Y-102115902D01*
X129821218Y-102139339D01*
G37*
D10*
%TO.C,D7*%
X125727500Y-129765000D02*
X125727500Y-131235000D01*
X125727500Y-131235000D02*
X128012500Y-131235000D01*
X128012500Y-129765000D02*
X125727500Y-129765000D01*
%TO.C,D2*%
X138715000Y-78090000D02*
X138715000Y-80010000D01*
X138715000Y-80010000D02*
X141400000Y-80010000D01*
X141400000Y-78090000D02*
X138715000Y-78090000D01*
%TO.C,D6*%
X134365000Y-113115000D02*
X134365000Y-114585000D01*
X134365000Y-114585000D02*
X136650000Y-114585000D01*
X136650000Y-113115000D02*
X134365000Y-113115000D01*
%TO.C,D4*%
X137992500Y-60965000D02*
X137992500Y-62435000D01*
X137992500Y-62435000D02*
X140277500Y-62435000D01*
X140277500Y-60965000D02*
X137992500Y-60965000D01*
%TD*%
%LPC*%
D12*
%TO.C,D5*%
X169490000Y-69400000D03*
X171065000Y-69400000D03*
%TD*%
D13*
%TO.C,D3*%
X156612500Y-83650000D03*
X158487500Y-83650000D03*
%TD*%
%TO.C,D1*%
X142375000Y-96750000D03*
X144250000Y-96750000D03*
%TD*%
D12*
%TO.C,D7*%
X126425000Y-130500000D03*
X128000000Y-130500000D03*
%TD*%
D13*
%TO.C,D2*%
X139462500Y-79050000D03*
X141337500Y-79050000D03*
%TD*%
D12*
%TO.C,D6*%
X135062500Y-113850000D03*
X136637500Y-113850000D03*
%TD*%
%TO.C,D4*%
X138690000Y-61700000D03*
X140265000Y-61700000D03*
%TD*%
D14*
%TO.C,J1*%
X121503015Y-135254072D03*
D15*
X123750000Y-136350000D03*
X125996985Y-137445928D03*
%TD*%
%LPD*%
M02*
