%TF.GenerationSoftware,KiCad,Pcbnew,9.0.6*%
%TF.CreationDate,2026-03-17T22:06:48+09:00*%
%TF.ProjectId,HW-LEEK-001,48572d4c-4545-44b2-9d30-30312e6b6963,rev?*%
%TF.SameCoordinates,Original*%
%TF.FileFunction,Copper,L1,Top*%
%TF.FilePolarity,Positive*%
%FSLAX46Y46*%
G04 Gerber Fmt 4.6, Leading zero omitted, Abs format (unit mm)*
G04 Created by KiCad (PCBNEW 9.0.6) date 2026-03-17 22:06:48*
%MOMM*%
%LPD*%
G01*
G04 APERTURE LIST*
G04 Aperture macros list*
%AMRoundRect*
0 Rectangle with rounded corners*
0 $1 Rounding radius*
0 $2 $3 $4 $5 $6 $7 $8 $9 X,Y pos of 4 corners*
0 Add a 4 corners polygon primitive as box body*
4,1,4,$2,$3,$4,$5,$6,$7,$8,$9,$2,$3,0*
0 Add four circle primitives for the rounded corners*
1,1,$1+$1,$2,$3*
1,1,$1+$1,$4,$5*
1,1,$1+$1,$6,$7*
1,1,$1+$1,$8,$9*
0 Add four rect primitives between the rounded corners*
20,1,$1+$1,$2,$3,$4,$5,0*
20,1,$1+$1,$4,$5,$6,$7,0*
20,1,$1+$1,$6,$7,$8,$9,0*
20,1,$1+$1,$8,$9,$2,$3,0*%
%AMHorizOval*
0 Thick line with rounded ends*
0 $1 width*
0 $2 $3 position (X,Y) of the first rounded end (center of the circle)*
0 $4 $5 position (X,Y) of the second rounded end (center of the circle)*
0 Add line between two ends*
20,1,$1,$2,$3,$4,$5,0*
0 Add two circle primitives to create the rounded ends*
1,1,$1,$2,$3*
1,1,$1,$4,$5*%
G04 Aperture macros list end*
%TA.AperFunction,SMDPad,CuDef*%
%ADD10RoundRect,0.243750X-0.243750X-0.456250X0.243750X-0.456250X0.243750X0.456250X-0.243750X0.456250X0*%
%TD*%
%TA.AperFunction,SMDPad,CuDef*%
%ADD11RoundRect,0.243750X0.243750X0.456250X-0.243750X0.456250X-0.243750X-0.456250X0.243750X-0.456250X0*%
%TD*%
%TA.AperFunction,ComponentPad*%
%ADD12RoundRect,0.250000X-0.857096X-0.388603X0.221457X-0.914648X0.857096X0.388603X-0.221457X0.914648X0*%
%TD*%
%TA.AperFunction,ComponentPad*%
%ADD13HorizOval,1.700000X-0.054796X-0.112349X0.054796X0.112349X0*%
%TD*%
%TA.AperFunction,ViaPad*%
%ADD14C,0.600000*%
%TD*%
%TA.AperFunction,Conductor*%
%ADD15C,0.200000*%
%TD*%
G04 APERTURE END LIST*
D10*
%TO.P,D5,1,K*%
%TO.N,Net-(D5-K)*%
X169340000Y-69400000D03*
%TO.P,D5,2,A*%
%TO.N,/GREEN_GROUP_1*%
X171215000Y-69400000D03*
%TD*%
%TO.P,D3,1,K*%
%TO.N,Net-(D3-K)*%
X156612500Y-83650000D03*
%TO.P,D3,2,A*%
%TO.N,/GREEN_GROUP_2*%
X158487500Y-83650000D03*
%TD*%
D11*
%TO.P,D1,1,K*%
%TO.N,Net-(D1-K)*%
X144250000Y-96750000D03*
%TO.P,D1,2,A*%
%TO.N,/GREEN_GROUP_2*%
X142375000Y-96750000D03*
%TD*%
D10*
%TO.P,D7,1,K*%
%TO.N,Net-(D7-K)*%
X126275000Y-130500000D03*
%TO.P,D7,2,A*%
%TO.N,/WHITE_GROUP_2*%
X128150000Y-130500000D03*
%TD*%
%TO.P,D2,1,K*%
%TO.N,Net-(D2-K)*%
X139462500Y-79050000D03*
%TO.P,D2,2,A*%
%TO.N,/GREEN_GROUP_2*%
X141337500Y-79050000D03*
%TD*%
%TO.P,D6,1,K*%
%TO.N,Net-(D6-K)*%
X134912500Y-113850000D03*
%TO.P,D6,2,A*%
%TO.N,/WHITE_GROUP_1*%
X136787500Y-113850000D03*
%TD*%
%TO.P,D4,1,K*%
%TO.N,Net-(D4-K)*%
X138540000Y-61700000D03*
%TO.P,D4,2,A*%
%TO.N,/GREEN_GROUP_1*%
X140415000Y-61700000D03*
%TD*%
D12*
%TO.P,J1,1,Pin_1*%
%TO.N,GND*%
X121503015Y-135254072D03*
D13*
%TO.P,J1,2,Pin_2*%
%TO.N,+3V0*%
X123750000Y-136350000D03*
%TO.P,J1,3,Pin_3*%
%TO.N,/UPDI*%
X125996985Y-137445928D03*
%TD*%
D14*
%TO.N,GND*%
X135700000Y-116775000D03*
X132875000Y-105850000D03*
X134476000Y-105850000D03*
X137550000Y-116775000D03*
%TO.N,/BATT+*%
X123375000Y-123050000D03*
X139394201Y-126321423D03*
%TO.N,/GREEN_GROUP_2*%
X142375000Y-96750000D03*
%TO.N,Net-(D2-K)*%
X139462500Y-79050000D03*
%TO.N,Net-(D3-K)*%
X156612500Y-83650000D03*
%TO.N,Net-(D4-K)*%
X138690000Y-61700000D03*
%TO.N,Net-(D5-K)*%
X169490000Y-69400000D03*
%TO.N,Net-(D6-K)*%
X135062500Y-113850000D03*
%TO.N,Net-(D7-K)*%
X126425000Y-130500000D03*
%TO.N,/UPDI*%
X126975000Y-135575000D03*
X144375000Y-116475000D03*
%TO.N,/GREEN_GROUP_2*%
X141337500Y-79050000D03*
X158487500Y-83650000D03*
%TO.N,Net-(D1-K)*%
X144250000Y-96750000D03*
%TO.N,/GREEN_GROUP_1*%
X140265000Y-61700000D03*
X171065000Y-69400000D03*
%TO.N,/WHITE_GROUP_1*%
X145777999Y-107625000D03*
X147175000Y-108975000D03*
X136637500Y-113850000D03*
%TO.N,/WHITE_GROUP_2*%
X143202235Y-109352235D03*
X128000000Y-130500000D03*
X144038263Y-110213265D03*
%TD*%
D15*
%TO.N,/WHITE_GROUP_1*%
X145827999Y-107625000D02*
X145777999Y-107625000D01*
X146227999Y-108025000D02*
X145827999Y-107625000D01*
X146227999Y-108027999D02*
X146227999Y-108025000D01*
X147175000Y-108975000D02*
X146227999Y-108027999D01*
%TO.N,GND*%
X134476000Y-105850000D02*
X132875000Y-105850000D01*
X135700000Y-116775000D02*
X137550000Y-116775000D01*
%TO.N,/BATT+*%
X139372778Y-126300000D02*
X139394201Y-126321423D01*
X126625000Y-126300000D02*
X139372778Y-126300000D01*
X123375000Y-123050000D02*
X126625000Y-126300000D01*
%TO.N,/UPDI*%
X144375000Y-116475000D02*
X139995201Y-120854799D01*
X139995201Y-120854799D02*
X139995201Y-126570366D01*
X130990567Y-135575000D02*
X126975000Y-135575000D01*
X139995201Y-126570366D02*
X130990567Y-135575000D01*
%TO.N,/WHITE_GROUP_2*%
X144038263Y-110213265D02*
X144038263Y-110188263D01*
X144038263Y-110188263D02*
X143202235Y-109352235D01*
%TD*%
%TA.AperFunction,Conductor*%
%TO.N,+3V0*%
G36*
X139797327Y-50964406D02*
G01*
X140353950Y-50975178D01*
X140357675Y-50975307D01*
X140883847Y-51001508D01*
X140887631Y-51001755D01*
X140953375Y-51007049D01*
X141676687Y-51065297D01*
X141680513Y-51065667D01*
X142402148Y-51146975D01*
X142406833Y-51147595D01*
X143069402Y-51248448D01*
X143074925Y-51249418D01*
X143688047Y-51371685D01*
X143694264Y-51373093D01*
X144267696Y-51518683D01*
X144274331Y-51520567D01*
X144777680Y-51678824D01*
X144818223Y-51691572D01*
X144824959Y-51693905D01*
X145349598Y-51892650D01*
X145355995Y-51895280D01*
X145868950Y-52123123D01*
X145876704Y-52126896D01*
X146415842Y-52412948D01*
X146427959Y-52420294D01*
X146851289Y-52711303D01*
X146865549Y-52722743D01*
X147075254Y-52918078D01*
X147202624Y-53036720D01*
X147215876Y-53051184D01*
X147498318Y-53413238D01*
X147507052Y-53426003D01*
X147635866Y-53642030D01*
X147708379Y-53763639D01*
X147732550Y-53804174D01*
X147740699Y-53820449D01*
X147865809Y-54124167D01*
X147896893Y-54199625D01*
X147902942Y-54218446D01*
X148011017Y-54677651D01*
X148013442Y-54691370D01*
X148087359Y-55310948D01*
X148088004Y-55318129D01*
X148139214Y-56162304D01*
X148139409Y-56166962D01*
X148143508Y-56345231D01*
X148143540Y-56348480D01*
X148142758Y-56591696D01*
X148142741Y-56593411D01*
X148137553Y-56897680D01*
X148137533Y-56898642D01*
X148128584Y-57259298D01*
X148128570Y-57259828D01*
X148116546Y-57673114D01*
X148116538Y-57673368D01*
X148102166Y-58134856D01*
X148102164Y-58134918D01*
X148089352Y-58539807D01*
X148087338Y-58603437D01*
X148087310Y-58603501D01*
X148086063Y-58643720D01*
X148084436Y-58695138D01*
X148084460Y-58695479D01*
X148070635Y-59141659D01*
X148070262Y-59153717D01*
X148070195Y-59153869D01*
X148069023Y-59193723D01*
X148069022Y-59193761D01*
X148067438Y-59244904D01*
X148067494Y-59245725D01*
X148063677Y-59375592D01*
X148052873Y-59743127D01*
X148052773Y-59743353D01*
X148051702Y-59782940D01*
X148051701Y-59782988D01*
X148051696Y-59783178D01*
X148051687Y-59783468D01*
X148050206Y-59833830D01*
X148050292Y-59835064D01*
X148036202Y-60356186D01*
X148035870Y-60368481D01*
X148035743Y-60368769D01*
X148034799Y-60408071D01*
X148034799Y-60408079D01*
X148033426Y-60458880D01*
X148033541Y-60460472D01*
X148021284Y-60971249D01*
X148019956Y-61026583D01*
X148019803Y-61026934D01*
X148019002Y-61066303D01*
X148018992Y-61066726D01*
X148017792Y-61116747D01*
X148017937Y-61118657D01*
X148007663Y-61624002D01*
X148005828Y-61714273D01*
X148005652Y-61714681D01*
X148005020Y-61753936D01*
X148005010Y-61754470D01*
X148004000Y-61804150D01*
X148004178Y-61806366D01*
X147998093Y-62185056D01*
X147994183Y-62428372D01*
X147993985Y-62428837D01*
X147993544Y-62468033D01*
X147993538Y-62468460D01*
X147992744Y-62517952D01*
X147992956Y-62520465D01*
X147986539Y-63092638D01*
X147985719Y-63165712D01*
X147985499Y-63166236D01*
X147985272Y-63205457D01*
X147985267Y-63205970D01*
X147984716Y-63255069D01*
X147984970Y-63257884D01*
X147981204Y-63910679D01*
X147981204Y-63910680D01*
X147981132Y-63923133D01*
X147980892Y-63923715D01*
X147980902Y-63962810D01*
X147980900Y-63963323D01*
X147980619Y-64012191D01*
X147980918Y-64015314D01*
X147981113Y-64667523D01*
X147981122Y-64697464D01*
X147980859Y-64698113D01*
X147981132Y-64737209D01*
X147981133Y-64737793D01*
X147981134Y-64737794D01*
X147981149Y-64786229D01*
X147981500Y-64789671D01*
X147985994Y-65430322D01*
X147986381Y-65485554D01*
X147986096Y-65486272D01*
X147986658Y-65525293D01*
X147986662Y-65525841D01*
X147986663Y-65525849D01*
X147987001Y-65574018D01*
X147987416Y-65577806D01*
X147997422Y-66271689D01*
X147997603Y-66284243D01*
X147997297Y-66285036D01*
X147998178Y-66324062D01*
X147998186Y-66324579D01*
X147998186Y-66324595D01*
X147998875Y-66372339D01*
X147999363Y-66376502D01*
X148014929Y-67065486D01*
X148015492Y-67090378D01*
X148015162Y-67091254D01*
X148016386Y-67130030D01*
X148016402Y-67130710D01*
X148016403Y-67130736D01*
X148017474Y-67178101D01*
X148018049Y-67182669D01*
X148040339Y-67888159D01*
X148040339Y-67888160D01*
X148040738Y-67900807D01*
X148040385Y-67901775D01*
X148041989Y-67940439D01*
X148042012Y-67941144D01*
X148042014Y-67941175D01*
X148043498Y-67988096D01*
X148044176Y-67993104D01*
X148073515Y-68699662D01*
X148074043Y-68712382D01*
X148073664Y-68713454D01*
X148075690Y-68752072D01*
X148075725Y-68752893D01*
X148075726Y-68752902D01*
X148077647Y-68799169D01*
X148078451Y-68804673D01*
X148115433Y-69509207D01*
X148115432Y-69509207D01*
X148116101Y-69521962D01*
X148115698Y-69523152D01*
X148118184Y-69561614D01*
X148118228Y-69562449D01*
X148118228Y-69562450D01*
X148120630Y-69608200D01*
X148121585Y-69614251D01*
X148166789Y-70313569D01*
X148166789Y-70313572D01*
X148167618Y-70326408D01*
X148167187Y-70327734D01*
X148170177Y-70366023D01*
X148170233Y-70366877D01*
X148173152Y-70412020D01*
X148174292Y-70418687D01*
X148229290Y-71122587D01*
X148228832Y-71124072D01*
X148232385Y-71162220D01*
X148232458Y-71163142D01*
X148232461Y-71163173D01*
X148235924Y-71207491D01*
X148237290Y-71214846D01*
X148300610Y-71894380D01*
X148300610Y-71894381D01*
X148301821Y-71907382D01*
X148301338Y-71909046D01*
X148305502Y-71946899D01*
X148305601Y-71947951D01*
X148305607Y-71948005D01*
X148309657Y-71991454D01*
X148311301Y-71999592D01*
X148384479Y-72664556D01*
X148384479Y-72664559D01*
X148385921Y-72677669D01*
X148385413Y-72679549D01*
X148390268Y-72717183D01*
X148390401Y-72718386D01*
X148395067Y-72760778D01*
X148397061Y-72769812D01*
X148419232Y-72941620D01*
X148482301Y-73430356D01*
X148481773Y-73432488D01*
X148487390Y-73469790D01*
X148487558Y-73471089D01*
X148487558Y-73471090D01*
X148492879Y-73512323D01*
X148495310Y-73522389D01*
X148587901Y-74137223D01*
X148591685Y-74162350D01*
X148591143Y-74164783D01*
X148597609Y-74201694D01*
X148597832Y-74203173D01*
X148603831Y-74243007D01*
X148606815Y-74254237D01*
X148667972Y-74603306D01*
X148714800Y-74870585D01*
X148714258Y-74873379D01*
X148721659Y-74909739D01*
X148721955Y-74911427D01*
X148728657Y-74949673D01*
X148732351Y-74962270D01*
X148777672Y-75184914D01*
X148852399Y-75552021D01*
X148851877Y-75555249D01*
X148860327Y-75590974D01*
X148860718Y-75592893D01*
X148860717Y-75592895D01*
X148868119Y-75629253D01*
X148872736Y-75643434D01*
X149001623Y-76188291D01*
X149001622Y-76188291D01*
X149006097Y-76207209D01*
X149005441Y-76214628D01*
X149015220Y-76245772D01*
X149016248Y-76250115D01*
X149016252Y-76250129D01*
X149022746Y-76277581D01*
X149027411Y-76287791D01*
X149032931Y-76302175D01*
X149539263Y-77914637D01*
X149572318Y-78019902D01*
X149574139Y-78038767D01*
X149584151Y-78057588D01*
X149587590Y-78068539D01*
X149590538Y-78077927D01*
X149590538Y-78077928D01*
X149594385Y-78082523D01*
X149608775Y-78103879D01*
X149709186Y-78292631D01*
X150185498Y-79188009D01*
X150185497Y-79188009D01*
X150193895Y-79203795D01*
X150196101Y-79214536D01*
X150212478Y-79238727D01*
X150215580Y-79244556D01*
X150215581Y-79244558D01*
X150226206Y-79264531D01*
X150233936Y-79273988D01*
X150233673Y-79274202D01*
X150244697Y-79286314D01*
X150264247Y-79315190D01*
X150371604Y-79473759D01*
X150387213Y-79501405D01*
X150393824Y-79506579D01*
X150398530Y-79513530D01*
X150398529Y-79513530D01*
X150420823Y-79528230D01*
X150428992Y-79534106D01*
X150456347Y-79555517D01*
X150562050Y-79638253D01*
X150565227Y-79643201D01*
X150593302Y-79662714D01*
X150620231Y-79683792D01*
X150620235Y-79683793D01*
X150624914Y-79686157D01*
X150625129Y-79686285D01*
X150625912Y-79686626D01*
X150625913Y-79686627D01*
X150630724Y-79688724D01*
X150660690Y-79695257D01*
X150667513Y-79696949D01*
X150697075Y-79705177D01*
X150697079Y-79705176D01*
X150702319Y-79705571D01*
X150719437Y-79708068D01*
X150802985Y-79726286D01*
X150802984Y-79726286D01*
X150812308Y-79728319D01*
X150819545Y-79729897D01*
X150824577Y-79732985D01*
X150858317Y-79738351D01*
X150861765Y-79739103D01*
X150861769Y-79739103D01*
X150891710Y-79745633D01*
X150891714Y-79745632D01*
X150897028Y-79745730D01*
X150897531Y-79745774D01*
X150898032Y-79745720D01*
X150903344Y-79745514D01*
X150903350Y-79745515D01*
X150933174Y-79738374D01*
X150940029Y-79736938D01*
X150970213Y-79731509D01*
X150970216Y-79731506D01*
X150975173Y-79729559D01*
X150991658Y-79724374D01*
X151130414Y-79691159D01*
X151161729Y-79686323D01*
X151168951Y-79681933D01*
X151174603Y-79680581D01*
X151177174Y-79679966D01*
X151198733Y-79664323D01*
X151207138Y-79658735D01*
X151387957Y-79548882D01*
X151406077Y-79542460D01*
X151421711Y-79528375D01*
X151439696Y-79517449D01*
X151443506Y-79512245D01*
X151460543Y-79493390D01*
X151638481Y-79333091D01*
X151649012Y-79327950D01*
X151667874Y-79306612D01*
X151689036Y-79287548D01*
X151689039Y-79287541D01*
X151696341Y-79277758D01*
X151696421Y-79277818D01*
X151705610Y-79263922D01*
X151891845Y-79053245D01*
X151898229Y-79049544D01*
X151918106Y-79023538D01*
X151939787Y-78999012D01*
X151939789Y-78999004D01*
X151945281Y-78989579D01*
X151953909Y-78976695D01*
X152153653Y-78715367D01*
X152157641Y-78712805D01*
X152177776Y-78683807D01*
X152199214Y-78655760D01*
X152199215Y-78655753D01*
X152199816Y-78654531D01*
X152209277Y-78638440D01*
X152426862Y-78325088D01*
X152429354Y-78323383D01*
X152449547Y-78292418D01*
X152470634Y-78262051D01*
X152470634Y-78262050D01*
X152472306Y-78259643D01*
X152478879Y-78247440D01*
X152713149Y-77888215D01*
X152714634Y-77887160D01*
X152734905Y-77854853D01*
X152755726Y-77822928D01*
X152755726Y-77822925D01*
X152759093Y-77817763D01*
X152763035Y-77810023D01*
X152787537Y-77770975D01*
X153013582Y-77410734D01*
X153014336Y-77410189D01*
X153034780Y-77376951D01*
X153055485Y-77343956D01*
X153055485Y-77343953D01*
X153060256Y-77336351D01*
X153062272Y-77332257D01*
X153243284Y-77037984D01*
X153328910Y-76898781D01*
X153329089Y-76898652D01*
X153349696Y-76864989D01*
X153370585Y-76831031D01*
X153370585Y-76831029D01*
X153376580Y-76821284D01*
X153377070Y-76820272D01*
X153680502Y-76324618D01*
X154027219Y-75762783D01*
X154027624Y-75762133D01*
X154390434Y-75185466D01*
X154391241Y-75184205D01*
X154391753Y-75183416D01*
X154770458Y-74599079D01*
X154771642Y-74597287D01*
X155167762Y-74009755D01*
X155169291Y-74007543D01*
X155582392Y-73424253D01*
X155584405Y-73421494D01*
X156014750Y-72848760D01*
X156017267Y-72845525D01*
X156464943Y-72289824D01*
X156468071Y-72286097D01*
X156935897Y-71750695D01*
X156937519Y-71748877D01*
X157597230Y-71025791D01*
X157597404Y-71025710D01*
X157624132Y-70996305D01*
X157650861Y-70967009D01*
X157650861Y-70967007D01*
X157658658Y-70958462D01*
X157659232Y-70957690D01*
X158241218Y-70317432D01*
X158241413Y-70317340D01*
X158267900Y-70288077D01*
X158268027Y-70287939D01*
X158302486Y-70250031D01*
X158303134Y-70249154D01*
X158843224Y-69652511D01*
X158843444Y-69652407D01*
X158870135Y-69622782D01*
X158896593Y-69593555D01*
X158896593Y-69593552D01*
X158904277Y-69585065D01*
X158904996Y-69584089D01*
X159406306Y-69027702D01*
X159406548Y-69027587D01*
X159432957Y-68998124D01*
X159459519Y-68968644D01*
X159459519Y-68968642D01*
X159467111Y-68960217D01*
X159467909Y-68959129D01*
X159509206Y-68913057D01*
X159526159Y-68894144D01*
X168352000Y-68894144D01*
X168352000Y-69905855D01*
X168362413Y-70007776D01*
X168417137Y-70172922D01*
X168417142Y-70172933D01*
X168508471Y-70320999D01*
X168508474Y-70321003D01*
X168631496Y-70444025D01*
X168631500Y-70444028D01*
X168779566Y-70535357D01*
X168779569Y-70535358D01*
X168779575Y-70535362D01*
X168944725Y-70590087D01*
X169046652Y-70600500D01*
X169046657Y-70600500D01*
X169633343Y-70600500D01*
X169633348Y-70600500D01*
X169735275Y-70590087D01*
X169900425Y-70535362D01*
X170048503Y-70444026D01*
X170171526Y-70321003D01*
X170171958Y-70320301D01*
X170172381Y-70319921D01*
X170176007Y-70315336D01*
X170176790Y-70315955D01*
X170223902Y-70273575D01*
X170292864Y-70262349D01*
X170356948Y-70290188D01*
X170378842Y-70315455D01*
X170378993Y-70315336D01*
X170381643Y-70318687D01*
X170383040Y-70320299D01*
X170383472Y-70320999D01*
X170383475Y-70321004D01*
X170506496Y-70444025D01*
X170506500Y-70444028D01*
X170654566Y-70535357D01*
X170654569Y-70535358D01*
X170654575Y-70535362D01*
X170819725Y-70590087D01*
X170921652Y-70600500D01*
X170921657Y-70600500D01*
X171508343Y-70600500D01*
X171508348Y-70600500D01*
X171610275Y-70590087D01*
X171775425Y-70535362D01*
X171923503Y-70444026D01*
X172046526Y-70321003D01*
X172137862Y-70172925D01*
X172192587Y-70007775D01*
X172203000Y-69905848D01*
X172203000Y-68894152D01*
X172192587Y-68792225D01*
X172137862Y-68627075D01*
X172137858Y-68627069D01*
X172137857Y-68627066D01*
X172046528Y-68479000D01*
X172046525Y-68478996D01*
X171923503Y-68355974D01*
X171923499Y-68355971D01*
X171775433Y-68264642D01*
X171775427Y-68264639D01*
X171775425Y-68264638D01*
X171775422Y-68264637D01*
X171610276Y-68209913D01*
X171508355Y-68199500D01*
X171508348Y-68199500D01*
X170921652Y-68199500D01*
X170921644Y-68199500D01*
X170819723Y-68209913D01*
X170654577Y-68264637D01*
X170654566Y-68264642D01*
X170506500Y-68355971D01*
X170506496Y-68355974D01*
X170383474Y-68478996D01*
X170383471Y-68479000D01*
X170383038Y-68479703D01*
X170382614Y-68480083D01*
X170378993Y-68484664D01*
X170378210Y-68484045D01*
X170331090Y-68526428D01*
X170262128Y-68537649D01*
X170198046Y-68509806D01*
X170176157Y-68484544D01*
X170176007Y-68484664D01*
X170173359Y-68481315D01*
X170171962Y-68479703D01*
X170171528Y-68479000D01*
X170171525Y-68478996D01*
X170048503Y-68355974D01*
X170048499Y-68355971D01*
X169900433Y-68264642D01*
X169900427Y-68264639D01*
X169900425Y-68264638D01*
X169900422Y-68264637D01*
X169735276Y-68209913D01*
X169633355Y-68199500D01*
X169633348Y-68199500D01*
X169046652Y-68199500D01*
X169046644Y-68199500D01*
X168944723Y-68209913D01*
X168779577Y-68264637D01*
X168779566Y-68264642D01*
X168631500Y-68355971D01*
X168631496Y-68355974D01*
X168508474Y-68478996D01*
X168508471Y-68479000D01*
X168417142Y-68627066D01*
X168417137Y-68627077D01*
X168362413Y-68792223D01*
X168352000Y-68894144D01*
X159526159Y-68894144D01*
X159933507Y-68439695D01*
X159933776Y-68439566D01*
X159960317Y-68409785D01*
X159986551Y-68380519D01*
X159986551Y-68380517D01*
X159994028Y-68372177D01*
X159994905Y-68370976D01*
X160427885Y-67885163D01*
X160428177Y-67885022D01*
X160454496Y-67855305D01*
X160480742Y-67825858D01*
X160480742Y-67825857D01*
X160488136Y-67817562D01*
X160489083Y-67816254D01*
X160892487Y-67360793D01*
X160892800Y-67360640D01*
X160918875Y-67331000D01*
X160945142Y-67301344D01*
X160945142Y-67301342D01*
X160952454Y-67293088D01*
X160953483Y-67291660D01*
X161330359Y-66863269D01*
X161330692Y-66863104D01*
X161356637Y-66833398D01*
X161382798Y-66803662D01*
X161382798Y-66803659D01*
X161390003Y-66795471D01*
X161391094Y-66793946D01*
X161744544Y-66389276D01*
X161744893Y-66389102D01*
X161770709Y-66359319D01*
X161796758Y-66329496D01*
X161796758Y-66329494D01*
X161803869Y-66321354D01*
X161805008Y-66319749D01*
X162138085Y-65935505D01*
X162138446Y-65935323D01*
X162164222Y-65905352D01*
X162190067Y-65875538D01*
X162190066Y-65875538D01*
X162197122Y-65867400D01*
X162198287Y-65865744D01*
X162514022Y-65498642D01*
X162514385Y-65498458D01*
X162539902Y-65468553D01*
X162540138Y-65468279D01*
X162572784Y-65430322D01*
X162573957Y-65428642D01*
X162875390Y-65075387D01*
X162875748Y-65075203D01*
X162901285Y-65045040D01*
X162926905Y-65015016D01*
X162926905Y-65015014D01*
X162933938Y-65006773D01*
X162935085Y-65005116D01*
X163225224Y-64662429D01*
X163225567Y-64662251D01*
X163250956Y-64632037D01*
X163251089Y-64631880D01*
X163283556Y-64593532D01*
X163284648Y-64591941D01*
X163566561Y-64256464D01*
X163566879Y-64256298D01*
X163592285Y-64225852D01*
X163617646Y-64195673D01*
X163617646Y-64195672D01*
X163624703Y-64187275D01*
X163625710Y-64185796D01*
X163902432Y-63854189D01*
X163902715Y-63854040D01*
X163927734Y-63823869D01*
X163927920Y-63823647D01*
X163960452Y-63784661D01*
X163961356Y-63783325D01*
X164235872Y-63452299D01*
X164236114Y-63452171D01*
X164261307Y-63421627D01*
X164286614Y-63391112D01*
X164286614Y-63391109D01*
X164293833Y-63382406D01*
X164294595Y-63381271D01*
X164569924Y-63047481D01*
X164570118Y-63047378D01*
X164595079Y-63016985D01*
X164620537Y-62986122D01*
X164620537Y-62986120D01*
X164627823Y-62977288D01*
X164628447Y-62976355D01*
X164907626Y-62636428D01*
X164907772Y-62636351D01*
X164932819Y-62605754D01*
X164958145Y-62574918D01*
X164958146Y-62574914D01*
X164965570Y-62565875D01*
X164966032Y-62565181D01*
X165252029Y-62215823D01*
X165252125Y-62215772D01*
X165277215Y-62185056D01*
X165302486Y-62154188D01*
X165302486Y-62154186D01*
X165310082Y-62144909D01*
X165310389Y-62144445D01*
X165606183Y-61782346D01*
X165606232Y-61782321D01*
X165631282Y-61751622D01*
X165656611Y-61720616D01*
X165656611Y-61720615D01*
X165664533Y-61710918D01*
X165664680Y-61710692D01*
X165973147Y-61332674D01*
X165973150Y-61332673D01*
X165995603Y-61305155D01*
X166023572Y-61270880D01*
X166023572Y-61270878D01*
X166034254Y-61257788D01*
X166034267Y-61257766D01*
X166381080Y-60832714D01*
X166381085Y-60832718D01*
X166381104Y-60832683D01*
X166781928Y-60341806D01*
X166782645Y-60340939D01*
X167365809Y-59642717D01*
X167369867Y-59638097D01*
X167784974Y-59188800D01*
X167794461Y-59179576D01*
X168130301Y-58886315D01*
X168143119Y-58876518D01*
X168500375Y-58638677D01*
X168509812Y-58632985D01*
X168931543Y-58403550D01*
X168942697Y-58398186D01*
X168946312Y-58396665D01*
X169370406Y-58218202D01*
X169382931Y-58213706D01*
X169850710Y-58073658D01*
X169862063Y-58070836D01*
X170405801Y-57962726D01*
X170414452Y-57961321D01*
X171066956Y-57878988D01*
X171072676Y-57878402D01*
X171862979Y-57815859D01*
X171866981Y-57815608D01*
X172511229Y-57785613D01*
X172515293Y-57785493D01*
X173152779Y-57777149D01*
X173156901Y-57777164D01*
X173787243Y-57790368D01*
X173791442Y-57790529D01*
X174414225Y-57825180D01*
X174418488Y-57825493D01*
X175033142Y-57881481D01*
X175037529Y-57881961D01*
X175643702Y-57959187D01*
X175648170Y-57959840D01*
X176245398Y-58058197D01*
X176249891Y-58059023D01*
X176690458Y-58148492D01*
X176837835Y-58178421D01*
X176842404Y-58179440D01*
X177420542Y-58319761D01*
X177425079Y-58320954D01*
X177993120Y-58482129D01*
X177997712Y-58483529D01*
X178555141Y-58665440D01*
X178559669Y-58667017D01*
X179106135Y-58869585D01*
X179110724Y-58871393D01*
X179374541Y-58981409D01*
X179645674Y-59094476D01*
X179650280Y-59096507D01*
X180172290Y-59339534D01*
X180177693Y-59342212D01*
X180823575Y-59682185D01*
X180830327Y-59686015D01*
X181140407Y-59875000D01*
X181410493Y-60039610D01*
X181417921Y-60044511D01*
X181519468Y-60116874D01*
X181928116Y-60408080D01*
X181934625Y-60412718D01*
X181942573Y-60418883D01*
X182003178Y-60469961D01*
X182397481Y-60802285D01*
X182405720Y-60809892D01*
X182800795Y-61209238D01*
X182808974Y-61218367D01*
X183146444Y-61634719D01*
X183154130Y-61645296D01*
X183436361Y-62080190D01*
X183443106Y-62091943D01*
X183672203Y-62547097D01*
X183677750Y-62559854D01*
X183871958Y-63085237D01*
X183876468Y-63100318D01*
X183993101Y-63605160D01*
X183995841Y-63622616D01*
X184036964Y-64108570D01*
X184037107Y-64127627D01*
X184004383Y-64598271D01*
X184001493Y-64617613D01*
X183895124Y-65077500D01*
X183889426Y-65095656D01*
X183707865Y-65549029D01*
X183700167Y-65564882D01*
X183440780Y-66014618D01*
X183432101Y-66027681D01*
X183088114Y-66480446D01*
X183082787Y-66486983D01*
X182966233Y-66620483D01*
X182965083Y-66621782D01*
X182801453Y-66803993D01*
X182800751Y-66804769D01*
X182597221Y-67027599D01*
X182596744Y-67028118D01*
X182356089Y-67288605D01*
X182355742Y-67288978D01*
X182157658Y-67501625D01*
X182102025Y-67561350D01*
X182080139Y-67584845D01*
X182079874Y-67585129D01*
X181770843Y-67914804D01*
X181770633Y-67915028D01*
X181709014Y-67980438D01*
X181430466Y-68276121D01*
X181430317Y-68276278D01*
X181061573Y-68666115D01*
X181061428Y-68666269D01*
X180665563Y-69083349D01*
X180665438Y-69083481D01*
X180244377Y-69525808D01*
X180244266Y-69525923D01*
X179799869Y-69991560D01*
X179799771Y-69991664D01*
X179335316Y-70477199D01*
X179335226Y-70477292D01*
X178850664Y-70982790D01*
X178850582Y-70982876D01*
X178348861Y-71505266D01*
X177832387Y-72042051D01*
X177321956Y-72571655D01*
X177302915Y-72591411D01*
X176762032Y-73151693D01*
X176211746Y-73720817D01*
X175655442Y-74295272D01*
X175576196Y-74376978D01*
X175092518Y-74875667D01*
X175092451Y-74875736D01*
X174526696Y-75458151D01*
X174526628Y-75458221D01*
X173960009Y-76040612D01*
X173959940Y-76040683D01*
X173393684Y-76621769D01*
X173393613Y-76621842D01*
X172830416Y-77198835D01*
X172830341Y-77198912D01*
X172270987Y-77770975D01*
X172270908Y-77771055D01*
X171719314Y-78334157D01*
X171719230Y-78334243D01*
X171175308Y-78888437D01*
X171175217Y-78888529D01*
X170806021Y-79263915D01*
X170642089Y-79430595D01*
X170352500Y-79724372D01*
X170121625Y-79958586D01*
X170121518Y-79958695D01*
X169617115Y-80469127D01*
X169617104Y-80469137D01*
X168896948Y-81197727D01*
X168896948Y-81197728D01*
X168888369Y-81206406D01*
X168888251Y-81206457D01*
X168860844Y-81234252D01*
X168860279Y-81234825D01*
X168860275Y-81234830D01*
X168824252Y-81271276D01*
X168823837Y-81271787D01*
X168180599Y-81924190D01*
X168180600Y-81924191D01*
X168172133Y-81932778D01*
X168171994Y-81932839D01*
X168144459Y-81960849D01*
X168116245Y-81989466D01*
X168116244Y-81989468D01*
X168108217Y-81997610D01*
X168107726Y-81998215D01*
X167501816Y-82614596D01*
X167501817Y-82614597D01*
X167493289Y-82623271D01*
X167493124Y-82623343D01*
X167465660Y-82651380D01*
X167429474Y-82688191D01*
X167428885Y-82688921D01*
X166858685Y-83271024D01*
X166858686Y-83271025D01*
X166850124Y-83279765D01*
X166849929Y-83279850D01*
X166822399Y-83308071D01*
X166822221Y-83308253D01*
X166786560Y-83344659D01*
X166785881Y-83345503D01*
X166249425Y-83895420D01*
X166249426Y-83895421D01*
X166240916Y-83904144D01*
X166240689Y-83904244D01*
X166212985Y-83932777D01*
X166212979Y-83932784D01*
X166177589Y-83969063D01*
X166176806Y-83970042D01*
X165672471Y-84489515D01*
X165672470Y-84489516D01*
X165663953Y-84498287D01*
X165663693Y-84498402D01*
X165636666Y-84526392D01*
X165636265Y-84526806D01*
X165636245Y-84526828D01*
X165600891Y-84563244D01*
X165599988Y-84564379D01*
X165126076Y-85055212D01*
X165126077Y-85055213D01*
X165117521Y-85064075D01*
X165117221Y-85064207D01*
X165089819Y-85092766D01*
X165089614Y-85092977D01*
X165089613Y-85092978D01*
X165054755Y-85129082D01*
X165053731Y-85130378D01*
X164608414Y-85594513D01*
X164608415Y-85594514D01*
X164599900Y-85603388D01*
X164599561Y-85603540D01*
X164572313Y-85632142D01*
X164572117Y-85632347D01*
X164537477Y-85668451D01*
X164536324Y-85669921D01*
X164117878Y-86109187D01*
X164109376Y-86118111D01*
X164108997Y-86118282D01*
X164082237Y-86146599D01*
X164081910Y-86146943D01*
X164081887Y-86146969D01*
X164047297Y-86183281D01*
X164046003Y-86184945D01*
X163652724Y-86601140D01*
X163644237Y-86610120D01*
X163643813Y-86610314D01*
X163617181Y-86638751D01*
X163616604Y-86639363D01*
X163616564Y-86639407D01*
X163582589Y-86675363D01*
X163581151Y-86677229D01*
X163211260Y-87072231D01*
X163211261Y-87072232D01*
X163202771Y-87081298D01*
X163202300Y-87081515D01*
X163175731Y-87110173D01*
X163175351Y-87110580D01*
X163175332Y-87110601D01*
X163141594Y-87146630D01*
X163140009Y-87148706D01*
X162791694Y-87524426D01*
X162791695Y-87524427D01*
X162783265Y-87533521D01*
X162782744Y-87533765D01*
X162756136Y-87562785D01*
X162746159Y-87573547D01*
X162722553Y-87599011D01*
X162720830Y-87601293D01*
X162392437Y-87959474D01*
X162392435Y-87959477D01*
X162384001Y-87968674D01*
X162383437Y-87968942D01*
X162357211Y-87997892D01*
X162356822Y-87998318D01*
X162323829Y-88034306D01*
X162321962Y-88036807D01*
X162011655Y-88379382D01*
X162011654Y-88379381D01*
X162003278Y-88388627D01*
X162002673Y-88388920D01*
X161976724Y-88417943D01*
X161976271Y-88418445D01*
X161976254Y-88418465D01*
X161943649Y-88454461D01*
X161941655Y-88457168D01*
X161647716Y-88785950D01*
X161647715Y-88785949D01*
X161639390Y-88795260D01*
X161638747Y-88795577D01*
X161613025Y-88824752D01*
X161612665Y-88825156D01*
X161612646Y-88825178D01*
X161580318Y-88861339D01*
X161578207Y-88864247D01*
X161298912Y-89181059D01*
X161298911Y-89181058D01*
X161290640Y-89190439D01*
X161289960Y-89190780D01*
X161264456Y-89220140D01*
X161263990Y-89220670D01*
X161263946Y-89220722D01*
X161232135Y-89256808D01*
X161229942Y-89259874D01*
X160963542Y-89566576D01*
X160955321Y-89576039D01*
X160954615Y-89576400D01*
X160929357Y-89605931D01*
X160928914Y-89606442D01*
X160928870Y-89606494D01*
X160897413Y-89642712D01*
X160895139Y-89645941D01*
X160639911Y-89944372D01*
X160639912Y-89944373D01*
X160631743Y-89953924D01*
X160631016Y-89954302D01*
X160605843Y-89984209D01*
X160605525Y-89984582D01*
X160574409Y-90020965D01*
X160572099Y-90024302D01*
X160326292Y-90316355D01*
X160326291Y-90316354D01*
X160318203Y-90325963D01*
X160317472Y-90326351D01*
X160292661Y-90356311D01*
X160292280Y-90356765D01*
X160292241Y-90356812D01*
X160261446Y-90393402D01*
X160259128Y-90396807D01*
X160021020Y-90684351D01*
X160013021Y-90694010D01*
X160012292Y-90694405D01*
X159987713Y-90724573D01*
X159987309Y-90725061D01*
X159956797Y-90761910D01*
X159954512Y-90765326D01*
X159722417Y-91050216D01*
X159722416Y-91050217D01*
X159714500Y-91059933D01*
X159713787Y-91060326D01*
X159689515Y-91090599D01*
X159689119Y-91091086D01*
X159689080Y-91091135D01*
X159658771Y-91128342D01*
X159656553Y-91131713D01*
X159641326Y-91150708D01*
X159428788Y-91415811D01*
X159420952Y-91425586D01*
X159420265Y-91425971D01*
X159396045Y-91456652D01*
X159395773Y-91456993D01*
X159395772Y-91456994D01*
X159365684Y-91494523D01*
X159363568Y-91497796D01*
X159138416Y-91783030D01*
X159138417Y-91783031D01*
X159130680Y-91792831D01*
X159130034Y-91793201D01*
X159106096Y-91823976D01*
X159105793Y-91824361D01*
X159105746Y-91824422D01*
X159075830Y-91862323D01*
X159073848Y-91865437D01*
X158849663Y-92153675D01*
X158849662Y-92153675D01*
X158841997Y-92163528D01*
X158841401Y-92163874D01*
X158817693Y-92194776D01*
X158817302Y-92195279D01*
X158817282Y-92195306D01*
X158787496Y-92233605D01*
X158785672Y-92236516D01*
X158560781Y-92529666D01*
X158560780Y-92529665D01*
X158553206Y-92539537D01*
X158552668Y-92539854D01*
X158529106Y-92570954D01*
X158528826Y-92571320D01*
X158528777Y-92571385D01*
X158499022Y-92610172D01*
X158497376Y-92612835D01*
X158270021Y-92912941D01*
X158262435Y-92922954D01*
X158261703Y-92923392D01*
X158238380Y-92954705D01*
X158237992Y-92955218D01*
X158209245Y-92993165D01*
X158207059Y-92996760D01*
X157882912Y-93431991D01*
X157882913Y-93431992D01*
X157875311Y-93442198D01*
X157874353Y-93442785D01*
X157851564Y-93474084D01*
X157851116Y-93474686D01*
X157851094Y-93474717D01*
X157823391Y-93511914D01*
X157820584Y-93516634D01*
X157501922Y-93954308D01*
X157494439Y-93964584D01*
X157493483Y-93965185D01*
X157471009Y-93996765D01*
X157470548Y-93997399D01*
X157443283Y-94034848D01*
X157440514Y-94039620D01*
X157127459Y-94479549D01*
X157127460Y-94479550D01*
X157123023Y-94485786D01*
X157120090Y-94489908D01*
X157119136Y-94490521D01*
X157097005Y-94522349D01*
X157095485Y-94524485D01*
X157069719Y-94560693D01*
X157066991Y-94565514D01*
X156759559Y-95007661D01*
X156759560Y-95007662D01*
X156752306Y-95018095D01*
X156751354Y-95018722D01*
X156729529Y-95050854D01*
X156729142Y-95051411D01*
X156729141Y-95051412D01*
X156702714Y-95089419D01*
X156700032Y-95094281D01*
X156398274Y-95538554D01*
X156398275Y-95538555D01*
X156391123Y-95549083D01*
X156390179Y-95549720D01*
X156368812Y-95581932D01*
X156368450Y-95582466D01*
X156368397Y-95582545D01*
X156349684Y-95610097D01*
X156342323Y-95620935D01*
X156339689Y-95625838D01*
X156043622Y-96072197D01*
X156036595Y-96082789D01*
X156035653Y-96083441D01*
X156014640Y-96115890D01*
X156014206Y-96116545D01*
X155988609Y-96155136D01*
X155986009Y-96160104D01*
X155695675Y-96608471D01*
X155695674Y-96608472D01*
X155688757Y-96619152D01*
X155687819Y-96619816D01*
X155667221Y-96652408D01*
X155666805Y-96653052D01*
X155666748Y-96653143D01*
X155641576Y-96692019D01*
X155639026Y-96697026D01*
X155354452Y-97147341D01*
X155347654Y-97158096D01*
X155346719Y-97158774D01*
X155326412Y-97191710D01*
X155325987Y-97192384D01*
X155301287Y-97231473D01*
X155298782Y-97236530D01*
X155020016Y-97688706D01*
X155020014Y-97688709D01*
X155013326Y-97699556D01*
X155012395Y-97700245D01*
X154992519Y-97733303D01*
X154992072Y-97734029D01*
X154992067Y-97734038D01*
X154967789Y-97773421D01*
X154965329Y-97778530D01*
X154692376Y-98232544D01*
X154685818Y-98243453D01*
X154684888Y-98244158D01*
X154665339Y-98277515D01*
X154664975Y-98278121D01*
X154641116Y-98317808D01*
X154638704Y-98322965D01*
X154371611Y-98778731D01*
X154371610Y-98778733D01*
X154365168Y-98789724D01*
X154364243Y-98790442D01*
X154345071Y-98824016D01*
X154344683Y-98824679D01*
X154321316Y-98864554D01*
X154318953Y-98869758D01*
X154057740Y-99327232D01*
X154057739Y-99327234D01*
X154051422Y-99338295D01*
X154050501Y-99339027D01*
X154031764Y-99372720D01*
X154031380Y-99373393D01*
X154031339Y-99373468D01*
X154008435Y-99413582D01*
X154006120Y-99418836D01*
X153744623Y-99889095D01*
X153743703Y-99889843D01*
X153725251Y-99923932D01*
X153724926Y-99924517D01*
X153724924Y-99924518D01*
X153702497Y-99964850D01*
X153700231Y-99970156D01*
X153450868Y-100430862D01*
X153450867Y-100430863D01*
X153444807Y-100442058D01*
X153443895Y-100442818D01*
X153425927Y-100476938D01*
X153425517Y-100477697D01*
X153403572Y-100518245D01*
X153401352Y-100523608D01*
X153326391Y-100665968D01*
X153152026Y-100997106D01*
X153151115Y-100997882D01*
X153133490Y-101032306D01*
X153133158Y-101032938D01*
X153133155Y-101032940D01*
X153111675Y-101073735D01*
X153109503Y-101079159D01*
X152872123Y-101542828D01*
X152872122Y-101542829D01*
X152866312Y-101554176D01*
X152865407Y-101554966D01*
X152848243Y-101589467D01*
X152847922Y-101590096D01*
X152847861Y-101590218D01*
X152826847Y-101631267D01*
X152824735Y-101636724D01*
X152593399Y-102101767D01*
X152593400Y-102101768D01*
X152587719Y-102113189D01*
X152586815Y-102113996D01*
X152570006Y-102148794D01*
X152569640Y-102149531D01*
X152569613Y-102149586D01*
X152552733Y-102183522D01*
X152549162Y-102190701D01*
X152547103Y-102196206D01*
X152321833Y-102662585D01*
X152321832Y-102662587D01*
X152316277Y-102674085D01*
X152315381Y-102674904D01*
X152299027Y-102709794D01*
X152298661Y-102710554D01*
X152298655Y-102710569D01*
X152278638Y-102752013D01*
X152276630Y-102757583D01*
X152218227Y-102882195D01*
X152052039Y-103236782D01*
X152051145Y-103237619D01*
X152035176Y-103272758D01*
X152034840Y-103273477D01*
X152034833Y-103273494D01*
X152015321Y-103315129D01*
X152013367Y-103320752D01*
X151800394Y-103789439D01*
X151795175Y-103800925D01*
X151794515Y-103801553D01*
X151778705Y-103837165D01*
X151778505Y-103837606D01*
X151778449Y-103837732D01*
X151758828Y-103880912D01*
X151757405Y-103885150D01*
X151673428Y-104074328D01*
X151673428Y-104074329D01*
X151668398Y-104085661D01*
X151668012Y-104086033D01*
X151652240Y-104122058D01*
X151652069Y-104122444D01*
X151652048Y-104122492D01*
X151632092Y-104167449D01*
X151631263Y-104169973D01*
X151539099Y-104380504D01*
X151539098Y-104380506D01*
X151534124Y-104391866D01*
X151533788Y-104392193D01*
X151518199Y-104428240D01*
X151518041Y-104428603D01*
X151517984Y-104428735D01*
X151498130Y-104474088D01*
X151497408Y-104476325D01*
X151396748Y-104709118D01*
X151396747Y-104709118D01*
X151391845Y-104720453D01*
X151391551Y-104720742D01*
X151376148Y-104756756D01*
X151376139Y-104756777D01*
X151375946Y-104757226D01*
X151356127Y-104803063D01*
X151355494Y-104805051D01*
X151246108Y-105060822D01*
X151246107Y-105060823D01*
X151246106Y-105060822D01*
X151241268Y-105072133D01*
X151241008Y-105072391D01*
X151225592Y-105108790D01*
X151225558Y-105108870D01*
X151225389Y-105109267D01*
X151205803Y-105155065D01*
X151205250Y-105156823D01*
X151086913Y-105436258D01*
X151082102Y-105447619D01*
X151081869Y-105447850D01*
X151066611Y-105484194D01*
X151066564Y-105484308D01*
X151046847Y-105530866D01*
X151046358Y-105532439D01*
X150918773Y-105836373D01*
X150914052Y-105847618D01*
X150913847Y-105847825D01*
X150898801Y-105883949D01*
X150898797Y-105883959D01*
X150898665Y-105884275D01*
X150879008Y-105931104D01*
X150878574Y-105932514D01*
X150741519Y-106261593D01*
X150736839Y-106272833D01*
X150736655Y-106273019D01*
X150721528Y-106309598D01*
X150721527Y-106309599D01*
X150721527Y-106309601D01*
X150701972Y-106356551D01*
X150701587Y-106357816D01*
X150580553Y-106650500D01*
X150550170Y-106723972D01*
X150550005Y-106724139D01*
X150535033Y-106760575D01*
X150534929Y-106760827D01*
X150515447Y-106807940D01*
X150515108Y-106809066D01*
X150358375Y-107190502D01*
X150358376Y-107190503D01*
X150353761Y-107201736D01*
X150353612Y-107201888D01*
X150338550Y-107238756D01*
X150338456Y-107238984D01*
X150319212Y-107285820D01*
X150318909Y-107286832D01*
X150151919Y-107695584D01*
X150151920Y-107695585D01*
X150147325Y-107706834D01*
X150147193Y-107706969D01*
X150132378Y-107743418D01*
X150132263Y-107743702D01*
X150132180Y-107743905D01*
X150112938Y-107791007D01*
X150112661Y-107791934D01*
X150085609Y-107858497D01*
X149936622Y-108225092D01*
X149935158Y-108228694D01*
X149935156Y-108228697D01*
X149930577Y-108239961D01*
X149930459Y-108240083D01*
X149915760Y-108276416D01*
X149915628Y-108276744D01*
X149915556Y-108276923D01*
X149896260Y-108324407D01*
X149896017Y-108325228D01*
X149707791Y-108790558D01*
X149707792Y-108790559D01*
X149703236Y-108801824D01*
X149703129Y-108801934D01*
X149688346Y-108838634D01*
X149688344Y-108838637D01*
X149688344Y-108838638D01*
X149669042Y-108886360D01*
X149668822Y-108887110D01*
X149469554Y-109381852D01*
X149467358Y-109387306D01*
X149465016Y-109393120D01*
X149464918Y-109393221D01*
X149450026Y-109430334D01*
X149449918Y-109430604D01*
X149449916Y-109430605D01*
X149430928Y-109477754D01*
X149430731Y-109478428D01*
X149229584Y-109979775D01*
X149215629Y-110014556D01*
X149215541Y-110014647D01*
X149200759Y-110051618D01*
X149194091Y-110068237D01*
X149181638Y-110099277D01*
X149181460Y-110099887D01*
X148959290Y-110655585D01*
X148959291Y-110655586D01*
X148954795Y-110666830D01*
X148954717Y-110666912D01*
X148939944Y-110703978D01*
X148932119Y-110723553D01*
X148920893Y-110751632D01*
X148920733Y-110752184D01*
X148686701Y-111339429D01*
X148682231Y-111350643D01*
X148682162Y-111350716D01*
X148667743Y-111386996D01*
X148667632Y-111387278D01*
X148667589Y-111387386D01*
X148648412Y-111435507D01*
X148648265Y-111436018D01*
X148402102Y-112055506D01*
X148397656Y-112066692D01*
X148397592Y-112066760D01*
X148383255Y-112102931D01*
X148382996Y-112103585D01*
X148382893Y-112103847D01*
X148382854Y-112103944D01*
X148363900Y-112151645D01*
X148363768Y-112152103D01*
X148105204Y-112804524D01*
X148105205Y-112804525D01*
X148100785Y-112815678D01*
X148100725Y-112815741D01*
X148085998Y-112852991D01*
X148085996Y-112852992D01*
X148085997Y-112852992D01*
X148067089Y-112900700D01*
X148066969Y-112901118D01*
X147795714Y-113587217D01*
X147795713Y-113587216D01*
X147791327Y-113598310D01*
X147791276Y-113598364D01*
X147777266Y-113633875D01*
X147777023Y-113634492D01*
X147776744Y-113635200D01*
X147776711Y-113635282D01*
X147757692Y-113683388D01*
X147757580Y-113683780D01*
X147473362Y-114404249D01*
X147473363Y-114404250D01*
X147469015Y-114415274D01*
X147468967Y-114415325D01*
X147454506Y-114452057D01*
X147454504Y-114452062D01*
X147435419Y-114500438D01*
X147435321Y-114500784D01*
X147137998Y-115255989D01*
X147133553Y-115267277D01*
X147133510Y-115267323D01*
X147118961Y-115304343D01*
X147118935Y-115304410D01*
X147099997Y-115352514D01*
X147099908Y-115352828D01*
X146789077Y-116143788D01*
X146789078Y-116143789D01*
X146784663Y-116155021D01*
X146784626Y-116155061D01*
X146771292Y-116189046D01*
X146770755Y-116190414D01*
X146770356Y-116191434D01*
X146770331Y-116191496D01*
X146751147Y-116240314D01*
X146751064Y-116240606D01*
X146426458Y-117068005D01*
X146422067Y-117079197D01*
X146422031Y-117079235D01*
X146407923Y-117115246D01*
X146407727Y-117115748D01*
X146407564Y-117116165D01*
X146407542Y-117116221D01*
X146388574Y-117164571D01*
X146388500Y-117164832D01*
X146049407Y-118030472D01*
X146045485Y-118040483D01*
X146045473Y-118040498D01*
X146030991Y-118077486D01*
X146030891Y-118077743D01*
X146030884Y-118077761D01*
X146012194Y-118125473D01*
X146012167Y-118125569D01*
X145536917Y-119339512D01*
X145536912Y-119339525D01*
X145075115Y-120518718D01*
X145075107Y-120518737D01*
X144648990Y-121606307D01*
X144648981Y-121606332D01*
X144251054Y-122621309D01*
X143944917Y-123401505D01*
X143884596Y-123555233D01*
X143884579Y-123555276D01*
X143553004Y-124399379D01*
X143543827Y-124422740D01*
X143325825Y-124976953D01*
X143229988Y-125220592D01*
X143229961Y-125220660D01*
X142977944Y-125860239D01*
X142940369Y-125955597D01*
X142728830Y-126491308D01*
X142673683Y-126630964D01*
X142673642Y-126631067D01*
X142427498Y-127252780D01*
X142427448Y-127252905D01*
X142200665Y-127823904D01*
X142200605Y-127824055D01*
X142168944Y-127903470D01*
X141991109Y-128349524D01*
X141797328Y-128833386D01*
X141617636Y-129279706D01*
X141450272Y-129692882D01*
X141403591Y-129807334D01*
X141293469Y-130077326D01*
X141293343Y-130077635D01*
X141145366Y-130437670D01*
X141145228Y-130438003D01*
X141004750Y-130776986D01*
X141004603Y-130777338D01*
X140869475Y-131100594D01*
X140869325Y-131100953D01*
X140737832Y-131412761D01*
X140737683Y-131413111D01*
X140608227Y-131717477D01*
X140608087Y-131717806D01*
X140478988Y-132018918D01*
X140478863Y-132019208D01*
X140358271Y-132298514D01*
X140352573Y-132311714D01*
X140348391Y-132321399D01*
X140348286Y-132321642D01*
X140214433Y-132629853D01*
X140214352Y-132630040D01*
X140075965Y-132947260D01*
X140075778Y-132947685D01*
X139726704Y-133739756D01*
X139726363Y-133740525D01*
X139387982Y-134494436D01*
X139387591Y-134495297D01*
X139058999Y-135212702D01*
X139058554Y-135213662D01*
X138738653Y-135896631D01*
X138738149Y-135897695D01*
X138425893Y-136548189D01*
X138425323Y-136549360D01*
X138119716Y-137169235D01*
X138119076Y-137170515D01*
X137819106Y-137761659D01*
X137818391Y-137763046D01*
X137523105Y-138327248D01*
X137522311Y-138328741D01*
X137230607Y-138868069D01*
X137229731Y-138869660D01*
X136940614Y-139385985D01*
X136939655Y-139387667D01*
X136652096Y-139882908D01*
X136651056Y-139884665D01*
X136364085Y-140360664D01*
X136362967Y-140362483D01*
X136075420Y-140821385D01*
X136074232Y-140823244D01*
X135785233Y-141266720D01*
X135783985Y-141268598D01*
X135492254Y-141698956D01*
X135490959Y-141700828D01*
X135195630Y-142119724D01*
X135194306Y-142121566D01*
X134895101Y-142529888D01*
X134893068Y-142532585D01*
X134448621Y-143105703D01*
X134445434Y-143109644D01*
X134007134Y-143629489D01*
X134003241Y-143633890D01*
X133567232Y-144103903D01*
X133562557Y-144108678D01*
X133125675Y-144531472D01*
X133120175Y-144536484D01*
X132679094Y-144914839D01*
X132672791Y-144919899D01*
X132223991Y-145256708D01*
X132216984Y-145261598D01*
X131993647Y-145406291D01*
X131756788Y-145559744D01*
X131749271Y-145564245D01*
X131273707Y-145826612D01*
X131265927Y-145830554D01*
X130770941Y-146059841D01*
X130763196Y-146063114D01*
X130244689Y-146261824D01*
X130237260Y-146264404D01*
X129691181Y-146434848D01*
X129684300Y-146436780D01*
X129116757Y-146578616D01*
X129102886Y-146581254D01*
X128651633Y-146640693D01*
X128644138Y-146641450D01*
X127932232Y-146691508D01*
X127928500Y-146691714D01*
X127125969Y-146723883D01*
X127122274Y-146723975D01*
X126400325Y-146731376D01*
X126393110Y-146731240D01*
X125954411Y-146710188D01*
X125952373Y-146710074D01*
X125937952Y-146709143D01*
X125934053Y-146707529D01*
X125934026Y-146707529D01*
X125912920Y-146707529D01*
X125908936Y-146707272D01*
X125907907Y-146706896D01*
X125899596Y-146706313D01*
X125238857Y-146613100D01*
X125235685Y-146612611D01*
X124570899Y-146501208D01*
X124567619Y-146500613D01*
X123916998Y-146373514D01*
X123913619Y-146372805D01*
X123276761Y-146229881D01*
X123273294Y-146229050D01*
X122649772Y-146070160D01*
X122646230Y-146069201D01*
X122035710Y-145894229D01*
X122032106Y-145893137D01*
X121434094Y-145701922D01*
X121430446Y-145700693D01*
X120844573Y-145493101D01*
X120840898Y-145491733D01*
X120266760Y-145267622D01*
X120263076Y-145266115D01*
X119700242Y-145025325D01*
X119696569Y-145023683D01*
X119446892Y-144907145D01*
X119144572Y-144766035D01*
X119140967Y-144764280D01*
X118599400Y-144489608D01*
X118595816Y-144487715D01*
X118064408Y-144195923D01*
X118060883Y-144193912D01*
X117539021Y-143884718D01*
X117535582Y-143882604D01*
X117511190Y-143867058D01*
X117145352Y-143633890D01*
X117022954Y-143555879D01*
X117019616Y-143553675D01*
X116515818Y-143209239D01*
X116512596Y-143206960D01*
X116017197Y-142844603D01*
X116014102Y-142842264D01*
X115529106Y-142463668D01*
X115524378Y-142459787D01*
X115077007Y-142073590D01*
X115072469Y-142069471D01*
X114882156Y-141888018D01*
X114584943Y-141604643D01*
X114581618Y-141601350D01*
X114505102Y-141522658D01*
X114087107Y-141092773D01*
X114084086Y-141089554D01*
X113879207Y-140863260D01*
X113617897Y-140574637D01*
X113614580Y-140570817D01*
X113292196Y-140183850D01*
X113212155Y-140087774D01*
X113207590Y-140081950D01*
X113062255Y-139884665D01*
X112902252Y-139667469D01*
X112897257Y-139660153D01*
X112850074Y-139585463D01*
X112511556Y-139049589D01*
X112507964Y-139043528D01*
X112417694Y-138880843D01*
X112174930Y-138443333D01*
X112171343Y-138436355D01*
X112119894Y-138327990D01*
X111892411Y-137848846D01*
X111888963Y-137840876D01*
X111663562Y-137265240D01*
X111660436Y-137256255D01*
X111487970Y-136691680D01*
X111485374Y-136681722D01*
X111365153Y-136127111D01*
X111363310Y-136116329D01*
X111302109Y-135629489D01*
X119890426Y-135629489D01*
X119907747Y-135804069D01*
X119907749Y-135804078D01*
X119964864Y-135969953D01*
X119964867Y-135969958D01*
X120058697Y-136118190D01*
X120058700Y-136118194D01*
X120058701Y-136118195D01*
X120184192Y-136240800D01*
X120271974Y-136295297D01*
X121440422Y-136865186D01*
X121537406Y-136900807D01*
X121537407Y-136900807D01*
X121537411Y-136900809D01*
X121711285Y-136924214D01*
X121885870Y-136906892D01*
X122051753Y-136849773D01*
X122199992Y-136755939D01*
X122199994Y-136755936D01*
X122205842Y-136752235D01*
X122273015Y-136733012D01*
X122339918Y-136753157D01*
X122385309Y-136806274D01*
X122389407Y-136816638D01*
X122453344Y-137002323D01*
X122453350Y-137002335D01*
X122553107Y-137189948D01*
X122680987Y-137359651D01*
X122680995Y-137359660D01*
X122833837Y-137507258D01*
X122833844Y-137507263D01*
X122888685Y-137545662D01*
X123348055Y-136603813D01*
X123369905Y-136641657D01*
X123458343Y-136730095D01*
X123566657Y-136792630D01*
X123687465Y-136825000D01*
X123796477Y-136825000D01*
X123338081Y-137764847D01*
X123338082Y-137764849D01*
X123402103Y-137784421D01*
X123402117Y-137784425D01*
X123612529Y-137813996D01*
X123612543Y-137813997D01*
X123824997Y-137810288D01*
X123825001Y-137810287D01*
X124034255Y-137773390D01*
X124034270Y-137773386D01*
X124235178Y-137704208D01*
X124235190Y-137704202D01*
X124414913Y-137608641D01*
X124483346Y-137594548D01*
X124548536Y-137619690D01*
X124589784Y-137676085D01*
X124595244Y-137696593D01*
X124630661Y-137897455D01*
X124630666Y-137897472D01*
X124699867Y-138098449D01*
X124699868Y-138098452D01*
X124799669Y-138286148D01*
X124927595Y-138455909D01*
X124927599Y-138455914D01*
X125080511Y-138603580D01*
X125254641Y-138725507D01*
X125445701Y-138818692D01*
X125648986Y-138880842D01*
X125859491Y-138910426D01*
X126072031Y-138906716D01*
X126281375Y-138869803D01*
X126482367Y-138800596D01*
X126670058Y-138700797D01*
X126670057Y-138700797D01*
X126670060Y-138700796D01*
X126737585Y-138649911D01*
X126839826Y-138572867D01*
X126987492Y-138419955D01*
X127109419Y-138245825D01*
X127312196Y-137830067D01*
X127374346Y-137626782D01*
X127403930Y-137416277D01*
X127400220Y-137203737D01*
X127363307Y-136994393D01*
X127305282Y-136825875D01*
X127294102Y-136793406D01*
X127294101Y-136793403D01*
X127194300Y-136605708D01*
X127143698Y-136538557D01*
X127119074Y-136473171D01*
X127133709Y-136404851D01*
X127182957Y-136355289D01*
X127206738Y-136345270D01*
X127208485Y-136344739D01*
X127208497Y-136344737D01*
X127354179Y-136284394D01*
X127419422Y-136240800D01*
X127485875Y-136196398D01*
X127552553Y-136175520D01*
X127554766Y-136175500D01*
X130903898Y-136175500D01*
X130903914Y-136175501D01*
X130911510Y-136175501D01*
X131069621Y-136175501D01*
X131069624Y-136175501D01*
X131222352Y-136134577D01*
X131301553Y-136088850D01*
X131359283Y-136055520D01*
X131471087Y-135943716D01*
X131471087Y-135943714D01*
X131481291Y-135933511D01*
X131481294Y-135933506D01*
X140475721Y-126939082D01*
X140554778Y-126802150D01*
X140595702Y-126649423D01*
X140595702Y-126491308D01*
X140595702Y-126483713D01*
X140595701Y-126483695D01*
X140595701Y-121154896D01*
X140615386Y-121087857D01*
X140632020Y-121067215D01*
X142498770Y-119200465D01*
X144389662Y-117309572D01*
X144450983Y-117276089D01*
X144453150Y-117275638D01*
X144515190Y-117263297D01*
X144608497Y-117244737D01*
X144754179Y-117184394D01*
X144885289Y-117096789D01*
X144996789Y-116985289D01*
X145084394Y-116854179D01*
X145144737Y-116708497D01*
X145175500Y-116553842D01*
X145175500Y-116396158D01*
X145175500Y-116396155D01*
X145175499Y-116396153D01*
X145164286Y-116339781D01*
X145144737Y-116241503D01*
X145144735Y-116241498D01*
X145084397Y-116095827D01*
X145084390Y-116095814D01*
X144996789Y-115964711D01*
X144996786Y-115964707D01*
X144885292Y-115853213D01*
X144885288Y-115853210D01*
X144754185Y-115765609D01*
X144754172Y-115765602D01*
X144608501Y-115705264D01*
X144608489Y-115705261D01*
X144453845Y-115674500D01*
X144453842Y-115674500D01*
X144296158Y-115674500D01*
X144296155Y-115674500D01*
X144141510Y-115705261D01*
X144141498Y-115705264D01*
X143995827Y-115765602D01*
X143995814Y-115765609D01*
X143864711Y-115853210D01*
X143864707Y-115853213D01*
X143753213Y-115964707D01*
X143753210Y-115964711D01*
X143665609Y-116095814D01*
X143665602Y-116095827D01*
X143605264Y-116241498D01*
X143605261Y-116241508D01*
X143574361Y-116396850D01*
X143541976Y-116458761D01*
X143540425Y-116460339D01*
X139514682Y-120486081D01*
X139514676Y-120486089D01*
X139474523Y-120555638D01*
X139474523Y-120555640D01*
X139435624Y-120623013D01*
X139435624Y-120623014D01*
X139394700Y-120775742D01*
X139394700Y-120775744D01*
X139394700Y-120943845D01*
X139394701Y-120943858D01*
X139394701Y-125403376D01*
X139375016Y-125470415D01*
X139322212Y-125516170D01*
X139294893Y-125524993D01*
X139160709Y-125551684D01*
X139160699Y-125551687D01*
X139015028Y-125612025D01*
X139015016Y-125612032D01*
X138915389Y-125678602D01*
X138848712Y-125699480D01*
X138846498Y-125699500D01*
X126925097Y-125699500D01*
X126858058Y-125679815D01*
X126837416Y-125663181D01*
X124209574Y-123035339D01*
X124176089Y-122974016D01*
X124175638Y-122971849D01*
X124157595Y-122881147D01*
X124144737Y-122816503D01*
X124109563Y-122731585D01*
X124084397Y-122670827D01*
X124084390Y-122670814D01*
X123996789Y-122539711D01*
X123996786Y-122539707D01*
X123885292Y-122428213D01*
X123885288Y-122428210D01*
X123754185Y-122340609D01*
X123754172Y-122340602D01*
X123608501Y-122280264D01*
X123608489Y-122280261D01*
X123453845Y-122249500D01*
X123453842Y-122249500D01*
X123296158Y-122249500D01*
X123296155Y-122249500D01*
X123141510Y-122280261D01*
X123141498Y-122280264D01*
X122995827Y-122340602D01*
X122995814Y-122340609D01*
X122864711Y-122428210D01*
X122864707Y-122428213D01*
X122753213Y-122539707D01*
X122753210Y-122539711D01*
X122665609Y-122670814D01*
X122665602Y-122670827D01*
X122605264Y-122816498D01*
X122605261Y-122816510D01*
X122574500Y-122971153D01*
X122574500Y-123128846D01*
X122605261Y-123283489D01*
X122605264Y-123283501D01*
X122665602Y-123429172D01*
X122665609Y-123429185D01*
X122753210Y-123560288D01*
X122753213Y-123560292D01*
X122864707Y-123671786D01*
X122864711Y-123671789D01*
X122995814Y-123759390D01*
X122995827Y-123759397D01*
X123141498Y-123819735D01*
X123141503Y-123819737D01*
X123206147Y-123832595D01*
X123296849Y-123850638D01*
X123358760Y-123883023D01*
X123360339Y-123884574D01*
X126140139Y-126664374D01*
X126140149Y-126664385D01*
X126144479Y-126668715D01*
X126144480Y-126668716D01*
X126256284Y-126780520D01*
X126256286Y-126780521D01*
X126256290Y-126780524D01*
X126317042Y-126815599D01*
X126317046Y-126815600D01*
X126317047Y-126815601D01*
X126355131Y-126837589D01*
X126393212Y-126859576D01*
X126393214Y-126859576D01*
X126393215Y-126859577D01*
X126545943Y-126900500D01*
X126704057Y-126900500D01*
X138516469Y-126900500D01*
X138583508Y-126920185D01*
X138629263Y-126972989D01*
X138639207Y-127042147D01*
X138610182Y-127105703D01*
X138604150Y-127112181D01*
X130778151Y-134938181D01*
X130716828Y-134971666D01*
X130690470Y-134974500D01*
X127554766Y-134974500D01*
X127487727Y-134954815D01*
X127485875Y-134953602D01*
X127354185Y-134865609D01*
X127354172Y-134865602D01*
X127208501Y-134805264D01*
X127208489Y-134805261D01*
X127053845Y-134774500D01*
X127053842Y-134774500D01*
X126896158Y-134774500D01*
X126896155Y-134774500D01*
X126741510Y-134805261D01*
X126741498Y-134805264D01*
X126595827Y-134865602D01*
X126595814Y-134865609D01*
X126464711Y-134953210D01*
X126464707Y-134953213D01*
X126353213Y-135064707D01*
X126353210Y-135064711D01*
X126265609Y-135195814D01*
X126265602Y-135195827D01*
X126205264Y-135341498D01*
X126205261Y-135341510D01*
X126174500Y-135496153D01*
X126174500Y-135653846D01*
X126205261Y-135808489D01*
X126205264Y-135808501D01*
X126206179Y-135810709D01*
X126206313Y-135811958D01*
X126207031Y-135814324D01*
X126206582Y-135814460D01*
X126213646Y-135880178D01*
X126182370Y-135942657D01*
X126122280Y-135978308D01*
X126093781Y-135982140D01*
X125921941Y-135985139D01*
X125921937Y-135985140D01*
X125712603Y-136022051D01*
X125712598Y-136022052D01*
X125712594Y-136022053D01*
X125712588Y-136022054D01*
X125712588Y-136022055D01*
X125511604Y-136091259D01*
X125511598Y-136091262D01*
X125331515Y-136187016D01*
X125263081Y-136201109D01*
X125197892Y-136175967D01*
X125156644Y-136119572D01*
X125151184Y-136099063D01*
X125115837Y-135898599D01*
X125115833Y-135898584D01*
X125046655Y-135697676D01*
X125046649Y-135697664D01*
X124946892Y-135510051D01*
X124819012Y-135340348D01*
X124819004Y-135340339D01*
X124666162Y-135192741D01*
X124666152Y-135192733D01*
X124611314Y-135154335D01*
X124611313Y-135154336D01*
X124151943Y-136096185D01*
X124130095Y-136058343D01*
X124041657Y-135969905D01*
X123933343Y-135907370D01*
X123812535Y-135875000D01*
X123703522Y-135875000D01*
X124161917Y-134935150D01*
X124161916Y-134935149D01*
X124097898Y-134915577D01*
X124097890Y-134915576D01*
X123887470Y-134886003D01*
X123887456Y-134886002D01*
X123675002Y-134889711D01*
X123674998Y-134889712D01*
X123465744Y-134926609D01*
X123465725Y-134926614D01*
X123280051Y-134990547D01*
X123210256Y-134993761D01*
X123149802Y-134958730D01*
X123117885Y-134896577D01*
X123116287Y-134885546D01*
X123115603Y-134878658D01*
X123115604Y-134878656D01*
X123098282Y-134704072D01*
X123095536Y-134696098D01*
X123041165Y-134538190D01*
X123041162Y-134538185D01*
X122947332Y-134389953D01*
X122947327Y-134389947D01*
X122821839Y-134267345D01*
X122821838Y-134267344D01*
X122734056Y-134212847D01*
X121565608Y-133642958D01*
X121536239Y-133632171D01*
X121468623Y-133607336D01*
X121468626Y-133607336D01*
X121468619Y-133607335D01*
X121294745Y-133583930D01*
X121294743Y-133583930D01*
X121294742Y-133583930D01*
X121120158Y-133601252D01*
X120954280Y-133658369D01*
X120806036Y-133752206D01*
X120683433Y-133877695D01*
X120628936Y-133965476D01*
X119949451Y-135358629D01*
X119913834Y-135455604D01*
X119913832Y-135455611D01*
X119913831Y-135455614D01*
X119894894Y-135596295D01*
X119890426Y-135629489D01*
X111302109Y-135629489D01*
X111294675Y-135570349D01*
X111293776Y-135558961D01*
X111276193Y-135020101D01*
X111276364Y-135008400D01*
X111309494Y-134474909D01*
X111310774Y-134463254D01*
X111394559Y-133933330D01*
X111396877Y-133922081D01*
X111531523Y-133394013D01*
X111534724Y-133383452D01*
X111720621Y-132855756D01*
X111724479Y-132846116D01*
X111733332Y-132826425D01*
X111963130Y-132315272D01*
X111966543Y-132308276D01*
X112035455Y-132177613D01*
X112114558Y-132027626D01*
X112117204Y-132022870D01*
X112296344Y-131716979D01*
X112298820Y-131712935D01*
X112517131Y-131371485D01*
X112519286Y-131368231D01*
X112785696Y-130979227D01*
X112787404Y-130976797D01*
X112793641Y-130968147D01*
X113110772Y-130528284D01*
X113112068Y-130526523D01*
X113500843Y-130007015D01*
X113501628Y-130005980D01*
X113510722Y-129994144D01*
X125287000Y-129994144D01*
X125287000Y-131005855D01*
X125297413Y-131107776D01*
X125352137Y-131272922D01*
X125352142Y-131272933D01*
X125443471Y-131420999D01*
X125443474Y-131421003D01*
X125566496Y-131544025D01*
X125566500Y-131544028D01*
X125714566Y-131635357D01*
X125714569Y-131635358D01*
X125714575Y-131635362D01*
X125879725Y-131690087D01*
X125981652Y-131700500D01*
X125981657Y-131700500D01*
X126568343Y-131700500D01*
X126568348Y-131700500D01*
X126670275Y-131690087D01*
X126835425Y-131635362D01*
X126983503Y-131544026D01*
X127106526Y-131421003D01*
X127106958Y-131420301D01*
X127107381Y-131419921D01*
X127111007Y-131415336D01*
X127111790Y-131415955D01*
X127158902Y-131373575D01*
X127227864Y-131362349D01*
X127291948Y-131390188D01*
X127313842Y-131415455D01*
X127313993Y-131415336D01*
X127316643Y-131418687D01*
X127318040Y-131420299D01*
X127318472Y-131420999D01*
X127318475Y-131421004D01*
X127441496Y-131544025D01*
X127441500Y-131544028D01*
X127589566Y-131635357D01*
X127589569Y-131635358D01*
X127589575Y-131635362D01*
X127754725Y-131690087D01*
X127856652Y-131700500D01*
X127856657Y-131700500D01*
X128443343Y-131700500D01*
X128443348Y-131700500D01*
X128545275Y-131690087D01*
X128710425Y-131635362D01*
X128858503Y-131544026D01*
X128981526Y-131421003D01*
X129072862Y-131272925D01*
X129127587Y-131107775D01*
X129138000Y-131005848D01*
X129138000Y-129994152D01*
X129127587Y-129892225D01*
X129072862Y-129727075D01*
X129072858Y-129727069D01*
X129072857Y-129727066D01*
X128981528Y-129579000D01*
X128981525Y-129578996D01*
X128858503Y-129455974D01*
X128858499Y-129455971D01*
X128710433Y-129364642D01*
X128710427Y-129364639D01*
X128710425Y-129364638D01*
X128710422Y-129364637D01*
X128545276Y-129309913D01*
X128443355Y-129299500D01*
X128443348Y-129299500D01*
X127856652Y-129299500D01*
X127856644Y-129299500D01*
X127754723Y-129309913D01*
X127589577Y-129364637D01*
X127589566Y-129364642D01*
X127441500Y-129455971D01*
X127441496Y-129455974D01*
X127318474Y-129578996D01*
X127318471Y-129579000D01*
X127318038Y-129579703D01*
X127317614Y-129580083D01*
X127313993Y-129584664D01*
X127313210Y-129584045D01*
X127266090Y-129626428D01*
X127197128Y-129637649D01*
X127133046Y-129609806D01*
X127111157Y-129584544D01*
X127111007Y-129584664D01*
X127108359Y-129581315D01*
X127106962Y-129579703D01*
X127106528Y-129579000D01*
X127106525Y-129578996D01*
X126983503Y-129455974D01*
X126983499Y-129455971D01*
X126835433Y-129364642D01*
X126835427Y-129364639D01*
X126835425Y-129364638D01*
X126835422Y-129364637D01*
X126670276Y-129309913D01*
X126568355Y-129299500D01*
X126568348Y-129299500D01*
X125981652Y-129299500D01*
X125981644Y-129299500D01*
X125879723Y-129309913D01*
X125714577Y-129364637D01*
X125714566Y-129364642D01*
X125566500Y-129455971D01*
X125566496Y-129455974D01*
X125443474Y-129578996D01*
X125443471Y-129579000D01*
X125352142Y-129727066D01*
X125352137Y-129727077D01*
X125297413Y-129892223D01*
X125287000Y-129994144D01*
X113510722Y-129994144D01*
X113964338Y-129403771D01*
X113964809Y-129403164D01*
X114509901Y-128706595D01*
X114510200Y-128706215D01*
X115146175Y-127903515D01*
X115146180Y-127903519D01*
X115146204Y-127903478D01*
X115608324Y-127320752D01*
X115608665Y-127320562D01*
X115633107Y-127289502D01*
X115657645Y-127258561D01*
X115657645Y-127258560D01*
X115664389Y-127250057D01*
X115665441Y-127248413D01*
X116079742Y-126721953D01*
X116080107Y-126721747D01*
X116104391Y-126690631D01*
X116128811Y-126659601D01*
X116128811Y-126659598D01*
X116135444Y-126651171D01*
X116136569Y-126649400D01*
X116535998Y-126137616D01*
X116536388Y-126137393D01*
X116560558Y-126106146D01*
X116584798Y-126075089D01*
X116584798Y-126075087D01*
X116591329Y-126066720D01*
X116592521Y-126064826D01*
X116977732Y-125566851D01*
X116978148Y-125566611D01*
X117002163Y-125535269D01*
X117026244Y-125504139D01*
X117026244Y-125504136D01*
X117032680Y-125495817D01*
X117033943Y-125493791D01*
X117405580Y-125008775D01*
X117406020Y-125008518D01*
X117429850Y-124977100D01*
X117453784Y-124945865D01*
X117453784Y-124945862D01*
X117460107Y-124937611D01*
X117461442Y-124935449D01*
X117614280Y-124733950D01*
X117820178Y-124462498D01*
X117820641Y-124462225D01*
X117844213Y-124430811D01*
X117868055Y-124399379D01*
X117868055Y-124399377D01*
X117874288Y-124391161D01*
X117875693Y-124388858D01*
X118222159Y-123927143D01*
X118222649Y-123926850D01*
X118246149Y-123895172D01*
X118269693Y-123863798D01*
X118269693Y-123863796D01*
X118275823Y-123855628D01*
X118277284Y-123853204D01*
X118279291Y-123850500D01*
X118612162Y-123401815D01*
X118612674Y-123401505D01*
X118635925Y-123369785D01*
X118659332Y-123338235D01*
X118659332Y-123338232D01*
X118665335Y-123330142D01*
X118666854Y-123327590D01*
X118983424Y-122895723D01*
X118987667Y-122890262D01*
X118988495Y-122889254D01*
X118991351Y-122885307D01*
X118991354Y-122885306D01*
X119014380Y-122853494D01*
X119037609Y-122821806D01*
X119037610Y-122821801D01*
X119043520Y-122813739D01*
X119045089Y-122811068D01*
X119358767Y-122377717D01*
X119359321Y-122377372D01*
X119382168Y-122345388D01*
X119405156Y-122313631D01*
X119405156Y-122313629D01*
X119410966Y-122305604D01*
X119412584Y-122302809D01*
X119716637Y-121877178D01*
X119717208Y-121876817D01*
X119739809Y-121844741D01*
X119762610Y-121812823D01*
X119762610Y-121812819D01*
X119768314Y-121804836D01*
X119769966Y-121801939D01*
X120065063Y-121383134D01*
X120065648Y-121382759D01*
X120087972Y-121350621D01*
X120110605Y-121318501D01*
X120110605Y-121318499D01*
X120116201Y-121310558D01*
X120117900Y-121307538D01*
X120404676Y-120894705D01*
X120405274Y-120894316D01*
X120427351Y-120862064D01*
X120449774Y-120829785D01*
X120449774Y-120829780D01*
X120455299Y-120821829D01*
X120457016Y-120818727D01*
X120729005Y-120421385D01*
X120729004Y-120421385D01*
X120736107Y-120411010D01*
X120736716Y-120410608D01*
X120758597Y-120378156D01*
X120780750Y-120345794D01*
X120780750Y-120345790D01*
X120786195Y-120337837D01*
X120787921Y-120334664D01*
X121059989Y-119931166D01*
X121060605Y-119930753D01*
X121082269Y-119898124D01*
X121104167Y-119865648D01*
X121104167Y-119865645D01*
X121109534Y-119857687D01*
X121111261Y-119854457D01*
X121376954Y-119454294D01*
X121377573Y-119453872D01*
X121398971Y-119421134D01*
X121420660Y-119388469D01*
X121420660Y-119388466D01*
X121425947Y-119380505D01*
X121427674Y-119377222D01*
X121680753Y-118990034D01*
X121687629Y-118979515D01*
X121688250Y-118979085D01*
X121709487Y-118946074D01*
X121730860Y-118913377D01*
X121730860Y-118913376D01*
X121736076Y-118905397D01*
X121737788Y-118902084D01*
X121992650Y-118505945D01*
X121993266Y-118505512D01*
X122014235Y-118472394D01*
X122035401Y-118439497D01*
X122035401Y-118439496D01*
X122040574Y-118431457D01*
X122042260Y-118428134D01*
X122292644Y-118032708D01*
X122293251Y-118032275D01*
X122313943Y-117999071D01*
X122334916Y-117965950D01*
X122334916Y-117965948D01*
X122340039Y-117957859D01*
X122341687Y-117954551D01*
X122588296Y-117558840D01*
X122588979Y-117558344D01*
X122609412Y-117524957D01*
X122630039Y-117491860D01*
X122630039Y-117491858D01*
X122634935Y-117484003D01*
X122636754Y-117480282D01*
X122933782Y-116994967D01*
X122940387Y-116984174D01*
X122941150Y-116983610D01*
X122961195Y-116950178D01*
X122981531Y-116916951D01*
X122981531Y-116916950D01*
X122986176Y-116909361D01*
X122988187Y-116905156D01*
X123113501Y-116696153D01*
X134899500Y-116696153D01*
X134899500Y-116853846D01*
X134930261Y-117008489D01*
X134930264Y-117008501D01*
X134990602Y-117154172D01*
X134990609Y-117154185D01*
X135078210Y-117285288D01*
X135078213Y-117285292D01*
X135189707Y-117396786D01*
X135189711Y-117396789D01*
X135320814Y-117484390D01*
X135320827Y-117484397D01*
X135417571Y-117524469D01*
X135466503Y-117544737D01*
X135621153Y-117575499D01*
X135621156Y-117575500D01*
X135621158Y-117575500D01*
X135778844Y-117575500D01*
X135778845Y-117575499D01*
X135933497Y-117544737D01*
X136079179Y-117484394D01*
X136085345Y-117480274D01*
X136210875Y-117396398D01*
X136277553Y-117375520D01*
X136279766Y-117375500D01*
X136970234Y-117375500D01*
X137037273Y-117395185D01*
X137039125Y-117396398D01*
X137170814Y-117484390D01*
X137170827Y-117484397D01*
X137267571Y-117524469D01*
X137316503Y-117544737D01*
X137471153Y-117575499D01*
X137471156Y-117575500D01*
X137471158Y-117575500D01*
X137628844Y-117575500D01*
X137628845Y-117575499D01*
X137783497Y-117544737D01*
X137929179Y-117484394D01*
X138060289Y-117396789D01*
X138171789Y-117285289D01*
X138259394Y-117154179D01*
X138319737Y-117008497D01*
X138350500Y-116853842D01*
X138350500Y-116696158D01*
X138350500Y-116696155D01*
X138350499Y-116696153D01*
X138322192Y-116553846D01*
X138319737Y-116541503D01*
X138286118Y-116460339D01*
X138259397Y-116395827D01*
X138259390Y-116395814D01*
X138171789Y-116264711D01*
X138171786Y-116264707D01*
X138060292Y-116153213D01*
X138060288Y-116153210D01*
X137929185Y-116065609D01*
X137929172Y-116065602D01*
X137783501Y-116005264D01*
X137783489Y-116005261D01*
X137628845Y-115974500D01*
X137628842Y-115974500D01*
X137471158Y-115974500D01*
X137471155Y-115974500D01*
X137316510Y-116005261D01*
X137316498Y-116005264D01*
X137170827Y-116065602D01*
X137170814Y-116065609D01*
X137039125Y-116153602D01*
X136972447Y-116174480D01*
X136970234Y-116174500D01*
X136279766Y-116174500D01*
X136212727Y-116154815D01*
X136210875Y-116153602D01*
X136079185Y-116065609D01*
X136079172Y-116065602D01*
X135933501Y-116005264D01*
X135933489Y-116005261D01*
X135778845Y-115974500D01*
X135778842Y-115974500D01*
X135621158Y-115974500D01*
X135621155Y-115974500D01*
X135466510Y-116005261D01*
X135466498Y-116005264D01*
X135320827Y-116065602D01*
X135320814Y-116065609D01*
X135189711Y-116153210D01*
X135189707Y-116153213D01*
X135078213Y-116264707D01*
X135078210Y-116264711D01*
X134990609Y-116395814D01*
X134990602Y-116395827D01*
X134930264Y-116541498D01*
X134930261Y-116541510D01*
X134899500Y-116696153D01*
X123113501Y-116696153D01*
X123279576Y-116419167D01*
X123282353Y-116415390D01*
X123286842Y-116407743D01*
X123286844Y-116407742D01*
X123306405Y-116374424D01*
X123306740Y-116373861D01*
X123326608Y-116340727D01*
X123326608Y-116340726D01*
X123331166Y-116333125D01*
X123333154Y-116328869D01*
X123625301Y-115831323D01*
X123626063Y-115830737D01*
X123645467Y-115796979D01*
X123665202Y-115763370D01*
X123665202Y-115763369D01*
X123669681Y-115755742D01*
X123671643Y-115751438D01*
X123958046Y-115253190D01*
X123958808Y-115252593D01*
X123977891Y-115218666D01*
X123997314Y-115184878D01*
X123997314Y-115184876D01*
X124001712Y-115177226D01*
X124003647Y-115172877D01*
X124284315Y-114673916D01*
X124285077Y-114673307D01*
X124303859Y-114639172D01*
X124322943Y-114605246D01*
X124322943Y-114605244D01*
X124327258Y-114597574D01*
X124329159Y-114593190D01*
X124604112Y-114093496D01*
X124604872Y-114092877D01*
X124623296Y-114058633D01*
X124642092Y-114024474D01*
X124642091Y-114024474D01*
X124646318Y-114016795D01*
X124648197Y-114012349D01*
X124917437Y-113511929D01*
X124918195Y-113511299D01*
X124936281Y-113476904D01*
X124954761Y-113442558D01*
X124954761Y-113442556D01*
X124958912Y-113434842D01*
X124960756Y-113430360D01*
X125006094Y-113344144D01*
X133924500Y-113344144D01*
X133924500Y-114355855D01*
X133934913Y-114457776D01*
X133989637Y-114622922D01*
X133989642Y-114622933D01*
X134080971Y-114770999D01*
X134080974Y-114771003D01*
X134203996Y-114894025D01*
X134204000Y-114894028D01*
X134352066Y-114985357D01*
X134352069Y-114985358D01*
X134352075Y-114985362D01*
X134517225Y-115040087D01*
X134619152Y-115050500D01*
X134619157Y-115050500D01*
X135205843Y-115050500D01*
X135205848Y-115050500D01*
X135307775Y-115040087D01*
X135472925Y-114985362D01*
X135621003Y-114894026D01*
X135744026Y-114771003D01*
X135744458Y-114770301D01*
X135744881Y-114769921D01*
X135748507Y-114765336D01*
X135749290Y-114765955D01*
X135796402Y-114723575D01*
X135865364Y-114712349D01*
X135929448Y-114740188D01*
X135951342Y-114765455D01*
X135951493Y-114765336D01*
X135954143Y-114768687D01*
X135955540Y-114770299D01*
X135955972Y-114770999D01*
X135955975Y-114771004D01*
X136078996Y-114894025D01*
X136079000Y-114894028D01*
X136227066Y-114985357D01*
X136227069Y-114985358D01*
X136227075Y-114985362D01*
X136392225Y-115040087D01*
X136494152Y-115050500D01*
X136494157Y-115050500D01*
X137080843Y-115050500D01*
X137080848Y-115050500D01*
X137182775Y-115040087D01*
X137347925Y-114985362D01*
X137496003Y-114894026D01*
X137619026Y-114771003D01*
X137710362Y-114622925D01*
X137765087Y-114457775D01*
X137775500Y-114355848D01*
X137775500Y-113344152D01*
X137765087Y-113242225D01*
X137710362Y-113077075D01*
X137710358Y-113077069D01*
X137710357Y-113077066D01*
X137619028Y-112929000D01*
X137619025Y-112928996D01*
X137496003Y-112805974D01*
X137495999Y-112805971D01*
X137347933Y-112714642D01*
X137347927Y-112714639D01*
X137347925Y-112714638D01*
X137330914Y-112709001D01*
X137182776Y-112659913D01*
X137080855Y-112649500D01*
X137080848Y-112649500D01*
X136494152Y-112649500D01*
X136494144Y-112649500D01*
X136392223Y-112659913D01*
X136227077Y-112714637D01*
X136227066Y-112714642D01*
X136079000Y-112805971D01*
X136078996Y-112805974D01*
X135955974Y-112928996D01*
X135955971Y-112929000D01*
X135955538Y-112929703D01*
X135955114Y-112930083D01*
X135951493Y-112934664D01*
X135950710Y-112934045D01*
X135903590Y-112976428D01*
X135834628Y-112987649D01*
X135770546Y-112959806D01*
X135748657Y-112934544D01*
X135748507Y-112934664D01*
X135745859Y-112931315D01*
X135744462Y-112929703D01*
X135744028Y-112929000D01*
X135744025Y-112928996D01*
X135621003Y-112805974D01*
X135620999Y-112805971D01*
X135472933Y-112714642D01*
X135472927Y-112714639D01*
X135472925Y-112714638D01*
X135455914Y-112709001D01*
X135307776Y-112659913D01*
X135205855Y-112649500D01*
X135205848Y-112649500D01*
X134619152Y-112649500D01*
X134619144Y-112649500D01*
X134517223Y-112659913D01*
X134352077Y-112714637D01*
X134352066Y-112714642D01*
X134204000Y-112805971D01*
X134203996Y-112805974D01*
X134080974Y-112928996D01*
X134080971Y-112929000D01*
X133989642Y-113077066D01*
X133989637Y-113077077D01*
X133934913Y-113242223D01*
X133924500Y-113344144D01*
X125006094Y-113344144D01*
X125224289Y-112929214D01*
X125225047Y-112928572D01*
X125242830Y-112893955D01*
X125260951Y-112859497D01*
X125260951Y-112859495D01*
X125265022Y-112851755D01*
X125266833Y-112847231D01*
X125524669Y-112345347D01*
X125525425Y-112344694D01*
X125542865Y-112309928D01*
X125560661Y-112275289D01*
X125560661Y-112275285D01*
X125564652Y-112267518D01*
X125566428Y-112262957D01*
X125818579Y-111760326D01*
X125819333Y-111759662D01*
X125836441Y-111724719D01*
X125853895Y-111689929D01*
X125853895Y-111689927D01*
X125857797Y-111682150D01*
X125859541Y-111677538D01*
X126106020Y-111174146D01*
X126106771Y-111173471D01*
X126123522Y-111138400D01*
X126140651Y-111103418D01*
X126140651Y-111103415D01*
X126144466Y-111095624D01*
X126146174Y-111090974D01*
X126386989Y-110586811D01*
X126387740Y-110586123D01*
X126404197Y-110550785D01*
X126420931Y-110515752D01*
X126420931Y-110515750D01*
X126424668Y-110507927D01*
X126426336Y-110503245D01*
X126661492Y-109998312D01*
X126662239Y-109997614D01*
X126678318Y-109962183D01*
X126694736Y-109926931D01*
X126694736Y-109926929D01*
X126698381Y-109919103D01*
X126700018Y-109914368D01*
X126723547Y-109862523D01*
X126929528Y-109408648D01*
X126930271Y-109407940D01*
X126945989Y-109372376D01*
X126962067Y-109336950D01*
X126962067Y-109336949D01*
X126965628Y-109329104D01*
X126967229Y-109324320D01*
X126988475Y-109276251D01*
X126989740Y-109273388D01*
X142401735Y-109273388D01*
X142401735Y-109431081D01*
X142432496Y-109585724D01*
X142432499Y-109585736D01*
X142492837Y-109731407D01*
X142492844Y-109731420D01*
X142580445Y-109862523D01*
X142580448Y-109862527D01*
X142691942Y-109974021D01*
X142691946Y-109974024D01*
X142823049Y-110061625D01*
X142823062Y-110061632D01*
X142968733Y-110121970D01*
X142968738Y-110121972D01*
X143031308Y-110134418D01*
X143124084Y-110152873D01*
X143140840Y-110161637D01*
X143159320Y-110165658D01*
X143184358Y-110184402D01*
X143185995Y-110185258D01*
X143187574Y-110186809D01*
X143201444Y-110200679D01*
X143234929Y-110262002D01*
X143237763Y-110288360D01*
X143237763Y-110292111D01*
X143268524Y-110446754D01*
X143268527Y-110446766D01*
X143328865Y-110592437D01*
X143328872Y-110592450D01*
X143416473Y-110723553D01*
X143416476Y-110723557D01*
X143527970Y-110835051D01*
X143527974Y-110835054D01*
X143659077Y-110922655D01*
X143659090Y-110922662D01*
X143758403Y-110963798D01*
X143804766Y-110983002D01*
X143959416Y-111013764D01*
X143959419Y-111013765D01*
X143959421Y-111013765D01*
X144117107Y-111013765D01*
X144117108Y-111013764D01*
X144271760Y-110983002D01*
X144417442Y-110922659D01*
X144548552Y-110835054D01*
X144660052Y-110723554D01*
X144747657Y-110592444D01*
X144808000Y-110446762D01*
X144838763Y-110292107D01*
X144838763Y-110134423D01*
X144838763Y-110134420D01*
X144838762Y-110134418D01*
X144808000Y-109979768D01*
X144800482Y-109961617D01*
X144747660Y-109834092D01*
X144747653Y-109834079D01*
X144660052Y-109702976D01*
X144660049Y-109702972D01*
X144548555Y-109591478D01*
X144548551Y-109591475D01*
X144417448Y-109503874D01*
X144417435Y-109503867D01*
X144271764Y-109443529D01*
X144271754Y-109443526D01*
X144147622Y-109418834D01*
X144130865Y-109410068D01*
X144112387Y-109406049D01*
X144087350Y-109387306D01*
X144085711Y-109386449D01*
X144084133Y-109384898D01*
X144036809Y-109337574D01*
X144003324Y-109276251D01*
X144002873Y-109274084D01*
X143971973Y-109118745D01*
X143971972Y-109118738D01*
X143945092Y-109053844D01*
X143911632Y-108973062D01*
X143911625Y-108973049D01*
X143824024Y-108841946D01*
X143824021Y-108841942D01*
X143712527Y-108730448D01*
X143712523Y-108730445D01*
X143581420Y-108642844D01*
X143581407Y-108642837D01*
X143435736Y-108582499D01*
X143435724Y-108582496D01*
X143281080Y-108551735D01*
X143281077Y-108551735D01*
X143123393Y-108551735D01*
X143123390Y-108551735D01*
X142968745Y-108582496D01*
X142968733Y-108582499D01*
X142823062Y-108642837D01*
X142823049Y-108642844D01*
X142691946Y-108730445D01*
X142691942Y-108730448D01*
X142580448Y-108841942D01*
X142580445Y-108841946D01*
X142492844Y-108973049D01*
X142492837Y-108973062D01*
X142432499Y-109118733D01*
X142432496Y-109118745D01*
X142401735Y-109273388D01*
X126989740Y-109273388D01*
X127191094Y-108817818D01*
X127191833Y-108817100D01*
X127207186Y-108781410D01*
X127222922Y-108745808D01*
X127222922Y-108745806D01*
X127226401Y-108737936D01*
X127227957Y-108733124D01*
X127446195Y-108225822D01*
X127446931Y-108225092D01*
X127461937Y-108189228D01*
X127477306Y-108153504D01*
X127477306Y-108153502D01*
X127480700Y-108145613D01*
X127482216Y-108140765D01*
X127539366Y-108004185D01*
X127694828Y-107632655D01*
X127695560Y-107631915D01*
X127710203Y-107595913D01*
X127725216Y-107560035D01*
X127725216Y-107560032D01*
X127728534Y-107552103D01*
X127730004Y-107547228D01*
X127730441Y-107546153D01*
X144977499Y-107546153D01*
X144977499Y-107703846D01*
X145008260Y-107858489D01*
X145008263Y-107858501D01*
X145068601Y-108004172D01*
X145068608Y-108004185D01*
X145156209Y-108135288D01*
X145156212Y-108135292D01*
X145267706Y-108246786D01*
X145267710Y-108246789D01*
X145398813Y-108334390D01*
X145398826Y-108334397D01*
X145444253Y-108353213D01*
X145544502Y-108394737D01*
X145699152Y-108425499D01*
X145699155Y-108425500D01*
X145699157Y-108425500D01*
X145724902Y-108425500D01*
X145754338Y-108434143D01*
X145784328Y-108440667D01*
X145789344Y-108444422D01*
X145791941Y-108445185D01*
X145812582Y-108461818D01*
X145859283Y-108508519D01*
X145859284Y-108508519D01*
X145866352Y-108515587D01*
X146340425Y-108989660D01*
X146373910Y-109050983D01*
X146374361Y-109053149D01*
X146405261Y-109208491D01*
X146405264Y-109208501D01*
X146465602Y-109354172D01*
X146465609Y-109354185D01*
X146553210Y-109485288D01*
X146553213Y-109485292D01*
X146664707Y-109596786D01*
X146664711Y-109596789D01*
X146795814Y-109684390D01*
X146795827Y-109684397D01*
X146941498Y-109744735D01*
X146941503Y-109744737D01*
X147096153Y-109775499D01*
X147096156Y-109775500D01*
X147096158Y-109775500D01*
X147253844Y-109775500D01*
X147253845Y-109775499D01*
X147408497Y-109744737D01*
X147554179Y-109684394D01*
X147685289Y-109596789D01*
X147796789Y-109485289D01*
X147884394Y-109354179D01*
X147944737Y-109208497D01*
X147975500Y-109053842D01*
X147975500Y-108896158D01*
X147975500Y-108896155D01*
X147975499Y-108896153D01*
X147971446Y-108875779D01*
X147944737Y-108741503D01*
X147940157Y-108730445D01*
X147884397Y-108595827D01*
X147884390Y-108595814D01*
X147796789Y-108464711D01*
X147796786Y-108464707D01*
X147685292Y-108353213D01*
X147685288Y-108353210D01*
X147554185Y-108265609D01*
X147554172Y-108265602D01*
X147408501Y-108205264D01*
X147408489Y-108205261D01*
X147253151Y-108174362D01*
X147191240Y-108141977D01*
X147189713Y-108140477D01*
X146724158Y-107674923D01*
X146723118Y-107673871D01*
X146712240Y-107662729D01*
X146708519Y-107656284D01*
X146599651Y-107547416D01*
X146599114Y-107546866D01*
X146583070Y-107516631D01*
X146566671Y-107486597D01*
X146566371Y-107485161D01*
X146566364Y-107485147D01*
X146566365Y-107485130D01*
X146566240Y-107484534D01*
X146547736Y-107391503D01*
X146532650Y-107355082D01*
X146487396Y-107245827D01*
X146487389Y-107245814D01*
X146399788Y-107114711D01*
X146399785Y-107114707D01*
X146288291Y-107003213D01*
X146288287Y-107003210D01*
X146157184Y-106915609D01*
X146157171Y-106915602D01*
X146011500Y-106855264D01*
X146011488Y-106855261D01*
X145856844Y-106824500D01*
X145856841Y-106824500D01*
X145699157Y-106824500D01*
X145699154Y-106824500D01*
X145544509Y-106855261D01*
X145544497Y-106855264D01*
X145398826Y-106915602D01*
X145398813Y-106915609D01*
X145267710Y-107003210D01*
X145267706Y-107003213D01*
X145156212Y-107114707D01*
X145156209Y-107114711D01*
X145068608Y-107245814D01*
X145068601Y-107245827D01*
X145008263Y-107391498D01*
X145008260Y-107391510D01*
X144977499Y-107546153D01*
X127730441Y-107546153D01*
X127936997Y-107038315D01*
X127937725Y-107037564D01*
X127952008Y-107001410D01*
X127966656Y-106965398D01*
X127966655Y-106965397D01*
X127969882Y-106957467D01*
X127971311Y-106952551D01*
X128172704Y-106442796D01*
X128173425Y-106442037D01*
X128187306Y-106405835D01*
X128201626Y-106369592D01*
X128201625Y-106369589D01*
X128204768Y-106361637D01*
X128206156Y-106356678D01*
X128401943Y-105846104D01*
X128402661Y-105845333D01*
X128416202Y-105808922D01*
X128430125Y-105772614D01*
X128430124Y-105772611D01*
X128430683Y-105771153D01*
X132074500Y-105771153D01*
X132074500Y-105928846D01*
X132105261Y-106083489D01*
X132105264Y-106083501D01*
X132165602Y-106229172D01*
X132165609Y-106229185D01*
X132253210Y-106360288D01*
X132253213Y-106360292D01*
X132364707Y-106471786D01*
X132364711Y-106471789D01*
X132495814Y-106559390D01*
X132495827Y-106559397D01*
X132641498Y-106619735D01*
X132641503Y-106619737D01*
X132796153Y-106650499D01*
X132796156Y-106650500D01*
X132796158Y-106650500D01*
X132953844Y-106650500D01*
X132953845Y-106650499D01*
X133108497Y-106619737D01*
X133254179Y-106559394D01*
X133254185Y-106559390D01*
X133385875Y-106471398D01*
X133452553Y-106450520D01*
X133454766Y-106450500D01*
X133896234Y-106450500D01*
X133963273Y-106470185D01*
X133965125Y-106471398D01*
X134096814Y-106559390D01*
X134096827Y-106559397D01*
X134242498Y-106619735D01*
X134242503Y-106619737D01*
X134397153Y-106650499D01*
X134397156Y-106650500D01*
X134397158Y-106650500D01*
X134554844Y-106650500D01*
X134554845Y-106650499D01*
X134709497Y-106619737D01*
X134855179Y-106559394D01*
X134986289Y-106471789D01*
X135097789Y-106360289D01*
X135185394Y-106229179D01*
X135245737Y-106083497D01*
X135276500Y-105928842D01*
X135276500Y-105771158D01*
X135276500Y-105771155D01*
X135276499Y-105771153D01*
X135274213Y-105759663D01*
X135245737Y-105616503D01*
X135210917Y-105532439D01*
X135185397Y-105470827D01*
X135185390Y-105470814D01*
X135097789Y-105339711D01*
X135097786Y-105339707D01*
X134986292Y-105228213D01*
X134986288Y-105228210D01*
X134855185Y-105140609D01*
X134855172Y-105140602D01*
X134709501Y-105080264D01*
X134709489Y-105080261D01*
X134554845Y-105049500D01*
X134554842Y-105049500D01*
X134397158Y-105049500D01*
X134397155Y-105049500D01*
X134242510Y-105080261D01*
X134242498Y-105080264D01*
X134096827Y-105140602D01*
X134096814Y-105140609D01*
X133965125Y-105228602D01*
X133898447Y-105249480D01*
X133896234Y-105249500D01*
X133454766Y-105249500D01*
X133387727Y-105229815D01*
X133385875Y-105228602D01*
X133254185Y-105140609D01*
X133254172Y-105140602D01*
X133108501Y-105080264D01*
X133108489Y-105080261D01*
X132953845Y-105049500D01*
X132953842Y-105049500D01*
X132796158Y-105049500D01*
X132796155Y-105049500D01*
X132641510Y-105080261D01*
X132641498Y-105080264D01*
X132495827Y-105140602D01*
X132495814Y-105140609D01*
X132364711Y-105228210D01*
X132364707Y-105228213D01*
X132253213Y-105339707D01*
X132253210Y-105339711D01*
X132165609Y-105470814D01*
X132165602Y-105470827D01*
X132105264Y-105616498D01*
X132105261Y-105616510D01*
X132074500Y-105771153D01*
X128430683Y-105771153D01*
X128433180Y-105764645D01*
X128434521Y-105759663D01*
X128448584Y-105721848D01*
X128448586Y-105721843D01*
X128624721Y-105248232D01*
X128625433Y-105247451D01*
X128638602Y-105210907D01*
X128652156Y-105174463D01*
X128652155Y-105174461D01*
X128655126Y-105166476D01*
X128656420Y-105161464D01*
X128841035Y-104649177D01*
X128841742Y-104648386D01*
X128854538Y-104611709D01*
X128867719Y-104575135D01*
X128867718Y-104575133D01*
X128870602Y-104567134D01*
X128871850Y-104562089D01*
X129050889Y-104048939D01*
X129051590Y-104048138D01*
X129064014Y-104011319D01*
X129076815Y-103974633D01*
X129076814Y-103974631D01*
X129079614Y-103966609D01*
X129080814Y-103961537D01*
X129254254Y-103447593D01*
X129254895Y-103446846D01*
X129266992Y-103409847D01*
X129279444Y-103372950D01*
X129279443Y-103372948D01*
X129282249Y-103364636D01*
X129283315Y-103359920D01*
X129454788Y-102835487D01*
X129455403Y-102834758D01*
X129467165Y-102797635D01*
X129479281Y-102760581D01*
X129479280Y-102760579D01*
X129482041Y-102752138D01*
X129483030Y-102747560D01*
X129645961Y-102233350D01*
X129646613Y-102232560D01*
X129657992Y-102195378D01*
X129669745Y-102158288D01*
X129669744Y-102158286D01*
X129672348Y-102150071D01*
X129673363Y-102145154D01*
X129828133Y-101639469D01*
X129828819Y-101638621D01*
X129839812Y-101601310D01*
X129851159Y-101564238D01*
X129851158Y-101564236D01*
X129853622Y-101556190D01*
X129854644Y-101550973D01*
X130001607Y-101052207D01*
X130002318Y-101051307D01*
X130012862Y-101014006D01*
X130023827Y-100976797D01*
X130023826Y-100976795D01*
X130026154Y-100968899D01*
X130027172Y-100963391D01*
X130166674Y-100469939D01*
X130167407Y-100468990D01*
X130177513Y-100431602D01*
X130188048Y-100394338D01*
X130188047Y-100394335D01*
X130190245Y-100386563D01*
X130191242Y-100380807D01*
X130206398Y-100324737D01*
X130323630Y-99891037D01*
X130324378Y-99890044D01*
X130334042Y-99852520D01*
X130344121Y-99815234D01*
X130344120Y-99815233D01*
X130346196Y-99807557D01*
X130347156Y-99801599D01*
X130406865Y-99569767D01*
X130472772Y-99313871D01*
X130473525Y-99312845D01*
X130482708Y-99275293D01*
X130492349Y-99237861D01*
X130492348Y-99237858D01*
X130494304Y-99230267D01*
X130495211Y-99224162D01*
X130614390Y-98736823D01*
X130615143Y-98735770D01*
X130623855Y-98698118D01*
X130633031Y-98660600D01*
X130633030Y-98660599D01*
X130634878Y-98653048D01*
X130635726Y-98646817D01*
X130673814Y-98482226D01*
X130748781Y-98158269D01*
X130749526Y-98157199D01*
X130757762Y-98119461D01*
X130766470Y-98081831D01*
X130766469Y-98081829D01*
X130768214Y-98074293D01*
X130768991Y-98068006D01*
X130876240Y-97576591D01*
X130876971Y-97575512D01*
X130884737Y-97537656D01*
X130892970Y-97499935D01*
X130892969Y-97499933D01*
X130894620Y-97492373D01*
X130895317Y-97486085D01*
X130901770Y-97454633D01*
X130997061Y-96990167D01*
X130997772Y-96989089D01*
X131005076Y-96951100D01*
X131012833Y-96913293D01*
X131012832Y-96913292D01*
X131014394Y-96905685D01*
X131015006Y-96899453D01*
X131111545Y-96397373D01*
X131112229Y-96396309D01*
X131119057Y-96358304D01*
X131126367Y-96320291D01*
X131126366Y-96320289D01*
X131127849Y-96312581D01*
X131128376Y-96306441D01*
X131139570Y-96244144D01*
X141387000Y-96244144D01*
X141387000Y-97255855D01*
X141397413Y-97357776D01*
X141452137Y-97522922D01*
X141452142Y-97522933D01*
X141543471Y-97670999D01*
X141543474Y-97671003D01*
X141666496Y-97794025D01*
X141666500Y-97794028D01*
X141814566Y-97885357D01*
X141814569Y-97885358D01*
X141814575Y-97885362D01*
X141979725Y-97940087D01*
X142081652Y-97950500D01*
X142081657Y-97950500D01*
X142668343Y-97950500D01*
X142668348Y-97950500D01*
X142770275Y-97940087D01*
X142935425Y-97885362D01*
X143083503Y-97794026D01*
X143206526Y-97671003D01*
X143206958Y-97670301D01*
X143207381Y-97669921D01*
X143211007Y-97665336D01*
X143211790Y-97665955D01*
X143258902Y-97623575D01*
X143327864Y-97612349D01*
X143391948Y-97640188D01*
X143413842Y-97665455D01*
X143413993Y-97665336D01*
X143416643Y-97668687D01*
X143418040Y-97670299D01*
X143418472Y-97670999D01*
X143418475Y-97671004D01*
X143541496Y-97794025D01*
X143541500Y-97794028D01*
X143689566Y-97885357D01*
X143689569Y-97885358D01*
X143689575Y-97885362D01*
X143854725Y-97940087D01*
X143956652Y-97950500D01*
X143956657Y-97950500D01*
X144543343Y-97950500D01*
X144543348Y-97950500D01*
X144645275Y-97940087D01*
X144810425Y-97885362D01*
X144958503Y-97794026D01*
X145081526Y-97671003D01*
X145172862Y-97522925D01*
X145227587Y-97357775D01*
X145238000Y-97255848D01*
X145238000Y-96244152D01*
X145227587Y-96142225D01*
X145172862Y-95977075D01*
X145172858Y-95977069D01*
X145172857Y-95977066D01*
X145081528Y-95829000D01*
X145081525Y-95828996D01*
X144958503Y-95705974D01*
X144958499Y-95705971D01*
X144810433Y-95614642D01*
X144810427Y-95614639D01*
X144810425Y-95614638D01*
X144713336Y-95582466D01*
X144645276Y-95559913D01*
X144543355Y-95549500D01*
X144543348Y-95549500D01*
X143956652Y-95549500D01*
X143956644Y-95549500D01*
X143854723Y-95559913D01*
X143689577Y-95614637D01*
X143689566Y-95614642D01*
X143541500Y-95705971D01*
X143541496Y-95705974D01*
X143418474Y-95828996D01*
X143418471Y-95829000D01*
X143418038Y-95829703D01*
X143417614Y-95830083D01*
X143413993Y-95834664D01*
X143413210Y-95834045D01*
X143366090Y-95876428D01*
X143297128Y-95887649D01*
X143233046Y-95859806D01*
X143211157Y-95834544D01*
X143211007Y-95834664D01*
X143208359Y-95831315D01*
X143206962Y-95829703D01*
X143206528Y-95829000D01*
X143206525Y-95828996D01*
X143083503Y-95705974D01*
X143083499Y-95705971D01*
X142935433Y-95614642D01*
X142935427Y-95614639D01*
X142935425Y-95614638D01*
X142838336Y-95582466D01*
X142770276Y-95559913D01*
X142668355Y-95549500D01*
X142668348Y-95549500D01*
X142081652Y-95549500D01*
X142081644Y-95549500D01*
X141979723Y-95559913D01*
X141814577Y-95614637D01*
X141814566Y-95614642D01*
X141666500Y-95705971D01*
X141666496Y-95705974D01*
X141543474Y-95828996D01*
X141543471Y-95829000D01*
X141452142Y-95977066D01*
X141452137Y-95977077D01*
X141397413Y-96142223D01*
X141387000Y-96244144D01*
X131139570Y-96244144D01*
X131219988Y-95796595D01*
X131220643Y-95795549D01*
X131227037Y-95757365D01*
X131233877Y-95719303D01*
X131233876Y-95719300D01*
X131235287Y-95711451D01*
X131235726Y-95705479D01*
X131322692Y-95186204D01*
X131323311Y-95185189D01*
X131329260Y-95146984D01*
X131335670Y-95108713D01*
X131335669Y-95108709D01*
X131337006Y-95100730D01*
X131337367Y-95094924D01*
X131417991Y-94577198D01*
X131417991Y-94577197D01*
X131419811Y-94565514D01*
X131419956Y-94564582D01*
X131420541Y-94563600D01*
X131426091Y-94525189D01*
X131432055Y-94486896D01*
X131432054Y-94486893D01*
X131433325Y-94478734D01*
X131433608Y-94473170D01*
X131496949Y-94034848D01*
X131512087Y-93930093D01*
X131512632Y-93929155D01*
X131517778Y-93890713D01*
X131523340Y-93852226D01*
X131523339Y-93852224D01*
X131524546Y-93843878D01*
X131524757Y-93838572D01*
X131599386Y-93281117D01*
X131599892Y-93280226D01*
X131604670Y-93241644D01*
X131609834Y-93203076D01*
X131609833Y-93203074D01*
X131610979Y-93194519D01*
X131611128Y-93189499D01*
X131682161Y-92616017D01*
X131682628Y-92615177D01*
X131687060Y-92576462D01*
X131691848Y-92537812D01*
X131691847Y-92537810D01*
X131692933Y-92529050D01*
X131693030Y-92524322D01*
X131760717Y-91933160D01*
X131761145Y-91932374D01*
X131765253Y-91893537D01*
X131769689Y-91854803D01*
X131769688Y-91854800D01*
X131770718Y-91845811D01*
X131770769Y-91841407D01*
X131772566Y-91824422D01*
X131835361Y-91230909D01*
X131835751Y-91230180D01*
X131839556Y-91191256D01*
X131843667Y-91152410D01*
X131843666Y-91152408D01*
X131844645Y-91143161D01*
X131844658Y-91139074D01*
X131845378Y-91131715D01*
X131906402Y-90507626D01*
X131906756Y-90506952D01*
X131910291Y-90467858D01*
X131914091Y-90428996D01*
X131914090Y-90428995D01*
X131915018Y-90419514D01*
X131915001Y-90415763D01*
X131974148Y-89761666D01*
X131974465Y-89761052D01*
X131977730Y-89722053D01*
X131981269Y-89682918D01*
X131981268Y-89682916D01*
X131982145Y-89673224D01*
X131982106Y-89669783D01*
X131984900Y-89636412D01*
X132038905Y-88991396D01*
X132039190Y-88990836D01*
X132042237Y-88951593D01*
X132045508Y-88912534D01*
X132045507Y-88912533D01*
X132046340Y-88902600D01*
X132046284Y-88899484D01*
X132101085Y-88193868D01*
X132101901Y-88192189D01*
X132104170Y-88154142D01*
X132107117Y-88116202D01*
X132107116Y-88116200D01*
X132107584Y-88110182D01*
X132107321Y-88101314D01*
X132120689Y-87877200D01*
X132121507Y-87875435D01*
X132123060Y-87837446D01*
X132125323Y-87799520D01*
X132125322Y-87799518D01*
X132125668Y-87793724D01*
X132125226Y-87784502D01*
X132137632Y-87481165D01*
X132138154Y-87468404D01*
X132138631Y-87467345D01*
X132139782Y-87428600D01*
X132141367Y-87389869D01*
X132141366Y-87389867D01*
X132141701Y-87381686D01*
X132141345Y-87376024D01*
X132153183Y-86977861D01*
X132153499Y-86977144D01*
X132154364Y-86938107D01*
X132155530Y-86898918D01*
X132155529Y-86898917D01*
X132155810Y-86889495D01*
X132155528Y-86885619D01*
X132165967Y-86415033D01*
X132166198Y-86414503D01*
X132166851Y-86375186D01*
X132167724Y-86335867D01*
X132167723Y-86335866D01*
X132167949Y-86325740D01*
X132167721Y-86322855D01*
X132170647Y-86146943D01*
X132176588Y-85789678D01*
X132176767Y-85789262D01*
X132177250Y-85749844D01*
X132177907Y-85710381D01*
X132177906Y-85710379D01*
X132178082Y-85699826D01*
X132177892Y-85697557D01*
X132178341Y-85661022D01*
X132185082Y-85111672D01*
X132185230Y-85111326D01*
X132185572Y-85071727D01*
X132186057Y-85032290D01*
X132186056Y-85032288D01*
X132186190Y-85021418D01*
X132186024Y-85019538D01*
X132187489Y-84850500D01*
X132191469Y-84390935D01*
X132191596Y-84390636D01*
X132191813Y-84351229D01*
X132192158Y-84311502D01*
X132192254Y-84300484D01*
X132192103Y-84298831D01*
X132192581Y-84212373D01*
X132195760Y-83637424D01*
X132195875Y-83637150D01*
X132195982Y-83597332D01*
X132196200Y-83557955D01*
X132196199Y-83557953D01*
X132196261Y-83546821D01*
X132196122Y-83545341D01*
X132197203Y-83144144D01*
X155624500Y-83144144D01*
X155624500Y-84155855D01*
X155634913Y-84257776D01*
X155689637Y-84422922D01*
X155689642Y-84422933D01*
X155780971Y-84570999D01*
X155780974Y-84571003D01*
X155903996Y-84694025D01*
X155904000Y-84694028D01*
X156052066Y-84785357D01*
X156052069Y-84785358D01*
X156052075Y-84785362D01*
X156217225Y-84840087D01*
X156319152Y-84850500D01*
X156319157Y-84850500D01*
X156905843Y-84850500D01*
X156905848Y-84850500D01*
X157007775Y-84840087D01*
X157172925Y-84785362D01*
X157321003Y-84694026D01*
X157444026Y-84571003D01*
X157444458Y-84570301D01*
X157444881Y-84569921D01*
X157448507Y-84565336D01*
X157449290Y-84565955D01*
X157496402Y-84523575D01*
X157565364Y-84512349D01*
X157629448Y-84540188D01*
X157651342Y-84565455D01*
X157651493Y-84565336D01*
X157654143Y-84568687D01*
X157655540Y-84570299D01*
X157655972Y-84570999D01*
X157655975Y-84571004D01*
X157778996Y-84694025D01*
X157779000Y-84694028D01*
X157927066Y-84785357D01*
X157927069Y-84785358D01*
X157927075Y-84785362D01*
X158092225Y-84840087D01*
X158194152Y-84850500D01*
X158194157Y-84850500D01*
X158780843Y-84850500D01*
X158780848Y-84850500D01*
X158882775Y-84840087D01*
X159047925Y-84785362D01*
X159196003Y-84694026D01*
X159319026Y-84571003D01*
X159410362Y-84422925D01*
X159465087Y-84257775D01*
X159475500Y-84155848D01*
X159475500Y-83144152D01*
X159465087Y-83042225D01*
X159410362Y-82877075D01*
X159410358Y-82877069D01*
X159410357Y-82877066D01*
X159319028Y-82729000D01*
X159319025Y-82728996D01*
X159196003Y-82605974D01*
X159195999Y-82605971D01*
X159047933Y-82514642D01*
X159047927Y-82514639D01*
X159047925Y-82514638D01*
X159047922Y-82514637D01*
X158882776Y-82459913D01*
X158780855Y-82449500D01*
X158780848Y-82449500D01*
X158194152Y-82449500D01*
X158194144Y-82449500D01*
X158092223Y-82459913D01*
X157927077Y-82514637D01*
X157927066Y-82514642D01*
X157779000Y-82605971D01*
X157778996Y-82605974D01*
X157655974Y-82728996D01*
X157655971Y-82729000D01*
X157655538Y-82729703D01*
X157655114Y-82730083D01*
X157651493Y-82734664D01*
X157650710Y-82734045D01*
X157603590Y-82776428D01*
X157534628Y-82787649D01*
X157470546Y-82759806D01*
X157448657Y-82734544D01*
X157448507Y-82734664D01*
X157445859Y-82731315D01*
X157444462Y-82729703D01*
X157444028Y-82729000D01*
X157444025Y-82728996D01*
X157321003Y-82605974D01*
X157320999Y-82605971D01*
X157172933Y-82514642D01*
X157172927Y-82514639D01*
X157172925Y-82514638D01*
X157172922Y-82514637D01*
X157007776Y-82459913D01*
X156905855Y-82449500D01*
X156905848Y-82449500D01*
X156319152Y-82449500D01*
X156319144Y-82449500D01*
X156217223Y-82459913D01*
X156052077Y-82514637D01*
X156052066Y-82514642D01*
X155904000Y-82605971D01*
X155903996Y-82605974D01*
X155780974Y-82728996D01*
X155780971Y-82729000D01*
X155689642Y-82877066D01*
X155689637Y-82877077D01*
X155634913Y-83042223D01*
X155624500Y-83144144D01*
X132197203Y-83144144D01*
X132197212Y-83140661D01*
X132197803Y-82921249D01*
X132197965Y-82861092D01*
X132198072Y-82860836D01*
X132198072Y-82821373D01*
X132198180Y-82781608D01*
X132198179Y-82781607D01*
X132198210Y-82770368D01*
X132198073Y-82768963D01*
X132198076Y-82651039D01*
X132198089Y-82071920D01*
X132198193Y-82071668D01*
X132198090Y-82032080D01*
X132198091Y-81992429D01*
X132198090Y-81992426D01*
X132198090Y-81981201D01*
X132197953Y-81979840D01*
X132196135Y-81279876D01*
X132196240Y-81279620D01*
X132196032Y-81240233D01*
X132195929Y-81200392D01*
X132195928Y-81200389D01*
X132195899Y-81189211D01*
X132195756Y-81187808D01*
X132192106Y-80494937D01*
X132192217Y-80494665D01*
X132191896Y-80455004D01*
X132191688Y-80415468D01*
X132191687Y-80415467D01*
X132191629Y-80404334D01*
X132191474Y-80402856D01*
X132189715Y-80185357D01*
X132186009Y-79727073D01*
X132186130Y-79726773D01*
X132185686Y-79687102D01*
X132185367Y-79647635D01*
X132185366Y-79647633D01*
X132185277Y-79636592D01*
X132185102Y-79634984D01*
X132177845Y-78986251D01*
X132177982Y-78985907D01*
X132177396Y-78946179D01*
X132176957Y-78906860D01*
X132176956Y-78906859D01*
X132176835Y-78895958D01*
X132176629Y-78894119D01*
X132176547Y-78888529D01*
X132171475Y-78544144D01*
X138474500Y-78544144D01*
X138474500Y-79555855D01*
X138484913Y-79657776D01*
X138539637Y-79822922D01*
X138539642Y-79822933D01*
X138630971Y-79970999D01*
X138630974Y-79971003D01*
X138753996Y-80094025D01*
X138754000Y-80094028D01*
X138902066Y-80185357D01*
X138902069Y-80185358D01*
X138902075Y-80185362D01*
X139067225Y-80240087D01*
X139169152Y-80250500D01*
X139169157Y-80250500D01*
X139755843Y-80250500D01*
X139755848Y-80250500D01*
X139857775Y-80240087D01*
X140022925Y-80185362D01*
X140171003Y-80094026D01*
X140294026Y-79971003D01*
X140294458Y-79970301D01*
X140294881Y-79969921D01*
X140298507Y-79965336D01*
X140299290Y-79965955D01*
X140346402Y-79923575D01*
X140415364Y-79912349D01*
X140479448Y-79940188D01*
X140501342Y-79965455D01*
X140501493Y-79965336D01*
X140504143Y-79968687D01*
X140505540Y-79970299D01*
X140505972Y-79970999D01*
X140505975Y-79971004D01*
X140628996Y-80094025D01*
X140629000Y-80094028D01*
X140777066Y-80185357D01*
X140777069Y-80185358D01*
X140777075Y-80185362D01*
X140942225Y-80240087D01*
X141044152Y-80250500D01*
X141044157Y-80250500D01*
X141630843Y-80250500D01*
X141630848Y-80250500D01*
X141732775Y-80240087D01*
X141897925Y-80185362D01*
X142046003Y-80094026D01*
X142169026Y-79971003D01*
X142260362Y-79822925D01*
X142315087Y-79657775D01*
X142325500Y-79555848D01*
X142325500Y-78544152D01*
X142315087Y-78442225D01*
X142260362Y-78277075D01*
X142260358Y-78277069D01*
X142260357Y-78277066D01*
X142169028Y-78129000D01*
X142169025Y-78128996D01*
X142046003Y-78005974D01*
X142045999Y-78005971D01*
X141897933Y-77914642D01*
X141897927Y-77914639D01*
X141897925Y-77914638D01*
X141897922Y-77914637D01*
X141732776Y-77859913D01*
X141630855Y-77849500D01*
X141630848Y-77849500D01*
X141044152Y-77849500D01*
X141044144Y-77849500D01*
X140942223Y-77859913D01*
X140777077Y-77914637D01*
X140777066Y-77914642D01*
X140629000Y-78005971D01*
X140628996Y-78005974D01*
X140505974Y-78128996D01*
X140505971Y-78129000D01*
X140505538Y-78129703D01*
X140505114Y-78130083D01*
X140501493Y-78134664D01*
X140500710Y-78134045D01*
X140453590Y-78176428D01*
X140384628Y-78187649D01*
X140320546Y-78159806D01*
X140298657Y-78134544D01*
X140298507Y-78134664D01*
X140295859Y-78131315D01*
X140294462Y-78129703D01*
X140294028Y-78129000D01*
X140294025Y-78128996D01*
X140171003Y-78005974D01*
X140170999Y-78005971D01*
X140022933Y-77914642D01*
X140022927Y-77914639D01*
X140022925Y-77914638D01*
X140022922Y-77914637D01*
X139857776Y-77859913D01*
X139755855Y-77849500D01*
X139755848Y-77849500D01*
X139169152Y-77849500D01*
X139169144Y-77849500D01*
X139067223Y-77859913D01*
X138902077Y-77914637D01*
X138902066Y-77914642D01*
X138754000Y-78005971D01*
X138753996Y-78005974D01*
X138630974Y-78128996D01*
X138630971Y-78129000D01*
X138539642Y-78277066D01*
X138539637Y-78277077D01*
X138484913Y-78442223D01*
X138474500Y-78544144D01*
X132171475Y-78544144D01*
X132167803Y-78294823D01*
X132167983Y-78292631D01*
X132167357Y-78259643D01*
X132167032Y-78242484D01*
X132166453Y-78203105D01*
X132166452Y-78203103D01*
X132166296Y-78192490D01*
X132166044Y-78190304D01*
X132164903Y-78130083D01*
X132155341Y-77625521D01*
X132155540Y-77625008D01*
X132154584Y-77585561D01*
X132153841Y-77546319D01*
X132153840Y-77546317D01*
X132153647Y-77536102D01*
X132153321Y-77533392D01*
X132141018Y-77025436D01*
X132141274Y-77024761D01*
X132140056Y-76985714D01*
X132139105Y-76946422D01*
X132139104Y-76946420D01*
X132138871Y-76936787D01*
X132138419Y-76933221D01*
X132124663Y-76491986D01*
X132125016Y-76491026D01*
X132123423Y-76452215D01*
X132122210Y-76413285D01*
X132122208Y-76413282D01*
X132121940Y-76404663D01*
X132121268Y-76399684D01*
X132118204Y-76324997D01*
X132106334Y-76035671D01*
X132106568Y-76035022D01*
X132104700Y-75995851D01*
X132103093Y-75956664D01*
X132103092Y-75956662D01*
X132102692Y-75946905D01*
X132102205Y-75943521D01*
X132080153Y-75480923D01*
X132080154Y-75480917D01*
X132080153Y-75480918D01*
X132051407Y-74877083D01*
X132051407Y-74877078D01*
X132022225Y-74263484D01*
X132022225Y-74263479D01*
X131991406Y-73614904D01*
X131991406Y-73614899D01*
X131967836Y-73118455D01*
X131959441Y-72941622D01*
X131956752Y-72884939D01*
X131955509Y-72858717D01*
X131955115Y-72850406D01*
X132912920Y-72850406D01*
X132919070Y-72967721D01*
X132919071Y-72967724D01*
X132926849Y-73009697D01*
X132928845Y-73020463D01*
X132965144Y-73132186D01*
X132988239Y-73180608D01*
X132988240Y-73180609D01*
X132988239Y-73180609D01*
X133011289Y-73216103D01*
X133052220Y-73279132D01*
X133087063Y-73319927D01*
X133149311Y-73375975D01*
X133174357Y-73398526D01*
X133174364Y-73398532D01*
X133218565Y-73428911D01*
X133218569Y-73428913D01*
X133218573Y-73428916D01*
X133323241Y-73482247D01*
X133373811Y-73500154D01*
X133488719Y-73524578D01*
X133542201Y-73528787D01*
X133659514Y-73522638D01*
X133712258Y-73512863D01*
X133766299Y-73495304D01*
X133823973Y-73476566D01*
X133823973Y-73476565D01*
X133823981Y-73476563D01*
X133872403Y-73453467D01*
X133970926Y-73389486D01*
X134011718Y-73354647D01*
X134090324Y-73267348D01*
X134120712Y-73223132D01*
X134174042Y-73118462D01*
X134191948Y-73067896D01*
X134216372Y-72952990D01*
X134220581Y-72899509D01*
X134220520Y-72898348D01*
X134214433Y-72782200D01*
X134214433Y-72782195D01*
X134204658Y-72729449D01*
X134168358Y-72617725D01*
X134145261Y-72569301D01*
X134081279Y-72470779D01*
X134046440Y-72429988D01*
X133995651Y-72384257D01*
X133959147Y-72351388D01*
X133959138Y-72351381D01*
X133914933Y-72321000D01*
X133914930Y-72320998D01*
X133914928Y-72320997D01*
X133810263Y-72267668D01*
X133810260Y-72267666D01*
X133759697Y-72249760D01*
X133759683Y-72249756D01*
X133653911Y-72227273D01*
X133644785Y-72225333D01*
X133591300Y-72221124D01*
X133591299Y-72221124D01*
X133473994Y-72227272D01*
X133473989Y-72227272D01*
X133473987Y-72227273D01*
X133457065Y-72230409D01*
X133421244Y-72237048D01*
X133421240Y-72237049D01*
X133309516Y-72273350D01*
X133309514Y-72273350D01*
X133261097Y-72296444D01*
X133162575Y-72360426D01*
X133121783Y-72395266D01*
X133121772Y-72395277D01*
X133043179Y-72482562D01*
X133043174Y-72482568D01*
X133012790Y-72526778D01*
X132959458Y-72631446D01*
X132941552Y-72682013D01*
X132941550Y-72682020D01*
X132917127Y-72796928D01*
X132913178Y-72847122D01*
X132912920Y-72850406D01*
X131955115Y-72850406D01*
X131930003Y-72320997D01*
X131930003Y-72320991D01*
X131917688Y-72061075D01*
X131905661Y-71807236D01*
X131905681Y-71806865D01*
X131905098Y-71794748D01*
X131905099Y-71794746D01*
X131903173Y-71754721D01*
X131901302Y-71715218D01*
X131901270Y-71715150D01*
X131877092Y-71212543D01*
X131877138Y-71211634D01*
X131874579Y-71160293D01*
X131874565Y-71160028D01*
X131872676Y-71120736D01*
X131872599Y-71120574D01*
X131848660Y-70640213D01*
X131848711Y-70639158D01*
X131848113Y-70627629D01*
X131848114Y-70627628D01*
X131846052Y-70587864D01*
X131844084Y-70548371D01*
X131843994Y-70548182D01*
X131819933Y-70084149D01*
X131819987Y-70082979D01*
X131819370Y-70071584D01*
X131819371Y-70071583D01*
X131817235Y-70032126D01*
X131815175Y-69992383D01*
X131815073Y-69992169D01*
X131807489Y-69852022D01*
X132755781Y-69852022D01*
X132761929Y-69969326D01*
X132761929Y-69969330D01*
X132761930Y-69969334D01*
X132766069Y-69991664D01*
X132771705Y-70022076D01*
X132771706Y-70022081D01*
X132808006Y-70133803D01*
X132808006Y-70133804D01*
X132831098Y-70182218D01*
X132831100Y-70182221D01*
X132831102Y-70182225D01*
X132895081Y-70280745D01*
X132909084Y-70297140D01*
X132929922Y-70321538D01*
X133017211Y-70400134D01*
X133017217Y-70400139D01*
X133017223Y-70400144D01*
X133017229Y-70400148D01*
X133017234Y-70400152D01*
X133061420Y-70430521D01*
X133061429Y-70430526D01*
X133061433Y-70430529D01*
X133061437Y-70430531D01*
X133166094Y-70483858D01*
X133166100Y-70483860D01*
X133166103Y-70483862D01*
X133216679Y-70501771D01*
X133331586Y-70526192D01*
X133385057Y-70530401D01*
X133502369Y-70524255D01*
X133555122Y-70514478D01*
X133666846Y-70478176D01*
X133715265Y-70455081D01*
X133813786Y-70391101D01*
X133854580Y-70356259D01*
X133933185Y-70268958D01*
X133963570Y-70224749D01*
X134016902Y-70120080D01*
X134034809Y-70069510D01*
X134059233Y-69954604D01*
X134063442Y-69901125D01*
X134057295Y-69783812D01*
X134047519Y-69731063D01*
X134024985Y-69661709D01*
X134011220Y-69619344D01*
X134011219Y-69619341D01*
X133988124Y-69570921D01*
X133988123Y-69570920D01*
X133988121Y-69570915D01*
X133943958Y-69502912D01*
X133924141Y-69472397D01*
X133902364Y-69446899D01*
X133889301Y-69431604D01*
X133889297Y-69431601D01*
X133889296Y-69431599D01*
X133802014Y-69353008D01*
X133802007Y-69353003D01*
X133802003Y-69352999D01*
X133793763Y-69347336D01*
X133757797Y-69322616D01*
X133757785Y-69322609D01*
X133653114Y-69269277D01*
X133602573Y-69251379D01*
X133602556Y-69251374D01*
X133602552Y-69251373D01*
X133487646Y-69226948D01*
X133434163Y-69222739D01*
X133434162Y-69222739D01*
X133316856Y-69228887D01*
X133316851Y-69228887D01*
X133316849Y-69228888D01*
X133301752Y-69231686D01*
X133264099Y-69238664D01*
X133152381Y-69274963D01*
X133152378Y-69274965D01*
X133103960Y-69298058D01*
X133005439Y-69362039D01*
X132964641Y-69396884D01*
X132886049Y-69484167D01*
X132886034Y-69484187D01*
X132855658Y-69528384D01*
X132855649Y-69528399D01*
X132802320Y-69633065D01*
X132784415Y-69683628D01*
X132759990Y-69798534D01*
X132755781Y-69852022D01*
X131807489Y-69852022D01*
X131789862Y-69526290D01*
X131789946Y-69526051D01*
X131787717Y-69486657D01*
X131785566Y-69446899D01*
X131785564Y-69446896D01*
X131784954Y-69435608D01*
X131784757Y-69434332D01*
X131784603Y-69431604D01*
X131759363Y-68985420D01*
X131759451Y-68985167D01*
X131757091Y-68945272D01*
X131754873Y-68906048D01*
X131754872Y-68906047D01*
X131754237Y-68894808D01*
X131754029Y-68893485D01*
X131727409Y-68443320D01*
X131727497Y-68443066D01*
X131725057Y-68403551D01*
X131722717Y-68363964D01*
X131722716Y-68363962D01*
X131722054Y-68352758D01*
X131721839Y-68351408D01*
X131716483Y-68264637D01*
X131693613Y-67894132D01*
X131693699Y-67893883D01*
X131691158Y-67854359D01*
X131688716Y-67814783D01*
X131688715Y-67814782D01*
X131688025Y-67803592D01*
X131687811Y-67802276D01*
X131674108Y-67589067D01*
X131657586Y-67331988D01*
X131657667Y-67331751D01*
X131655026Y-67292150D01*
X131652487Y-67252638D01*
X131652486Y-67252637D01*
X131651760Y-67241327D01*
X131651553Y-67240077D01*
X131647725Y-67182669D01*
X131618943Y-66751018D01*
X131619017Y-66750800D01*
X131616292Y-66711268D01*
X131613652Y-66671663D01*
X131613651Y-66671661D01*
X131612895Y-66660314D01*
X131612702Y-66659169D01*
X131577296Y-66145354D01*
X131577362Y-66145157D01*
X131574551Y-66105519D01*
X131571827Y-66065986D01*
X131571826Y-66065984D01*
X131571035Y-66054500D01*
X131570859Y-66053461D01*
X131563159Y-65944880D01*
X131532259Y-65509117D01*
X131532316Y-65508946D01*
X131529458Y-65469617D01*
X131526630Y-65429736D01*
X131526629Y-65429735D01*
X131525814Y-65418228D01*
X131525657Y-65417312D01*
X131507593Y-65168735D01*
X131483445Y-64836432D01*
X131483495Y-64836283D01*
X131480534Y-64796370D01*
X131477676Y-64757032D01*
X131477675Y-64757031D01*
X131476830Y-64745388D01*
X131476695Y-64744617D01*
X131430472Y-64121412D01*
X131430513Y-64121289D01*
X131427520Y-64081613D01*
X131424582Y-64041998D01*
X131424581Y-64041997D01*
X131423714Y-64030299D01*
X131423600Y-64029650D01*
X131372952Y-63358179D01*
X131372986Y-63358077D01*
X131369923Y-63318020D01*
X131366961Y-63278746D01*
X131366073Y-63266970D01*
X131365979Y-63266439D01*
X131310503Y-62540842D01*
X131310530Y-62540761D01*
X131307419Y-62500500D01*
X131304429Y-62461395D01*
X131304428Y-62461394D01*
X131303522Y-62449532D01*
X131303447Y-62449109D01*
X131301880Y-62428837D01*
X131239685Y-61624002D01*
X131207044Y-61194144D01*
X137552000Y-61194144D01*
X137552000Y-62205855D01*
X137562413Y-62307776D01*
X137617137Y-62472922D01*
X137617142Y-62472933D01*
X137708471Y-62620999D01*
X137708474Y-62621003D01*
X137831496Y-62744025D01*
X137831500Y-62744028D01*
X137979566Y-62835357D01*
X137979569Y-62835358D01*
X137979575Y-62835362D01*
X138144725Y-62890087D01*
X138246652Y-62900500D01*
X138246657Y-62900500D01*
X138833343Y-62900500D01*
X138833348Y-62900500D01*
X138935275Y-62890087D01*
X139100425Y-62835362D01*
X139248503Y-62744026D01*
X139371526Y-62621003D01*
X139371958Y-62620301D01*
X139372381Y-62619921D01*
X139376007Y-62615336D01*
X139376790Y-62615955D01*
X139423902Y-62573575D01*
X139492864Y-62562349D01*
X139556948Y-62590188D01*
X139578842Y-62615455D01*
X139578993Y-62615336D01*
X139581643Y-62618687D01*
X139583040Y-62620299D01*
X139583472Y-62620999D01*
X139583475Y-62621004D01*
X139706496Y-62744025D01*
X139706500Y-62744028D01*
X139854566Y-62835357D01*
X139854569Y-62835358D01*
X139854575Y-62835362D01*
X140019725Y-62890087D01*
X140121652Y-62900500D01*
X140121657Y-62900500D01*
X140708343Y-62900500D01*
X140708348Y-62900500D01*
X140810275Y-62890087D01*
X140975425Y-62835362D01*
X141123503Y-62744026D01*
X141246526Y-62621003D01*
X141337862Y-62472925D01*
X141392587Y-62307775D01*
X141403000Y-62205848D01*
X141403000Y-61194152D01*
X141392587Y-61092225D01*
X141337862Y-60927075D01*
X141337858Y-60927069D01*
X141337857Y-60927066D01*
X141246528Y-60779000D01*
X141246525Y-60778996D01*
X141123503Y-60655974D01*
X141123499Y-60655971D01*
X140975433Y-60564642D01*
X140975427Y-60564639D01*
X140975425Y-60564638D01*
X140873402Y-60530831D01*
X140810276Y-60509913D01*
X140708355Y-60499500D01*
X140708348Y-60499500D01*
X140121652Y-60499500D01*
X140121644Y-60499500D01*
X140019723Y-60509913D01*
X139854577Y-60564637D01*
X139854566Y-60564642D01*
X139706500Y-60655971D01*
X139706496Y-60655974D01*
X139583474Y-60778996D01*
X139583471Y-60779000D01*
X139583038Y-60779703D01*
X139582614Y-60780083D01*
X139578993Y-60784664D01*
X139578210Y-60784045D01*
X139531090Y-60826428D01*
X139462128Y-60837649D01*
X139398046Y-60809806D01*
X139376157Y-60784544D01*
X139376007Y-60784664D01*
X139373359Y-60781315D01*
X139371962Y-60779703D01*
X139371528Y-60779000D01*
X139371525Y-60778996D01*
X139248503Y-60655974D01*
X139248499Y-60655971D01*
X139100433Y-60564642D01*
X139100427Y-60564639D01*
X139100425Y-60564638D01*
X138998402Y-60530831D01*
X138935276Y-60509913D01*
X138833355Y-60499500D01*
X138833348Y-60499500D01*
X138246652Y-60499500D01*
X138246644Y-60499500D01*
X138144723Y-60509913D01*
X137979577Y-60564637D01*
X137979566Y-60564642D01*
X137831500Y-60655971D01*
X137831496Y-60655974D01*
X137708474Y-60778996D01*
X137708471Y-60779000D01*
X137617142Y-60927066D01*
X137617137Y-60927077D01*
X137562413Y-61092223D01*
X137552000Y-61194144D01*
X131207044Y-61194144D01*
X131146790Y-60400649D01*
X131069384Y-59319953D01*
X131007179Y-58372520D01*
X131007118Y-58371507D01*
X131004178Y-58320317D01*
X130959826Y-57548112D01*
X130959765Y-57546928D01*
X130927059Y-56837897D01*
X130926992Y-56836169D01*
X130908553Y-56232638D01*
X130908501Y-56229968D01*
X130908087Y-56183937D01*
X130903943Y-55723096D01*
X130903964Y-55719488D01*
X130912780Y-55300406D01*
X130912997Y-55295255D01*
X130921806Y-55155778D01*
X137349500Y-55155778D01*
X137349500Y-55444221D01*
X137349501Y-55444238D01*
X137387149Y-55730206D01*
X137387150Y-55730211D01*
X137387151Y-55730217D01*
X137461809Y-56008844D01*
X137461814Y-56008860D01*
X137572191Y-56275336D01*
X137572199Y-56275352D01*
X137716420Y-56525148D01*
X137716431Y-56525164D01*
X137892024Y-56754002D01*
X137892030Y-56754009D01*
X138095990Y-56957969D01*
X138095997Y-56957975D01*
X138235375Y-57064923D01*
X138324844Y-57133575D01*
X138324851Y-57133579D01*
X138574647Y-57277800D01*
X138574663Y-57277808D01*
X138841139Y-57388185D01*
X138841145Y-57388186D01*
X138841155Y-57388191D01*
X139119783Y-57462849D01*
X139405772Y-57500500D01*
X139405779Y-57500500D01*
X139694221Y-57500500D01*
X139694228Y-57500500D01*
X139980217Y-57462849D01*
X140258845Y-57388191D01*
X140258857Y-57388185D01*
X140258860Y-57388185D01*
X140525336Y-57277808D01*
X140525339Y-57277806D01*
X140525345Y-57277804D01*
X140775156Y-57133575D01*
X141004004Y-56957974D01*
X141207974Y-56754004D01*
X141383575Y-56525156D01*
X141527804Y-56275345D01*
X141545494Y-56232639D01*
X141638185Y-56008860D01*
X141638185Y-56008857D01*
X141638191Y-56008845D01*
X141712849Y-55730217D01*
X141750500Y-55444228D01*
X141750500Y-55155772D01*
X141712849Y-54869783D01*
X141638191Y-54591155D01*
X141638186Y-54591145D01*
X141638185Y-54591139D01*
X141527808Y-54324663D01*
X141527800Y-54324647D01*
X141383579Y-54074851D01*
X141383575Y-54074844D01*
X141207974Y-53845996D01*
X141207969Y-53845990D01*
X141004009Y-53642030D01*
X141004002Y-53642024D01*
X140775164Y-53466431D01*
X140775162Y-53466429D01*
X140775156Y-53466425D01*
X140775151Y-53466422D01*
X140775148Y-53466420D01*
X140525352Y-53322199D01*
X140525336Y-53322191D01*
X140258860Y-53211814D01*
X140258848Y-53211810D01*
X140258845Y-53211809D01*
X139980217Y-53137151D01*
X139980211Y-53137150D01*
X139980206Y-53137149D01*
X139694238Y-53099501D01*
X139694233Y-53099500D01*
X139694228Y-53099500D01*
X139405772Y-53099500D01*
X139405766Y-53099500D01*
X139405761Y-53099501D01*
X139119793Y-53137149D01*
X139119786Y-53137150D01*
X139119783Y-53137151D01*
X138939394Y-53185486D01*
X138841155Y-53211809D01*
X138841139Y-53211814D01*
X138574663Y-53322191D01*
X138574647Y-53322199D01*
X138324851Y-53466420D01*
X138324835Y-53466431D01*
X138095997Y-53642024D01*
X138095990Y-53642030D01*
X137892030Y-53845990D01*
X137892024Y-53845997D01*
X137716431Y-54074835D01*
X137716420Y-54074851D01*
X137572199Y-54324647D01*
X137572191Y-54324663D01*
X137461814Y-54591139D01*
X137461809Y-54591155D01*
X137426865Y-54721570D01*
X137387152Y-54869780D01*
X137387149Y-54869793D01*
X137349501Y-55155761D01*
X137349500Y-55155778D01*
X130921806Y-55155778D01*
X130934426Y-54955975D01*
X130935095Y-54948764D01*
X130967895Y-54681188D01*
X130969529Y-54671245D01*
X131010886Y-54471005D01*
X131015252Y-54455219D01*
X131207558Y-53904665D01*
X131217102Y-53883787D01*
X131238814Y-53845996D01*
X131488110Y-53412071D01*
X131501500Y-53393123D01*
X131872680Y-52960343D01*
X131887536Y-52945717D01*
X132188599Y-52695543D01*
X132201168Y-52686371D01*
X132607016Y-52427670D01*
X132616574Y-52422161D01*
X133110552Y-52166126D01*
X133118356Y-52162421D01*
X133681791Y-51918664D01*
X133688623Y-51915946D01*
X134303875Y-51692287D01*
X134310282Y-51690156D01*
X134960071Y-51493691D01*
X134966570Y-51491917D01*
X135634043Y-51329264D01*
X135640999Y-51327780D01*
X136312031Y-51204798D01*
X136317708Y-51203895D01*
X136860091Y-51130460D01*
X136863465Y-51130052D01*
X137433821Y-51069240D01*
X137436867Y-51068954D01*
X138023384Y-51021599D01*
X138026224Y-51021404D01*
X138619478Y-50987972D01*
X138622296Y-50987848D01*
X139212754Y-50968773D01*
X139215710Y-50968714D01*
X139794055Y-50964387D01*
X139797327Y-50964406D01*
G37*
%TD.AperFunction*%
%TD*%
M02*
